<svg xmlns="http://www.w3.org/2000/svg" viewBox="0 0 268 78" enable-background="new 0 0 268 78"><path fill-rule="evenodd" clip-rule="evenodd" fill="#fff" d="M217.7 14.5c-.9-2.8.4-5.4 3-6.8 2.5-1.4 7.3-1.4 10.3 1-3.6 2.1-2.8 5.5-5 7.3-2 1.5-5.3 1.3-6.8.7-.8 1.2-2.9 3.1-2.8 9.1-2.4-9.9 7-15 11.5-16.7-4.1.3-7.7 2.7-10.2 5.4zm-217.7 36.3c0 8.2 5.4 9.1 10.6 9.2 2.1 0 4.1-.2 6-.7 1.9-.5 3.6-1.2 5-2.2 1.4-1 2.6-2.2 3.5-3.6.9-1.4 1.3-3.2 1.3-5.1 0-1.6-.3-3-.8-4.2-.6-1.2-1.3-2.2-2.3-3.1-1-.9-2.2-1.7-3.6-2.4s-3-1.4-4.7-2.1c-1.3-.5-2.5-1-3.5-1.4-1-.4-1.9-.9-2.6-1.5-.7-.5-1.3-1.2-1.7-1.9-.4-.7-.6-1.6-.6-2.6 0-.8.2-1.6.6-2.3.4-.7.9-1.3 1.6-1.8.7-.5 1.5-.9 2.5-1.1 1-.3 2-.4 3.2-.4 3.8 0 7.2 1 10.1 2.9.5-6.2-4.5-8.3-9.2-8.3-1.9 0-3.8.2-5.6.7-1.8.5-3.5 1.2-4.9 2.2s-2.6 2.2-3.4 3.6c-.9 1.4-1.3 3.1-1.3 5 0 1.5.2 2.9.7 4 .5 1.1 1.1 2.2 2 3.1.9.9 2 1.7 3.3 2.4 1.3.7 2.9 1.4 4.6 2.1 1.3.5 2.5 1 3.6 1.4 1.1.5 2.1 1 2.9 1.5.8.6 1.5 1.2 1.9 2 .5.7.7 1.6.7 2.7 0 3.7-2.8 5.6-8.4 5.6-4.2.1-8-1.2-11.5-3.7zm54.1-10.1c5.4 0 9-1.8 8.2-7.6-.5-4-1.9-7.3-4-9.8-2.9-3.4-6.9-5.1-12.1-5.1-5.2 0-9.6 2-13.1 5.9-3.5 3.9-5.3 9-5.3 15.2 0 6.6 1.6 11.7 4.8 15.3 3.4 3.6 7.8 5.4 13.4 5.4 7 0 13.9-1.2 13.9-9.8-3.8 3-7.9 4.4-12.3 4.4-4 0-7.1-1.2-9.4-3.6-2.3-2.4-3.5-5.9-3.6-10.3h19.5zm1.6-9.8c.7 2.7 1.3 4.4-2.1 4.4h-19c.5-3.5 1.8-6.3 3.9-8.5 2.1-2.2 4.7-3.2 7.7-3.2 4.6 0 8.6 3.5 9.5 7.3zm35.2 9.8c5.4 0 9-1.8 8.2-7.6-.5-4-1.9-7.3-4-9.8-2.9-3.4-6.9-5.1-12.1-5.1-5.2 0-9.6 2-13.1 5.9-3.5 3.9-5.3 9-5.3 15.2 0 6.6 1.6 11.7 4.8 15.3 3.2 3.6 7.6 5.4 13.2 5.4 7 0 13.9-1.2 13.9-9.8-3.8 3-7.9 4.4-12.3 4.4-4 0-7.1-1.2-9.4-3.6-2.3-2.4-3.5-5.9-3.6-10.3h19.7zm1.7-9.8c.7 2.7 1.3 4.4-2.1 4.4h-19c.5-3.5 1.8-6.3 3.9-8.5 2.1-2.2 4.7-3.2 7.7-3.2 4.5 0 8.5 3.5 9.5 7.3zm45.8 22.5v-53.4c-4.8 0-6.4 2-6.4 5.9v18.8h-.1c-2.5-4.3-6.5-6.5-11.9-6.5-5.5 0-9.9 2-13.2 6-3.3 4-5 9.3-5 15.9 0 6.2 1.5 11 4.5 14.6 3 3.6 7 5.4 12 5.4 6.2 0 10.7-2.6 13.7-7.7h.1v6.8c3 0 6.3-1.1 6.3-5.8zm-9.7-2.6c-2.2 2.6-5.1 3.9-8.6 3.9-3.6 0-6.5-1.3-8.6-4-2.1-2.7-3.2-6.3-3.2-10.9 0-5 1.1-9 3.3-11.8 2.2-2.9 5.3-4.3 9.2-4.3 3.3 0 6 1.1 8.1 3.4 2.1 2.2 3.2 5 3.2 8.2v5.7c-.1 3.9-1.2 7.2-3.4 9.8zm43.2.3c-3 2.3-6.3 3.5-9.8 3.5-4.1 0-7.4-1.4-9.9-4.1-2.4-2.7-3.7-6.4-3.7-11.1 0-4.7 1.3-8.6 3.9-11.5 2.6-2.9 5.9-4.4 10-4.4 3.4 0 6.5 1 9.5 3.1 0-7.5-5.9-8.5-9.2-8.5-6.3 0-11.3 2-15 6-3.8 4-5.6 9.3-5.6 15.8 0 5.9 1.8 10.7 5.2 14.4 3.5 3.7 8.1 5.5 13.7 5.5 6.1.2 10.9-.9 10.9-8.7zm56.7-31.9c-3.9 0-6.4 1.6-6.4 6v33.9c2.1 0 6.4-.8 6.4-5.8v-34.1zm37.2 15.5c0-5.3-1.2-9.4-3.5-12.2-2.3-2.8-5.6-4.2-10-4.2-5.7 0-10.1 2.5-13 7.6h-.2v-6.6c-4.9 0-6.4 2.1-6.4 6.1v33.8c3.4 0 6.4-1.7 6.4-5.5v-17.4c0-3.7 1-6.7 3.1-9.1 2.1-2.4 4.7-3.6 7.9-3.6 6.2 0 9.2 4.2 9.2 12.7v22.8c3.7 0 6.4-2 6.4-5.5v-18.9zm-265.2 32.6v10.5h2.9c1 0 1.9-.3 2.5-.9.6-.6.9-1.3.9-2.1 0-.4-.1-.8-.2-1.1-.2-.4-.4-.7-.7-.9-.3-.2-.7-.5-1.3-.7.4-.2.8-.5 1-.9.2-.5.3-.9.3-1.4 0-.5-.1-.9-.4-1.4-.3-.4-.6-.7-1.1-.9-.4-.2-1.1-.3-1.9-.3h-2v.1zm1 1h1.2c.7 0 1.3.1 1.6.4.3.3.5.6.5 1.1 0 .4-.1.7-.3 1-.2.3-.5.5-.8.6-.3.1-.9.2-1.6.2h-.6v-3.3zm0 4.4h.6c.9 0 1.5 0 1.9.1.5.2.9.4 1.2.7.3.3.5.8.5 1.2 0 .4-.1.7-.3 1-.2.3-.5.6-.9.7-.4.1-.9.2-1.7.2h-1.3v-3.9zm10.1-5.4v10.5h1v-10.5h-1zm5.4 1h2.3v9.4h1.1v-9.4h2.3v-1h-5.7v1zm20 .9c-.5-.7-1.1-1.2-1.9-1.6-.8-.4-1.7-.6-2.6-.6-1.6 0-3 .5-4 1.6-1.1 1-1.6 2.3-1.6 3.9 0 1.5.4 2.7 1.3 3.7 1.1 1.2 2.5 1.8 4.3 1.8 1 0 1.8-.2 2.6-.5.8-.4 1.4-.9 1.9-1.5l-.8-.6c-1 1.1-2.2 1.7-3.7 1.7-1.3 0-2.4-.4-3.3-1.3-.9-.9-1.3-1.9-1.3-3.2 0-.8.2-1.6.6-2.3.4-.7.9-1.2 1.6-1.6.7-.4 1.5-.6 2.3-.6.8 0 1.5.2 2.1.5.6.3 1.2.8 1.6 1.3l.9-.7zm10-2.2c-1 0-1.9.2-2.7.7-.8.5-1.5 1.2-2 2-.5.9-.7 1.8-.7 2.8 0 1.5.5 2.8 1.6 3.9s2.4 1.6 3.9 1.6 2.8-.5 3.9-1.6 1.6-2.4 1.6-3.9-.5-2.8-1.6-3.9-2.4-1.6-4-1.6zm.1 1c.8 0 1.5.2 2.2.6.7.4 1.2.9 1.6 1.6.4.7.6 1.4.6 2.3 0 .8-.2 1.6-.6 2.3-.4.7-.9 1.2-1.6 1.6-.7.4-1.4.6-2.2.6-1.2 0-2.2-.4-3.1-1.3-.9-.9-1.3-1.9-1.3-3.1 0-.8.2-1.6.6-2.3.4-.7.9-1.2 1.6-1.6.7-.5 1.4-.7 2.2-.7zm10.4-.7v10.5h1v-10.5h-1zm6.5 10.4h1.1v-7.9l6.9 7.9h.2v-10.4h-1v8l-6.9-8h-.2v10.4h-.1zm16.6-1.9c.4.8.9 1.4 1.4 1.7.5.3 1.1.5 1.7.5.8 0 1.5-.3 2.1-.8.6-.6.9-1.2.9-2 0-.5-.2-1-.5-1.6-.3-.5-1-1.1-1.9-1.8-.8-.6-1.2-.9-1.3-1-.2-.3-.4-.5-.5-.7-.1-.2-.1-.4-.1-.7 0-.4.1-.7.4-.9.3-.3.6-.4 1-.4.3 0 .6.1.9.3.3.2.6.5 1 1l.8-.6c-.5-.7-.9-1.1-1.4-1.3-.4-.2-.9-.4-1.4-.4-.5 0-.9.1-1.3.3-.4.2-.7.5-.9.9-.2.4-.3.8-.3 1.2 0 .6.2 1.1.6 1.6.2.3.8.8 1.6 1.4.9.7 1.5 1.2 1.8 1.7.2.3.4.7.4 1 0 .3-.1.6-.2.9-.2.3-.4.5-.7.7-.3.2-.6.2-1 .2-.8 0-1.5-.6-2.2-1.7l-.9.5zm10.3-7.5h2.3v9.4h1.1v-9.4h2.3v-1h-5.7v1zm14.5-1h-.3l-4.9 10.5h1.2l1.6-3.4h4.5l1.6 3.4h1.1l-4.8-10.5zm-.1 2.2l1.8 3.8h-3.6l1.8-3.8zm9.6-2.2v10.5h1v-4.9h.6l3.7 4.9h1.3l-3.8-4.9c.9 0 1.6-.1 2.1-.3.5-.2.9-.5 1.1-1 .3-.4.4-.9.4-1.5 0-.7-.2-1.3-.6-1.7-.4-.5-.9-.8-1.5-.9-.4-.1-1.2-.1-2.4-.1h-1.9v-.1zm1.1 1h1.8c.7 0 1.2.1 1.5.2.3.1.6.3.7.6.2.3.3.6.3 1s-.1.7-.3 1c-.2.3-.4.5-.8.6-.3.1-.8.2-1.5.2h-1.8v-3.6h.1zm9.6 0h2.3v9.4h1.1v-9.4h2.3v-1h-5.7v1zm10.3-1v6.3c0 1.1.1 1.8.2 2.2.2.7.6 1.2 1.2 1.6.6.4 1.3.6 2.2.6.8 0 1.4-.2 2-.6.5-.4.9-.9 1.1-1.5.2-.6.3-1.3.3-2.3v-6.3h-1v6.3c0 .8 0 1.4-.1 1.6-.1.4-.3.7-.5.9-.2.3-.5.5-.8.6-.3.1-.6.2-1 .2s-.8-.1-1.2-.3c-.4-.2-.7-.4-.9-.7-.2-.3-.3-.6-.4-1v-7.699999999999999h-1.1v.1zm12.4 0v10.5h1v-4.9h.7c1.3 0 2.2-.1 2.7-.2.6-.2 1.2-.5 1.5-.9.4-.5.6-1 .6-1.7s-.2-1.3-.6-1.7c-.4-.5-.9-.8-1.5-.9-.4-.1-1.2-.2-2.4-.2h-2zm1.1 1h1.8c.7 0 1.2.1 1.5.2.3.1.6.3.7.6.2.3.3.6.3 1s-.1.7-.3 1c-.2.3-.4.5-.8.6-.3.1-.9.2-1.6.2h-1.8v-3.6h.2zm14.4-1v10.5h1v-10.5h-1zm6.5 10.4h1.1v-7.9l6.9 7.9h.2v-10.4h-1v8l-6.9-8h-.2v10.4h-.1zm23.4-8.5c-.5-.7-1.1-1.2-1.9-1.6-.8-.4-1.7-.6-2.6-.6-1.6 0-3 .5-4 1.6-1.1 1-1.6 2.3-1.6 3.9 0 1.5.4 2.7 1.3 3.7 1.1 1.2 2.5 1.8 4.3 1.8 1 0 1.8-.2 2.6-.5.8-.4 1.4-.9 1.9-1.5l-.8-.6c-1 1.1-2.2 1.7-3.7 1.7-1.3 0-2.4-.4-3.3-1.3-.9-.9-1.3-1.9-1.3-3.2 0-.8.2-1.6.6-2.3.4-.7.9-1.2 1.6-1.6.7-.4 1.5-.6 2.3-.6.8 0 1.5.2 2.1.5.6.3 1.2.8 1.6 1.3l.9-.7zm5.1-1.9v6.3c0 1.1.1 1.8.2 2.2.2.7.6 1.2 1.2 1.6.6.4 1.3.6 2.2.6.8 0 1.4-.2 2-.6.5-.4.9-.9 1.1-1.5.2-.6.3-1.3.3-2.3v-6.3h-1v6.3c0 .8 0 1.4-.1 1.6-.1.4-.3.7-.5.9-.2.3-.5.5-.8.6-.3.1-.6.2-1 .2s-.8-.1-1.2-.3c-.4-.2-.7-.4-.9-.7-.2-.3-.3-.6-.4-1v-7.699999999999999h-1.1v.1zm12.5 0v10.5h2.9c1 0 1.9-.3 2.5-.9.6-.6.9-1.3.9-2.1 0-.4-.1-.8-.2-1.1-.2-.4-.4-.7-.7-.9-.3-.2-.7-.5-1.3-.7.4-.2.8-.5 1-.9.2-.4.3-.8.3-1.3s-.1-.9-.4-1.4c-.3-.4-.6-.7-1.1-.9-.4-.2-1.1-.3-1.9-.3h-2zm1 1h1.2c.7 0 1.3.1 1.6.4.3.3.5.6.5 1.1 0 .4-.1.7-.3 1-.2.3-.5.5-.8.6-.3.1-.9.2-1.6.2h-.6v-3.3zm0 4.4h.6c.9 0 1.5 0 1.9.1.5.1.9.4 1.2.7.3.3.5.8.5 1.2 0 .4-.1.7-.3 1-.2.3-.5.6-.9.7-.4.1-.9.2-1.7.2h-1.3v-3.9zm14.6-5.4h-.3l-4.9 10.5h1.2l1.6-3.4h4.5l1.6 3.4h1.1l-4.8-10.5zm-.1 2.2l1.8 3.8h-3.6l1.8-3.8zm8.5-1.2h2.3v9.4h1.1v-9.4h2.3v-1h-5.7v1zm15.2-1.3c-1 0-1.9.2-2.7.7-.8.5-1.5 1.2-2 2-.5.9-.7 1.8-.7 2.8 0 1.5.5 2.8 1.6 3.9s2.4 1.6 3.9 1.6 2.8-.5 3.9-1.6 1.6-2.4 1.6-3.9-.5-2.8-1.6-3.9-2.4-1.6-4-1.6zm.1 1c.8 0 1.5.2 2.2.6.7.4 1.2.9 1.6 1.6.4.7.6 1.4.6 2.3 0 .8-.2 1.6-.6 2.3-.4.7-.9 1.2-1.6 1.6-.7.4-1.4.6-2.2.6-1.2 0-2.2-.4-3.1-1.3-.9-.9-1.3-1.9-1.3-3.1 0-.8.2-1.6.6-2.3.4-.7.9-1.2 1.6-1.6.7-.5 1.4-.7 2.2-.7zm10.6-.7v10.5h1v-4.9h.6l3.7 4.9h1.3l-3.8-4.9c.9 0 1.6-.1 2.1-.3.5-.2.9-.5 1.1-1 .3-.4.4-.9.4-1.5 0-.7-.2-1.3-.6-1.7-.4-.5-.9-.8-1.5-.9-.4-.1-1.2-.1-2.4-.1h-1.9v-.1zm2.9 1c.7 0 1.2.1 1.5.2.3.1.6.3.7.6.2.3.3.6.3 1s-.1.7-.3 1c-.2.3-.4.5-.8.6-.3.1-.8.2-1.5.2h-1.8v-3.6h1.9zm-52-46.6c.9-4.9-2.4-8.8-7.8-10.1-6-1.4-12.7 1.5-16.7 5.5 7.3 1.2 8.3 6.2 13.1 8.5 4.1 2 8.8.3 10.3-1.6-3-4.1-8.3-6.9-16.5-7.7 7.9-1.2 15.1 2.2 19.3 8.9 6.5 10.5 3.3 24.2-7.1 30.7-10.4 6.5-24.1 3.3-30.6-7.2-2.5-4-3.5-8.5-3.3-12.9-.7 5.2.3 10.6 3.3 15.4 6.8 11 21.2 14.4 32.1 7.5 12.8-7.9 14.6-26.7 3.9-37zm-3.7 29.5c-23.7 10.4-41.5-13.5-24.4-31.9-23.5 16.9 1.7 50.5 24.4 31.9zm-5.4-8.7c0-2.1-1.7-3.8-3.6-4.3 2.3-1 3-4.1 1.8-6.2-.3-.5-.7-.9-1.2-1.2-.6-.3-1.3-.5-2.1-.7v-3.1h-2.2v3h-1.7v-3h-2.2v3h-4v2c.3.1.6.2.8.3.2.1.3.2.4.4.1.2.1.4.2.7v10.6c0 .3-.1.5-.2.7-.1.2-.2.3-.4.4-.2.1-.4.2-.7.3v2.1h4v3h2.2v-3h1.7v3h2.2v-3c2.8-.4 5-1.9 5-5zm-8.3-5h-1.7v-5.4h1.7c.7 0 1.3.1 1.8.2.9.3 1.6 1.1 1.6 2.1 0 .8-.1 1.4-.4 1.9-.3.5-.6.6-1.1.8-.4.3-1 .4-1.9.4zm-1.7 1.9h2.5c.6 0 1.2.1 1.6.2 1.7.5 2.4 1.4 2.4 3 0 2-1.6 2.8-4 2.8h-2.4v-6z"/></svg>