<?xml version="1.0" encoding="utf-8"?>
<!-- Generator: Adobe Illustrator 18.1.1, SVG Export Plug-In . SVG Version: 6.00 Build 0)  -->
<!DOCTYPE svg PUBLIC "-//W3C//DTD SVG 1.1//EN" "http://www.w3.org/Graphics/SVG/1.1/DTD/svg11.dtd">
<svg version="1.1" id="Layer_1" xmlns="http://www.w3.org/2000/svg" xmlns:xlink="http://www.w3.org/1999/xlink" x="0px" y="0px"
	 width="300px" height="230.7px" viewBox="0 0 300 230.7" enable-background="new 0 0 300 230.7" xml:space="preserve">
<g>
	<g>
		<path fill="#518AFD" d="M290.3,182.6H9.7c-4.5,0-8.1-3.6-8.1-8.1V11.4c0-4.5,3.6-8.1,8.1-8.1h280.5c4.5,0,8.1,3.6,8.1,8.1v163.1
			C298.4,179,294.7,182.6,290.3,182.6z M9.7,4.8c-3.7,0-6.6,3-6.6,6.6v163.1c0,3.7,3,6.6,6.6,6.6h280.5c3.7,0,6.6-3,6.6-6.6V11.4
			c0-3.7-3-6.6-6.6-6.6H9.7z"/>
	</g>
	<g>
		<path fill="#518AFD" d="M282.5,168.7h-265V17.2h265V168.7z M19,167.3H281V18.7H19V167.3z"/>
	</g>
	<g>
		<g>
			<path fill="#518AFD" d="M225.1,177.4c-1.5,0-2.7-1.2-2.7-2.7c0-1.5,1.2-2.7,2.7-2.7c1.5,0,2.7,1.2,2.7,2.7
				C227.8,176.2,226.6,177.4,225.1,177.4z M225.1,173.5c-0.7,0-1.2,0.5-1.2,1.2c0,0.7,0.5,1.2,1.2,1.2s1.2-0.5,1.2-1.2
				C226.3,174.1,225.8,173.5,225.1,173.5z"/>
		</g>
		<g>
			<path fill="#518AFD" d="M237,177.4c-1.5,0-2.7-1.2-2.7-2.7c0-1.5,1.2-2.7,2.7-2.7s2.7,1.2,2.7,2.7
				C239.7,176.2,238.5,177.4,237,177.4z M237,173.5c-0.7,0-1.2,0.5-1.2,1.2c0,0.7,0.5,1.2,1.2,1.2s1.2-0.5,1.2-1.2
				C238.2,174.1,237.7,173.5,237,173.5z"/>
		</g>
		<g>
			<path fill="#518AFD" d="M248.9,177.4c-1.5,0-2.7-1.2-2.7-2.7c0-1.5,1.2-2.7,2.7-2.7c1.5,0,2.7,1.2,2.7,2.7
				C251.6,176.2,250.4,177.4,248.9,177.4z M248.9,173.5c-0.7,0-1.2,0.5-1.2,1.2c0,0.7,0.5,1.2,1.2,1.2s1.2-0.5,1.2-1.2
				C250.1,174.1,249.6,173.5,248.9,173.5z"/>
		</g>
		<g>
			<path fill="#518AFD" d="M260.8,177.4c-1.5,0-2.7-1.2-2.7-2.7c0-1.5,1.2-2.7,2.7-2.7c1.5,0,2.7,1.2,2.7,2.7
				C263.5,176.2,262.3,177.4,260.8,177.4z M260.8,173.5c-0.7,0-1.2,0.5-1.2,1.2c0,0.7,0.5,1.2,1.2,1.2s1.2-0.5,1.2-1.2
				C262,174.1,261.5,173.5,260.8,173.5z"/>
		</g>
		<g>
			<path fill="#518AFD" d="M272.7,177.4c-1.5,0-2.7-1.2-2.7-2.7c0-1.5,1.2-2.7,2.7-2.7c1.5,0,2.7,1.2,2.7,2.7
				C275.4,176.2,274.2,177.4,272.7,177.4z M272.7,173.5c-0.7,0-1.2,0.5-1.2,1.2c0,0.7,0.5,1.2,1.2,1.2s1.2-0.5,1.2-1.2
				C273.9,174.1,273.4,173.5,272.7,173.5z"/>
		</g>
	</g>
	<g>
		<path fill="#518AFD" d="M213.2,227H86.1v-5.3c0-4.4,3.6-8.1,8.1-8.1h111.8c4.4,0,8.1,3.6,8.1,8.1v4.6h-0.7V227z M87.5,225.5h125
			v-3.8c0-3.6-3-6.6-6.6-6.6H94.1c-3.6,0-6.6,3-6.6,6.6V225.5z"/>
	</g>
	<g>
		<g>
			<rect x="119" y="181.3" fill="#518AFD" width="2" height="34"/>
		</g>
		<g>
			<rect x="178" y="181.3" fill="#518AFD" width="1" height="34"/>
		</g>
	</g>
	<g>
		<g>
			<path fill="#518AFD" d="M106.8,131.3H89.4v-13.7H56v-14.2l32.7-48.5h18.1v47.8h7.6v14.9h-7.6V131.3z M90.9,129.8h14.5v-13.7h7.6
				v-12h-7.6V56.4H89.5l-32,47.5v12.2h33.4V129.8z M90.9,104.2H70.7l20.2-30.9V104.2z M73.4,102.7h16V78.2L73.4,102.7z"/>
		</g>
		<g>
			<path fill="#518AFD" d="M150.4,133.2c-5,0-9.4-1-13.2-3c-3.7-2-6.9-4.8-9.5-8.4c-2.5-3.5-4.5-7.9-5.7-12.9
				c-1.2-4.9-1.9-10.4-1.9-16.3c0-5.8,0.6-11.2,1.9-16.1c1.2-4.9,3.2-9.1,5.7-12.6c2.6-3.5,5.8-6.2,9.5-8.2
				c3.8-1.9,8.2-2.9,13.2-2.9c5.1,0,9.6,1,13.4,2.9c3.8,1.9,7,4.7,9.5,8.2c2.5,3.5,4.3,7.7,5.5,12.6c1.2,4.9,1.8,10.3,1.8,16.1
				c0,5.9-0.6,11.4-1.8,16.3c-1.2,5-3.1,9.3-5.6,12.9c-2.5,3.6-5.7,6.4-9.5,8.4C160.1,132.2,155.6,133.2,150.4,133.2z M150.5,54.2
				c-4.8,0-9,0.9-12.6,2.8c-3.6,1.8-6.6,4.4-9,7.7c-2.4,3.3-4.3,7.4-5.5,12.1c-1.2,4.7-1.8,10-1.8,15.8c0,5.8,0.6,11.2,1.8,16
				c1.2,4.8,3,9,5.5,12.4c2.4,3.4,5.4,6,9,7.9c3.5,1.9,7.7,2.8,12.5,2.8c4.9,0,9.2-1,12.8-2.8c3.6-1.9,6.6-4.5,9-7.9
				c2.4-3.4,4.2-7.6,5.4-12.4c1.2-4.8,1.8-10.2,1.8-16c0-5.7-0.6-11-1.8-15.8c-1.2-4.7-2.9-8.8-5.3-12.1c-2.3-3.3-5.4-5.9-9-7.7
				C159.7,55.2,155.4,54.2,150.5,54.2z M150.5,117.6c-2.4,0-4.4-0.7-6.1-2.1c-1.6-1.3-3-3.2-4-5.4c-1-2.2-1.8-4.9-2.2-7.9
				c-0.4-2.9-0.7-6.2-0.7-9.6c0-3.4,0.2-6.5,0.7-9.4c0.4-2.9,1.2-5.5,2.2-7.6c1-2.2,2.4-3.9,4-5.2c1.7-1.3,3.7-1.9,6-1.9
				c2.3,0,4.3,0.7,6,1.9c1.6,1.3,3,3,4,5.2c1,2.2,1.8,4.7,2.3,7.6c0.5,2.9,0.7,6,0.7,9.4c0,3.4-0.2,6.7-0.7,9.6
				c-0.4,3-1.2,5.6-2.2,7.9c-1,2.3-2.4,4.1-4,5.4C154.9,116.9,152.8,117.6,150.5,117.6z M150.4,69.9c-2,0-3.7,0.5-5.1,1.6
				c-1.4,1.1-2.7,2.7-3.6,4.7c-1,2-1.7,4.5-2.1,7.2c-0.4,2.8-0.6,5.9-0.6,9.2c0,3.4,0.2,6.5,0.6,9.4c0.4,2.9,1.1,5.4,2.1,7.5
				c0.9,2.1,2.2,3.7,3.6,4.9c1.4,1.2,3.1,1.7,5.2,1.7c2,0,3.6-0.6,5.1-1.7c1.4-1.2,2.7-2.8,3.6-4.9c1-2.1,1.7-4.6,2.1-7.5
				c0.4-2.9,0.6-6.1,0.6-9.4c0-3.3-0.2-6.3-0.7-9.2c-0.5-2.8-1.2-5.2-2.1-7.2c-0.9-2-2.1-3.6-3.6-4.7
				C154.1,70.5,152.4,69.9,150.4,69.9z"/>
		</g>
		<g>
			<path fill="#518AFD" d="M236.4,131.3H219v-13.7h-33.4v-14.2l0.1-0.2l32.6-48.4h18.1v47.8h7.6v14.9h-7.6V131.3z M220.5,129.8h14.5
				v-13.7h7.6v-12h-7.6V56.4H219l-32,47.5v12.2h33.4V129.8z M220.5,104.2h-20.2l20.2-30.9V104.2z M203,102.7h16V78.2L203,102.7z"/>
		</g>
	</g>
	<g>
		<polygon fill="#518AFD" points="187.3,168.6 127.1,142.4 152.4,97.6 112.3,62 186.9,18.1 187.7,19.4 114.8,62.2 154.3,97.3 
			129.1,141.7 187.8,167.2 		"/>
	</g>
	<g>
		<path fill="#518AFD" d="M150.6,179c-2.3,0-4.1-1.8-4.1-4.1c0-2.3,1.8-4.1,4.1-4.1c2.3,0,4.1,1.8,4.1,4.1
			C154.7,177.2,152.9,179,150.6,179z M150.6,172.3c-1.5,0-2.6,1.2-2.6,2.6c0,1.5,1.2,2.6,2.6,2.6s2.6-1.2,2.6-2.6
			C153.2,173.5,152,172.3,150.6,172.3z"/>
	</g>
	<g>
		<path fill="#518AFD" d="M150,12.2c-1.3,0-2.3-1-2.3-2.3c0-1.3,1-2.3,2.3-2.3c1.3,0,2.3,1,2.3,2.3C152.3,11.2,151.3,12.2,150,12.2z
			 M150,9c-0.5,0-0.9,0.4-0.9,0.9c0,0.5,0.4,0.9,0.9,0.9c0.5,0,0.9-0.4,0.9-0.9C150.9,9.4,150.5,9,150,9z"/>
	</g>
	<g>
		<path fill="#518AFD" d="M155.2,198.7h-10.7c-4.7,0-8.6-3.9-8.6-8.6v-7.4c0-0.1,0-0.2,0-0.3l1.5,0l0,0.2v7.4c0,3.9,3.2,7.1,7.1,7.1
			h10.7c3.9,0,7.1-3.2,7.1-7.1v-7.4c0-0.2,0-0.4,0-0.6l1.5-0.1c0,0.2,0,0.5,0,0.7v7.4C163.8,194.8,159.9,198.7,155.2,198.7z"/>
	</g>
</g>
</svg>
