<?xml version="1.0" encoding="utf-8"?>
<!-- Generator: Adobe Illustrator 18.1.1, SVG Export Plug-In . SVG Version: 6.00 Build 0)  -->
<!DOCTYPE svg PUBLIC "-//W3C//DTD SVG 1.1//EN" "http://www.w3.org/Graphics/SVG/1.1/DTD/svg11.dtd">
<svg version="1.1" id="Layer_1" xmlns="http://www.w3.org/2000/svg" xmlns:xlink="http://www.w3.org/1999/xlink" x="0px" y="0px"
	 width="150px" height="76px" viewBox="-149 263 300 76" enable-background="new -149 263 300 76" xml:space="preserve">
<g id="New_Symbol_3_1_">
	<g id="New_Symbol_1_1_">
	</g>
	<g id="New_Symbol_2_1_">
	</g>
	<g>
		<path id="XMLID_2_" fill="none" stroke="#568CDB" stroke-width="1.358" stroke-miterlimit="10" d="M-21.1,299.2
			c0-7.8,4.9-14.3,13.7-14.8v-13c-15.4,0.5-26.4,12.7-26.4,27.6c0,11.2,6.7,20.8,16.3,25.2l4.6-11.9C-17.8,310-21.1,305-21.1,299.2z
			"/>
		<path fill="none" stroke="#568CDB" stroke-width="1.358" stroke-miterlimit="10" d="M8.3,299.2c0,0.6,0,1.2,0,1.9l10.9,9
			c1.5-3.4,2-7,2-10.9c0-14-10.5-25.7-24.4-27.4v13.2C2.8,286.5,8.3,292.3,8.3,299.2z"/>
		<path fill="none" stroke="#568CDB" stroke-width="1.358" stroke-miterlimit="10" d="M-6.2,314c-0.8,0-1.6,0-2.3-0.2l-4.7,12
			c2.3,0.6,4.7,0.9,7.2,0.9c9.7,0,18.3-5,23.2-12.7l-10.1-8.3C4.6,310.7-0.4,314-6.2,314z"/>
		<polyline fill="none" stroke="#568CDB" stroke-width="1.358" stroke-miterlimit="10" points="10.4,284.5 19,276.2 31.3,276.2 		
			"/>
		<polyline fill="none" stroke="#568CDB" stroke-width="1.358" stroke-miterlimit="10" points="4.3,323.1 10.5,328.9 31.3,328.9 		
			"/>
		<polyline fill="none" stroke="#568CDB" stroke-width="1.358" stroke-miterlimit="10" points="-25.7,290.4 -33.1,282.8 
			-49.2,282.8 		"/>
	</g>
	<g>
		<polyline fill="none" stroke="#568CDB" stroke-width="1.358" stroke-miterlimit="10" points="65,270 65,330.7 147,330.7 		"/>
		<rect x="68.3" y="277.7" fill="none" stroke="#568CDB" stroke-width="1.358" stroke-miterlimit="10" width="15.4" height="49.5"/>
		<rect x="87.6" y="285.4" fill="none" stroke="#568CDB" stroke-width="1.358" stroke-miterlimit="10" width="15.4" height="41.9"/>
		
			<rect x="106.9" y="272.7" fill="none" stroke="#568CDB" stroke-width="1.358" stroke-miterlimit="10" width="15.4" height="54.5"/>
		
			<rect x="126.6" y="303.6" fill="none" stroke="#568CDB" stroke-width="1.358" stroke-miterlimit="10" width="15.4" height="23.6"/>
	</g>
	<g>
		<polyline fill="none" stroke="#568CDB" stroke-width="1.358" stroke-miterlimit="10" points="-145.1,270 -145.1,330.7 
			-69.6,330.7 		"/>
		<line fill="none" stroke="#568CDB" stroke-width="1.358" stroke-miterlimit="10" x1="-89.4" y1="302.8" x2="-78.3" y2="288.8"/>
		<line fill="none" stroke="#568CDB" stroke-width="1.358" stroke-miterlimit="10" x1="-103.3" y1="294.5" x2="-92.6" y2="303.3"/>
		<line fill="none" stroke="#568CDB" stroke-width="1.358" stroke-miterlimit="10" x1="-121.9" y1="315.9" x2="-106.8" y2="295"/>
		<line fill="none" stroke="#568CDB" stroke-width="1.358" stroke-miterlimit="10" x1="-131.3" y1="312.1" x2="-125.2" y2="316.3"/>
		<line fill="none" stroke="#568CDB" stroke-width="1.358" stroke-miterlimit="10" x1="-145.1" y1="330.7" x2="-134.4" y2="312.6"/>
		<circle fill="none" stroke="#568CDB" stroke-width="1.358" stroke-miterlimit="10" cx="-123.3" cy="317.6" r="2.2"/>
		<circle fill="none" stroke="#568CDB" stroke-width="1.358" stroke-miterlimit="10" cx="-133" cy="310.6" r="2.2"/>
		<circle fill="none" stroke="#568CDB" stroke-width="1.358" stroke-miterlimit="10" cx="-90.7" cy="304.4" r="2.2"/>
		<circle fill="none" stroke="#568CDB" stroke-width="1.358" stroke-miterlimit="10" cx="-105.3" cy="293.3" r="2.2"/>
		<circle fill="none" stroke="#568CDB" stroke-width="1.358" stroke-miterlimit="10" cx="-76.8" cy="287.1" r="2.2"/>
	</g>
	<rect x="33" y="274.4" fill="none" stroke="#568CDB" stroke-width="1.358" stroke-miterlimit="10" width="6.7" height="3.7"/>
	<rect x="33" y="326.7" fill="none" stroke="#568CDB" stroke-width="1.358" stroke-miterlimit="10" width="6.7" height="3.7"/>
	<rect x="-57.5" y="280.2" fill="none" stroke="#568CDB" stroke-width="1.358" stroke-miterlimit="10" width="6.7" height="3.7"/>
</g>
</svg>
