<?xml version="1.0" encoding="utf-8"?>
<!-- Generator: Adobe Illustrator 18.1.1, SVG Export Plug-In . SVG Version: 6.00 Build 0)  -->
<!DOCTYPE svg PUBLIC "-//W3C//DTD SVG 1.1//EN" "http://www.w3.org/Graphics/SVG/1.1/DTD/svg11.dtd">
<svg version="1.1" id="Layer_1" xmlns="http://www.w3.org/2000/svg" xmlns:xlink="http://www.w3.org/1999/xlink" x="0px" y="0px"
	 width="300px" height="300px" viewBox="0 0 300 300" enable-background="new 0 0 300 300" xml:space="preserve">
<g opacity="0.15" enable-background="new    ">
	<g>
		<defs>
			<rect id="SVGID_1_" width="300" height="300"/>
		</defs>
		<clipPath id="SVGID_2_">
			<use xlink:href="#SVGID_1_"  overflow="visible"/>
		</clipPath>
		<g clip-path="url(#SVGID_2_)">
			<g>
				
					<rect x="282.3" y="209.7" fill="none" stroke="#FFFFFF" stroke-width="0.9671" stroke-linecap="round" stroke-linejoin="round" width="63.9" height="36.6"/>
				
					<rect x="286" y="213.7" fill="none" stroke="#FFFFFF" stroke-width="0.9671" stroke-linecap="round" stroke-linejoin="round" width="56.4" height="28"/>
				<polyline fill="none" stroke="#FFFFFF" stroke-linecap="round" stroke-linejoin="round" points="345.9,246.1 356.3,256.7 
					271.9,256.7 282.3,246.3 				"/>
				<polyline fill="none" stroke="#FFFFFF" stroke-linecap="round" stroke-linejoin="round" points="356.1,257.1 356.1,260.1 
					272.1,260.1 272.1,257.1 				"/>
				<polygon fill="none" stroke="#FFFFFF" stroke-linecap="round" stroke-linejoin="round" points="284.6,247.3 278.7,255 
					330.3,255 329.1,247.3 				"/>
				
					<line fill="none" stroke="#FFFFFF" stroke-linecap="round" stroke-linejoin="round" x1="286.3" y1="218.1" x2="342" y2="218.1"/>
				<g>
					
						<circle fill="none" stroke="#FFFFFF" stroke-width="0.9671" stroke-linecap="round" stroke-linejoin="round" cx="303.7" cy="228.4" r="5.1"/>
				</g>
				
					<line fill="none" stroke="#FFFFFF" stroke-linecap="round" stroke-linejoin="round" x1="286.3" y1="238.7" x2="342" y2="238.7"/>
				
					<rect x="288.2" y="215.7" fill="none" stroke="#FFFFFF" stroke-width="0.9671" stroke-linecap="round" stroke-linejoin="round" width="37.8" height="1.2"/>
				
					<line fill="none" stroke="#FFFFFF" stroke-width="0.9671" stroke-linecap="round" stroke-linejoin="round" x1="288.3" y1="248.1" x2="283.8" y2="253.5"/>
				
					<line fill="none" stroke="#FFFFFF" stroke-width="0.9671" stroke-linecap="round" stroke-linejoin="round" x1="288.6" y1="253.5" x2="293.1" y2="248.1"/>
				
					<line fill="none" stroke="#FFFFFF" stroke-width="0.9671" stroke-linecap="round" stroke-linejoin="round" x1="293.8" y1="253.5" x2="297.8" y2="248.1"/>
				
					<line fill="none" stroke="#FFFFFF" stroke-width="0.9671" stroke-linecap="round" stroke-linejoin="round" x1="298.1" y1="253.6" x2="301.9" y2="248.1"/>
				<line fill="none" stroke="#FFFFFF" stroke-linecap="round" stroke-linejoin="round" x1="284.6" y1="249" x2="329.1" y2="249"/>
				
					<line fill="none" stroke="#FFFFFF" stroke-linecap="round" stroke-linejoin="round" x1="281.1" y1="251.6" x2="330" y2="251.6"/>
			</g>
			<g>
				<path fill="none" stroke="#FFFFFF" stroke-width="0.9671" stroke-linecap="round" stroke-linejoin="round" d="M320.8,302.1
					h-32.9c-1.1,0-2-0.9-2-2v-17.6c0-0.8,0.7-1.5,1.5-1.5h35.4v19C322.8,301.2,321.9,302.1,320.8,302.1z"/>
				<path fill="none" stroke="#FFFFFF" stroke-width="0.9671" stroke-linecap="round" stroke-linejoin="round" d="M321.3,281v-4.4
					h-31.7c0,0-3.8,0.3-3.8,4.4v1.2"/>
				<path fill="none" stroke="#FFFFFF" stroke-linecap="round" stroke-linejoin="round" d="M319.3,281.1v-3h-29.4
					c0,0-2.6,0.8-2.6,2.9"/>
				
					<line fill="none" stroke="#FFFFFF" stroke-linecap="round" stroke-linejoin="round" x1="289.7" y1="279.9" x2="318" y2="279.9"/>
			</g>
		</g>
	</g>
	<g>
		<defs>
			<rect id="SVGID_3_" width="300" height="300"/>
		</defs>
		<clipPath id="SVGID_4_">
			<use xlink:href="#SVGID_3_"  overflow="visible"/>
		</clipPath>
		<g clip-path="url(#SVGID_4_)">
			<g>
				
					<rect x="132.3" y="209.7" fill="none" stroke="#FFFFFF" stroke-width="0.9671" stroke-linecap="round" stroke-linejoin="round" width="63.9" height="36.6"/>
				
					<rect x="136" y="213.7" fill="none" stroke="#FFFFFF" stroke-width="0.9671" stroke-linecap="round" stroke-linejoin="round" width="56.4" height="28"/>
				<polyline fill="none" stroke="#FFFFFF" stroke-linecap="round" stroke-linejoin="round" points="195.9,246.1 206.3,256.7 
					121.9,256.7 132.3,246.3 				"/>
				<polyline fill="none" stroke="#FFFFFF" stroke-linecap="round" stroke-linejoin="round" points="205.3,257.1 205.3,260.1 
					123,260.1 123,257.1 				"/>
				<polygon fill="none" stroke="#FFFFFF" stroke-linecap="round" stroke-linejoin="round" points="134.6,247.3 128.7,255 
					180.3,255 179.1,247.3 				"/>
				<polygon fill="none" stroke="#FFFFFF" stroke-linecap="round" stroke-linejoin="round" points="181.1,247.3 182.7,255 
					199.6,255 194.6,247.3 				"/>
				
					<line fill="none" stroke="#FFFFFF" stroke-linecap="round" stroke-linejoin="round" x1="136.3" y1="218.1" x2="192" y2="218.1"/>
				<g>
					
						<circle fill="none" stroke="#FFFFFF" stroke-width="0.9671" stroke-linecap="round" stroke-linejoin="round" cx="153.7" cy="228.4" r="5.1"/>
					
						<rect x="166.4" y="224.7" fill="none" stroke="#FFFFFF" stroke-width="0.9671" stroke-linecap="round" stroke-linejoin="round" width="13.7" height="1.8"/>
					
						<rect x="166.4" y="228.3" fill="none" stroke="#FFFFFF" stroke-width="0.9671" stroke-linecap="round" stroke-linejoin="round" width="13.7" height="1.8"/>
					<path fill="none" stroke="#FFFFFF" stroke-width="0.9671" stroke-linecap="round" stroke-linejoin="round" d="M174,234.9h-5.4
						c-0.9,0-1.5-0.7-1.5-1.5l0,0c0-0.9,0.7-1.5,1.5-1.5h5.4c0.9,0,1.5,0.7,1.5,1.5l0,0C175.5,234.2,174.8,234.9,174,234.9z"/>
				</g>
				
					<line fill="none" stroke="#FFFFFF" stroke-linecap="round" stroke-linejoin="round" x1="136.3" y1="238.7" x2="192" y2="238.7"/>
				
					<rect x="138.2" y="215.7" fill="none" stroke="#FFFFFF" stroke-width="0.9671" stroke-linecap="round" stroke-linejoin="round" width="37.8" height="1.2"/>
				
					<circle fill="none" stroke="#FFFFFF" stroke-width="0.9671" stroke-linecap="round" stroke-linejoin="round" cx="178.8" cy="216" r="0.7"/>
				
					<circle fill="none" stroke="#FFFFFF" stroke-width="0.9671" stroke-linecap="round" stroke-linejoin="round" cx="182.3" cy="216" r="0.7"/>
				
					<line fill="none" stroke="#FFFFFF" stroke-width="0.9671" stroke-linecap="round" stroke-linejoin="round" x1="185.2" y1="248.1" x2="187.6" y2="253.4"/>
				
					<line fill="none" stroke="#FFFFFF" stroke-width="0.9671" stroke-linecap="round" stroke-linejoin="round" x1="190.1" y1="248.2" x2="192.9" y2="253.5"/>
				<line fill="none" stroke="#FFFFFF" stroke-linecap="round" stroke-linejoin="round" x1="181.7" y1="249" x2="196.3" y2="249"/>
				
					<line fill="none" stroke="#FFFFFF" stroke-width="0.9671" stroke-linecap="round" stroke-linejoin="round" x1="182.3" y1="251.5" x2="197.1" y2="251.6"/>
				
					<line fill="none" stroke="#FFFFFF" stroke-width="0.9671" stroke-linecap="round" stroke-linejoin="round" x1="138.3" y1="248.1" x2="133.8" y2="253.5"/>
				
					<line fill="none" stroke="#FFFFFF" stroke-width="0.9671" stroke-linecap="round" stroke-linejoin="round" x1="175.3" y1="248.2" x2="175.8" y2="253.2"/>
				
					<line fill="none" stroke="#FFFFFF" stroke-linecap="round" stroke-linejoin="round" x1="171.9" y1="247.7" x2="171.9" y2="254.6"/>
				
					<line fill="none" stroke="#FFFFFF" stroke-width="0.9671" stroke-linecap="round" stroke-linejoin="round" x1="167" y1="248.1" x2="166.3" y2="253.3"/>
				
					<line fill="none" stroke="#FFFFFF" stroke-width="0.9671" stroke-linecap="round" stroke-linejoin="round" x1="162.5" y1="248.1" x2="161.3" y2="253.4"/>
				
					<line fill="none" stroke="#FFFFFF" stroke-width="0.9671" stroke-linecap="round" stroke-linejoin="round" x1="159" y1="248.2" x2="157" y2="253.2"/>
				
					<line fill="none" stroke="#FFFFFF" stroke-width="0.9671" stroke-linecap="round" stroke-linejoin="round" x1="155.6" y1="248.1" x2="152.6" y2="253.3"/>
				
					<line fill="none" stroke="#FFFFFF" stroke-width="0.9671" stroke-linecap="round" stroke-linejoin="round" x1="138.6" y1="253.5" x2="143.1" y2="248.1"/>
				
					<line fill="none" stroke="#FFFFFF" stroke-width="0.9671" stroke-linecap="round" stroke-linejoin="round" x1="143.8" y1="253.5" x2="147.8" y2="248.1"/>
				
					<line fill="none" stroke="#FFFFFF" stroke-width="0.9671" stroke-linecap="round" stroke-linejoin="round" x1="148.1" y1="253.6" x2="151.9" y2="248.1"/>
				<line fill="none" stroke="#FFFFFF" stroke-linecap="round" stroke-linejoin="round" x1="133.7" y1="249" x2="178.3" y2="249"/>
				
					<line fill="none" stroke="#FFFFFF" stroke-linecap="round" stroke-linejoin="round" x1="131.1" y1="251.6" x2="179.1" y2="251.6"/>
			</g>
			<g>
				
					<rect x="198.3" y="277.4" fill="none" stroke="#FFFFFF" stroke-width="0.9671" stroke-linecap="round" stroke-linejoin="round" width="66.1" height="45.9"/>
				
					<rect x="201.6" y="281.1" fill="none" stroke="#FFFFFF" stroke-width="0.9671" stroke-linecap="round" stroke-linejoin="round" width="59.6" height="38.6"/>
				<g>
					<path fill="none" stroke="#FFFFFF" stroke-width="0.9671" stroke-linecap="round" stroke-linejoin="round" d="M235.7,303
						c1.3,0.7,1.9,1.6,1.3,3.4c-0.8,2.1-2.6,2.3-5,1.9l-0.6,2.3l-1.4-0.3l0.6-2.3c-0.3-0.1-0.8-0.2-1.1-0.3l-0.6,2.3l-1.4-0.3
						l0.6-2.3c-0.3-0.1-0.7-0.2-1-0.3l-1.8-0.4l0.7-1.6l1,0.3c0.4,0.1,0.6-0.2,0.7-0.3l0.9-3.7l0,0l0.7-2.7c0-0.3-0.1-0.7-0.7-0.9
						l-1-0.3l0.3-1.5l2,0.5l0,0c0.3,0.1,0.6,0.2,0.9,0.2l0.6-2.3l1.4,0.3l-0.6,2.2c0.3,0.1,0.8,0.2,1.1,0.3l0.6-2.2l1.4,0.3
						l-0.6,2.3c1.8,0.6,3.1,1.5,2.8,3.3C237.3,302.2,236.7,302.8,235.7,303z M230.7,302.9L230,306c0.9,0.3,3.9,1.2,4.4-0.6
						C234.8,303.7,231.7,303.2,230.7,302.9z M231.8,298.7l-0.7,2.8c0.8,0.2,3.3,1,3.6-0.6C235.1,299.3,232.5,298.9,231.8,298.7z"/>
					
						<circle fill="none" stroke="#FFFFFF" stroke-width="0.9671" stroke-linecap="round" stroke-linejoin="round" cx="231.6" cy="302.8" r="12.3"/>
					
						<circle fill="none" stroke="#FFFFFF" stroke-width="0.9671" stroke-linecap="round" stroke-linejoin="round" cx="231.6" cy="302.7" r="9.7"/>
				</g>
				
					<line fill="none" stroke="#FFFFFF" stroke-linecap="round" stroke-linejoin="round" x1="202.3" y1="286.7" x2="261.4" y2="286.7"/>
				
					<rect x="203.5" y="283.1" fill="none" stroke="#FFFFFF" stroke-width="0.9671" stroke-linecap="round" stroke-linejoin="round" width="40.8" height="2"/>
				
					<circle fill="none" stroke="#FFFFFF" stroke-width="0.9671" stroke-linecap="round" stroke-linejoin="round" cx="248" cy="283.7" r="1"/>
				
					<circle fill="none" stroke="#FFFFFF" stroke-width="0.9671" stroke-linecap="round" stroke-linejoin="round" cx="251.5" cy="283.7" r="1"/>
			</g>
			<g>
				<path fill="none" stroke="#FFFFFF" stroke-width="0.9671" stroke-linecap="round" stroke-linejoin="round" d="M170.8,302.1
					h-32.9c-1.1,0-2-0.9-2-2v-17.6c0-0.8,0.7-1.5,1.5-1.5h35.4v19C172.8,301.2,171.9,302.1,170.8,302.1z"/>
				<path fill="none" stroke="#FFFFFF" stroke-width="0.9671" stroke-linecap="round" stroke-linejoin="round" d="M171.3,281v-4.4
					h-31.7c0,0-3.8,0.3-3.8,4.4v1.2"/>
				<polyline fill="none" stroke="#FFFFFF" stroke-width="0.9671" stroke-linecap="round" stroke-linejoin="round" points="
					172.6,288.7 163.3,288.7 163.3,295.1 172.5,295.1 				"/>
				<path fill="none" stroke="#FFFFFF" stroke-linecap="round" stroke-linejoin="round" d="M169.3,281.1v-3h-29.4
					c0,0-2.6,0.8-2.6,2.9"/>
				
					<circle fill="none" stroke="#FFFFFF" stroke-width="0.9671" stroke-linecap="round" stroke-linejoin="round" cx="166.1" cy="291.6" r="1.5"/>
				
					<line fill="none" stroke="#FFFFFF" stroke-linecap="round" stroke-linejoin="round" x1="139.7" y1="279.9" x2="168.9" y2="279.9"/>
			</g>
		</g>
	</g>
	<g>
		<defs>
			<rect id="SVGID_5_" width="300" height="300"/>
		</defs>
		<clipPath id="SVGID_6_">
			<use xlink:href="#SVGID_5_"  overflow="visible"/>
		</clipPath>
		<g clip-path="url(#SVGID_6_)">
			<g>
				
					<rect x="-17.7" y="209.7" fill="none" stroke="#FFFFFF" stroke-width="0.9671" stroke-linecap="round" stroke-linejoin="round" width="63.9" height="36.6"/>
				
					<rect x="-14" y="213.7" fill="none" stroke="#FFFFFF" stroke-width="0.9671" stroke-linecap="round" stroke-linejoin="round" width="56.4" height="28"/>
				<polyline fill="none" stroke="#FFFFFF" stroke-linecap="round" stroke-linejoin="round" points="45.9,246.1 56.3,256.7 
					-28.1,256.7 -17.7,246.3 				"/>
				<polyline fill="none" stroke="#FFFFFF" stroke-linecap="round" stroke-linejoin="round" points="56.1,257.1 56.1,260.1 
					-27.9,260.1 -27.9,257.1 				"/>
				<polygon fill="none" stroke="#FFFFFF" stroke-linecap="round" stroke-linejoin="round" points="-15.4,247.3 -21.3,255 30.3,255 
					29.1,247.3 				"/>
				<polygon fill="none" stroke="#FFFFFF" stroke-linecap="round" stroke-linejoin="round" points="31.1,247.3 32.7,255 49.6,255 
					44.6,247.3 				"/>
				<line fill="none" stroke="#FFFFFF" stroke-linecap="round" stroke-linejoin="round" x1="-13.7" y1="218.1" x2="42" y2="218.1"/>
				<g>
					
						<circle fill="none" stroke="#FFFFFF" stroke-width="0.9671" stroke-linecap="round" stroke-linejoin="round" cx="3.7" cy="228.4" r="5.1"/>
					
						<rect x="16.4" y="224.7" fill="none" stroke="#FFFFFF" stroke-width="0.9671" stroke-linecap="round" stroke-linejoin="round" width="13.7" height="1.8"/>
					
						<rect x="16.4" y="228.3" fill="none" stroke="#FFFFFF" stroke-width="0.9671" stroke-linecap="round" stroke-linejoin="round" width="13.7" height="1.8"/>
					<path fill="none" stroke="#FFFFFF" stroke-width="0.9671" stroke-linecap="round" stroke-linejoin="round" d="M24,234.9h-5.4
						c-0.9,0-1.5-0.7-1.5-1.5l0,0c0-0.9,0.7-1.5,1.5-1.5H24c0.9,0,1.5,0.7,1.5,1.5l0,0C25.5,234.2,24.8,234.9,24,234.9z"/>
				</g>
				<line fill="none" stroke="#FFFFFF" stroke-linecap="round" stroke-linejoin="round" x1="-13.7" y1="238.7" x2="42" y2="238.7"/>
				
					<rect x="-11.8" y="215.7" fill="none" stroke="#FFFFFF" stroke-width="0.9671" stroke-linecap="round" stroke-linejoin="round" width="37.8" height="1.2"/>
				
					<circle fill="none" stroke="#FFFFFF" stroke-width="0.9671" stroke-linecap="round" stroke-linejoin="round" cx="28.8" cy="216" r="0.7"/>
				
					<circle fill="none" stroke="#FFFFFF" stroke-width="0.9671" stroke-linecap="round" stroke-linejoin="round" cx="32.3" cy="216" r="0.7"/>
				
					<line fill="none" stroke="#FFFFFF" stroke-width="0.9671" stroke-linecap="round" stroke-linejoin="round" x1="35.2" y1="248.1" x2="37.6" y2="253.4"/>
				
					<line fill="none" stroke="#FFFFFF" stroke-width="0.9671" stroke-linecap="round" stroke-linejoin="round" x1="40.1" y1="248.2" x2="42.9" y2="253.5"/>
				<line fill="none" stroke="#FFFFFF" stroke-linecap="round" stroke-linejoin="round" x1="31.7" y1="249" x2="46.3" y2="249"/>
				
					<line fill="none" stroke="#FFFFFF" stroke-width="0.9671" stroke-linecap="round" stroke-linejoin="round" x1="32.3" y1="251.5" x2="47.1" y2="251.6"/>
				
					<line fill="none" stroke="#FFFFFF" stroke-width="0.9671" stroke-linecap="round" stroke-linejoin="round" x1="25.3" y1="248.2" x2="25.8" y2="253.2"/>
				<line fill="none" stroke="#FFFFFF" stroke-linecap="round" stroke-linejoin="round" x1="21" y1="247.7" x2="21" y2="254.6"/>
				
					<line fill="none" stroke="#FFFFFF" stroke-width="0.9671" stroke-linecap="round" stroke-linejoin="round" x1="17" y1="248.1" x2="16.3" y2="253.3"/>
				
					<line fill="none" stroke="#FFFFFF" stroke-width="0.9671" stroke-linecap="round" stroke-linejoin="round" x1="12.5" y1="248.1" x2="11.3" y2="253.4"/>
				
					<line fill="none" stroke="#FFFFFF" stroke-width="0.9671" stroke-linecap="round" stroke-linejoin="round" x1="9" y1="248.2" x2="7" y2="253.2"/>
				
					<line fill="none" stroke="#FFFFFF" stroke-width="0.9671" stroke-linecap="round" stroke-linejoin="round" x1="5.6" y1="248.1" x2="2.6" y2="253.3"/>
				
					<line fill="none" stroke="#FFFFFF" stroke-width="0.9671" stroke-linecap="round" stroke-linejoin="round" x1="-1.9" y1="253.6" x2="1.9" y2="248.1"/>
				<line fill="none" stroke="#FFFFFF" stroke-linecap="round" stroke-linejoin="round" x1="-15.4" y1="249" x2="29.1" y2="249"/>
				
					<line fill="none" stroke="#FFFFFF" stroke-linecap="round" stroke-linejoin="round" x1="-18.9" y1="251.6" x2="29.1" y2="251.6"/>
			</g>
			<g>
				
					<rect x="48.3" y="277.4" fill="none" stroke="#FFFFFF" stroke-width="0.9671" stroke-linecap="round" stroke-linejoin="round" width="66.1" height="45.9"/>
				
					<rect x="51.6" y="281.1" fill="none" stroke="#FFFFFF" stroke-width="0.9671" stroke-linecap="round" stroke-linejoin="round" width="59.6" height="38.6"/>
				<g>
					<path fill="none" stroke="#FFFFFF" stroke-width="0.9671" stroke-linecap="round" stroke-linejoin="round" d="M85.7,303
						c1.3,0.7,1.9,1.6,1.3,3.4c-0.8,2.1-2.6,2.3-5,1.9l-0.6,2.3l-1.4-0.3l0.6-2.3c-0.3-0.1-0.8-0.2-1.1-0.3l-0.6,2.3l-1.4-0.3
						l0.6-2.3c-0.3-0.1-0.7-0.2-1-0.3l-1.8-0.4l0.7-1.6l1,0.3c0.4,0.1,0.6-0.2,0.7-0.3l0.9-3.7l0,0l0.7-2.7c0-0.3-0.1-0.7-0.7-0.9
						l-1-0.3L78,296l2,0.5l0,0c0.3,0.1,0.6,0.2,0.9,0.2l0.6-2.3l1.4,0.3l-0.6,2.2c0.3,0.1,0.8,0.2,1.1,0.3l0.6-2.2l1.4,0.3l-0.6,2.3
						c1.8,0.6,3.1,1.5,2.8,3.3C87.3,302.2,86.7,302.8,85.7,303z M80.7,302.9L80,306c0.9,0.3,3.9,1.2,4.4-0.6
						C84.8,303.7,81.7,303.2,80.7,302.9z M81.8,298.7l-0.7,2.8c0.8,0.2,3.3,1,3.6-0.6C85.1,299.3,82.5,298.9,81.8,298.7z"/>
					
						<circle fill="none" stroke="#FFFFFF" stroke-width="0.9671" stroke-linecap="round" stroke-linejoin="round" cx="81.6" cy="302.8" r="12.3"/>
					
						<circle fill="none" stroke="#FFFFFF" stroke-width="0.9671" stroke-linecap="round" stroke-linejoin="round" cx="81.6" cy="302.7" r="9.7"/>
				</g>
				
					<line fill="none" stroke="#FFFFFF" stroke-linecap="round" stroke-linejoin="round" x1="52.3" y1="286.7" x2="110.6" y2="286.7"/>
				
					<rect x="53.5" y="283.1" fill="none" stroke="#FFFFFF" stroke-width="0.9671" stroke-linecap="round" stroke-linejoin="round" width="40.8" height="2"/>
				
					<circle fill="none" stroke="#FFFFFF" stroke-width="0.9671" stroke-linecap="round" stroke-linejoin="round" cx="98" cy="283.7" r="1"/>
				
					<circle fill="none" stroke="#FFFFFF" stroke-width="0.9671" stroke-linecap="round" stroke-linejoin="round" cx="101.5" cy="283.7" r="1"/>
			</g>
			<g>
				<path fill="none" stroke="#FFFFFF" stroke-width="0.9671" stroke-linecap="round" stroke-linejoin="round" d="M20.8,302.1h-32.9
					c-1.1,0-2-0.9-2-2v-17.6c0-0.8,0.7-1.5,1.5-1.5h35.4v19C22.8,301.2,21.9,302.1,20.8,302.1z"/>
				<path fill="none" stroke="#FFFFFF" stroke-width="0.9671" stroke-linecap="round" stroke-linejoin="round" d="M21.3,281v-4.4
					h-31.7c0,0-3.8,0.3-3.8,4.4v1.2"/>
				<polyline fill="none" stroke="#FFFFFF" stroke-width="0.9671" stroke-linecap="round" stroke-linejoin="round" points="
					22.6,288.7 13.3,288.7 13.3,295.1 22.5,295.1 				"/>
				<path fill="none" stroke="#FFFFFF" stroke-linecap="round" stroke-linejoin="round" d="M19.3,281.1v-3h-29.4
					c0,0-2.6,0.8-2.6,2.9"/>
				
					<circle fill="none" stroke="#FFFFFF" stroke-width="0.9671" stroke-linecap="round" stroke-linejoin="round" cx="16.1" cy="291.6" r="1.5"/>
				<line fill="none" stroke="#FFFFFF" stroke-linecap="round" stroke-linejoin="round" x1="-10.3" y1="279.9" x2="18" y2="279.9"/>
			</g>
		</g>
	</g>
	<g>
		<defs>
			<rect id="SVGID_7_" width="300" height="300"/>
		</defs>
		<clipPath id="SVGID_8_">
			<use xlink:href="#SVGID_7_"  overflow="visible"/>
		</clipPath>
		<g clip-path="url(#SVGID_8_)">
			<path fill="none" stroke="#FFFFFF" stroke-width="0.9671" stroke-linecap="round" stroke-linejoin="round" d="M252.4,230
				c2.5,1.3,3.7,3.3,2.5,6.7c-1.5,4.2-5,4.5-9.7,3.7l-1.1,4.5l-2.7-0.7l1.1-4.5c-0.7-0.2-1.5-0.3-2.1-0.6l-1.1,4.5l-2.7-0.7l1.1-4.5
				c-0.6-0.2-1.3-0.3-2-0.5l-3.6-0.9l1.4-3.2c0,0,2.1,0.5,2,0.5c0.8,0.2,1.1-0.3,1.3-0.7l1.8-7.2l0,0l1.3-5.1c0-0.6-0.2-1.3-1.3-1.6
				l-2-0.5l0.8-2.9l3.8,0.9l0,0c0.6,0.2,1.1,0.3,1.7,0.4l1.1-4.5l2.7,0.7l-1.1,4.4c0.8,0.2,1.5,0.3,2.2,0.5l1.1-4.4l2.7,0.7
				l-1.1,4.5c3.4,1.2,6,3,5.5,6.3C255.6,228.3,254.2,229.5,252.4,230z M242.7,229.8l-1.5,6c1.9,0.4,7.5,2.3,8.4-1.1
				C250.5,231.2,244.6,230.2,242.7,229.8z M244.8,221.6l-1.4,5.5c1.5,0.3,6.3,2,7.1-1.1C251.3,222.6,246.3,221.9,244.8,221.6z"/>
			<g>
				
					<rect x="207.3" y="59.7" fill="none" stroke="#FFFFFF" stroke-width="0.9671" stroke-linecap="round" stroke-linejoin="round" width="63.9" height="36.6"/>
				
					<rect x="211" y="63.7" fill="none" stroke="#FFFFFF" stroke-width="0.9671" stroke-linecap="round" stroke-linejoin="round" width="56.4" height="28"/>
				<polyline fill="none" stroke="#FFFFFF" stroke-linecap="round" stroke-linejoin="round" points="270.9,96.1 281.3,106.7 
					196.9,106.7 207.3,96.3 				"/>
				<polyline fill="none" stroke="#FFFFFF" stroke-linecap="round" stroke-linejoin="round" points="281.6,107.1 281.6,109.3 
					197.6,109.3 197.6,107.1 				"/>
				<polygon fill="none" stroke="#FFFFFF" stroke-linecap="round" stroke-linejoin="round" points="209.6,98.1 203.7,104.1 
					255.3,104.1 254.1,98.1 				"/>
				<polygon fill="none" stroke="#FFFFFF" stroke-linecap="round" stroke-linejoin="round" points="256.1,98.1 257.7,104.1 
					274.6,104.1 269.6,98.1 				"/>
				<line fill="none" stroke="#FFFFFF" stroke-linecap="round" stroke-linejoin="round" x1="211.7" y1="69" x2="267.4" y2="69"/>
				<g>
					
						<circle fill="none" stroke="#FFFFFF" stroke-width="0.9671" stroke-linecap="round" stroke-linejoin="round" cx="228.7" cy="78.4" r="5.1"/>
					
						<rect x="241.4" y="74.7" fill="none" stroke="#FFFFFF" stroke-width="0.9671" stroke-linecap="round" stroke-linejoin="round" width="13.7" height="1.8"/>
					
						<rect x="241.4" y="78.3" fill="none" stroke="#FFFFFF" stroke-width="0.9671" stroke-linecap="round" stroke-linejoin="round" width="13.7" height="1.8"/>
					<path fill="none" stroke="#FFFFFF" stroke-width="0.9671" stroke-linecap="round" stroke-linejoin="round" d="M249,84.9h-5.4
						c-0.9,0-1.5-0.7-1.5-1.5l0,0c0-0.9,0.7-1.5,1.5-1.5h5.4c0.9,0,1.5,0.7,1.5,1.5l0,0C250.5,84.2,249.8,84.9,249,84.9z"/>
				</g>
				
					<line fill="none" stroke="#FFFFFF" stroke-linecap="round" stroke-linejoin="round" x1="211.7" y1="87.9" x2="267.4" y2="87.9"/>
				
					<rect x="213.2" y="65.7" fill="none" stroke="#FFFFFF" stroke-width="0.9671" stroke-linecap="round" stroke-linejoin="round" width="37.8" height="1.2"/>
				
					<circle fill="none" stroke="#FFFFFF" stroke-width="0.9671" stroke-linecap="round" stroke-linejoin="round" cx="253.8" cy="66" r="0.7"/>
				
					<circle fill="none" stroke="#FFFFFF" stroke-width="0.9671" stroke-linecap="round" stroke-linejoin="round" cx="257.3" cy="66" r="0.7"/>
				
					<line fill="none" stroke="#FFFFFF" stroke-width="0.9671" stroke-linecap="round" stroke-linejoin="round" x1="260.2" y1="98.1" x2="262.6" y2="103.4"/>
				
					<line fill="none" stroke="#FFFFFF" stroke-width="0.9671" stroke-linecap="round" stroke-linejoin="round" x1="265.1" y1="98.2" x2="267.9" y2="103.5"/>
				
					<line fill="none" stroke="#FFFFFF" stroke-linecap="round" stroke-linejoin="round" x1="257.1" y1="99.9" x2="270.9" y2="99.9"/>
				
					<line fill="none" stroke="#FFFFFF" stroke-width="0.9671" stroke-linecap="round" stroke-linejoin="round" x1="257.3" y1="101.5" x2="272.1" y2="101.6"/>
				
					<line fill="none" stroke="#FFFFFF" stroke-width="0.9671" stroke-linecap="round" stroke-linejoin="round" x1="213.3" y1="98.1" x2="208.8" y2="103.5"/>
				
					<line fill="none" stroke="#FFFFFF" stroke-width="0.9671" stroke-linecap="round" stroke-linejoin="round" x1="250.3" y1="98.2" x2="250.8" y2="103.2"/>
				
					<line fill="none" stroke="#FFFFFF" stroke-linecap="round" stroke-linejoin="round" x1="246.4" y1="98.6" x2="246.4" y2="103.7"/>
				
					<line fill="none" stroke="#FFFFFF" stroke-width="0.9671" stroke-linecap="round" stroke-linejoin="round" x1="242" y1="98.1" x2="241.3" y2="103.3"/>
				
					<line fill="none" stroke="#FFFFFF" stroke-width="0.9671" stroke-linecap="round" stroke-linejoin="round" x1="237.5" y1="98.1" x2="236.3" y2="103.4"/>
				
					<line fill="none" stroke="#FFFFFF" stroke-width="0.9671" stroke-linecap="round" stroke-linejoin="round" x1="234" y1="98.2" x2="232" y2="103.2"/>
				
					<line fill="none" stroke="#FFFFFF" stroke-width="0.9671" stroke-linecap="round" stroke-linejoin="round" x1="230.6" y1="98.1" x2="227.6" y2="103.3"/>
				
					<line fill="none" stroke="#FFFFFF" stroke-width="0.9671" stroke-linecap="round" stroke-linejoin="round" x1="213.6" y1="103.5" x2="218.1" y2="98.1"/>
				
					<line fill="none" stroke="#FFFFFF" stroke-width="0.9671" stroke-linecap="round" stroke-linejoin="round" x1="218.8" y1="103.5" x2="222.8" y2="98.1"/>
				
					<line fill="none" stroke="#FFFFFF" stroke-width="0.9671" stroke-linecap="round" stroke-linejoin="round" x1="223.1" y1="103.6" x2="226.9" y2="98.1"/>
				
					<line fill="none" stroke="#FFFFFF" stroke-linecap="round" stroke-linejoin="round" x1="209.1" y1="99.9" x2="252.9" y2="99.9"/>
				
					<line fill="none" stroke="#FFFFFF" stroke-linecap="round" stroke-linejoin="round" x1="205.7" y1="101.6" x2="253.7" y2="101.6"/>
			</g>
			<g>
				
					<rect x="273.3" y="127.4" fill="none" stroke="#FFFFFF" stroke-width="0.9671" stroke-linecap="round" stroke-linejoin="round" width="66.1" height="45.9"/>
				
					<rect x="294.3" y="181.4" fill="none" stroke="#FFFFFF" stroke-width="0.9671" stroke-linecap="round" stroke-linejoin="round" width="24.3" height="5.1"/>
				
					<rect x="276.6" y="131.1" fill="none" stroke="#FFFFFF" stroke-width="0.9671" stroke-linecap="round" stroke-linejoin="round" width="59.6" height="38.6"/>
				<g>
					<path fill="none" stroke="#FFFFFF" stroke-width="0.9671" stroke-linecap="round" stroke-linejoin="round" d="M310.7,153
						c1.3,0.7,1.9,1.6,1.3,3.4c-0.8,2.1-2.6,2.3-5,1.9l-0.6,2.3l-1.4-0.3l0.6-2.3c-0.3-0.1-0.8-0.2-1.1-0.3l-0.6,2.3l-1.4-0.3
						l0.6-2.3c-0.3-0.1-0.7-0.2-1-0.3l-1.8-0.4l0.7-1.6l1,0.3c0.4,0.1,0.6-0.2,0.7-0.3l0.9-3.7l0,0l0.7-2.7c0-0.3-0.1-0.7-0.7-0.9
						l-1-0.3l0.3-1.5l2,0.5l0,0c0.3,0.1,0.6,0.2,0.9,0.2l0.6-2.3l1.4,0.3l-0.6,2.2c0.3,0.1,0.8,0.2,1.1,0.3l0.6-2.2l1.4,0.3
						l-0.6,2.3c1.8,0.6,3.1,1.5,2.8,3.3C312.3,152.2,311.7,152.8,310.7,153z M305.7,152.9L305,156c0.9,0.3,3.9,1.2,4.4-0.6
						C309.8,153.7,306.7,153.2,305.7,152.9z M306.8,148.7l-0.7,2.8c0.8,0.2,3.3,1,3.6-0.6C310.1,149.3,307.5,148.9,306.8,148.7z"/>
					
						<circle fill="none" stroke="#FFFFFF" stroke-width="0.9671" stroke-linecap="round" stroke-linejoin="round" cx="306.6" cy="152.8" r="12.3"/>
					
						<circle fill="none" stroke="#FFFFFF" stroke-width="0.9671" stroke-linecap="round" stroke-linejoin="round" cx="306.6" cy="152.7" r="9.7"/>
				</g>
				
					<line fill="none" stroke="#FFFFFF" stroke-linecap="round" stroke-linejoin="round" x1="276.9" y1="135.9" x2="336" y2="135.9"/>
				
					<rect x="278.5" y="133.1" fill="none" stroke="#FFFFFF" stroke-width="0.9671" stroke-linecap="round" stroke-linejoin="round" width="40.8" height="2"/>
			</g>
			<g>
				<path fill="none" stroke="#FFFFFF" stroke-width="0.9671" stroke-linecap="round" stroke-linejoin="round" d="M245.8,152.1
					h-32.9c-1.1,0-2-0.9-2-2v-17.6c0-0.8,0.7-1.5,1.5-1.5h35.4v19C247.8,151.2,246.9,152.1,245.8,152.1z"/>
				<path fill="none" stroke="#FFFFFF" stroke-width="0.9671" stroke-linecap="round" stroke-linejoin="round" d="M246.3,131v-4.4
					h-31.7c0,0-3.8,0.3-3.8,4.4v1.2"/>
				<polyline fill="none" stroke="#FFFFFF" stroke-width="0.9671" stroke-linecap="round" stroke-linejoin="round" points="
					247.6,138.7 238.3,138.7 238.3,145.1 247.5,145.1 				"/>
				<path fill="none" stroke="#FFFFFF" stroke-linecap="round" stroke-linejoin="round" d="M244.7,131.1v-3h-29.8
					c0,0-2.3,0.8-2.3,2.9"/>
				
					<circle fill="none" stroke="#FFFFFF" stroke-width="0.9671" stroke-linecap="round" stroke-linejoin="round" cx="241.1" cy="141.6" r="1.5"/>
				
					<line fill="none" stroke="#FFFFFF" stroke-linecap="round" stroke-linejoin="round" x1="215.1" y1="129.9" x2="243.4" y2="129.9"/>
			</g>
		</g>
	</g>
	<g>
		<defs>
			<rect id="SVGID_9_" width="300" height="300"/>
		</defs>
		<clipPath id="SVGID_10_">
			<use xlink:href="#SVGID_9_"  overflow="visible"/>
		</clipPath>
		<g clip-path="url(#SVGID_10_)">
			<path fill="none" stroke="#FFFFFF" stroke-width="0.9671" stroke-linecap="round" stroke-linejoin="round" d="M102.4,230
				c2.5,1.3,3.7,3.3,2.5,6.7c-1.5,4.2-5,4.5-9.7,3.7l-1.1,4.5l-2.7-0.7l1.1-4.5c-0.7-0.2-1.5-0.3-2.1-0.6l-1.1,4.5l-2.7-0.7l1.1-4.5
				c-0.6-0.2-1.3-0.3-2-0.5l-3.6-0.9l1.4-3.2c0,0,2.1,0.5,2,0.5c0.8,0.2,1.1-0.3,1.3-0.7l1.8-7.2l0,0l1.3-5.1c0-0.6-0.2-1.3-1.3-1.6
				l-2-0.5l0.8-2.9l3.8,0.9l0,0c0.6,0.2,1.1,0.3,1.7,0.4l1.1-4.5l2.7,0.7l-1.1,4.4c0.8,0.2,1.5,0.3,2.2,0.5l1.1-4.4l2.7,0.7
				l-1.1,4.5c3.4,1.2,6,3,5.5,6.3C105.6,228.3,104.2,229.5,102.4,230z M92.7,229.8l-1.5,6c1.9,0.4,7.5,2.3,8.4-1.1
				C100.5,231.2,94.6,230.2,92.7,229.8z M94.8,221.6l-1.4,5.5c1.5,0.3,6.3,2,7.1-1.1C101.3,222.6,96.3,221.9,94.8,221.6z"/>
			<g>
				
					<rect x="57.3" y="59.7" fill="none" stroke="#FFFFFF" stroke-width="0.9671" stroke-linecap="round" stroke-linejoin="round" width="63.9" height="36.6"/>
				
					<rect x="61" y="63.7" fill="none" stroke="#FFFFFF" stroke-width="0.9671" stroke-linecap="round" stroke-linejoin="round" width="56.4" height="28"/>
				<polyline fill="none" stroke="#FFFFFF" stroke-linecap="round" stroke-linejoin="round" points="120.9,96.1 131.3,106.7 
					46.9,106.7 57.3,96.3 				"/>
				<polyline fill="none" stroke="#FFFFFF" stroke-linecap="round" stroke-linejoin="round" points="130.7,107.1 130.7,109.3 
					47.6,109.3 47.6,107.1 				"/>
				<polygon fill="none" stroke="#FFFFFF" stroke-linecap="round" stroke-linejoin="round" points="59.6,98.1 53.7,104.1 
					105.3,104.1 104.1,98.1 				"/>
				<polygon fill="none" stroke="#FFFFFF" stroke-linecap="round" stroke-linejoin="round" points="106.1,98.1 107.7,104.1 
					124.6,104.1 119.6,98.1 				"/>
				<line fill="none" stroke="#FFFFFF" stroke-linecap="round" stroke-linejoin="round" x1="61.7" y1="69" x2="117.4" y2="69"/>
				<g>
					
						<circle fill="none" stroke="#FFFFFF" stroke-width="0.9671" stroke-linecap="round" stroke-linejoin="round" cx="78.7" cy="78.4" r="5.1"/>
					
						<rect x="91.4" y="74.7" fill="none" stroke="#FFFFFF" stroke-width="0.9671" stroke-linecap="round" stroke-linejoin="round" width="13.7" height="1.8"/>
					
						<rect x="91.4" y="78.3" fill="none" stroke="#FFFFFF" stroke-width="0.9671" stroke-linecap="round" stroke-linejoin="round" width="13.7" height="1.8"/>
					<path fill="none" stroke="#FFFFFF" stroke-width="0.9671" stroke-linecap="round" stroke-linejoin="round" d="M99,84.9h-5.4
						c-0.9,0-1.5-0.7-1.5-1.5l0,0c0-0.9,0.7-1.5,1.5-1.5H99c0.9,0,1.5,0.7,1.5,1.5l0,0C100.5,84.2,99.8,84.9,99,84.9z"/>
				</g>
				<line fill="none" stroke="#FFFFFF" stroke-linecap="round" stroke-linejoin="round" x1="61.7" y1="87.9" x2="117.4" y2="87.9"/>
				
					<rect x="63.2" y="65.7" fill="none" stroke="#FFFFFF" stroke-width="0.9671" stroke-linecap="round" stroke-linejoin="round" width="37.8" height="1.2"/>
				
					<circle fill="none" stroke="#FFFFFF" stroke-width="0.9671" stroke-linecap="round" stroke-linejoin="round" cx="103.8" cy="66" r="0.7"/>
				
					<circle fill="none" stroke="#FFFFFF" stroke-width="0.9671" stroke-linecap="round" stroke-linejoin="round" cx="107.3" cy="66" r="0.7"/>
				
					<line fill="none" stroke="#FFFFFF" stroke-width="0.9671" stroke-linecap="round" stroke-linejoin="round" x1="110.2" y1="98.1" x2="112.6" y2="103.4"/>
				
					<line fill="none" stroke="#FFFFFF" stroke-width="0.9671" stroke-linecap="round" stroke-linejoin="round" x1="115.1" y1="98.2" x2="117.9" y2="103.5"/>
				
					<line fill="none" stroke="#FFFFFF" stroke-linecap="round" stroke-linejoin="round" x1="106.3" y1="99.9" x2="120.9" y2="99.9"/>
				
					<line fill="none" stroke="#FFFFFF" stroke-width="0.9671" stroke-linecap="round" stroke-linejoin="round" x1="107.3" y1="101.5" x2="122.1" y2="101.6"/>
				
					<line fill="none" stroke="#FFFFFF" stroke-width="0.9671" stroke-linecap="round" stroke-linejoin="round" x1="63.3" y1="98.1" x2="58.8" y2="103.5"/>
				
					<line fill="none" stroke="#FFFFFF" stroke-width="0.9671" stroke-linecap="round" stroke-linejoin="round" x1="100.3" y1="98.2" x2="100.8" y2="103.2"/>
				<line fill="none" stroke="#FFFFFF" stroke-linecap="round" stroke-linejoin="round" x1="97.3" y1="98.6" x2="97.3" y2="103.7"/>
				
					<line fill="none" stroke="#FFFFFF" stroke-width="0.9671" stroke-linecap="round" stroke-linejoin="round" x1="92" y1="98.1" x2="91.3" y2="103.3"/>
				
					<line fill="none" stroke="#FFFFFF" stroke-width="0.9671" stroke-linecap="round" stroke-linejoin="round" x1="87.5" y1="98.1" x2="86.3" y2="103.4"/>
				
					<line fill="none" stroke="#FFFFFF" stroke-width="0.9671" stroke-linecap="round" stroke-linejoin="round" x1="84" y1="98.2" x2="82" y2="103.2"/>
				
					<line fill="none" stroke="#FFFFFF" stroke-width="0.9671" stroke-linecap="round" stroke-linejoin="round" x1="80.6" y1="98.1" x2="77.6" y2="103.3"/>
				
					<line fill="none" stroke="#FFFFFF" stroke-width="0.9671" stroke-linecap="round" stroke-linejoin="round" x1="63.6" y1="103.5" x2="68.1" y2="98.1"/>
				
					<line fill="none" stroke="#FFFFFF" stroke-width="0.9671" stroke-linecap="round" stroke-linejoin="round" x1="68.8" y1="103.5" x2="72.8" y2="98.1"/>
				
					<line fill="none" stroke="#FFFFFF" stroke-width="0.9671" stroke-linecap="round" stroke-linejoin="round" x1="73.1" y1="103.6" x2="76.9" y2="98.1"/>
				<line fill="none" stroke="#FFFFFF" stroke-linecap="round" stroke-linejoin="round" x1="59.1" y1="99.9" x2="103.7" y2="99.9"/>
				
					<line fill="none" stroke="#FFFFFF" stroke-linecap="round" stroke-linejoin="round" x1="55.7" y1="101.6" x2="104.6" y2="101.6"/>
			</g>
			<g>
				
					<rect x="123.3" y="127.4" fill="none" stroke="#FFFFFF" stroke-width="0.9671" stroke-linecap="round" stroke-linejoin="round" width="66.1" height="45.9"/>
				
					<rect x="144.3" y="181.4" fill="none" stroke="#FFFFFF" stroke-width="0.9671" stroke-linecap="round" stroke-linejoin="round" width="24.3" height="5.1"/>
				
					<rect x="126.6" y="131.1" fill="none" stroke="#FFFFFF" stroke-width="0.9671" stroke-linecap="round" stroke-linejoin="round" width="59.6" height="38.6"/>
				<g>
					<path fill="none" stroke="#FFFFFF" stroke-width="0.9671" stroke-linecap="round" stroke-linejoin="round" d="M160.7,153
						c1.3,0.7,1.9,1.6,1.3,3.4c-0.8,2.1-2.6,2.3-5,1.9l-0.6,2.3l-1.4-0.3l0.6-2.3c-0.3-0.1-0.8-0.2-1.1-0.3l-0.6,2.3l-1.4-0.3
						l0.6-2.3c-0.3-0.1-0.7-0.2-1-0.3l-1.8-0.4l0.7-1.6l1,0.3c0.4,0.1,0.6-0.2,0.7-0.3l0.9-3.7l0,0l0.7-2.7c0-0.3-0.1-0.7-0.7-0.9
						l-1-0.3l0.3-1.5l2,0.5l0,0c0.3,0.1,0.6,0.2,0.9,0.2l0.6-2.3l1.4,0.3l-0.6,2.2c0.3,0.1,0.8,0.2,1.1,0.3l0.6-2.2l1.4,0.3
						l-0.6,2.3c1.8,0.6,3.1,1.5,2.8,3.3C162.3,152.2,161.7,152.8,160.7,153z M155.7,152.9L155,156c0.9,0.3,3.9,1.2,4.4-0.6
						C159.8,153.7,156.7,153.2,155.7,152.9z M156.8,148.7l-0.7,2.8c0.8,0.2,3.3,1,3.6-0.6C160.1,149.3,157.5,148.9,156.8,148.7z"/>
					
						<circle fill="none" stroke="#FFFFFF" stroke-width="0.9671" stroke-linecap="round" stroke-linejoin="round" cx="156.6" cy="152.8" r="12.3"/>
					
						<circle fill="none" stroke="#FFFFFF" stroke-width="0.9671" stroke-linecap="round" stroke-linejoin="round" cx="156.6" cy="152.7" r="9.7"/>
				</g>
				
					<line fill="none" stroke="#FFFFFF" stroke-linecap="round" stroke-linejoin="round" x1="126.9" y1="135.9" x2="186" y2="135.9"/>
				
					<rect x="128.5" y="133.1" fill="none" stroke="#FFFFFF" stroke-width="0.9671" stroke-linecap="round" stroke-linejoin="round" width="40.8" height="2"/>
				
					<circle fill="none" stroke="#FFFFFF" stroke-width="0.9671" stroke-linecap="round" stroke-linejoin="round" cx="173" cy="133.7" r="1"/>
				
					<circle fill="none" stroke="#FFFFFF" stroke-width="0.9671" stroke-linecap="round" stroke-linejoin="round" cx="176.5" cy="133.7" r="1"/>
				<g>
					
						<line fill="none" stroke="#FFFFFF" stroke-linecap="round" stroke-linejoin="round" x1="150.4" y1="173.1" x2="150.4" y2="180"/>
					
						<line fill="none" stroke="#FFFFFF" stroke-linecap="round" stroke-linejoin="round" x1="164.1" y1="173.1" x2="164.1" y2="180"/>
				</g>
			</g>
			<g>
				<path fill="none" stroke="#FFFFFF" stroke-width="0.9671" stroke-linecap="round" stroke-linejoin="round" d="M249.6,197.6
					h-34.7c-0.9,0-1.7-0.8-1.7-1.7v-18.3c0-0.9,0.8-1.7,1.7-1.7h34.7c0.9,0,1.7,0.8,1.7,1.7v18.3
					C251.2,196.9,250.5,197.6,249.6,197.6z"/>
				<path fill="none" stroke="#FFFFFF" stroke-width="0.9671" stroke-linecap="round" stroke-linejoin="round" d="M221.7,192.5h-4
					c-0.9,0-1.6-0.8-1.6-1.6V187c0-0.9,0.8-1.6,1.6-1.6h4c0.9,0,1.6,0.8,1.6,1.6v3.9C223.4,191.8,222.6,192.5,221.7,192.5z"/>
				<line fill="none" stroke="#FFFFFF" stroke-linecap="round" stroke-linejoin="round" x1="219" y1="185.1" x2="219" y2="192"/>
				
					<line fill="none" stroke="#FFFFFF" stroke-linecap="round" stroke-linejoin="round" x1="216.9" y1="187.3" x2="218.6" y2="187.3"/>
				<line fill="none" stroke="#FFFFFF" stroke-linecap="round" stroke-linejoin="round" x1="216.9" y1="189" x2="218.6" y2="189"/>
				
					<line fill="none" stroke="#FFFFFF" stroke-linecap="round" stroke-linejoin="round" x1="218.6" y1="191.6" x2="221.1" y2="191.6"/>
				<polyline fill="none" stroke="#FFFFFF" stroke-linecap="round" stroke-linejoin="round" points="220.7,192 220.7,187.3 
					222.9,187.3 				"/>
				
					<line fill="none" stroke="#FFFFFF" stroke-linecap="round" stroke-linejoin="round" x1="221.1" y1="189.9" x2="222.9" y2="189.9"/>
				
					<circle fill="none" stroke="#FFFFFF" stroke-width="0.9671" stroke-linecap="round" stroke-linejoin="round" cx="244.5" cy="193.6" r="2"/>
				
					<circle fill="none" stroke="#FFFFFF" stroke-width="0.9671" stroke-linecap="round" stroke-linejoin="round" cx="247.2" cy="193.6" r="2"/>
				<g>
					<path fill="#FFFFFF" d="M226.3,189.1v-1.4c-0.1,0-0.2,0.1-0.3,0.1v-0.3c0.1-0.1,0.3-0.2,0.3-0.2h0.3v1.8L226.3,189.1
						L226.3,189.1z"/>
					<path fill="#FFFFFF" d="M228.3,189.1h-1.2v-0.3c0.2-0.3,0.4-0.5,0.6-0.7c0.1-0.1,0.1-0.2,0.1-0.3c0-0.1-0.1-0.2-0.2-0.2
						c-0.1,0-0.2,0.1-0.2,0.3l-0.3-0.1c0-0.3,0.3-0.5,0.6-0.5c0.3,0,0.6,0.2,0.6,0.5c0,0.2-0.1,0.3-0.2,0.5
						c-0.2,0.2-0.3,0.3-0.4,0.5h0.7L228.3,189.1L228.3,189.1z"/>
					<path fill="#FFFFFF" d="M228.9,188.1c0.1,0,0.2,0,0.2,0c0.1,0,0.2-0.1,0.2-0.2c0-0.1-0.1-0.2-0.3-0.2c-0.1,0-0.2,0.1-0.3,0.2
						l-0.3-0.2c0.1-0.3,0.3-0.3,0.5-0.3c0.3,0,0.6,0.2,0.6,0.5c0,0.2-0.1,0.3-0.3,0.3c0.2,0.1,0.3,0.3,0.3,0.4
						c0,0.3-0.3,0.5-0.7,0.5c-0.3,0-0.5-0.2-0.6-0.3l0.3-0.2c0.1,0.2,0.2,0.2,0.3,0.2c0.2,0,0.3-0.1,0.3-0.3c0-0.2-0.2-0.3-0.3-0.3
						c0,0-0.1,0-0.2,0v-0.3H228.9z"/>
					<path fill="#FFFFFF" d="M230.7,189.1v-0.4h-0.8v-0.3c0.3-0.3,0.5-0.7,0.8-1h0.3v1h0.3v0.3H231v0.4H230.7z M230.7,188.3v-0.5
						c-0.1,0.2-0.3,0.4-0.3,0.5H230.7z"/>
					<path fill="#FFFFFF" d="M233.2,187.6h-0.6c0,0.2,0,0.3,0,0.3c0.1,0,0.2,0,0.2,0c0.3,0,0.5,0.3,0.5,0.5c0,0.3-0.3,0.6-0.6,0.6
						c-0.3,0-0.5-0.1-0.6-0.3l0.3-0.2c0.1,0.2,0.2,0.2,0.3,0.2c0.2,0,0.3-0.2,0.3-0.3c0-0.2-0.1-0.3-0.3-0.3c-0.1,0-0.2,0-0.3,0.1
						l-0.3-0.2c0-0.3,0.1-0.7,0.1-0.9h0.9V187.6z"/>
					<path fill="#FFFFFF" d="M234.6,187.5c-0.3,0.1-0.5,0.3-0.6,0.5c0.1-0.1,0.2-0.1,0.3-0.1c0.3,0,0.6,0.3,0.6,0.6
						c0,0.3-0.3,0.6-0.6,0.6c-0.4,0-0.7-0.3-0.7-0.8c0-0.6,0.4-1,0.9-1.2L234.6,187.5z M234.2,188.8c0.2,0,0.3-0.2,0.3-0.3
						c0-0.2-0.1-0.3-0.3-0.3c-0.1,0-0.3,0.1-0.3,0.2C233.8,188.6,233.9,188.8,234.2,188.8z"/>
					<path fill="#FFFFFF" d="M236.1,187.5c-0.3,0.4-0.5,1.2-0.8,1.6L235,189c0.3-0.6,0.5-1.1,0.7-1.4h-0.8v-0.3h1.2V187.5z"/>
					<path fill="#FFFFFF" d="M237.2,188.9c0.3-0.1,0.5-0.3,0.6-0.5c-0.1,0.1-0.2,0.1-0.3,0.1c-0.3,0-0.6-0.3-0.6-0.6
						s0.3-0.6,0.6-0.6c0.4,0,0.7,0.3,0.7,0.8c0,0.6-0.4,1-0.9,1.2V188.9z M237.6,187.6c-0.2,0-0.3,0.2-0.3,0.3
						c0,0.2,0.1,0.3,0.3,0.3c0.1,0,0.3-0.1,0.3-0.2C237.9,187.8,237.8,187.6,237.6,187.6z"/>
					<path fill="#FFFFFF" d="M239.7,188.6c0,0.3-0.3,0.5-0.6,0.5c-0.3,0-0.6-0.3-0.6-0.5c0-0.3,0.1-0.3,0.3-0.4
						c-0.2-0.1-0.2-0.2-0.2-0.3c0-0.3,0.3-0.5,0.6-0.5s0.6,0.2,0.6,0.5c0,0.2-0.1,0.3-0.2,0.3C239.7,188.2,239.7,188.4,239.7,188.6z
						 M239.3,188.6c0-0.2-0.1-0.3-0.3-0.3c-0.2,0-0.3,0.1-0.3,0.3c0,0.2,0.1,0.3,0.3,0.3C239.2,188.8,239.3,188.7,239.3,188.6z
						 M239.3,187.8c0-0.1-0.1-0.2-0.2-0.2c-0.1,0-0.2,0.1-0.2,0.2c0,0.1,0.1,0.2,0.2,0.2C239.2,188,239.3,187.9,239.3,187.8z"/>
					<path fill="#FFFFFF" d="M241.1,187.5c-0.3,0.4-0.5,1.2-0.8,1.6L240,189c0.3-0.6,0.5-1.1,0.7-1.4h-0.8v-0.3h1.2V187.5z"/>
					<path fill="#FFFFFF" d="M242.2,187.5c-0.3,0.1-0.5,0.3-0.6,0.5c0.1-0.1,0.2-0.1,0.3-0.1c0.3,0,0.6,0.3,0.6,0.6
						c0,0.3-0.3,0.6-0.6,0.6c-0.4,0-0.7-0.3-0.7-0.8c0-0.6,0.4-1,0.9-1.2V187.5z M241.9,188.8c0.2,0,0.3-0.2,0.3-0.3
						c0-0.2-0.1-0.3-0.3-0.3c-0.1,0-0.3,0.1-0.3,0.2C241.5,188.6,241.6,188.8,241.9,188.8z"/>
					<path fill="#FFFFFF" d="M244.1,189.1v-0.4h-0.8v-0.3c0.3-0.3,0.5-0.7,0.8-1h0.3v1h0.3v0.3h-0.3v0.4H244.1z M244.1,188.3v-0.5
						c-0.1,0.2-0.3,0.4-0.3,0.5H244.1z"/>
					<path fill="#FFFFFF" d="M246,187.6h-0.6c0,0.2,0,0.3,0,0.3c0.1,0,0.2,0,0.2,0c0.3,0,0.5,0.3,0.5,0.5c0,0.3-0.3,0.6-0.6,0.6
						c-0.3,0-0.5-0.1-0.6-0.3l0.3-0.2c0.1,0.2,0.2,0.2,0.3,0.2c0.2,0,0.3-0.2,0.3-0.3c0-0.2-0.1-0.3-0.3-0.3c-0.1,0-0.2,0-0.3,0.1
						l-0.3-0.2c0-0.3,0.1-0.7,0.1-0.9h0.9V187.6z"/>
					<path fill="#FFFFFF" d="M246.7,188.1c0.1,0,0.2,0,0.2,0c0.1,0,0.2-0.1,0.2-0.2c0-0.1-0.1-0.2-0.3-0.2c-0.1,0-0.2,0.1-0.3,0.2
						l-0.3-0.2c0.1-0.3,0.3-0.3,0.5-0.3c0.3,0,0.6,0.2,0.6,0.5c0,0.2-0.1,0.3-0.3,0.3c0.2,0.1,0.3,0.3,0.3,0.4
						c0,0.3-0.3,0.5-0.7,0.5c-0.3,0-0.5-0.2-0.6-0.3l0.3-0.2c0.1,0.2,0.2,0.2,0.3,0.2c0.2,0,0.3-0.1,0.3-0.3c0-0.2-0.2-0.3-0.3-0.3
						c0,0-0.1,0-0.2,0v-0.3H246.7z"/>
					<path fill="#FFFFFF" d="M248.1,188.1c0.1,0,0.2,0,0.2,0c0.1,0,0.2-0.1,0.2-0.2c0-0.1-0.1-0.2-0.3-0.2c-0.1,0-0.2,0.1-0.3,0.2
						l-0.3-0.2c0.1-0.3,0.3-0.3,0.5-0.3c0.3,0,0.6,0.2,0.6,0.5c0,0.2-0.1,0.3-0.3,0.3c0.2,0.1,0.3,0.3,0.3,0.4
						c0,0.3-0.3,0.5-0.7,0.5c-0.3,0-0.5-0.2-0.6-0.3l0.3-0.2c0.1,0.2,0.2,0.2,0.3,0.2c0.2,0,0.3-0.1,0.3-0.3c0-0.2-0.2-0.3-0.3-0.3
						c0,0-0.1,0-0.2,0v-0.3H248.1z"/>
				</g>
				<g>
					<path fill="#FFFFFF" d="M217.2,179.5c0.3,0,0.6,0.1,0.9,0.2c0.3,0.2,0.3,0.4,0.3,0.7c0,0.3-0.2,0.5-0.4,0.6
						c0.3,0.1,0.5,0.3,0.5,0.7c0,0.3-0.3,0.7-0.6,0.8c-0.3,0.1-0.5,0.1-0.9,0.1h-0.8v-3.2h0.9V179.5z M217,180.8h0.2
						c0.3,0,0.6-0.1,0.6-0.3c0-0.2-0.1-0.3-0.2-0.3c-0.1-0.1-0.3-0.1-0.5-0.1H217V180.8L217,180.8z M217,182.1h0.2
						c0.2,0,0.3,0,0.5-0.1c0.1-0.1,0.2-0.2,0.2-0.3c0-0.3-0.2-0.4-0.5-0.4H217V182.1z"/>
					<path fill="#FFFFFF" d="M221.1,182.6l-0.2-0.6h-1.1l-0.2,0.6h-0.7l1.3-3.2h0.5l1.2,3.2H221.1z M219.9,181.5h0.8l-0.3-1l0,0
						L219.9,181.5z"/>
					<path fill="#FFFFFF" d="M224.3,182.6l-1.5-2v2h-0.6v-3.2h0.6l1.5,2v-2h0.6v3.2H224.3z"/>
					<path fill="#FFFFFF" d="M227,180.8l1.1,1.9h-0.8l-0.8-1.4l-0.3,0.4v0.9h-0.6v-3.2h0.6v1.3l1-1.3h0.8L227,180.8z"/>
				</g>
			</g>
			<g>
				<path fill="none" stroke="#FFFFFF" stroke-width="0.9671" stroke-linecap="round" stroke-linejoin="round" d="M95.8,152.1H62.9
					c-1.1,0-2-0.9-2-2v-17.6c0-0.8,0.7-1.5,1.5-1.5h35.4v19C97.8,151.2,96.9,152.1,95.8,152.1z"/>
				<path fill="none" stroke="#FFFFFF" stroke-width="0.9671" stroke-linecap="round" stroke-linejoin="round" d="M96.3,131v-4.4
					H64.6c0,0-3.8,0.3-3.8,4.4v1.2"/>
				<polyline fill="none" stroke="#FFFFFF" stroke-width="0.9671" stroke-linecap="round" stroke-linejoin="round" points="
					97.6,138.7 88.3,138.7 88.3,145.1 97.5,145.1 				"/>
				<path fill="none" stroke="#FFFFFF" stroke-linecap="round" stroke-linejoin="round" d="M94.7,131.1v-3H64.9c0,0-2.3,0.8-2.3,2.9
					"/>
				
					<circle fill="none" stroke="#FFFFFF" stroke-width="0.9671" stroke-linecap="round" stroke-linejoin="round" cx="91.1" cy="141.6" r="1.5"/>
				
					<line fill="none" stroke="#FFFFFF" stroke-linecap="round" stroke-linejoin="round" x1="64.3" y1="129.9" x2="93.4" y2="129.9"/>
			</g>
		</g>
	</g>
	<g>
		<defs>
			<rect id="SVGID_11_" width="300" height="300"/>
		</defs>
		<clipPath id="SVGID_12_">
			<use xlink:href="#SVGID_11_"  overflow="visible"/>
		</clipPath>
		<g clip-path="url(#SVGID_12_)">
			<g>
				
					<rect x="-26.7" y="127.4" fill="none" stroke="#FFFFFF" stroke-width="0.9671" stroke-linecap="round" stroke-linejoin="round" width="66.1" height="45.9"/>
				
					<rect x="-5.7" y="181.4" fill="none" stroke="#FFFFFF" stroke-width="0.9671" stroke-linecap="round" stroke-linejoin="round" width="24.3" height="5.1"/>
				
					<rect x="-23.4" y="131.1" fill="none" stroke="#FFFFFF" stroke-width="0.9671" stroke-linecap="round" stroke-linejoin="round" width="59.6" height="38.6"/>
				<g>
					<path fill="none" stroke="#FFFFFF" stroke-width="0.9671" stroke-linecap="round" stroke-linejoin="round" d="M10.7,153
						c1.3,0.7,1.9,1.6,1.3,3.4c-0.8,2.1-2.6,2.3-5,1.9l-0.6,2.3l-1.4-0.3l0.6-2.3c-0.3-0.1-0.8-0.2-1.1-0.3L3.9,160l-1.4-0.3
						l0.6-2.3c-0.3-0.1-0.7-0.2-1-0.3l-1.8-0.4l0.7-1.6l1,0.3c0.4,0.1,0.6-0.2,0.7-0.3l0.9-3.7l0,0l0.7-2.7c0-0.3-0.1-0.7-0.7-0.9
						l-1-0.3L3,146l2,0.5l0,0c0.3,0.1,0.6,0.2,0.9,0.2l0.6-2.3l1.4,0.3l-0.6,2.2c0.3,0.1,0.8,0.2,1.1,0.3l0.6-2.2l1.4,0.3l-0.6,2.3
						c1.8,0.6,3.1,1.5,2.8,3.3C12.3,152.2,11.7,152.8,10.7,153z M5.7,152.9L5,156c0.9,0.3,3.9,1.2,4.4-0.6
						C9.8,153.7,6.7,153.2,5.7,152.9z M6.8,148.7l-0.7,2.8c0.8,0.2,3.3,1,3.6-0.6C10.1,149.3,7.5,148.9,6.8,148.7z"/>
					
						<circle fill="none" stroke="#FFFFFF" stroke-width="0.9671" stroke-linecap="round" stroke-linejoin="round" cx="6.6" cy="152.8" r="12.3"/>
					
						<circle fill="none" stroke="#FFFFFF" stroke-width="0.9671" stroke-linecap="round" stroke-linejoin="round" cx="6.6" cy="152.7" r="9.7"/>
				</g>
				<line fill="none" stroke="#FFFFFF" stroke-linecap="round" stroke-linejoin="round" x1="-22.3" y1="135.9" x2="36" y2="135.9"/>
				
					<rect x="-21.5" y="133.1" fill="none" stroke="#FFFFFF" stroke-width="0.9671" stroke-linecap="round" stroke-linejoin="round" width="40.8" height="2"/>
				
					<circle fill="none" stroke="#FFFFFF" stroke-width="0.9671" stroke-linecap="round" stroke-linejoin="round" cx="23" cy="133.7" r="1"/>
				
					<circle fill="none" stroke="#FFFFFF" stroke-width="0.9671" stroke-linecap="round" stroke-linejoin="round" cx="26.5" cy="133.7" r="1"/>
				<g>
					<line fill="none" stroke="#FFFFFF" stroke-linecap="round" stroke-linejoin="round" x1="1.3" y1="173.1" x2="1.3" y2="180"/>
					<line fill="none" stroke="#FFFFFF" stroke-linecap="round" stroke-linejoin="round" x1="13.3" y1="173.1" x2="13.3" y2="180"/>
				</g>
			</g>
			<g>
				<path fill="none" stroke="#FFFFFF" stroke-width="0.9671" stroke-linecap="round" stroke-linejoin="round" d="M99.6,197.6H64.9
					c-0.9,0-1.7-0.8-1.7-1.7v-18.3c0-0.9,0.8-1.7,1.7-1.7h34.7c0.9,0,1.7,0.8,1.7,1.7v18.3C101.2,196.9,100.5,197.6,99.6,197.6z"/>
				<path fill="none" stroke="#FFFFFF" stroke-width="0.9671" stroke-linecap="round" stroke-linejoin="round" d="M71.7,192.5h-4
					c-0.9,0-1.6-0.8-1.6-1.6V187c0-0.9,0.8-1.6,1.6-1.6h4c0.9,0,1.6,0.8,1.6,1.6v3.9C73.4,191.8,72.6,192.5,71.7,192.5z"/>
				<line fill="none" stroke="#FFFFFF" stroke-linecap="round" stroke-linejoin="round" x1="68.1" y1="185.1" x2="68.1" y2="192"/>
				<line fill="none" stroke="#FFFFFF" stroke-linecap="round" stroke-linejoin="round" x1="66" y1="187.3" x2="67.7" y2="187.3"/>
				<line fill="none" stroke="#FFFFFF" stroke-linecap="round" stroke-linejoin="round" x1="66" y1="189" x2="67.7" y2="189"/>
				
					<line fill="none" stroke="#FFFFFF" stroke-linecap="round" stroke-linejoin="round" x1="68.6" y1="191.6" x2="71.1" y2="191.6"/>
				<polyline fill="none" stroke="#FFFFFF" stroke-linecap="round" stroke-linejoin="round" points="71.6,192 71.6,187.3 
					72.9,187.3 				"/>
				<line fill="none" stroke="#FFFFFF" stroke-linecap="round" stroke-linejoin="round" x1="72" y1="189.9" x2="72.9" y2="189.9"/>
				
					<circle fill="none" stroke="#FFFFFF" stroke-width="0.9671" stroke-linecap="round" stroke-linejoin="round" cx="94.5" cy="193.6" r="2"/>
				
					<circle fill="none" stroke="#FFFFFF" stroke-width="0.9671" stroke-linecap="round" stroke-linejoin="round" cx="97.2" cy="193.6" r="2"/>
				<g>
					<path fill="#FFFFFF" d="M76.3,189.1v-1.4c-0.1,0-0.2,0.1-0.3,0.1v-0.3c0.1-0.1,0.3-0.2,0.3-0.2h0.3v1.8L76.3,189.1L76.3,189.1z
						"/>
					<path fill="#FFFFFF" d="M78.3,189.1h-1.2v-0.3c0.2-0.3,0.4-0.5,0.6-0.7c0.1-0.1,0.1-0.2,0.1-0.3c0-0.1-0.1-0.2-0.2-0.2
						c-0.1,0-0.2,0.1-0.2,0.3l-0.3-0.1c0-0.3,0.3-0.5,0.6-0.5c0.3,0,0.6,0.2,0.6,0.5c0,0.2-0.1,0.3-0.2,0.5
						c-0.2,0.2-0.3,0.3-0.4,0.5h0.7L78.3,189.1L78.3,189.1z"/>
					<path fill="#FFFFFF" d="M78.9,188.1c0.1,0,0.2,0,0.2,0c0.1,0,0.2-0.1,0.2-0.2c0-0.1-0.1-0.2-0.3-0.2c-0.1,0-0.2,0.1-0.3,0.2
						l-0.3-0.2c0.1-0.3,0.3-0.3,0.5-0.3c0.3,0,0.6,0.2,0.6,0.5c0,0.2-0.1,0.3-0.3,0.3c0.2,0.1,0.3,0.3,0.3,0.4
						c0,0.3-0.3,0.5-0.7,0.5c-0.3,0-0.5-0.2-0.6-0.3l0.3-0.2c0.1,0.2,0.2,0.2,0.3,0.2c0.2,0,0.3-0.1,0.3-0.3c0-0.2-0.2-0.3-0.3-0.3
						c0,0-0.1,0-0.2,0v-0.3H78.9z"/>
					<path fill="#FFFFFF" d="M80.7,189.1v-0.4h-0.8v-0.3c0.3-0.3,0.5-0.7,0.8-1H81v1h0.3v0.3H81v0.4H80.7z M80.7,188.3v-0.5
						c-0.1,0.2-0.3,0.4-0.3,0.5H80.7z"/>
					<path fill="#FFFFFF" d="M83.2,187.6h-0.6c0,0.2,0,0.3,0,0.3c0.1,0,0.2,0,0.2,0c0.3,0,0.5,0.3,0.5,0.5c0,0.3-0.3,0.6-0.6,0.6
						c-0.3,0-0.5-0.1-0.6-0.3l0.3-0.2c0.1,0.2,0.2,0.2,0.3,0.2c0.2,0,0.3-0.2,0.3-0.3c0-0.2-0.1-0.3-0.3-0.3c-0.1,0-0.2,0-0.3,0.1
						l-0.3-0.2c0-0.3,0.1-0.7,0.1-0.9h0.9V187.6z"/>
					<path fill="#FFFFFF" d="M84.6,187.5c-0.3,0.1-0.5,0.3-0.6,0.5c0.1-0.1,0.2-0.1,0.3-0.1c0.3,0,0.6,0.3,0.6,0.6
						c0,0.3-0.3,0.6-0.6,0.6c-0.4,0-0.7-0.3-0.7-0.8c0-0.6,0.4-1,0.9-1.2L84.6,187.5z M84.2,188.8c0.2,0,0.3-0.2,0.3-0.3
						c0-0.2-0.1-0.3-0.3-0.3c-0.1,0-0.3,0.1-0.3,0.2C83.8,188.6,83.9,188.8,84.2,188.8z"/>
					<path fill="#FFFFFF" d="M86.1,187.5c-0.3,0.4-0.5,1.2-0.8,1.6L85,189c0.3-0.6,0.5-1.1,0.7-1.4h-0.8v-0.3h1.2V187.5z"/>
					<path fill="#FFFFFF" d="M87.2,188.9c0.3-0.1,0.5-0.3,0.6-0.5c-0.1,0.1-0.2,0.1-0.3,0.1c-0.3,0-0.6-0.3-0.6-0.6s0.3-0.6,0.6-0.6
						c0.4,0,0.7,0.3,0.7,0.8c0,0.6-0.4,1-0.9,1.2V188.9z M87.6,187.6c-0.2,0-0.3,0.2-0.3,0.3c0,0.2,0.1,0.3,0.3,0.3
						c0.1,0,0.3-0.1,0.3-0.2C87.9,187.8,87.8,187.6,87.6,187.6z"/>
					<path fill="#FFFFFF" d="M89.7,188.6c0,0.3-0.3,0.5-0.6,0.5c-0.3,0-0.6-0.3-0.6-0.5c0-0.3,0.1-0.3,0.3-0.4
						c-0.2-0.1-0.2-0.2-0.2-0.3c0-0.3,0.3-0.5,0.6-0.5c0.3,0,0.6,0.2,0.6,0.5c0,0.2-0.1,0.3-0.2,0.3
						C89.7,188.2,89.7,188.4,89.7,188.6z M89.3,188.6c0-0.2-0.1-0.3-0.3-0.3c-0.2,0-0.3,0.1-0.3,0.3c0,0.2,0.1,0.3,0.3,0.3
						S89.3,188.7,89.3,188.6z M89.3,187.8c0-0.1-0.1-0.2-0.2-0.2c-0.1,0-0.2,0.1-0.2,0.2c0,0.1,0.1,0.2,0.2,0.2
						C89.2,188,89.3,187.9,89.3,187.8z"/>
					<path fill="#FFFFFF" d="M91.1,187.5c-0.3,0.4-0.5,1.2-0.8,1.6L90,189c0.3-0.6,0.5-1.1,0.7-1.4h-0.8v-0.3h1.2V187.5z"/>
					<path fill="#FFFFFF" d="M92.2,187.5c-0.3,0.1-0.5,0.3-0.6,0.5c0.1-0.1,0.2-0.1,0.3-0.1c0.3,0,0.6,0.3,0.6,0.6
						c0,0.3-0.3,0.6-0.6,0.6c-0.4,0-0.7-0.3-0.7-0.8c0-0.6,0.4-1,0.9-1.2V187.5z M91.9,188.8c0.2,0,0.3-0.2,0.3-0.3
						c0-0.2-0.1-0.3-0.3-0.3c-0.1,0-0.3,0.1-0.3,0.2C91.5,188.6,91.6,188.8,91.9,188.8z"/>
					<path fill="#FFFFFF" d="M94.1,189.1v-0.4h-0.8v-0.3c0.3-0.3,0.5-0.7,0.8-1h0.3v1h0.3v0.3h-0.3v0.4H94.1z M94.1,188.3v-0.5
						c-0.1,0.2-0.3,0.4-0.3,0.5H94.1z"/>
					<path fill="#FFFFFF" d="M96,187.6h-0.6c0,0.2,0,0.3,0,0.3c0.1,0,0.2,0,0.2,0c0.3,0,0.5,0.3,0.5,0.5c0,0.3-0.3,0.6-0.6,0.6
						c-0.3,0-0.5-0.1-0.6-0.3l0.3-0.2c0.1,0.2,0.2,0.2,0.3,0.2c0.2,0,0.3-0.2,0.3-0.3c0-0.2-0.1-0.3-0.3-0.3c-0.1,0-0.2,0-0.3,0.1
						l-0.3-0.2c0-0.3,0.1-0.7,0.1-0.9H96V187.6z"/>
					<path fill="#FFFFFF" d="M96.7,188.1c0.1,0,0.2,0,0.2,0c0.1,0,0.2-0.1,0.2-0.2c0-0.1-0.1-0.2-0.3-0.2c-0.1,0-0.2,0.1-0.3,0.2
						l-0.3-0.2c0.1-0.3,0.3-0.3,0.5-0.3c0.3,0,0.6,0.2,0.6,0.5c0,0.2-0.1,0.3-0.3,0.3c0.2,0.1,0.3,0.3,0.3,0.4
						c0,0.3-0.3,0.5-0.7,0.5c-0.3,0-0.5-0.2-0.6-0.3l0.3-0.2c0.1,0.2,0.2,0.2,0.3,0.2c0.2,0,0.3-0.1,0.3-0.3c0-0.2-0.2-0.3-0.3-0.3
						c0,0-0.1,0-0.2,0v-0.3H96.7z"/>
					<path fill="#FFFFFF" d="M98.1,188.1c0.1,0,0.2,0,0.2,0c0.1,0,0.2-0.1,0.2-0.2c0-0.1-0.1-0.2-0.3-0.2c-0.1,0-0.2,0.1-0.3,0.2
						l-0.3-0.2c0.1-0.3,0.3-0.3,0.5-0.3c0.3,0,0.6,0.2,0.6,0.5c0,0.2-0.1,0.3-0.3,0.3c0.2,0.1,0.3,0.3,0.3,0.4
						c0,0.3-0.3,0.5-0.7,0.5c-0.3,0-0.5-0.2-0.6-0.3l0.3-0.2c0.1,0.2,0.2,0.2,0.3,0.2c0.2,0,0.3-0.1,0.3-0.3c0-0.2-0.2-0.3-0.3-0.3
						c0,0-0.1,0-0.2,0v-0.3H98.1z"/>
				</g>
				<g>
					<path fill="#FFFFFF" d="M67.2,179.5c0.3,0,0.6,0.1,0.9,0.2c0.3,0.2,0.3,0.4,0.3,0.7c0,0.3-0.2,0.5-0.4,0.6
						c0.3,0.1,0.5,0.3,0.5,0.7c0,0.3-0.3,0.7-0.6,0.8c-0.3,0.1-0.5,0.1-0.9,0.1h-0.8v-3.2h0.9V179.5z M67,180.8h0.2
						c0.3,0,0.6-0.1,0.6-0.3c0-0.2-0.1-0.3-0.2-0.3c-0.1-0.1-0.3-0.1-0.5-0.1H67V180.8z M67,182.1h0.2c0.2,0,0.3,0,0.5-0.1
						c0.1-0.1,0.2-0.2,0.2-0.3c0-0.3-0.2-0.4-0.5-0.4H67C67,181.2,67,182.1,67,182.1z"/>
					<path fill="#FFFFFF" d="M71.1,182.6l-0.2-0.6h-1.1l-0.2,0.6h-0.7l1.3-3.2h0.5l1.2,3.2H71.1z M69.9,181.5h0.8l-0.3-1l0,0
						L69.9,181.5z"/>
					<path fill="#FFFFFF" d="M74.3,182.6l-1.5-2v2h-0.6v-3.2h0.6l1.5,2v-2h0.6v3.2H74.3z"/>
					<path fill="#FFFFFF" d="M77,180.8l1.1,1.9h-0.8l-0.8-1.4l-0.3,0.4v0.9h-0.6v-3.2h0.6v1.3l1-1.3H78L77,180.8z"/>
				</g>
			</g>
		</g>
	</g>
	<g>
		<defs>
			<rect id="SVGID_13_" width="300" height="300"/>
		</defs>
		<clipPath id="SVGID_14_">
			<use xlink:href="#SVGID_13_"  overflow="visible"/>
		</clipPath>
		<g clip-path="url(#SVGID_14_)">
			<g>
				<path fill="none" stroke="#FFFFFF" stroke-width="0.9671" stroke-linecap="round" stroke-linejoin="round" d="M320.8,2.1h-32.9
					c-1.1,0-2-0.9-2-2v-17.6c0-0.8,0.7-1.5,1.5-1.5h35.4v19C322.8,1.2,321.9,2.1,320.8,2.1z"/>
			</g>
		</g>
	</g>
	<g>
		<defs>
			<rect id="SVGID_15_" width="300" height="300"/>
		</defs>
		<clipPath id="SVGID_16_">
			<use xlink:href="#SVGID_15_"  overflow="visible"/>
		</clipPath>
		<g clip-path="url(#SVGID_16_)">
			<path fill="none" stroke="#FFFFFF" stroke-width="0.9671" stroke-linecap="round" stroke-linejoin="round" d="M177.4,80
				c2.5,1.3,3.7,3.3,2.5,6.7c-1.5,4.2-5,4.5-9.7,3.7l-1.1,4.5l-2.7-0.7l1.1-4.5c-0.7-0.2-1.5-0.3-2.1-0.6l-1.1,4.5l-2.7-0.7l1.1-4.5
				c-0.6-0.2-1.3-0.3-2-0.5l-3.6-0.9l1.4-3.2c0,0,2.1,0.5,2,0.5c0.8,0.2,1.1-0.3,1.3-0.7l1.8-7.2l0,0l1.3-5.1c0-0.6-0.2-1.3-1.3-1.6
				l-2-0.5l0.8-2.9l3.8,0.9l0,0c0.6,0.2,1.1,0.3,1.7,0.4l1.1-4.5l2.7,0.7l-1.1,4.4c0.8,0.2,1.5,0.3,2.2,0.5l1.1-4.4l2.7,0.7
				l-1.1,4.5c3.4,1.2,6,3,5.5,6.3C180.6,78.3,179.2,79.5,177.4,80z M167.7,79.8l-1.5,6c1.9,0.4,7.5,2.3,8.4-1.1
				C175.5,81.2,169.6,80.2,167.7,79.8z M169.8,71.6l-1.4,5.5c1.5,0.3,6.3,2,7.1-1.1C176.3,72.6,171.3,71.9,169.8,71.6z"/>
			<g>
				
					<rect x="198.3" y="-22.6" fill="none" stroke="#FFFFFF" stroke-width="0.9671" stroke-linecap="round" stroke-linejoin="round" width="66.1" height="45.9"/>
				
					<rect x="219.3" y="31.4" fill="none" stroke="#FFFFFF" stroke-width="0.9671" stroke-linecap="round" stroke-linejoin="round" width="24.3" height="5.1"/>
				
					<rect x="201.6" y="-18.9" fill="none" stroke="#FFFFFF" stroke-width="0.9671" stroke-linecap="round" stroke-linejoin="round" width="59.6" height="38.6"/>
				<g>
					<path fill="none" stroke="#FFFFFF" stroke-width="0.9671" stroke-linecap="round" stroke-linejoin="round" d="M235.7,3
						c1.3,0.7,1.9,1.6,1.3,3.4c-0.8,2.1-2.6,2.3-5,1.9l-0.6,2.3l-1.4-0.3l0.6-2.3c-0.3-0.1-0.8-0.2-1.1-0.3l-0.6,2.3l-1.4-0.3
						l0.6-2.3c-0.3-0.1-0.7-0.2-1-0.3l-1.8-0.4l0.7-1.6l1,0.3c0.4,0.1,0.6-0.2,0.7-0.3l0.9-3.7l0,0l0.7-2.7c0-0.3-0.1-0.7-0.7-0.9
						l-1-0.3L228-4l2,0.5l0,0c0.3,0.1,0.6,0.2,0.9,0.2l0.6-2.3l1.4,0.3l-0.6,2.2c0.3,0.1,0.8,0.2,1.1,0.3l0.6-2.2l1.4,0.3l-0.6,2.3
						c1.8,0.6,3.1,1.5,2.8,3.3C237.3,2.2,236.7,2.8,235.7,3z M230.7,2.9L230,6c0.9,0.3,3.9,1.2,4.4-0.6
						C234.8,3.7,231.7,3.2,230.7,2.9z M231.8-1.3l-0.7,2.8c0.8,0.2,3.3,1,3.6-0.6C235.1-0.7,232.5-1.1,231.8-1.3z"/>
					
						<circle fill="none" stroke="#FFFFFF" stroke-width="0.9671" stroke-linecap="round" stroke-linejoin="round" cx="231.6" cy="2.8" r="12.3"/>
					
						<circle fill="none" stroke="#FFFFFF" stroke-width="0.9671" stroke-linecap="round" stroke-linejoin="round" cx="231.6" cy="2.7" r="9.7"/>
				</g>
				<g>
					<line fill="none" stroke="#FFFFFF" stroke-linecap="round" stroke-linejoin="round" x1="225.9" y1="24" x2="225.9" y2="30.9"/>
					<line fill="none" stroke="#FFFFFF" stroke-linecap="round" stroke-linejoin="round" x1="238.7" y1="24" x2="238.7" y2="30.9"/>
				</g>
			</g>
			<g>
				<path fill="none" stroke="#FFFFFF" stroke-width="0.9671" stroke-linecap="round" stroke-linejoin="round" d="M324.6,47.6h-34.7
					c-0.9,0-1.7-0.8-1.7-1.7V27.6c0-0.9,0.8-1.7,1.7-1.7h34.7c0.9,0,1.7,0.8,1.7,1.7v18.3C326.2,46.9,325.5,47.6,324.6,47.6z"/>
				<path fill="none" stroke="#FFFFFF" stroke-width="0.9671" stroke-linecap="round" stroke-linejoin="round" d="M296.7,42.5h-4
					c-0.9,0-1.6-0.8-1.6-1.6V37c0-0.9,0.8-1.6,1.6-1.6h4c0.9,0,1.6,0.8,1.6,1.6v3.9C298.4,41.8,297.6,42.5,296.7,42.5z"/>
				<line fill="none" stroke="#FFFFFF" stroke-linecap="round" stroke-linejoin="round" x1="293.6" y1="35.1" x2="293.6" y2="42"/>
				
					<line fill="none" stroke="#FFFFFF" stroke-linecap="round" stroke-linejoin="round" x1="291.4" y1="37.3" x2="293.1" y2="37.3"/>
				
					<line fill="none" stroke="#FFFFFF" stroke-linecap="round" stroke-linejoin="round" x1="291.4" y1="38.1" x2="293.1" y2="38.1"/>
				<line fill="none" stroke="#FFFFFF" stroke-linecap="round" stroke-linejoin="round" x1="294" y1="40.7" x2="295.7" y2="40.7"/>
				<polyline fill="none" stroke="#FFFFFF" stroke-linecap="round" stroke-linejoin="round" points="295.3,42 295.3,37.3 
					297.4,37.3 				"/>
				<line fill="none" stroke="#FFFFFF" stroke-linecap="round" stroke-linejoin="round" x1="295.7" y1="39" x2="297.4" y2="39"/>
				<g>
					<path fill="#FFFFFF" d="M292.2,29.5c0.3,0,0.6,0.1,0.9,0.2c0.3,0.2,0.3,0.4,0.3,0.7c0,0.3-0.2,0.5-0.4,0.6
						c0.3,0.1,0.5,0.3,0.5,0.7c0,0.3-0.3,0.7-0.6,0.8c-0.3,0.1-0.5,0.1-0.9,0.1h-0.8v-3.2h0.9V29.5z M292,30.8h0.2
						c0.3,0,0.6-0.1,0.6-0.3c0-0.2-0.1-0.3-0.2-0.3c-0.1-0.1-0.3-0.1-0.5-0.1H292V30.8z M292,32.1h0.2c0.2,0,0.3,0,0.5-0.1
						c0.1-0.1,0.2-0.2,0.2-0.3c0-0.3-0.2-0.4-0.5-0.4H292L292,32.1L292,32.1z"/>
					<path fill="#FFFFFF" d="M296.1,32.6l-0.2-0.6h-1.1l-0.2,0.6h-0.7l1.3-3.2h0.5l1.2,3.2H296.1z M294.9,31.5h0.8l-0.3-1l0,0
						L294.9,31.5z"/>
					<path fill="#FFFFFF" d="M299.3,32.6l-1.5-2v2h-0.6v-3.2h0.6l1.5,2v-2h0.6v3.2H299.3z"/>
				</g>
			</g>
			<g>
				<path fill="none" stroke="#FFFFFF" stroke-width="0.9671" stroke-linecap="round" stroke-linejoin="round" d="M170.8,2.1h-32.9
					c-1.1,0-2-0.9-2-2v-17.6c0-0.8,0.7-1.5,1.5-1.5h35.4v19C172.8,1.2,171.9,2.1,170.8,2.1z"/>
			</g>
		</g>
	</g>
	<g>
		<defs>
			<rect id="SVGID_17_" width="300" height="300"/>
		</defs>
		<clipPath id="SVGID_18_">
			<use xlink:href="#SVGID_17_"  overflow="visible"/>
		</clipPath>
		<g clip-path="url(#SVGID_18_)">
			<path fill="none" stroke="#FFFFFF" stroke-width="0.9671" stroke-linecap="round" stroke-linejoin="round" d="M27.4,80
				c2.5,1.3,3.7,3.3,2.5,6.7c-1.5,4.2-5,4.5-9.7,3.7l-1.1,4.5l-2.7-0.7l1.1-4.5c-0.7-0.2-1.5-0.3-2.1-0.6l-1.1,4.5L11.5,93l1.1-4.5
				c-0.6-0.2-1.3-0.3-2-0.5L7,87.1l1.4-3.2c0,0,2.1,0.5,2,0.5c0.8,0.2,1.1-0.3,1.3-0.7l1.8-7.2l0,0l1.3-5.1c0-0.6-0.2-1.3-1.3-1.6
				l-2-0.5l0.8-2.9l3.8,0.9l0,0c0.6,0.2,1.1,0.3,1.7,0.4l1.1-4.5l2.7,0.7l-1,4.4c0.8,0.2,1.5,0.3,2.2,0.5l1.1-4.4l2.7,0.7l-1.1,4.5
				c3.4,1.2,6,3,5.5,6.3C30.6,78.3,29.2,79.5,27.4,80z M17.7,79.8l-1.5,6c1.9,0.4,7.5,2.3,8.4-1.1C25.5,81.2,19.6,80.2,17.7,79.8z
				 M19.8,71.6l-1.4,5.5c1.5,0.3,6.3,2,7.1-1.1C26.3,72.6,21.3,71.9,19.8,71.6z"/>
			<g>
				
					<rect x="48.3" y="-22.6" fill="none" stroke="#FFFFFF" stroke-width="0.9671" stroke-linecap="round" stroke-linejoin="round" width="66.1" height="45.9"/>
				
					<rect x="69.3" y="31.4" fill="none" stroke="#FFFFFF" stroke-width="0.9671" stroke-linecap="round" stroke-linejoin="round" width="24.3" height="5.1"/>
				
					<rect x="51.6" y="-18.9" fill="none" stroke="#FFFFFF" stroke-width="0.9671" stroke-linecap="round" stroke-linejoin="round" width="59.6" height="38.6"/>
				<g>
					<path fill="none" stroke="#FFFFFF" stroke-width="0.9671" stroke-linecap="round" stroke-linejoin="round" d="M85.7,3
						C87,3.7,87.6,4.6,87,6.4c-0.8,2.1-2.6,2.3-5,1.9l-0.6,2.4l-1.4-0.3l0.6-2.3c-0.3-0.1-0.8-0.2-1.1-0.3l-0.6,2.3l-1.4-0.3
						l0.6-2.3c-0.3-0.1-0.7-0.2-1-0.3l-1.8-0.4L76,5.1l1,0.3c0.4,0.1,0.6-0.2,0.7-0.3l0.9-3.7l0,0l0.7-2.7c0-0.3-0.1-0.7-0.7-0.9
						l-1-0.3L78-3.9l1.9,0.5l0,0c0.3,0.1,0.6,0.2,0.9,0.2l0.6-2.3l1.4,0.3L82.1-3c0.3,0.1,0.8,0.2,1.1,0.3L83.8-5l1.4,0.3l-0.6,2.3
						c1.8,0.6,3.1,1.5,2.8,3.3C87.3,2.2,86.7,2.8,85.7,3z M80.7,2.9L80,6c0.9,0.3,3.9,1.2,4.4-0.6C84.8,3.7,81.7,3.2,80.7,2.9z
						 M81.8-1.3l-0.7,2.8c0.8,0.2,3.3,1,3.6-0.6C85.1-0.7,82.5-1.1,81.8-1.3z"/>
					
						<circle fill="none" stroke="#FFFFFF" stroke-width="0.9671" stroke-linecap="round" stroke-linejoin="round" cx="81.6" cy="2.8" r="12.3"/>
					
						<circle fill="none" stroke="#FFFFFF" stroke-width="0.9671" stroke-linecap="round" stroke-linejoin="round" cx="81.6" cy="2.7" r="9.7"/>
				</g>
				<g>
					<line fill="none" stroke="#FFFFFF" stroke-linecap="round" stroke-linejoin="round" x1="75.9" y1="24" x2="75.9" y2="30.9"/>
					<line fill="none" stroke="#FFFFFF" stroke-linecap="round" stroke-linejoin="round" x1="87.9" y1="24" x2="87.9" y2="30.9"/>
				</g>
			</g>
			<g>
				<path fill="none" stroke="#FFFFFF" stroke-width="0.9671" stroke-linecap="round" stroke-linejoin="round" d="M174.6,47.6h-34.7
					c-0.9,0-1.7-0.8-1.7-1.7V27.6c0-0.9,0.8-1.7,1.7-1.7h34.7c0.9,0,1.7,0.8,1.7,1.7v18.3C176.2,46.9,175.5,47.6,174.6,47.6z"/>
				<path fill="none" stroke="#FFFFFF" stroke-width="0.9671" stroke-linecap="round" stroke-linejoin="round" d="M146.7,42.5h-4
					c-0.9,0-1.6-0.8-1.6-1.6V37c0-0.9,0.8-1.6,1.6-1.6h4c0.9,0,1.6,0.8,1.6,1.6v3.9C148.4,41.8,147.6,42.5,146.7,42.5z"/>
				<line fill="none" stroke="#FFFFFF" stroke-linecap="round" stroke-linejoin="round" x1="143.6" y1="35.1" x2="143.6" y2="42"/>
				
					<line fill="none" stroke="#FFFFFF" stroke-linecap="round" stroke-linejoin="round" x1="141.4" y1="37.3" x2="143.1" y2="37.3"/>
				
					<line fill="none" stroke="#FFFFFF" stroke-linecap="round" stroke-linejoin="round" x1="141.4" y1="38.1" x2="143.1" y2="38.1"/>
				<line fill="none" stroke="#FFFFFF" stroke-linecap="round" stroke-linejoin="round" x1="144" y1="40.7" x2="145.7" y2="40.7"/>
				<polyline fill="none" stroke="#FFFFFF" stroke-linecap="round" stroke-linejoin="round" points="146.1,42 146.1,37.3 
					148.3,37.3 				"/>
				<line fill="none" stroke="#FFFFFF" stroke-linecap="round" stroke-linejoin="round" x1="146.6" y1="39" x2="148.3" y2="39"/>
				
					<circle fill="none" stroke="#FFFFFF" stroke-width="0.9671" stroke-linecap="round" stroke-linejoin="round" cx="169.5" cy="43.6" r="2"/>
				
					<circle fill="none" stroke="#FFFFFF" stroke-width="0.9671" stroke-linecap="round" stroke-linejoin="round" cx="172.2" cy="43.6" r="2"/>
				<g>
					<path fill="#FFFFFF" d="M151.3,39.1v-1.4c-0.1,0-0.2,0.1-0.3,0.1v-0.3c0.1-0.1,0.3-0.2,0.3-0.2h0.3v1.8
						C151.6,39.1,151.3,39.1,151.3,39.1z"/>
					<path fill="#FFFFFF" d="M153.3,39.1h-1.2v-0.3c0.2-0.3,0.4-0.5,0.6-0.7c0.1-0.1,0.1-0.2,0.1-0.3c0-0.1-0.1-0.2-0.2-0.2
						c-0.1,0-0.2,0.1-0.2,0.3l-0.3-0.1c0-0.3,0.3-0.5,0.6-0.5c0.3,0,0.6,0.2,0.6,0.5c0,0.2-0.1,0.3-0.2,0.5
						c-0.2,0.2-0.3,0.3-0.4,0.5h0.7L153.3,39.1L153.3,39.1z"/>
					<path fill="#FFFFFF" d="M153.9,38.1c0.1,0,0.2,0,0.2,0c0.1,0,0.2-0.1,0.2-0.2c0-0.1-0.1-0.2-0.3-0.2c-0.1,0-0.2,0.1-0.3,0.2
						l-0.3-0.2c0.1-0.3,0.3-0.3,0.5-0.3c0.3,0,0.6,0.2,0.6,0.5c0,0.2-0.1,0.3-0.3,0.3c0.2,0.1,0.3,0.3,0.3,0.4
						c0,0.3-0.3,0.5-0.7,0.5c-0.3,0-0.5-0.2-0.6-0.3l0.3-0.2c0.1,0.2,0.2,0.2,0.3,0.2c0.2,0,0.3-0.1,0.3-0.3s-0.2-0.3-0.3-0.3
						c0,0-0.1,0-0.2,0v-0.3H153.9z"/>
					<path fill="#FFFFFF" d="M155.7,39.1v-0.4h-0.8v-0.3c0.3-0.3,0.5-0.7,0.8-1h0.3v1h0.3v0.3H156v0.4H155.7z M155.7,38.3v-0.5
						c-0.1,0.2-0.3,0.4-0.3,0.5H155.7z"/>
					<path fill="#FFFFFF" d="M158.2,37.6h-0.6c0,0.2,0,0.3,0,0.3c0.1,0,0.2,0,0.2,0c0.3,0,0.5,0.3,0.5,0.5c0,0.3-0.3,0.6-0.6,0.6
						c-0.3,0-0.5-0.1-0.6-0.3l0.3-0.2c0.1,0.2,0.2,0.2,0.3,0.2c0.2,0,0.3-0.2,0.3-0.3c0-0.2-0.1-0.3-0.3-0.3c-0.1,0-0.2,0-0.3,0.1
						l-0.3-0.2c0-0.3,0.1-0.7,0.1-0.9h0.9L158.2,37.6L158.2,37.6z"/>
					<path fill="#FFFFFF" d="M159.6,37.5c-0.3,0.1-0.5,0.3-0.6,0.5c0.1-0.1,0.2-0.1,0.3-0.1c0.3,0,0.6,0.3,0.6,0.6
						c0,0.3-0.3,0.6-0.6,0.6c-0.4,0-0.7-0.3-0.7-0.8c0-0.6,0.4-1,0.9-1.2L159.6,37.5z M159.2,38.8c0.2,0,0.3-0.2,0.3-0.3
						c0-0.2-0.1-0.3-0.3-0.3c-0.1,0-0.3,0.1-0.3,0.2C158.8,38.6,158.9,38.8,159.2,38.8z"/>
					<path fill="#FFFFFF" d="M161.1,37.5c-0.3,0.4-0.5,1.2-0.8,1.6L160,39c0.3-0.6,0.5-1.1,0.7-1.4h-0.8v-0.3h1.2L161.1,37.5
						L161.1,37.5z"/>
					<path fill="#FFFFFF" d="M162.2,38.9c0.3-0.1,0.5-0.3,0.6-0.5c-0.1,0.1-0.2,0.1-0.3,0.1c-0.3,0-0.6-0.3-0.6-0.6s0.3-0.6,0.6-0.6
						c0.4,0,0.7,0.3,0.7,0.8c0,0.6-0.4,1-0.9,1.2V38.9z M162.6,37.6c-0.2,0-0.3,0.2-0.3,0.3c0,0.2,0.1,0.3,0.3,0.3
						c0.1,0,0.3-0.1,0.3-0.2C162.9,37.8,162.8,37.6,162.6,37.6z"/>
					<path fill="#FFFFFF" d="M164.7,38.6c0,0.3-0.3,0.5-0.6,0.5c-0.3,0-0.6-0.3-0.6-0.5c0-0.3,0.1-0.3,0.3-0.4
						c-0.2-0.1-0.2-0.2-0.2-0.3c0-0.3,0.3-0.5,0.6-0.5s0.6,0.2,0.6,0.5c0,0.2-0.1,0.3-0.2,0.3C164.7,38.2,164.7,38.4,164.7,38.6z
						 M164.3,38.6c0-0.2-0.1-0.3-0.3-0.3c-0.2,0-0.3,0.1-0.3,0.3s0.1,0.3,0.3,0.3S164.3,38.7,164.3,38.6z M164.3,37.8
						c0-0.1-0.1-0.2-0.2-0.2s-0.2,0.1-0.2,0.2c0,0.1,0.1,0.2,0.2,0.2C164.2,38,164.3,37.9,164.3,37.8z"/>
					<path fill="#FFFFFF" d="M166.1,37.5c-0.3,0.4-0.5,1.2-0.8,1.6L165,39c0.3-0.6,0.5-1.1,0.7-1.4h-0.8v-0.3h1.2L166.1,37.5
						L166.1,37.5z"/>
					<path fill="#FFFFFF" d="M167.2,37.5c-0.3,0.1-0.5,0.3-0.6,0.5c0.1-0.1,0.2-0.1,0.3-0.1c0.3,0,0.6,0.3,0.6,0.6
						c0,0.3-0.3,0.6-0.6,0.6c-0.4,0-0.7-0.3-0.7-0.8c0-0.6,0.4-1,0.9-1.2V37.5z M166.9,38.8c0.2,0,0.3-0.2,0.3-0.3
						c0-0.2-0.1-0.3-0.3-0.3c-0.1,0-0.3,0.1-0.3,0.2C166.5,38.6,166.6,38.8,166.9,38.8z"/>
					<path fill="#FFFFFF" d="M169.1,39.1v-0.4h-0.8v-0.3c0.3-0.3,0.5-0.7,0.8-1h0.3v1h0.3v0.3h-0.3v0.4H169.1z M169.1,38.3v-0.5
						c-0.1,0.2-0.3,0.4-0.3,0.5H169.1z"/>
					<path fill="#FFFFFF" d="M171,37.6h-0.6c0,0.2,0,0.3,0,0.3c0.1,0,0.2,0,0.2,0c0.3,0,0.5,0.3,0.5,0.5c0,0.3-0.3,0.6-0.6,0.6
						c-0.3,0-0.5-0.1-0.6-0.3l0.3-0.2c0.1,0.2,0.2,0.2,0.3,0.2c0.2,0,0.3-0.2,0.3-0.3c0-0.2-0.1-0.3-0.3-0.3c-0.1,0-0.2,0-0.3,0.1
						l-0.3-0.2c0-0.3,0.1-0.7,0.1-0.9h0.9L171,37.6L171,37.6z"/>
					<path fill="#FFFFFF" d="M171.7,38.1c0.1,0,0.2,0,0.2,0c0.1,0,0.2-0.1,0.2-0.2c0-0.1-0.1-0.2-0.3-0.2c-0.1,0-0.2,0.1-0.3,0.2
						l-0.3-0.2c0.1-0.3,0.3-0.3,0.5-0.3c0.3,0,0.6,0.2,0.6,0.5c0,0.2-0.1,0.3-0.3,0.3c0.2,0.1,0.3,0.3,0.3,0.4
						c0,0.3-0.3,0.5-0.7,0.5c-0.3,0-0.5-0.2-0.6-0.3l0.3-0.2c0.1,0.2,0.2,0.2,0.3,0.2c0.2,0,0.3-0.1,0.3-0.3s-0.2-0.3-0.3-0.3
						c0,0-0.1,0-0.2,0v-0.3H171.7z"/>
					<path fill="#FFFFFF" d="M173.1,38.1c0.1,0,0.2,0,0.2,0c0.1,0,0.2-0.1,0.2-0.2c0-0.1-0.1-0.2-0.3-0.2c-0.1,0-0.2,0.1-0.3,0.2
						l-0.3-0.2c0.1-0.3,0.3-0.3,0.5-0.3c0.3,0,0.6,0.2,0.6,0.5c0,0.2-0.1,0.3-0.3,0.3c0.2,0.1,0.3,0.3,0.3,0.4
						c0,0.3-0.3,0.5-0.7,0.5c-0.3,0-0.5-0.2-0.6-0.3l0.3-0.2c0.1,0.2,0.2,0.2,0.3,0.2c0.2,0,0.3-0.1,0.3-0.3s-0.2-0.3-0.3-0.3
						c0,0-0.1,0-0.2,0v-0.3H173.1z"/>
				</g>
				<g>
					<path fill="#FFFFFF" d="M142.2,29.5c0.3,0,0.6,0.1,0.9,0.2c0.3,0.2,0.3,0.4,0.3,0.7c0,0.3-0.2,0.5-0.4,0.6
						c0.3,0.1,0.5,0.3,0.5,0.7c0,0.3-0.3,0.7-0.6,0.8c-0.3,0.1-0.5,0.1-0.9,0.1h-0.8v-3.2h0.9V29.5z M142,30.8h0.2
						c0.3,0,0.6-0.1,0.6-0.3c0-0.2-0.1-0.3-0.2-0.3c-0.1-0.1-0.3-0.1-0.5-0.1H142V30.8L142,30.8z M142,32.1h0.2c0.2,0,0.3,0,0.5-0.1
						c0.1-0.1,0.2-0.2,0.2-0.3c0-0.3-0.2-0.4-0.5-0.4H142V32.1z"/>
					<path fill="#FFFFFF" d="M146.1,32.6l-0.2-0.6h-1.1l-0.2,0.6h-0.7l1.3-3.2h0.5l1.2,3.2H146.1z M144.9,31.5h0.8l-0.3-1l0,0
						L144.9,31.5z"/>
					<path fill="#FFFFFF" d="M149.3,32.6l-1.5-2v2h-0.6v-3.2h0.6l1.5,2v-2h0.6v3.2H149.3z"/>
					<path fill="#FFFFFF" d="M152,30.8l1.1,1.9h-0.8l-0.8-1.4l-0.3,0.4v0.9h-0.6v-3.2h0.6v1.3l1-1.3h0.8L152,30.8z"/>
				</g>
			</g>
			<g>
				<path fill="none" stroke="#FFFFFF" stroke-width="0.9671" stroke-linecap="round" stroke-linejoin="round" d="M20.8,2.1h-32.9
					c-1.1,0-2-0.9-2-2v-17.6c0-0.8,0.7-1.5,1.5-1.5h35.4v19C22.8,1.2,21.9,2.1,20.8,2.1z"/>
			</g>
		</g>
	</g>
	<g>
		<defs>
			<rect id="SVGID_19_" width="300" height="300"/>
		</defs>
		<clipPath id="SVGID_20_">
			<use xlink:href="#SVGID_19_"  overflow="visible"/>
		</clipPath>
		<g clip-path="url(#SVGID_20_)">
			<g>
				<path fill="none" stroke="#FFFFFF" stroke-width="0.9671" stroke-linecap="round" stroke-linejoin="round" d="M24.6,47.6h-34.7
					c-0.9,0-1.7-0.8-1.7-1.7V27.6c0-0.9,0.8-1.7,1.7-1.7h34.7c0.9,0,1.7,0.8,1.7,1.7v18.3C26.2,46.9,25.5,47.6,24.6,47.6z"/>
				
					<circle fill="none" stroke="#FFFFFF" stroke-width="0.9671" stroke-linecap="round" stroke-linejoin="round" cx="19.5" cy="43.6" r="2"/>
				
					<circle fill="none" stroke="#FFFFFF" stroke-width="0.9671" stroke-linecap="round" stroke-linejoin="round" cx="22.2" cy="43.6" r="2"/>
				<g>
					<path fill="#FFFFFF" d="M1.3,39.1v-1.4c-0.1,0-0.2,0.1-0.3,0.1v-0.3c0.1-0.1,0.3-0.2,0.3-0.2h0.3v1.8
						C1.7,39.1,1.3,39.1,1.3,39.1z"/>
					<path fill="#FFFFFF" d="M3.3,39.1H2.1v-0.3c0.2-0.3,0.4-0.5,0.6-0.7c0.1-0.1,0.1-0.2,0.1-0.3c0-0.1-0.1-0.2-0.2-0.2
						c-0.1,0-0.2,0.1-0.2,0.3l-0.3-0.1c0-0.3,0.3-0.5,0.6-0.5c0.3,0,0.6,0.2,0.6,0.5c0,0.2-0.1,0.3-0.2,0.5
						c-0.2,0.2-0.3,0.3-0.4,0.5h0.7L3.3,39.1L3.3,39.1z"/>
					<path fill="#FFFFFF" d="M3.9,38.1c0.1,0,0.2,0,0.2,0c0.1,0,0.2-0.1,0.2-0.2c0-0.1-0.1-0.2-0.3-0.2c-0.1,0-0.2,0.1-0.3,0.2
						l-0.3-0.3c0.1-0.3,0.3-0.3,0.5-0.3c0.3,0,0.6,0.2,0.6,0.5c0,0.2-0.1,0.3-0.3,0.3c0.2,0.1,0.3,0.3,0.3,0.4
						c0,0.3-0.3,0.5-0.7,0.5c-0.3,0-0.5-0.2-0.6-0.3l0.4-0.2c0.1,0.2,0.2,0.2,0.3,0.2c0.2,0.1,0.3,0,0.3-0.2s-0.2-0.3-0.3-0.3
						c0,0-0.1,0-0.2,0L3.9,38.1L3.9,38.1z"/>
					<path fill="#FFFFFF" d="M5.7,39.1v-0.4H4.9v-0.3c0.3-0.3,0.5-0.7,0.8-1H6v1h0.3v0.3H6v0.4H5.7z M5.7,38.3v-0.5
						c-0.1,0.2-0.3,0.4-0.3,0.5H5.7z"/>
					<path fill="#FFFFFF" d="M8.2,37.6H7.5c0,0.2,0,0.3,0,0.3c0.1,0,0.2,0,0.2,0c0.3,0,0.5,0.3,0.5,0.5c0,0.3-0.3,0.6-0.6,0.6
						c-0.3,0-0.5-0.1-0.6-0.3l0.3-0.2c0.1,0.2,0.2,0.2,0.3,0.2c0.2,0,0.3-0.2,0.3-0.3c0-0.2-0.1-0.3-0.3-0.3c-0.1,0-0.2,0-0.3,0.1
						l-0.3-0.2c0-0.3,0.1-0.7,0.1-0.9h0.9L8.2,37.6L8.2,37.6z"/>
					<path fill="#FFFFFF" d="M9.6,37.5C9.3,37.5,9.1,37.7,9,38c0.1-0.1,0.2-0.1,0.3-0.1c0.3,0,0.6,0.3,0.6,0.6
						c0,0.3-0.3,0.6-0.6,0.6c-0.4,0-0.7-0.3-0.7-0.8c0-0.6,0.4-1,0.9-1.2L9.6,37.5z M9.2,38.8c0.2,0,0.3-0.2,0.3-0.3
						c0-0.2-0.1-0.3-0.3-0.3c-0.1,0-0.3,0.1-0.3,0.2C8.8,38.6,8.9,38.8,9.2,38.8z"/>
					<path fill="#FFFFFF" d="M11.1,37.5c-0.3,0.4-0.5,1.2-0.8,1.6L10,39c0.3-0.6,0.5-1.1,0.7-1.4H9.9v-0.3h1.2V37.5z"/>
					<path fill="#FFFFFF" d="M12.2,38.9c0.3-0.1,0.5-0.3,0.6-0.5c-0.1,0.1-0.2,0.1-0.3,0.1c-0.3,0-0.6-0.3-0.6-0.6s0.3-0.6,0.6-0.6
						c0.4,0,0.7,0.3,0.7,0.8c0,0.6-0.4,1-0.9,1.2V38.9z M12.6,37.6c-0.2,0-0.3,0.2-0.3,0.3c0,0.2,0.1,0.3,0.3,0.3
						c0.1,0,0.3-0.1,0.3-0.2C12.9,37.8,12.8,37.6,12.6,37.6z"/>
					<path fill="#FFFFFF" d="M14.7,38.6c0,0.3-0.3,0.5-0.6,0.5c-0.3,0-0.6-0.3-0.6-0.5c0-0.3,0.1-0.3,0.3-0.4
						c-0.2-0.1-0.2-0.2-0.2-0.3c0-0.3,0.3-0.5,0.6-0.5s0.6,0.2,0.6,0.5c0,0.2-0.1,0.3-0.2,0.3C14.7,38.2,14.7,38.4,14.7,38.6z
						 M14.3,38.6c0-0.2-0.1-0.3-0.3-0.3c-0.2,0-0.3,0.1-0.3,0.3s0.1,0.3,0.3,0.3S14.3,38.7,14.3,38.6z M14.3,37.8
						c0-0.1-0.1-0.2-0.2-0.2c-0.1,0-0.2,0.1-0.2,0.2c0,0.1,0.1,0.2,0.2,0.2C14.2,38,14.3,37.9,14.3,37.8z"/>
					<path fill="#FFFFFF" d="M16.1,37.5c-0.3,0.4-0.5,1.2-0.8,1.6L15,39c0.3-0.6,0.5-1.1,0.7-1.4h-0.8v-0.3h1.2V37.5z"/>
					<path fill="#FFFFFF" d="M17.2,37.5c-0.3,0.1-0.5,0.3-0.6,0.5c0.1-0.1,0.2-0.1,0.3-0.1c0.3,0,0.6,0.3,0.6,0.6
						c0,0.3-0.3,0.6-0.6,0.6c-0.4,0-0.7-0.3-0.7-0.8c0-0.6,0.4-1,0.9-1.2V37.5z M16.9,38.8c0.2,0,0.3-0.2,0.3-0.3
						c0-0.2-0.1-0.3-0.3-0.3c-0.1,0-0.3,0.1-0.3,0.2C16.5,38.6,16.6,38.8,16.9,38.8z"/>
					<path fill="#FFFFFF" d="M19.1,39.1v-0.4h-0.8v-0.3c0.3-0.3,0.5-0.7,0.8-1h0.3v1h0.3v0.3h-0.3v0.4H19.1z M19.1,38.3v-0.5
						c-0.1,0.2-0.3,0.4-0.3,0.5H19.1z"/>
					<path fill="#FFFFFF" d="M21,37.6h-0.6c0,0.2,0,0.3,0,0.3c0.1,0,0.2,0,0.2,0c0.3,0,0.5,0.3,0.5,0.5c0,0.3-0.3,0.6-0.6,0.6
						c-0.3,0-0.5-0.1-0.6-0.3l0.3-0.2c0.1,0.2,0.2,0.2,0.3,0.2c0.2,0,0.3-0.2,0.3-0.3c0-0.2-0.1-0.3-0.3-0.3c-0.1,0-0.2,0-0.3,0.1
						L20,38.1c0-0.3,0.1-0.7,0.1-0.9H21V37.6z"/>
					<path fill="#FFFFFF" d="M21.7,38.1c0.1,0,0.2,0,0.2,0c0.1,0,0.2-0.1,0.2-0.2c0-0.1-0.1-0.2-0.3-0.2c-0.1,0-0.2,0.1-0.3,0.2
						l-0.3-0.2c0.1-0.3,0.3-0.3,0.5-0.3c0.3,0,0.6,0.2,0.6,0.5c0,0.2-0.1,0.3-0.3,0.3c0.2,0.1,0.3,0.3,0.3,0.4
						c0,0.3-0.3,0.5-0.7,0.5c-0.3,0-0.5-0.2-0.6-0.3l0.3-0.2c0.1,0.2,0.2,0.2,0.3,0.2c0.2,0,0.3-0.1,0.3-0.3s-0.2-0.3-0.3-0.3
						c0,0-0.1,0-0.2,0v-0.3H21.7z"/>
					<path fill="#FFFFFF" d="M23.1,38.1c0.1,0,0.2,0,0.2,0c0.1,0,0.2-0.1,0.2-0.2c0-0.1-0.1-0.2-0.3-0.2c-0.1,0-0.2,0.1-0.3,0.2
						l-0.3-0.2c0.1-0.3,0.3-0.3,0.5-0.3c0.3,0,0.6,0.2,0.6,0.5c0,0.2-0.1,0.3-0.3,0.3c0.2,0.1,0.3,0.3,0.3,0.4
						c0,0.3-0.3,0.5-0.7,0.5c-0.3,0-0.5-0.2-0.6-0.3l0.3-0.2c0.1,0.2,0.2,0.2,0.3,0.2c0.2,0,0.3-0.1,0.3-0.3s-0.2-0.3-0.3-0.3
						c0,0-0.1,0-0.2,0v-0.3H23.1z"/>
				</g>
				<g>
					<path fill="#FFFFFF" d="M2,30.8l1.1,1.8H2.3l-0.8-1.4l-0.3,0.4v0.9H0.6v-3.2h0.6v1.3l1-1.3H3L2,30.8z"/>
				</g>
			</g>
		</g>
	</g>
</g>
</svg>
