<?xml version="1.0" encoding="utf-8"?>
<!-- Generator: Adobe Illustrator 18.1.1, SVG Export Plug-In . SVG Version: 6.00 Build 0)  -->
<!DOCTYPE svg PUBLIC "-//W3C//DTD SVG 1.1//EN" "http://www.w3.org/Graphics/SVG/1.1/DTD/svg11.dtd">
<svg version="1.1" id="Layer_1" xmlns="http://www.w3.org/2000/svg" xmlns:xlink="http://www.w3.org/1999/xlink" x="0px" y="0px"
	 width="300px" height="300px" viewBox="0 0 300 300" enable-background="new 0 0 300 300" xml:space="preserve">
<g>
	<path fill="#676A6B" d="M150,282.8c-73.2,0-132.8-59.6-132.8-132.8C17.2,76.8,76.8,17.2,150,17.2c73.2,0,132.8,59.6,132.8,132.8
		C282.8,223.2,223.2,282.8,150,282.8z M150,47.2C93.3,47.2,47.2,93.3,47.2,150c0,56.7,46.1,102.8,102.8,102.8
		c56.7,0,102.8-46.1,102.8-102.8C252.8,93.3,206.7,47.2,150,47.2z"/>
</g>
<g>
	<rect x="136.1" y="60" fill="#676A6B" width="27.8" height="109"/>
</g>
<g>
	<rect x="136.1" y="141.2" fill="#676A6B" width="86.1" height="27.8"/>
</g>
</svg>
