<?xml version="1.0" encoding="utf-8"?>
<!-- Generator: Adobe Illustrator 18.1.1, SVG Export Plug-In . SVG Version: 6.00 Build 0)  -->
<!DOCTYPE svg PUBLIC "-//W3C//DTD SVG 1.1//EN" "http://www.w3.org/Graphics/SVG/1.1/DTD/svg11.dtd">
<svg version="1.1" id="Layer_1" xmlns="http://www.w3.org/2000/svg" xmlns:xlink="http://www.w3.org/1999/xlink" x="0px" y="0px"
	 width="114.1px" height="28.1px" viewBox="-92 136.9 114.1 28.1" enable-background="new -92 136.9 114.1 28.1"
	 xml:space="preserve">
<g>
	<polygon fill="#55575B" points="-84.1,158 -76.1,162.6 -68,158 -68,154.6 -76.1,159.2 -84.1,154.6 	"/>
	<polygon fill="#55575B" points="-76.1,158 -68,153.4 -68,144.2 -71,142.5 -71,151.6 -78.8,156.3 	"/>
	<polygon fill="#55575B" points="-88,151.4 -88,160.5 -80,165 -77,163.3 -85,158.8 -85,149.6 	"/>
	<polygon fill="#55575B" points="-76,144.3 -84,139.7 -92,144.3 -92,147.7 -84,143.1 -76,147.7 	"/>
	<polygon fill="#55575B" points="-84.2,144.3 -92,148.9 -92,158.1 -89,159.8 -89,150.7 -81.3,146 	"/>
	<polygon fill="#55575B" points="-72,150.9 -72,141.8 -80.2,137.3 -83.1,139 -75,143.5 -75,152.7 	"/>
</g>
<g>
	<g>
		<path fill="#7E8186" d="M-52.2,154.6c-0.2,0.3-0.5,0.6-0.9,0.9c-0.3,0.3-0.7,0.5-1.1,0.8c-0.4,0.2-0.9,0.4-1.3,0.5
			c-0.5,0.1-1,0.2-1.5,0.2c-0.9,0-1.6-0.1-2.4-0.4c-0.7-0.3-1.3-0.7-1.8-1.2s-0.9-1.2-1.2-1.9c-0.3-0.7-0.4-1.5-0.4-2.4
			c0-0.8,0.1-1.6,0.4-2.4s0.7-1.4,1.2-1.9s1.1-1,1.9-1.3c0.7-0.3,1.5-0.5,2.4-0.5c1.1,0,2,0.2,2.8,0.6c0.8,0.4,1.4,0.9,2,1.7
			L-54,149c-0.3-0.5-0.7-0.9-1.2-1.1s-1-0.4-1.7-0.4c-0.5,0-1,0.1-1.4,0.3c-0.4,0.2-0.8,0.4-1,0.8c-0.3,0.3-0.5,0.7-0.7,1.1
			c-0.2,0.4-0.2,0.9-0.2,1.4s0.1,1,0.2,1.4c0.2,0.4,0.4,0.8,0.7,1.1s0.6,0.6,1,0.7c0.4,0.2,0.8,0.3,1.3,0.3c0.4,0,0.8,0,1.1-0.1
			c0.3-0.1,0.6-0.2,0.8-0.3c0.2-0.1,0.4-0.3,0.6-0.5c0.2-0.2,0.4-0.4,0.5-0.6L-52.2,154.6z"/>
		<path fill="#7E8186" d="M-51.2,152.7c0-0.6,0.1-1.1,0.3-1.7c0.2-0.5,0.5-1,0.9-1.4c0.4-0.4,0.8-0.7,1.4-0.9
			c0.5-0.2,1.1-0.3,1.7-0.3c0.6,0,1.2,0.1,1.7,0.3s1,0.5,1.3,0.9c0.3,0.4,0.7,0.8,0.9,1.4c0.2,0.5,0.3,1.1,0.3,1.7
			c0,0.6-0.1,1.1-0.3,1.7c-0.2,0.5-0.5,1-0.9,1.4c-0.4,0.4-0.8,0.7-1.3,0.9s-1.1,0.3-1.7,0.3c-0.6,0-1.2-0.1-1.7-0.3s-1-0.5-1.4-0.9
			c-0.4-0.4-0.7-0.8-0.9-1.4C-51.1,153.8-51.2,153.3-51.2,152.7z M-46.9,154.8c0.3,0,0.6-0.1,0.8-0.2c0.2-0.1,0.4-0.3,0.6-0.5
			c0.2-0.2,0.3-0.4,0.4-0.7c0.1-0.3,0.1-0.5,0.1-0.8s0-0.5-0.1-0.8s-0.2-0.5-0.4-0.7s-0.4-0.4-0.6-0.5c-0.2-0.1-0.5-0.2-0.8-0.2
			s-0.6,0.1-0.8,0.2c-0.2,0.1-0.4,0.3-0.6,0.5s-0.3,0.4-0.4,0.7c-0.1,0.3-0.1,0.5-0.1,0.8s0,0.5,0.1,0.8s0.2,0.5,0.4,0.7
			s0.4,0.4,0.6,0.5C-47.5,154.7-47.2,154.8-46.9,154.8z"/>
		<path fill="#7E8186" d="M-41.2,145.4h2.6v2.2h-2.6V145.4z M-41.1,148.7h2.4v8h-2.4V148.7z"/>
		<path fill="#7E8186" d="M-36.8,148.7h2.3l0.1,0.9c0.3-0.3,0.6-0.6,1-0.8c0.4-0.2,0.9-0.3,1.3-0.3c0.9,0,1.6,0.3,2.2,0.8
			c0.5,0.5,0.8,1.3,0.8,2.4v4.9h-2.4V152c0-0.4-0.1-0.8-0.3-1.1s-0.5-0.4-0.9-0.4c-0.3,0-0.5,0-0.7,0.1c-0.2,0.1-0.4,0.2-0.5,0.4
			c-0.1,0.2-0.2,0.3-0.3,0.6c-0.1,0.2-0.1,0.4-0.1,0.7v4.3h-2.4L-36.8,148.7L-36.8,148.7z"/>
	</g>
	<g>
		<path fill="#7E8186" d="M-25.4,153.9c0.2,0.2,0.3,0.4,0.5,0.6c0.2,0.2,0.4,0.4,0.7,0.5c0.2,0.1,0.5,0.3,0.8,0.4s0.6,0.1,1,0.1
			c0.7,0,1.3-0.2,1.8-0.5c0.4-0.3,0.6-0.8,0.6-1.4c0-0.6-0.2-1.1-0.7-1.4s-1.2-0.6-2.1-0.8c-0.5-0.1-0.9-0.2-1.3-0.4
			c-0.4-0.2-0.7-0.4-1-0.7c-0.3-0.3-0.5-0.6-0.7-0.9c-0.2-0.4-0.2-0.8-0.2-1.2s0.1-0.8,0.2-1.2c0.2-0.4,0.4-0.7,0.7-1
			s0.7-0.5,1.2-0.7c0.5-0.2,1-0.3,1.6-0.3s1,0.1,1.4,0.2s0.7,0.3,1,0.4c0.3,0.2,0.5,0.3,0.7,0.5s0.3,0.3,0.4,0.4l-1.1,1
			c-0.1-0.1-0.2-0.2-0.3-0.3c-0.1-0.1-0.3-0.3-0.5-0.4c-0.2-0.1-0.5-0.2-0.7-0.3c-0.2-0.1-0.6-0.1-1-0.1s-0.7,0-0.9,0.1
			c-0.3,0.1-0.5,0.2-0.6,0.4s-0.3,0.3-0.4,0.5s-0.1,0.4-0.1,0.6c0,0.3,0.1,0.5,0.2,0.7s0.3,0.4,0.5,0.5c0.2,0.2,0.5,0.3,0.8,0.4
			c0.3,0.1,0.7,0.2,1.1,0.3s0.8,0.2,1.2,0.4c0.4,0.2,0.8,0.4,1.1,0.7c0.3,0.3,0.6,0.6,0.8,1c0.2,0.4,0.3,0.9,0.3,1.5
			c0,0.5-0.1,0.9-0.3,1.3c-0.2,0.4-0.5,0.8-0.8,1.1c-0.4,0.3-0.8,0.5-1.3,0.7s-1,0.2-1.6,0.2c-0.5,0-1-0.1-1.5-0.2
			c-0.4-0.1-0.8-0.3-1.2-0.5c-0.4-0.2-0.7-0.4-0.9-0.6c-0.3-0.2-0.5-0.5-0.7-0.7L-25.4,153.9z"/>
		<path fill="#7E8186" d="M-16.7,145.7h1.7v1.7h-1.7V145.7z M-16.6,148.8h1.5v7.9h-1.5V148.8z"/>
		<path fill="#7E8186" d="M-12.9,156.7v-7.1c0-0.3,0-0.5,0-0.8h1.5l0.1,1.2c0.1-0.1,0.2-0.3,0.4-0.5c0.1-0.2,0.3-0.3,0.5-0.5
			c0.2-0.1,0.4-0.2,0.7-0.3c0.3-0.1,0.6-0.1,1-0.1c0.6,0,1.1,0.1,1.5,0.4c0.4,0.2,0.7,0.6,0.9,1.1c0.3-0.4,0.7-0.7,1.2-1
			s1-0.4,1.7-0.4c1,0,1.8,0.3,2.3,0.9c0.5,0.6,0.7,1.4,0.7,2.4v4.7H-2v-4.6c0-0.7-0.1-1.3-0.4-1.6c-0.3-0.3-0.8-0.6-1.3-0.6
			c-0.3,0-0.6,0.1-0.9,0.2c-0.3,0.1-0.5,0.3-0.7,0.5s-0.4,0.5-0.5,0.8S-6,152-6,152.3v4.4h-1.5v-4.6c0-0.7-0.1-1.3-0.4-1.6
			c-0.3-0.3-0.7-0.6-1.2-0.6c-0.4,0-0.8,0.1-1.1,0.3c-0.3,0.2-0.5,0.4-0.7,0.7s-0.3,0.6-0.4,1s-0.1,0.7-0.1,1.1v3.7
			C-11.4,156.7-12.9,156.7-12.9,156.7z"/>
		<path fill="#7E8186" d="M1.5,160.1v-10.5c0-0.3,0-0.5,0-0.8H3v1.1c0.1-0.1,0.2-0.2,0.3-0.4c0.1-0.1,0.3-0.3,0.6-0.4
			c0.2-0.1,0.5-0.3,0.8-0.3c0.3-0.1,0.6-0.1,1-0.1c0.6,0,1.1,0.1,1.6,0.3c0.4,0.2,0.8,0.5,1.1,0.9c0.3,0.4,0.5,0.8,0.7,1.3
			c0.1,0.5,0.2,1,0.2,1.6c0,0.7-0.1,1.3-0.4,1.9c-0.3,0.6-0.6,1-1,1.3c-0.4,0.3-0.8,0.6-1.3,0.8c-0.5,0.2-1,0.2-1.4,0.2
			c-0.5,0-1-0.1-1.3-0.2c-0.3-0.1-0.6-0.2-0.9-0.3v3.7H1.5V160.1z M3.1,155c0.2,0.1,0.4,0.3,0.8,0.4c0.3,0.1,0.8,0.2,1.3,0.2
			c0.4,0,0.7-0.1,1.1-0.2c0.3-0.1,0.6-0.3,0.8-0.6c0.2-0.3,0.4-0.6,0.5-0.9s0.2-0.7,0.2-1.1c0-0.4,0-0.7-0.1-1.1
			c-0.1-0.3-0.2-0.6-0.4-0.9c-0.2-0.3-0.4-0.5-0.7-0.6c-0.3-0.1-0.8-0.3-1.2-0.3c-0.5,0-1,0.2-1.4,0.5s-0.7,0.7-0.8,1.3
			c-0.1,0.2-0.1,0.4-0.1,0.6c0,0.2,0,0.4,0,0.7V155z"/>
		<path fill="#7E8186" d="M11,145.4h1.5v11.3H11V145.4z"/>
		<path fill="#7E8186" d="M21.9,155.5c-0.1,0.1-0.2,0.2-0.4,0.4c-0.2,0.2-0.4,0.3-0.7,0.5s-0.6,0.3-1,0.4c-0.4,0.1-0.8,0.2-1.3,0.2
			c-0.6,0-1.2-0.1-1.7-0.3s-0.9-0.5-1.3-0.9c-0.4-0.4-0.6-0.8-0.8-1.3c-0.2-0.5-0.3-1.1-0.3-1.7c0-0.6,0.1-1.1,0.3-1.6
			c0.2-0.5,0.5-0.9,0.8-1.3c0.4-0.4,0.8-0.7,1.2-0.9c0.5-0.2,1-0.3,1.6-0.3c0.7,0,1.3,0.1,1.8,0.4c0.5,0.3,0.9,0.6,1.2,1
			c0.3,0.4,0.5,0.9,0.7,1.5c0.1,0.6,0.2,1.1,0.2,1.7H16c0,0.4,0.1,0.7,0.2,1c0.1,0.3,0.3,0.5,0.6,0.8c0.2,0.2,0.5,0.4,0.8,0.5
			c0.3,0.1,0.6,0.2,1,0.2c0.7,0,1.2-0.1,1.6-0.3s0.7-0.4,0.9-0.7L21.9,155.5z M20.5,152.1c0-0.6-0.3-1.1-0.6-1.6
			c-0.4-0.4-0.9-0.6-1.6-0.6c-0.4,0-0.7,0.1-1,0.2c-0.3,0.1-0.5,0.3-0.7,0.5s-0.4,0.4-0.5,0.7c-0.1,0.3-0.2,0.5-0.2,0.8
			C15.9,152.1,20.5,152.1,20.5,152.1z"/>
	</g>
</g>
</svg>
