<?xml version="1.0" encoding="utf-8"?>
<!-- Generator: Adobe Illustrator 18.1.1, SVG Export Plug-In . SVG Version: 6.00 Build 0)  -->
<!DOCTYPE svg PUBLIC "-//W3C//DTD SVG 1.1//EN" "http://www.w3.org/Graphics/SVG/1.1/DTD/svg11.dtd">
<svg version="1.1" id="Layer_1" xmlns="http://www.w3.org/2000/svg" xmlns:xlink="http://www.w3.org/1999/xlink" x="0px" y="0px"
	 width="114.1px" height="28.1px" viewBox="0 0 114.1 28.1" enable-background="new 0 0 114.1 28.1" xml:space="preserve">
<g>
	<polygon fill="#70A4FC" points="7.9,21.1 15.9,25.7 24,21.1 24,17.7 15.9,22.3 7.9,17.7 	"/>
	<polygon fill="#70A4FC" points="15.9,21.1 24,16.5 24,7.3 21,5.6 21,14.7 13.2,19.4 	"/>
	<polygon fill="#70A4FC" points="4,14.5 4,23.6 12,28.1 15,26.4 7,21.9 7,12.7 	"/>
	<polygon fill="#70A4FC" points="16,7.4 8,2.8 0,7.4 0,10.8 8,6.2 16,10.8 	"/>
	<polygon fill="#70A4FC" points="7.8,7.4 0,12 0,21.2 3,22.9 3,13.8 10.7,9.1 	"/>
	<polygon fill="#70A4FC" points="20,14 20,4.9 11.8,0.4 8.9,2.1 17,6.6 17,15.8 	"/>
</g>
<g>
	<g>
		<path fill="#2D2E30" d="M39.8,17.7c-0.2,0.3-0.5,0.6-0.9,0.9c-0.3,0.3-0.7,0.5-1.1,0.8c-0.4,0.2-0.9,0.4-1.3,0.5
			c-0.5,0.1-1,0.2-1.5,0.2c-0.9,0-1.6-0.1-2.4-0.4c-0.7-0.3-1.3-0.7-1.8-1.2c-0.5-0.5-0.9-1.2-1.2-1.9c-0.3-0.7-0.4-1.5-0.4-2.4
			c0-0.8,0.1-1.6,0.4-2.4s0.7-1.4,1.2-1.9c0.5-0.5,1.1-1,1.9-1.3c0.7-0.3,1.5-0.5,2.4-0.5c1.1,0,2,0.2,2.8,0.6
			c0.8,0.4,1.4,0.9,2,1.7L38,12.1c-0.3-0.5-0.7-0.9-1.2-1.1s-1-0.4-1.7-0.4c-0.5,0-1,0.1-1.4,0.3c-0.4,0.2-0.8,0.4-1,0.8
			c-0.3,0.3-0.5,0.7-0.7,1.1c-0.2,0.4-0.2,0.9-0.2,1.4c0,0.5,0.1,1,0.2,1.4c0.2,0.4,0.4,0.8,0.7,1.1s0.6,0.6,1,0.7
			c0.4,0.2,0.8,0.3,1.3,0.3c0.4,0,0.8,0,1.1-0.1s0.6-0.2,0.8-0.3c0.2-0.1,0.4-0.3,0.6-0.5c0.2-0.2,0.4-0.4,0.5-0.6L39.8,17.7z"/>
		<path fill="#2D2E30" d="M40.8,15.8c0-0.6,0.1-1.1,0.3-1.7c0.2-0.5,0.5-1,0.9-1.4s0.8-0.7,1.4-0.9c0.5-0.2,1.1-0.3,1.7-0.3
			c0.6,0,1.2,0.1,1.7,0.3c0.5,0.2,1,0.5,1.3,0.9s0.7,0.8,0.9,1.4c0.2,0.5,0.3,1.1,0.3,1.7c0,0.6-0.1,1.1-0.3,1.7
			c-0.2,0.5-0.5,1-0.9,1.4c-0.4,0.4-0.8,0.7-1.3,0.9c-0.5,0.2-1.1,0.3-1.7,0.3c-0.6,0-1.2-0.1-1.7-0.3s-1-0.5-1.4-0.9
			c-0.4-0.4-0.7-0.8-0.9-1.4C40.9,16.9,40.8,16.4,40.8,15.8z M45.1,17.9c0.3,0,0.6-0.1,0.8-0.2c0.2-0.1,0.4-0.3,0.6-0.5
			c0.2-0.2,0.3-0.4,0.4-0.7c0.1-0.3,0.1-0.5,0.1-0.8s0-0.5-0.1-0.8c-0.1-0.3-0.2-0.5-0.4-0.7c-0.2-0.2-0.4-0.4-0.6-0.5
			c-0.2-0.1-0.5-0.2-0.8-0.2c-0.3,0-0.6,0.1-0.8,0.2s-0.4,0.3-0.6,0.5s-0.3,0.4-0.4,0.7c-0.1,0.3-0.1,0.5-0.1,0.8s0,0.5,0.1,0.8
			c0.1,0.3,0.2,0.5,0.4,0.7s0.4,0.4,0.6,0.5S44.8,17.9,45.1,17.9z"/>
		<path fill="#2D2E30" d="M50.8,8.5h2.6v2.2h-2.6V8.5z M50.9,11.8h2.4v8h-2.4V11.8z"/>
		<path fill="#2D2E30" d="M55.2,11.8h2.3l0.1,0.9c0.3-0.3,0.6-0.6,1-0.8c0.4-0.2,0.9-0.3,1.3-0.3c0.9,0,1.6,0.3,2.2,0.8
			c0.5,0.5,0.8,1.3,0.8,2.4v4.9h-2.4v-4.6c0-0.4-0.1-0.8-0.3-1.1c-0.2-0.3-0.5-0.4-0.9-0.4c-0.3,0-0.5,0-0.7,0.1
			c-0.2,0.1-0.4,0.2-0.5,0.4c-0.1,0.2-0.2,0.3-0.3,0.6c-0.1,0.2-0.1,0.4-0.1,0.7v4.3h-2.4V11.8z"/>
	</g>
	<g>
		<path fill="#2D2E30" d="M66.6,17c0.2,0.2,0.3,0.4,0.5,0.6c0.2,0.2,0.4,0.4,0.7,0.5c0.2,0.1,0.5,0.3,0.8,0.4c0.3,0.1,0.6,0.1,1,0.1
			c0.7,0,1.3-0.2,1.8-0.5c0.4-0.3,0.6-0.8,0.6-1.4c0-0.6-0.2-1.1-0.7-1.4c-0.5-0.3-1.2-0.6-2.1-0.8c-0.5-0.1-0.9-0.2-1.3-0.4
			c-0.4-0.2-0.7-0.4-1-0.7s-0.5-0.6-0.7-0.9c-0.2-0.4-0.2-0.8-0.2-1.2c0-0.4,0.1-0.8,0.2-1.2c0.2-0.4,0.4-0.7,0.7-1s0.7-0.5,1.2-0.7
			s1-0.3,1.6-0.3c0.6,0,1,0.1,1.4,0.2c0.4,0.1,0.7,0.3,1,0.4c0.3,0.2,0.5,0.3,0.7,0.5s0.3,0.3,0.4,0.4l-1.1,1
			c-0.1-0.1-0.2-0.2-0.3-0.3c-0.1-0.1-0.3-0.3-0.5-0.4c-0.2-0.1-0.5-0.2-0.7-0.3s-0.6-0.1-1-0.1s-0.7,0-0.9,0.1
			c-0.3,0.1-0.5,0.2-0.6,0.4s-0.3,0.3-0.4,0.5c-0.1,0.2-0.1,0.4-0.1,0.6c0,0.3,0.1,0.5,0.2,0.7c0.1,0.2,0.3,0.4,0.5,0.5
			c0.2,0.2,0.5,0.3,0.8,0.4c0.3,0.1,0.7,0.2,1.1,0.3c0.4,0.1,0.8,0.2,1.2,0.4c0.4,0.2,0.8,0.4,1.1,0.7s0.6,0.6,0.8,1
			c0.2,0.4,0.3,0.9,0.3,1.5c0,0.5-0.1,0.9-0.3,1.3c-0.2,0.4-0.5,0.8-0.8,1.1c-0.4,0.3-0.8,0.5-1.3,0.7c-0.5,0.2-1,0.2-1.6,0.2
			c-0.5,0-1-0.1-1.5-0.2c-0.4-0.1-0.8-0.3-1.2-0.5c-0.4-0.2-0.7-0.4-0.9-0.6c-0.3-0.2-0.5-0.5-0.7-0.7L66.6,17z"/>
		<path fill="#2D2E30" d="M75.3,8.8H77v1.7h-1.7V8.8z M75.4,11.9h1.5v7.9h-1.5V11.9z"/>
		<path fill="#2D2E30" d="M79.1,19.8v-7.1c0-0.3,0-0.5,0-0.8h1.5l0.1,1.2c0.1-0.1,0.2-0.3,0.4-0.5c0.1-0.2,0.3-0.3,0.5-0.5
			c0.2-0.1,0.4-0.2,0.7-0.3c0.3-0.1,0.6-0.1,1-0.1c0.6,0,1.1,0.1,1.5,0.4c0.4,0.2,0.7,0.6,0.9,1.1c0.3-0.4,0.7-0.7,1.2-1
			c0.5-0.3,1-0.4,1.7-0.4c1,0,1.8,0.3,2.3,0.9c0.5,0.6,0.7,1.4,0.7,2.4v4.7H90v-4.6c0-0.7-0.1-1.3-0.4-1.6S88.8,13,88.3,13
			c-0.3,0-0.6,0.1-0.9,0.2s-0.5,0.3-0.7,0.5s-0.4,0.5-0.5,0.8c-0.1,0.3-0.2,0.6-0.2,0.9v4.4h-1.5v-4.6c0-0.7-0.1-1.3-0.4-1.6
			S83.4,13,82.9,13c-0.4,0-0.8,0.1-1.1,0.3c-0.3,0.2-0.5,0.4-0.7,0.7s-0.3,0.6-0.4,1c-0.1,0.4-0.1,0.7-0.1,1.1v3.7H79.1z"/>
		<path fill="#2D2E30" d="M93.5,23.2V12.7c0-0.3,0-0.5,0-0.8H95L95,13c0.1-0.1,0.2-0.2,0.3-0.4c0.1-0.1,0.3-0.3,0.6-0.4
			c0.2-0.1,0.5-0.3,0.8-0.3c0.3-0.1,0.6-0.1,1-0.1c0.6,0,1.1,0.1,1.6,0.3c0.4,0.2,0.8,0.5,1.1,0.9c0.3,0.4,0.5,0.8,0.7,1.3
			c0.1,0.5,0.2,1,0.2,1.6c0,0.7-0.1,1.3-0.4,1.9s-0.6,1-1,1.3c-0.4,0.3-0.8,0.6-1.3,0.8c-0.5,0.2-1,0.2-1.4,0.2
			c-0.5,0-1-0.1-1.3-0.2c-0.3-0.1-0.6-0.2-0.9-0.3v3.7H93.5z M95.1,18.1c0.2,0.1,0.4,0.3,0.8,0.4c0.3,0.1,0.8,0.2,1.3,0.2
			c0.4,0,0.7-0.1,1.1-0.2c0.3-0.1,0.6-0.3,0.8-0.6c0.2-0.3,0.4-0.6,0.5-0.9c0.1-0.3,0.2-0.7,0.2-1.1c0-0.4,0-0.7-0.1-1.1
			c-0.1-0.3-0.2-0.6-0.4-0.9s-0.4-0.5-0.7-0.6S97.8,13,97.4,13c-0.5,0-1,0.2-1.4,0.5s-0.7,0.7-0.8,1.3c-0.1,0.2-0.1,0.4-0.1,0.6
			s0,0.4,0,0.7V18.1z"/>
		<path fill="#2D2E30" d="M103,8.5h1.5v11.3H103V8.5z"/>
		<path fill="#2D2E30" d="M113.9,18.6c-0.1,0.1-0.2,0.2-0.4,0.4c-0.2,0.2-0.4,0.3-0.7,0.5s-0.6,0.3-1,0.4s-0.8,0.2-1.3,0.2
			c-0.6,0-1.2-0.1-1.7-0.3c-0.5-0.2-0.9-0.5-1.3-0.9s-0.6-0.8-0.8-1.3c-0.2-0.5-0.3-1.1-0.3-1.7c0-0.6,0.1-1.1,0.3-1.6
			c0.2-0.5,0.5-0.9,0.8-1.3c0.4-0.4,0.8-0.7,1.2-0.9c0.5-0.2,1-0.3,1.6-0.3c0.7,0,1.3,0.1,1.8,0.4s0.9,0.6,1.2,1
			c0.3,0.4,0.5,0.9,0.7,1.5c0.1,0.6,0.2,1.1,0.2,1.7h-6.2c0,0.4,0.1,0.7,0.2,1c0.1,0.3,0.3,0.5,0.6,0.8c0.2,0.2,0.5,0.4,0.8,0.5
			c0.3,0.1,0.6,0.2,1,0.2c0.7,0,1.2-0.1,1.6-0.3s0.7-0.4,0.9-0.7L113.9,18.6z M112.5,15.2c0-0.6-0.3-1.1-0.6-1.6
			c-0.4-0.4-0.9-0.6-1.6-0.6c-0.4,0-0.7,0.1-1,0.2c-0.3,0.1-0.5,0.3-0.7,0.5s-0.4,0.4-0.5,0.7s-0.2,0.5-0.2,0.8H112.5z"/>
	</g>
</g>
</svg>
