<?xml version="1.0" encoding="utf-8"?>
<!-- Generator: Adobe Illustrator 18.1.1, SVG Export Plug-In . SVG Version: 6.00 Build 0)  -->
<!DOCTYPE svg PUBLIC "-//W3C//DTD SVG 1.1//EN" "http://www.w3.org/Graphics/SVG/1.1/DTD/svg11.dtd">
<svg version="1.1" id="Layer_1" xmlns="http://www.w3.org/2000/svg" xmlns:xlink="http://www.w3.org/1999/xlink" x="0px" y="0px"
	 width="300x" height="247.9px" viewBox="-149 177.1 300 247.9" enable-background="new -149 177.1 300 247.9"
	 xml:space="preserve">
<g id="New_Symbol_1_1_">
</g>
<g id="New_Symbol_2_1_">
</g>
<g>
	<g>
		<path fill="#568CDB" d="M-63.7,253.4H-131c-3.5,0-6.4-2.9-6.4-6.4v-57.4h1.4v57.3c0,2.8,2.3,5,5,5h67.3c2.8,0,5-2.3,5-5v-16.8h1.4
			V247C-57.3,250.5-60.2,253.4-63.7,253.4z"/>
	</g>
	<g>
		<path fill="#568CDB" d="M-57.3,218.1h-1.4v-18.7c0-2.8-2.3-5-5-5h-69c-1.6-0.1-4.6-1.2-4.6-5c0-1.4,0.4-2.5,1.3-3.3
			c1.5-1.4,3.7-1.2,3.8-1.2h65.8c3.5,0,6.4,2.9,6.4,6.4v2.8c1.7,1.2,2.8,3.1,2.8,5.3v18.7H-57.3z M-132,193h68.3
			c0.8,0,1.5,0.1,2.2,0.4v-2.1c0-2.8-2.3-5-5-5h-65.9c-0.1,0-1.7-0.1-2.8,0.8c-0.6,0.5-0.8,1.3-0.8,2.3c0,3.5,3.1,3.6,3.3,3.6H-132z
			"/>
	</g>
	<g>
		<g>
			<g>
				<rect x="-62.3" y="217.1" fill="#568CDB" width="1" height="1.3"/>
			</g>
			<g>
				<path fill="#568CDB" d="M-61.3,215.2h-1v-2h1V215.2z M-61.3,211.6h-1v-2h1V211.6z M-61.3,208.1h-1v-2h1V208.1z M-61.3,204.5h-1
					v-0.1c0-0.6-0.1-1.2-0.3-1.7l1-0.3C-61.4,203.1-61.3,203.7-61.3,204.5L-61.3,204.5z M-63.1,201.4c-0.3-0.5-0.7-1-1.2-1.4
					l0.7-0.8c0.5,0.5,1,1.1,1.4,1.7L-63.1,201.4z M-65.5,199.1c-0.6-0.3-1.1-0.5-1.8-0.6l0.2-1c0.7,0.1,1.4,0.4,2.1,0.7L-65.5,199.1
					z M-68.7,198.4h-2v-1h2V198.4z M-72.2,198.4h-2v-1h2V198.4z M-75.8,198.4h-2v-1h2V198.4z M-79.3,198.4h-2v-1h2V198.4z
					 M-82.9,198.4h-2v-1h2V198.4z M-86.5,198.4h-2v-1h2V198.4z M-90,198.4h-2v-1h2V198.4z M-93.6,198.4h-2v-1h2V198.4z M-97.1,198.4
					h-2v-1h2V198.4z M-100.7,198.4h-2v-1h2V198.4z M-104.3,198.4h-2v-1h2V198.4z M-107.8,198.4h-2v-1h2V198.4z M-111.4,198.4h-2v-1
					h2V198.4z M-114.9,198.4h-2v-1h2V198.4z M-118.5,198.4h-2v-1h2V198.4z M-122.1,198.4h-2v-1h2V198.4z M-125.6,198.4h-2v-1h2
					V198.4z M-129.2,198.4h-2v-1h2V198.4z M-132.7,198.4h-1.9v-1h1.9V198.4z"/>
			</g>
			<g>
				<rect x="-136.8" y="197.4" fill="#568CDB" width="1.3" height="1"/>
			</g>
		</g>
	</g>
	<g>
		<g>
			<g>
				<rect x="-136.2" y="247.7" fill="#568CDB" width="1.3" height="1"/>
			</g>
			<g>
				<path fill="#568CDB" d="M-69.5,248.8h-2.1v-1h2.1V248.8z M-73.1,248.8h-2.1v-1h2.1V248.8z M-76.8,248.8h-2.1v-1h2.1V248.8z
					 M-80.4,248.8h-2.1v-1h2.1V248.8z M-84,248.8h-2v-1h2V248.8z M-87.6,248.8h-2.1v-1h2.1V248.8z M-91.2,248.8h-2.1v-1h2.1V248.8z
					 M-94.8,248.8h-2.1v-1h2.1V248.8z M-98.4,248.8h-2.1v-1h2.1V248.8z M-102,248.8h-2.1v-1h2.1V248.8z M-105.7,248.8h-2.1v-1h2.1
					V248.8z M-109.3,248.8h-2.1v-1h2.1V248.8z M-112.9,248.8h-2.1v-1h2.1V248.8z M-116.5,248.8h-2.1v-1h2.1V248.8z M-120.1,248.8
					h-2.1v-1h2.1V248.8z M-123.7,248.8h-2.1v-1h2.1V248.8z M-127.3,248.8h-2.1v-1h2.1V248.8z M-131,248.8h-2v-1h2V248.8z M-68,248.7
					v-1c0.6,0,1.3-0.2,1.9-0.4l0.4,0.9C-66.5,248.6-67.2,248.7-68,248.7z M-64.3,247.5l-0.6-0.8c0.5-0.4,1-0.8,1.4-1.3l0.8,0.6
					C-63.2,246.6-63.7,247.1-64.3,247.5z M-61.9,244.5l-0.9-0.4c0.3-0.6,0.4-1.2,0.5-1.8l1,0.1C-61.4,243.1-61.6,243.8-61.9,244.5z
					 M-61.3,240.8h-1v-2.1h1V240.8z M-61.3,237.2h-1v-2.1h1V237.2z M-61.3,233.6h-1v-1.1h1V233.6z"/>
			</g>
			<g>
				<rect x="-62.3" y="230.3" fill="#568CDB" width="1" height="1.3"/>
			</g>
		</g>
	</g>
	<g>
		<path fill="#568CDB" d="M-55.1,230.6h-12.6c-3.5,0-6.4-2.9-6.4-6.4s2.9-6.4,6.4-6.4h12.5L-55.1,230.6L-55.1,230.6z M-67.7,219.2
			c-2.8,0-5,2.3-5,5c0,2.8,2.3,5,5,5h11.1v-10H-67.7z"/>
	</g>
	<g>
		<path fill="#568CDB" d="M-67.7,227.9c-2.1,0-3.8-1.7-3.8-3.8s1.7-3.8,3.8-3.8c2.1,0,3.8,1.7,3.8,3.8S-65.6,227.9-67.7,227.9z
			 M-67.7,221.3c-1.5,0-2.8,1.3-2.8,2.8s1.3,2.8,2.8,2.8s2.8-1.3,2.8-2.8S-66.1,221.3-67.7,221.3z"/>
	</g>
	<g>
		<path fill="#568CDB" d="M-64.1,192.8h-67.5c-0.1,0-2.5-0.5-2.5-3.1c0-2.8,3.6-2.8,5.8-2.8h62.5v5.1h-0.7v-4.4h-61.8
			c-2.6,0-5.1,0.2-5.1,2.1c0,2.1,1.8,2.4,1.9,2.5h67.4V192.8z"/>
	</g>
	<g>
		<rect x="-133.1" y="189.4" fill="#568CDB" width="67.4" height="0.7"/>
	</g>
</g>
<g>
	<g>
		<path fill="#568CDB" d="M133.2,253.3H66c-3.5,0-6.4-2.9-6.4-6.4v-57.2c0-0.1,0-0.2,0-0.3c0-1.4,0.4-2.5,1.3-3.3
			c1.5-1.4,3.7-1.2,3.8-1.2h65.8c3.5,0,6.4,2.9,6.4,6.4v2.8c1.7,1.2,2.8,3.1,2.8,5.3v47.4C139.6,250.4,136.8,253.3,133.2,253.3z
			 M60.9,193v53.8c0,2.8,2.3,5,5,5h67.3c2.8,0,5-2.3,5-5v-47.4c0-2.8-2.3-5-5-5h-69C63.3,194.4,62,194,60.9,193z M65,193h68.3
			c0.8,0,1.5,0.1,2.2,0.4v-2.1c0-2.8-2.3-5-5-5H64.6c-0.1,0-1.7-0.1-2.8,0.8c-0.6,0.5-0.8,1.3-0.8,2.3c0,3.4,2.9,3.6,3.3,3.6H65z"/>
	</g>
	<g>
		<g>
			<g>
				<rect x="60.6" y="247.7" fill="#568CDB" width="1.3" height="1"/>
			</g>
			<g>
				<path fill="#568CDB" d="M128.5,248.8h-0.6v-1h0.6c0.4,0,0.9,0,1.3-0.1l0.2,1C129.5,248.7,129,248.8,128.5,248.8z M126.4,248.8
					h-2v-1h2V248.8z M122.8,248.8h-2v-1h2V248.8z M119.2,248.8h-2v-1h2V248.8z M115.7,248.8h-2v-1h2V248.8z M112.1,248.8h-2v-1h2
					V248.8z M108.6,248.8h-2v-1h2V248.8z M105,248.8h-2v-1h2V248.8z M101.4,248.8h-2v-1h2V248.8z M97.9,248.8h-2v-1h2V248.8z
					 M94.3,248.8h-2v-1h2V248.8z M90.8,248.8h-2v-1h2V248.8z M87.2,248.8h-2v-1h2V248.8z M83.6,248.8h-2v-1h2V248.8z M80.1,248.8h-2
					v-1h2V248.8z M76.5,248.8h-2v-1h2V248.8z M73,248.8h-2v-1h2V248.8z M69.4,248.8h-2v-1h2V248.8z M65.8,248.8h-2v-1h2V248.8z
					 M131.6,248.1l-0.4-0.9c0.6-0.3,1.1-0.6,1.5-1.1l0.7,0.7C132.8,247.3,132.2,247.7,131.6,248.1z M134.4,245.5l-0.9-0.6
					c0.3-0.5,0.6-1.1,0.8-1.7l1,0.3C135.1,244.2,134.8,244.9,134.4,245.5z M135.5,241.9h-1v-2h1V241.9z M135.5,238.3h-1v-2h1V238.3z
					 M135.5,234.8h-1v-2h1V234.8z M135.5,231.2h-1v-2h1V231.2z M135.5,227.7h-1v-2h1V227.7z M135.5,224.1h-1v-2h1V224.1z
					 M135.5,220.5h-1v-2h1V220.5z M135.5,217h-1v-2h1V217z M135.5,213.4h-1v-2h1V213.4z M135.5,209.9h-1v-2h1V209.9z M135.5,206.3
					h-1v-1.9l1-0.1V206.3z M134.3,202.9c-0.2-0.6-0.4-1.2-0.7-1.7l0.9-0.5c0.4,0.6,0.7,1.3,0.9,2L134.3,202.9z M132.7,200.1
					c-0.5-0.4-1-0.8-1.5-1.1l0.5-0.9c0.7,0.3,1.3,0.7,1.8,1.3L132.7,200.1z M129.8,198.5c-0.4-0.1-0.9-0.1-1.3-0.1h-0.6v-1h0.6
					c0.5,0,1,0.1,1.5,0.2L129.8,198.5z M126.4,198.4h-2v-1h2V198.4z M122.8,198.4h-2v-1h2V198.4z M119.3,198.4h-2v-1h2V198.4z
					 M115.7,198.4h-2v-1h2V198.4z M112.2,198.4h-2v-1h2V198.4z M108.6,198.4h-2v-1h2V198.4z M105,198.4h-2v-1h2V198.4z M101.5,198.4
					h-2v-1h2V198.4z M97.9,198.4h-2v-1h2V198.4z M94.4,198.4h-2v-1h2V198.4z M90.8,198.4h-2v-1h2V198.4z M87.2,198.4h-2v-1h2V198.4z
					 M83.7,198.4h-2v-1h2V198.4z M80.1,198.4h-2v-1h2V198.4z M76.6,198.4h-2v-1h2V198.4z M73,198.4h-2v-1h2V198.4z M69.4,198.4h-2
					v-1h2V198.4z M65.9,198.4h-2v-1h2V198.4z M62.3,198.4L62.3,198.4v-1V198.4z"/>
			</g>
			<g>
				<rect x="60" y="197.4" fill="#568CDB" width="1.3" height="1"/>
			</g>
		</g>
	</g>
	<g>
		<path fill="#568CDB" d="M132.8,192.8H65.3c-0.1,0-2.5-0.5-2.5-3.1c0-2.8,3.6-2.8,5.8-2.8h62.5v5.1h-0.7v-4.4H68.6
			c-2.6,0-5.1,0.2-5.1,2.1c0,2.1,1.8,2.4,1.9,2.5h67.4L132.8,192.8L132.8,192.8z"/>
	</g>
	<g>
		<rect x="63.8" y="189.4" fill="#568CDB" width="67.3" height="0.7"/>
	</g>
	<g>
		<path fill="#568CDB" d="M126.4,245.2c-3.1,0-5.6-2.5-5.6-5.6s2.5-5.6,5.6-5.6s5.6,2.5,5.6,5.6S129.4,245.2,126.4,245.2z
			 M126.4,235c-2.5,0-4.6,2.1-4.6,4.6s2.1,4.6,4.6,4.6s4.6-2.1,4.6-4.6C130.9,237.1,128.9,235,126.4,235z"/>
	</g>
</g>
<g>
	<g>
		<path fill="#568CDB" d="M35.7,253.3h-67.3c-3.5,0-6.4-2.9-6.4-6.4v-57.2c0-0.1,0-0.2,0-0.3c0-1.4,0.4-2.5,1.3-3.3
			c1.5-1.4,3.7-1.2,3.8-1.2h65.8c3.5,0,6.4,2.9,6.4,6.4v2.8c1.7,1.2,2.8,3.1,2.8,5.3v47.4C42.1,250.4,39.2,253.3,35.7,253.3z
			 M-36.6,193v53.8c0,2.8,2.3,5,5,5h67.3c2.8,0,5-2.3,5-5v-47.4c0-2.8-2.3-5-5-5h-69C-34.2,194.4-35.6,194-36.6,193z M-32.6,193
			h68.3c0.8,0,1.5,0.1,2.2,0.4v-2.1c0-2.8-2.3-5-5-5H-33c-0.1,0-1.7-0.1-2.8,0.8c-0.6,0.5-0.8,1.3-0.8,2.3c0,3.4,2.9,3.6,3.3,3.6
			H-32.6z"/>
	</g>
	<g>
		<path fill="#568CDB" d="M35.2,192.8h-67.4c-0.1,0-2.5-0.5-2.5-3.1c0-2.8,3.6-2.8,5.8-2.8h62.4v5.1h-0.7v-4.4h-61.7
			c-2.6,0-5.1,0.2-5.1,2.1c0,2.1,1.8,2.4,1.9,2.5h67.3L35.2,192.8L35.2,192.8z"/>
	</g>
	<g>
		<rect x="-33.8" y="189.4" fill="#568CDB" width="67.4" height="0.7"/>
	</g>
</g>
<g>
	<g>
		<path fill="#568CDB" d="M12.6,410.9l-21.2-12.5v-10.6l21.3,12.5l22.4-12.5v10.6L12.6,410.9z M-7.2,397.6l19.8,11.7l21.2-11.7v-7.4
			l-21.1,11.7l-19.9-11.7V397.6z"/>
	</g>
	<g>
		<path fill="#568CDB" d="M12.6,399l-8.8-5.4l21.4-12.8V356l10,5.2v25L12.6,399z M6.4,393.6l6.2,3.8l21.2-12.1V362l-7.3-3.7v23.3
			L6.4,393.6z"/>
	</g>
	<g>
		<path fill="#568CDB" d="M2.1,417.3l-21-12.2v-25l9.1-5.4v25.1l21.4,12.1L2.1,417.3z M-17.5,404.2l19.7,11.4l6.7-3.8l-20-11.3
			v-23.4l-6.4,3.8V404.2z"/>
	</g>
	<g>
		<path fill="#568CDB" d="M-30.2,371.9v-10.6L-8.3,349l21.8,12.3v10.6l-21.9-12.3L-30.2,371.9z M-8.4,357.9l20.5,11.6v-7.4
			l-20.4-11.6l-20.5,11.6v7.4L-8.4,357.9z"/>
	</g>
	<g>
		<path fill="#568CDB" d="M-20.2,403.9l-10-5.2v-25l20.9-12.9l9.7,5.3l-20.6,13V403.9z M-28.8,397.9l7.3,3.7v-23.3l19.2-12l-6.9-3.8
			l-19.5,12v23.4H-28.8z"/>
	</g>
	<g>
		<path fill="#568CDB" d="M14.7,385.1V360l-22.2-12.1l8.6-5.4l22.7,12.2v25L14.7,385.1z M-4.7,347.9l20.8,11.3v23.5l6.4-3.8v-23.3
			L1.2,344.2L-4.7,347.9z"/>
	</g>
</g>
<g>
	<g>
		<g>
			<rect x="0.9" y="319.4" fill="#568CDB" width="1.4" height="1.3"/>
		</g>
		<g>
			<path fill="#568CDB" d="M2.3,340.3H0.9v-2.2h1.4V340.3z M2.3,336.5H0.9v-2.2h1.4V336.5z M2.3,332.6H0.9v-2.2h1.4V332.6z
				 M2.3,328.8H0.9v-2.2h1.4V328.8z M2.3,324.9H0.9v-2.2h1.4V324.9z"/>
		</g>
		<g>
			<rect x="0.9" y="341.8" fill="#568CDB" width="1.4" height="1.3"/>
		</g>
	</g>
</g>
<g>
	<g>
		<g>
			<rect x="0.9" y="252.8" fill="#568CDB" width="1.4" height="1.3"/>
		</g>
		<g>
			<path fill="#568CDB" d="M2.3,283.2H0.9v-0.6h1.4V283.2z M2.3,281H0.9v-2.2h1.4V281z M2.3,277.2H0.9V275h1.4V277.2z M2.3,273.4
				H0.9v-2.2h1.4V273.4z M2.3,269.6H0.9v-2.2h1.4V269.6z M2.3,265.9H0.9v-2.2h1.4V265.9z M2.3,262.1H0.9v-2.2h1.4V262.1z M2.3,258.3
				H0.9v-2.2h1.4V258.3z"/>
		</g>
		<g>
			<rect x="0.9" y="284.2" fill="#568CDB" width="1.4" height="1.3"/>
		</g>
	</g>
</g>
<g>
	<path fill="#568CDB" d="M0.7,268.7H-1v-1.4h1.7V268.7z M-2.4,268.7h-2.1v-1.4h2.1V268.7z M-5.9,268.7H-8v-1.4h2.1V268.7z
		 M-9.4,268.7h-2.1v-1.4h2.1V268.7z M-12.8,268.7h-2.1v-1.4h2.1V268.7z M-16.3,268.7h-2.1v-1.4h2.1V268.7z M-19.8,268.7h-2.1v-1.4
		h2.1V268.7z M-23.3,268.7h-2.1v-1.4h2.1V268.7z M-26.8,268.7h-2.1v-1.4h2.1V268.7z M-30.3,268.7h-2.1v-1.4h2.1V268.7z M-33.7,268.7
		h-2.1v-1.4h2.1V268.7z M-37.2,268.7h-2.1v-1.4h2.1V268.7z M-40.7,268.7h-2.1v-1.4h2.1V268.7z M-44.2,268.7h-2.1v-1.4h2.1V268.7z
		 M-47.7,268.7h-2.1v-1.4h2.1V268.7z M-51.1,268.7h-2.1v-1.4h2.1V268.7z M-54.6,268.7h-2.1v-1.4h2.1V268.7z M-58.1,268.7h-2.1v-1.4
		h2.1V268.7z M-61.6,268.7h-2.1v-1.4h2.1V268.7z M-65.1,268.7h-2.1v-1.4h2.1V268.7z M-68.6,268.7h-2.1v-1.4h2.1V268.7z M-72,268.7
		h-2.1v-1.4h2.1V268.7z M-75.5,268.7h-2.1v-1.4h2.1V268.7z M-79,268.7h-2.1v-1.4h2.1V268.7z M-82.5,268.7h-2.1v-1.4h2.1V268.7z
		 M-86,268.7h-2.1v-1.4h2.1V268.7z M-89.5,268.7h-2.1v-1.4h2.1V268.7z M-92.9,268.7H-95v-1.4h2.1V268.7z M-96.4,268.7h-2.1v-1.4h2.1
		V268.7z M-99.9,268.7h-2.1v-1.4h2.1V268.7z M-103.4,268.7h-2v-1.6h1.4v0.1h0.6V268.7z M-104,265.7h-1.4v-2.1h1.4V265.7z
		 M-104,262.3h-1.4v-2.1h1.4V262.3z M-104,258.8h-1.4v-2.1h1.4V258.8z M-104,255.3h-1.4v-2.1h1.4V255.3z"/>
</g>
<g>
	<path fill="#568CDB" d="M107.6,268.7h-2v-1.4h0.6v-0.2h1.4V268.7z M104.2,268.7h-2.1v-1.4h2.1V268.7z M100.8,268.7h-2.1v-1.4h2.1
		V268.7z M97.3,268.7h-2.1v-1.4h2.1V268.7z M93.8,268.7h-2.1v-1.4h2.1V268.7z M90.3,268.7h-2.1v-1.4h2.1V268.7z M86.8,268.7h-2.1
		v-1.4h2.1V268.7z M83.3,268.7h-2.1v-1.4h2.1V268.7z M79.9,268.7h-2.1v-1.4h2.1V268.7z M76.4,268.7h-2.1v-1.4h2.1V268.7z
		 M72.9,268.7h-2.1v-1.4h2.1V268.7z M69.4,268.7h-2.1v-1.4h2.1V268.7z M65.9,268.7h-2.1v-1.4h2.1V268.7z M62.5,268.7h-2.1v-1.4h2.1
		V268.7z M59,268.7h-2.1v-1.4H59V268.7z M55.5,268.7h-2.1v-1.4h2.1V268.7z M52,268.7h-2.1v-1.4H52V268.7z M48.5,268.7h-2.1v-1.4h2.1
		V268.7z M45,268.7h-2.1v-1.4H45V268.7z M41.6,268.7h-2.1v-1.4h2.1V268.7z M38.1,268.7H36v-1.4h2.1V268.7z M34.6,268.7h-2.1v-1.4
		h2.1V268.7z M31.1,268.7H29v-1.4h2.1V268.7z M27.6,268.7h-2.1v-1.4h2.1V268.7z M24.1,268.7H22v-1.4h2.1V268.7z M20.7,268.7h-2.1
		v-1.4h2.1V268.7z M17.2,268.7h-2.1v-1.4h2.1V268.7z M13.7,268.7h-2.1v-1.4h2.1V268.7z M10.2,268.7H8.1v-1.4h2.1V268.7z M6.7,268.7
		H4.6v-1.4h2.1V268.7z M3.2,268.7H1.6v-1.4h1.6V268.7z M107.6,265.7h-1.4v-2.1h1.4V265.7z M107.6,262.3h-1.4v-2.1h1.4V262.3z
		 M107.6,258.8h-1.4v-2.1h1.4V258.8z M107.6,255.3h-1.4v-2.1h1.4V255.3z"/>
</g>
<path fill="none" stroke="#568CDB" stroke-width="1.3583" stroke-miterlimit="10" d="M17.3,304.6v-5.4h-4.6c-0.3-1-0.7-2.1-1.3-3
	l3.2-3.2l-3.8-3.8l-3.3,3.3c-0.9-0.6-1.9-0.9-3-1.2v-4.6h-5.4v4.6c-1.1,0.3-2.1,0.7-3,1.2l-3.2-3.2l-3.8,3.8l3.2,3.2
	c-0.6,0.9-1,2-1.3,3.1h-4.4v5.4h4.4c0.3,1.1,0.7,2.2,1.3,3.2l-3.1,3.1l3.8,3.8l3.1-3.1c1,0.6,2,1,3.2,1.3v4.4h5.4v-4.4
	c1.1-0.3,2.1-0.8,3.1-1.3l3.2,3.2l3.8-3.8l-3.2-3.2c0.6-0.9,0.9-2,1.2-3.1L17.3,304.6L17.3,304.6z M1.9,306.8
	c-2.6,0-4.7-2.1-4.7-4.7s2.1-4.7,4.7-4.7s4.7,2.1,4.7,4.7S4.5,306.8,1.9,306.8z"/>
</svg>
