<?xml version="1.0" encoding="utf-8"?>
<!-- Generator: Adobe Illustrator 18.1.1, SVG Export Plug-In . SVG Version: 6.00 Build 0)  -->
<!DOCTYPE svg PUBLIC "-//W3C//DTD SVG 1.1//EN" "http://www.w3.org/Graphics/SVG/1.1/DTD/svg11.dtd">
<svg version="1.1" id="Layer_1" xmlns="http://www.w3.org/2000/svg" xmlns:xlink="http://www.w3.org/1999/xlink" x="0px" y="0px"
	 width="600px" height="440px" viewBox="0 81 600 440" enable-background="new 0 81 600 440" xml:space="preserve">
<g>
	<path fill="#FFFFFF" d="M587,427.4H11.5c-0.5,0-0.8-0.4-0.8-0.8V175.5c0-0.5,0.4-0.8,0.8-0.8H587c0.5,0,0.8,0.4,0.8,0.8v251.1
		C587.8,427,587.5,427.4,587,427.4z M12.3,425.7h573.8V176.3H12.3V425.7z"/>
</g>
<g>
	<path fill="#FFFFFF" d="M586,426.4H12.5c-0.5,0-0.8-0.4-0.8-0.8V176.5c0-0.5,0.4-0.8,0.8-0.8H586c0.5,0,0.8,0.4,0.8,0.8v249.1
		C586.8,426,586.5,426.4,586,426.4z M13.3,424.7h571.8V177.3H13.3V424.7z"/>
</g>
<g>
	<path fill="#FFFFFF" d="M585,425.4H13.5c-0.5,0-0.8-0.4-0.8-0.8V177.5c0-0.5,0.4-0.8,0.8-0.8H585c0.5,0,0.8,0.4,0.8,0.8v247.1
		C585.8,425,585.5,425.4,585,425.4z M14.3,423.7h569.8V178.3H14.3V423.7z"/>
</g>
<g>
	<path fill="#FFFFFF" d="M411.1,410.5h-4c-0.5,0-0.8-0.4-0.8-0.8v-25.2H189.3v25.2c0,0.5-0.4,0.8-0.8,0.8h-4c-0.5,0-0.8-0.4-0.8-0.8
		v-30c0-0.5,0.4-0.8,0.8-0.8h226.6c0.5,0,0.8,0.4,0.8,0.8v30C411.9,410.1,411.6,410.5,411.1,410.5z M407.9,408.8h2.3v-28.3H185.3
		v28.3h2.3v-25.2c0-0.5,0.4-0.8,0.8-0.8h218.6c0.5,0,0.8,0.4,0.8,0.8V408.8z"/>
</g>
<g>
	<path fill="#FFFFFF" d="M410.1,409.5h-2c-0.5,0-0.8-0.4-0.8-0.8v-25.2H188.3v25.2c0,0.5-0.4,0.8-0.8,0.8h-2c-0.5,0-0.8-0.4-0.8-0.8
		v-28c0-0.5,0.4-0.8,0.8-0.8h224.6c0.5,0,0.8,0.4,0.8,0.8v28C410.9,409.1,410.6,409.5,410.1,409.5z M408.9,407.8h0.3v-26.3H186.3
		v26.3h0.3v-25.2c0-0.5,0.4-0.8,0.8-0.8h220.6c0.5,0,0.8,0.4,0.8,0.8V407.8z"/>
</g>
<g>
	<path fill="#FFFFFF" d="M409.1,409.5c-0.5,0-0.8-0.4-0.8-0.8v-26.2H187.3v26.2c0,0.5-0.4,0.8-0.8,0.8s-0.8-0.4-0.8-0.8v-27
		c0-0.5,0.4-0.8,0.8-0.8h222.6c0.5,0,0.8,0.4,0.8,0.8v27C409.9,409.1,409.6,409.5,409.1,409.5z"/>
</g>
<g>
	<path fill="#FFFFFF" d="M571.7,413.3H25.3c-0.5,0-0.8-0.4-0.8-0.8V188.2c0-0.5,0.4-0.8,0.8-0.8h546.4c0.5,0,0.8,0.4,0.8,0.8v224.2
		C572.5,412.9,572.2,413.3,571.7,413.3z M26.1,411.6h544.7V189.1H26.1V411.6z"/>
</g>
<g>
	<path fill="#FFFFFF" d="M570.7,412.3H26.3c-0.5,0-0.8-0.4-0.8-0.8V189.2c0-0.5,0.4-0.8,0.8-0.8h544.4c0.5,0,0.8,0.4,0.8,0.8v222.2
		C571.5,411.9,571.2,412.3,570.7,412.3z M27.1,410.6h542.7V190.1H27.1V410.6z"/>
</g>
<g>
	<path fill="#FFFFFF" d="M569.7,411.3H27.3c-0.5,0-0.8-0.4-0.8-0.8V190.2c0-0.5,0.4-0.8,0.8-0.8h542.4c0.5,0,0.8,0.4,0.8,0.8v220.2
		C570.5,410.9,570.2,411.3,569.7,411.3z M28.1,409.6h540.7V191.1H28.1V409.6z"/>
</g>
<g>
	<path fill="#FFFFFF" d="M541.1,404.7c-7.2,0-13.4-4.8-16.8-13c-1.8-3.9-2.7-8.5-2.7-13.9c0-15.1,8.6-26.9,19.5-26.9
		s19.5,11.8,19.5,26.9S552.1,404.7,541.1,404.7z M541.1,352.5c-10,0-17.9,11.1-17.9,25.3c0,5.1,0.8,9.5,2.6,13.2
		c3.2,7.7,8.8,12,15.3,12c10,0,17.9-11.1,17.9-25.3S551.1,352.5,541.1,352.5z M541.1,400.7c-5.5,0-10.3-3.9-13.2-10.7
		c-1.6-3.5-2.4-7.5-2.4-12.3c0-12.9,6.8-22.9,15.5-22.9c8.6,0,15.5,10.3,15.5,22.9C556.6,390.6,549.8,400.7,541.1,400.7z
		 M541.1,356.5c-7.8,0-13.9,9.3-13.9,21.3c0,4.5,0.7,8.3,2.2,11.6c2.6,6.1,6.8,9.6,11.6,9.6c7.8,0,13.9-9.3,13.9-21.3
		C555,366,548.7,356.5,541.1,356.5z"/>
</g>
<g>
	<path fill="#FFFFFF" d="M541.1,403.7c-6.8,0-12.6-4.5-15.9-12.4c-1.8-3.8-2.6-8.3-2.6-13.5c0-14.5,8.1-25.9,18.5-25.9
		c10.4,0,18.5,11.4,18.5,25.9S551.5,403.7,541.1,403.7z M541.1,353.5c-9.5,0-16.9,10.7-16.9,24.3c0,5,0.8,9.2,2.5,12.8
		c3,7.3,8.3,11.4,14.4,11.4c9.5,0,16.9-10.7,16.9-24.3S550.5,353.5,541.1,353.5z M541.1,401.7c-6,0-11.1-4.1-14.1-11.2
		c-1.7-3.6-2.5-7.8-2.5-12.7c0-13.4,7.3-23.9,16.5-23.9c9.1,0,16.5,10.7,16.5,23.9C557.6,391.2,550.4,401.7,541.1,401.7z
		 M541.1,355.5c-8.3,0-14.9,9.8-14.9,22.3c0,4.7,0.8,8.6,2.3,12c2.7,6.5,7.3,10.2,12.5,10.2c8.3,0,14.9-9.8,14.9-22.3
		C556,365.5,549.3,355.5,541.1,355.5z"/>
</g>
<g>
	<path fill="#FFFFFF" d="M541.1,402.7c-6.4,0-11.8-4.3-15-11.8c-1.7-3.7-2.6-8-2.6-13.1c0-14,7.7-24.9,17.5-24.9
		c9.8,0,17.5,11,17.5,24.9S550.9,402.7,541.1,402.7z M541.1,354.5c-8.9,0-15.9,10.2-15.9,23.3c0,4.8,0.8,8.9,2.4,12.4
		c2.9,6.9,7.8,10.8,13.4,10.8c8.9,0,15.9-10.2,15.9-23.3C557,364.9,549.8,354.5,541.1,354.5z"/>
</g>
<g>
	<path fill="#FFFFFF" d="M252.9,382.7c0,0-0.1,0-0.1,0c-0.2,0-0.4-0.1-0.6-0.3l-0.6-0.8c-12-15.9-18.7-36.6-18.7-58.4
		c0-45.6,28.8-82.6,64.1-82.6c35.4,0,64.1,37.1,64.1,82.6c0,22.2-6.8,43.4-18.7,58.2l-0.6,0.8c-0.1,0.2-0.3,0.3-0.6,0.3
		c-0.2,0-0.4,0-0.6-0.2l-3.1-2.5c-0.2-0.1-0.3-0.3-0.3-0.6s0-0.4,0.2-0.6l0.6-0.8c11.1-13.8,17.5-33.7,17.5-54.6
		c0-42.4-26.2-77-58.5-77s-58.5,34.5-58.5,77c0,20.6,6.2,40.1,17.5,55l0.6,0.8c0.3,0.4,0.2,0.9-0.2,1.2l-3.2,2.4
		C253.3,382.6,253.1,382.7,252.9,382.7z M297.1,242.2c-34.4,0-62.5,36.3-62.5,81c0,21.4,6.5,41.8,18.3,57.4l0.1,0.1l1.8-1.4
		l-0.1-0.1c-11.5-15.2-17.9-35.1-17.9-56c0-43.4,27-78.6,60.1-78.6s60.1,35.3,60.1,78.6c0,21.3-6.5,41.5-17.8,55.7l-0.1,0.1l1.8,1.4
		l0.1-0.1c11.7-14.5,18.4-35.3,18.4-57.1C359.6,278.5,331.5,242.2,297.1,242.2z"/>
</g>
<g>
	<path fill="#FFFFFF" d="M253.1,381.3c-0.3,0-0.5-0.1-0.7-0.3c-11.9-15.7-18.5-36.2-18.5-57.8c0-45,28.3-81.6,63.1-81.6
		s63.1,36.6,63.1,81.6c0,21.9-6.7,42.9-18.5,57.6c-0.3,0.4-0.8,0.4-1.2,0.1l-1.6-1.3c-0.2-0.1-0.3-0.3-0.3-0.6c0-0.2,0-0.4,0.2-0.6
		c11.2-14,17.7-34.1,17.7-55.2c0-43-26.7-78-59.5-78s-59.5,35-59.5,78c0,20.8,6.3,40.5,17.7,55.6c0.1,0.2,0.2,0.4,0.2,0.6
		c0,0.2-0.1,0.4-0.3,0.6l-1.6,1.2C253.5,381.2,253.3,381.3,253.1,381.3z M297.1,243.2c-33.9,0-61.5,35.9-61.5,80
		c0,20.9,6.3,40.8,17.6,56.1l0.2-0.2C242.2,363.8,236,344,236,323.2c0-43.9,27.4-79.6,61.1-79.6c33.7,0,61.1,35.7,61.1,79.6
		c0,21.1-6.4,41.4-17.5,55.6l0.2,0.2c11.2-14.3,17.6-34.6,17.6-55.8C358.6,279.1,331,243.2,297.1,243.2z"/>
</g>
<g>
	<path fill="#FFFFFF" d="M253.9,380.7c-0.3,0-0.5-0.1-0.7-0.3c-11.8-15.5-18.3-35.8-18.3-57.2c0-44.5,27.9-80.6,62.1-80.6
		s62.1,36.2,62.1,80.6c0,21.7-6.7,42.5-18.3,56.9c-0.3,0.4-0.8,0.4-1.2,0.1c-0.4-0.3-0.4-0.8-0.1-1.2c11.4-14.2,17.9-34.5,17.9-55.9
		c0-43.5-27.1-79-60.5-79c-33.3,0-60.5,35.4-60.5,79c0,21,6.4,40.9,17.9,56.2c0.3,0.4,0.2,0.9-0.2,1.2
		C254.3,380.6,254.1,380.7,253.9,380.7z"/>
</g>
<g>
	<path fill="#FFFFFF" d="M153.5,330.9c-16.4,0-29.7-13.3-29.7-29.7c0-16.4,13.3-29.7,29.7-29.7s29.7,13.3,29.7,29.7
		C183.2,317.6,169.9,330.9,153.5,330.9z M153.5,273.1c-15.5,0-28.1,12.6-28.1,28.1s12.6,28.1,28.1,28.1s28.1-12.6,28.1-28.1
		S169,273.1,153.5,273.1z"/>
</g>
<g>
	<path fill="#FFFFFF" d="M153.5,329.9c-15.9,0-28.7-12.9-28.7-28.7s12.9-28.7,28.7-28.7s28.7,12.9,28.7,28.7
		S169.4,329.9,153.5,329.9z M153.5,274.1c-14.9,0-27.1,12.1-27.1,27.1c0,14.9,12.1,27.1,27.1,27.1s27.1-12.1,27.1-27.1
		C180.6,286.2,168.4,274.1,153.5,274.1z"/>
</g>
<g>
	<path fill="#FFFFFF" d="M153.5,328.9c-15.3,0-27.7-12.4-27.7-27.7c0-15.3,12.4-27.7,27.7-27.7s27.7,12.4,27.7,27.7
		C181.2,316.4,168.8,328.9,153.5,328.9z M153.5,275.1c-14.4,0-26.1,11.7-26.1,26.1s11.7,26.1,26.1,26.1s26.1-11.7,26.1-26.1
		S167.9,275.1,153.5,275.1z"/>
</g>
<g>
	<path fill="#FFFFFF" d="M153.9,320c-9.8,0-17.7-8-17.7-17.7c0-9.8,8-17.7,17.7-17.7s17.7,8,17.7,17.7
		C171.6,312,163.7,320,153.9,320z M153.9,286.2c-8.9,0-16.1,7.2-16.1,16.1s7.2,16.1,16.1,16.1s16.1-7.2,16.1-16.1
		S162.8,286.2,153.9,286.2z"/>
</g>
<g>
	<path fill="#FFFFFF" d="M153.9,319c-9.2,0-16.7-7.5-16.7-16.7s7.5-16.7,16.7-16.7s16.7,7.5,16.7,16.7S163.1,319,153.9,319z
		 M153.9,287.2c-8.3,0-15.1,6.8-15.1,15.1c0,8.3,6.8,15.1,15.1,15.1s15.1-6.8,15.1-15.1C169,293.9,162.2,287.2,153.9,287.2z"/>
</g>
<g>
	<path fill="#FFFFFF" d="M153.9,318c-8.7,0-15.7-7.1-15.7-15.7c0-8.7,7.1-15.7,15.7-15.7s15.7,7.1,15.7,15.7
		C169.6,310.9,162.6,318,153.9,318z M153.9,288.2c-7.7,0-14.1,6.3-14.1,14.1c0,7.7,6.3,14.1,14.1,14.1S168,310,168,302.2
		C168,294.5,161.6,288.2,153.9,288.2z"/>
</g>
<g>
	<path fill="#FFFFFF" d="M493.7,236.4H107.2c-0.5,0-0.8-0.4-0.8-0.8v-20.7c0-0.5,0.4-0.8,0.8-0.8h386.5c0.5,0,0.8,0.4,0.8,0.8v20.7
		C494.5,236,494.2,236.4,493.7,236.4z M108,234.7h384.8v-19H108V234.7z"/>
</g>
<g>
	<path fill="#FFFFFF" d="M492.7,235.4H108.2c-0.5,0-0.8-0.4-0.8-0.8v-18.7c0-0.5,0.4-0.8,0.8-0.8h384.5c0.5,0,0.8,0.4,0.8,0.8v18.7
		C493.5,235,493.2,235.4,492.7,235.4z M109,233.7h382.8v-17H109V233.7z"/>
</g>
<g>
	<path fill="#FFFFFF" d="M491.7,234.4H109.2c-0.5,0-0.8-0.4-0.8-0.8v-16.7c0-0.5,0.4-0.8,0.8-0.8h382.5c0.5,0,0.8,0.4,0.8,0.8v16.7
		C492.5,234,492.2,234.4,491.7,234.4z M110,232.7h380.8v-15H110V232.7z"/>
</g>
<g>
	<path fill="#FFFFFF" d="M435,342c-15.9,0-28.7-12.9-28.7-28.7c0-15.9,12.9-28.7,28.7-28.7s28.7,12.9,28.7,28.7
		C463.7,329.1,450.9,342,435,342z M435,286.2c-14.9,0-27.1,12.1-27.1,27.1s12.1,27.1,27.1,27.1s27.1-12.1,27.1-27.1
		S449.9,286.2,435,286.2z"/>
</g>
<g>
	<path fill="#FFFFFF" d="M435,341c-15.3,0-27.7-12.4-27.7-27.7s12.4-27.7,27.7-27.7s27.7,12.4,27.7,27.7S450.3,341,435,341z
		 M435,287.2c-14.4,0-26.1,11.7-26.1,26.1c0,14.4,11.7,26.1,26.1,26.1s26.1-11.7,26.1-26.1C461.1,298.9,449.4,287.2,435,287.2z"/>
</g>
<g>
	<path fill="#FFFFFF" d="M435,340c-14.7,0-26.7-12-26.7-26.7c0-14.7,12-26.7,26.7-26.7s26.7,12,26.7,26.7
		C461.7,328,449.7,340,435,340z M435,288.2c-13.8,0-25.1,11.2-25.1,25.1c0,13.8,11.2,25.1,25.1,25.1s25.1-11.2,25.1-25.1
		C460.1,299.4,448.8,288.2,435,288.2z"/>
</g>
<g>
	<path fill="#FFFFFF" d="M435,332.1c-10.8,0-19.5-8.8-19.5-19.5S424.2,293,435,293s19.5,8.8,19.5,19.5S445.8,332.1,435,332.1z
		 M435,294.7c-9.8,0-17.9,8-17.9,17.9s8,17.9,17.9,17.9s17.9-8,17.9-17.9S444.8,294.7,435,294.7z"/>
</g>
<g>
	<path fill="#FFFFFF" d="M435,331.1c-10.2,0-18.5-8.3-18.5-18.5S424.8,294,435,294s18.5,8.3,18.5,18.5S445.2,331.1,435,331.1z
		 M435,295.7c-9.3,0-16.9,7.6-16.9,16.9s7.6,16.9,16.9,16.9s16.9-7.6,16.9-16.9S444.3,295.7,435,295.7z"/>
</g>
<g>
	<path fill="#FFFFFF" d="M435,330.1c-9.7,0-17.5-7.9-17.5-17.5S425.3,295,435,295s17.5,7.9,17.5,17.5S444.7,330.1,435,330.1z
		 M435,296.7c-8.7,0-15.9,7.1-15.9,15.9s7.1,15.9,15.9,15.9s15.9-7.1,15.9-15.9S443.7,296.7,435,296.7z"/>
</g>
<g>
	<path fill="#FFFFFF" d="M528.6,395.1H408.9c-0.5,0-0.8-0.4-0.8-0.8v-4c0-0.5,0.4-0.8,0.8-0.8h119.7c0.5,0,0.8,0.4,0.8,0.8v4
		C529.4,394.7,529.1,395.1,528.6,395.1z M409.7,393.4h118v-2.3h-118V393.4z"/>
</g>
<g>
	<path fill="#FFFFFF" d="M527.6,394.1H409.9c-0.5,0-0.8-0.4-0.8-0.8v-2c0-0.5,0.4-0.8,0.8-0.8h117.7c0.5,0,0.8,0.4,0.8,0.8v2
		C528.4,393.7,528.1,394.1,527.6,394.1z M410.7,392.4h116v-0.3h-116V392.4z"/>
</g>
<g>
	<path fill="#FFFFFF" d="M527.6,393.1H409.9c-0.5,0-0.8-0.4-0.8-0.8s0.4-0.8,0.8-0.8h117.7c0.5,0,0.8,0.4,0.8,0.8
		S528.1,393.1,527.6,393.1z"/>
</g>
<g>
	<path fill="#FFFFFF" d="M543.4,355.1h-4c-0.5,0-0.8-0.4-0.8-0.8V287c0-0.5,0.4-0.8,0.8-0.8h4c0.5,0,0.8,0.4,0.8,0.8v67.2
		C544.2,354.7,543.9,355.1,543.4,355.1z M540.2,353.4h2.3v-65.5h-2.3V353.4z"/>
</g>
<g>
	<path fill="#FFFFFF" d="M542.4,354.1h-2c-0.5,0-0.8-0.4-0.8-0.8V288c0-0.5,0.4-0.8,0.8-0.8h2c0.5,0,0.8,0.4,0.8,0.8v65.2
		C543.2,353.7,542.9,354.1,542.4,354.1z M541.2,352.4h0.3v-63.5h-0.3V352.4z"/>
</g>
<g>
	<path fill="#FFFFFF" d="M541.4,354.1c-0.5,0-0.8-0.4-0.8-0.8V288c0-0.5,0.4-0.8,0.8-0.8s0.8,0.4,0.8,0.8v65.2
		C542.2,353.7,541.9,354.1,541.4,354.1z"/>
</g>
<g>
	<path fill="#FFFFFF" d="M56.4,404.7c-11,0-19.5-11.8-19.5-26.9s8.6-26.9,19.5-26.9s19.5,11.8,19.5,26.9c0,5.4-0.9,10-2.8,14
		C69.7,399.7,63.3,404.7,56.4,404.7z M56.4,352.5c-10,0-17.9,11.1-17.9,25.3S46.4,403,56.4,403c6.2,0,12-4.6,15.2-12
		c1.8-3.8,2.6-8.2,2.6-13.3C74.3,363.6,66.4,352.5,56.4,352.5z M56.4,400.7c-8.7,0-15.5-10.1-15.5-22.9c0-12.7,7-22.9,15.5-22.9
		c8.7,0,15.5,10.1,15.5,22.9c0,4.8-0.8,8.8-2.4,12.4C66.7,396.6,61.7,400.7,56.4,400.7z M56.4,356.5c-7.6,0-13.9,9.5-13.9,21.3
		c0,11.9,6.1,21.3,13.9,21.3c4.6,0,9-3.7,11.6-9.6c1.5-3.3,2.3-7.1,2.3-11.7C70.3,365.8,64.2,356.5,56.4,356.5z"/>
</g>
<g>
	<path fill="#FFFFFF" d="M56.4,403.7c-10.4,0-18.5-11.4-18.5-25.9s8.1-25.9,18.5-25.9c10.4,0,18.5,11.4,18.5,25.9
		c0,5.2-0.9,9.7-2.7,13.6C69,398.9,62.9,403.7,56.4,403.7z M56.4,353.5c-9.5,0-16.9,10.7-16.9,24.3S46.9,402,56.4,402
		c5.8,0,11.3-4.4,14.3-11.4c1.7-3.7,2.5-7.9,2.5-12.9C73.3,364.2,65.9,353.5,56.4,353.5z M56.4,401.7c-9.3,0-16.5-10.5-16.5-23.9
		c0-13.2,7.4-23.9,16.5-23.9c9.3,0,16.5,10.5,16.5,23.9c0,4.9-0.8,9.1-2.5,12.8C67.5,397.4,62.1,401.7,56.4,401.7z M56.4,355.5
		c-8.2,0-14.9,10-14.9,22.3c0,12.5,6.5,22.3,14.9,22.3c5,0,9.8-3.9,12.5-10.2c1.6-3.4,2.3-7.4,2.3-12.1
		C71.3,365.3,64.7,355.5,56.4,355.5z"/>
</g>
<g>
	<path fill="#FFFFFF" d="M56.4,402.7c-9.8,0-17.5-11-17.5-24.9s7.7-24.9,17.5-24.9c9.8,0,17.5,11,17.5,24.9c0,5.1-0.8,9.4-2.6,13.2
		C68.2,398.2,62.5,402.7,56.4,402.7z M56.4,354.5c-8.7,0-15.9,10.4-15.9,23.3c0,13,7,23.3,15.9,23.3c5.4,0,10.5-4.1,13.4-10.8
		c1.6-3.5,2.4-7.6,2.4-12.5C72.3,364.7,65.3,354.5,56.4,354.5z"/>
</g>
<g>
	<path fill="#FFFFFF" d="M543.4,211.9h-4c-0.5,0-0.8-0.4-0.8-0.8v-3.9H58.8v3.9c0,0.5-0.4,0.8-0.8,0.8h-4c-0.5,0-0.8-0.4-0.8-0.8
		v-8.7c0-0.5,0.4-0.8,0.8-0.8h489.4c0.5,0,0.8,0.4,0.8,0.8v8.7C544.2,211.5,543.9,211.9,543.4,211.9z M540.2,210.2h2.3v-7H54.8v7
		h2.3v-3.9c0-0.5,0.4-0.8,0.8-0.8h481.4c0.5,0,0.8,0.4,0.8,0.8V210.2z"/>
</g>
<g>
	<path fill="#FFFFFF" d="M542.4,210.9h-2c-0.5,0-0.8-0.4-0.8-0.8v-3.9H57.8v3.9c0,0.5-0.4,0.8-0.8,0.8h-2c-0.5,0-0.8-0.4-0.8-0.8
		v-6.7c0-0.5,0.4-0.8,0.8-0.8h487.4c0.5,0,0.8,0.4,0.8,0.8v6.7C543.2,210.5,542.9,210.9,542.4,210.9z M541.2,209.2h0.3v-5H55.8v5
		h0.3v-3.9c0-0.5,0.4-0.8,0.8-0.8h483.4c0.5,0,0.8,0.4,0.8,0.8V209.2z"/>
</g>
<g>
	<path fill="#FFFFFF" d="M541.4,210.9c-0.5,0-0.8-0.4-0.8-0.8v-4.9H56.8v4.9c0,0.5-0.4,0.8-0.8,0.8s-0.8-0.4-0.8-0.8v-5.7
		c0-0.5,0.4-0.8,0.8-0.8h485.4c0.5,0,0.8,0.4,0.8,0.8v5.7C542.2,210.5,541.9,210.9,541.4,210.9z"/>
</g>
<g>
	<path fill="#FFFFFF" d="M188.6,395.1H68.9c-0.5,0-0.8-0.4-0.8-0.8v-4c0-0.5,0.4-0.8,0.8-0.8h119.7c0.5,0,0.8,0.4,0.8,0.8v4
		C189.4,394.7,189.1,395.1,188.6,395.1z M69.7,393.4h118v-2.3h-118V393.4z"/>
</g>
<g>
	<path fill="#FFFFFF" d="M187.6,394.1H69.9c-0.5,0-0.8-0.4-0.8-0.8v-2c0-0.5,0.4-0.8,0.8-0.8h117.7c0.5,0,0.8,0.4,0.8,0.8v2
		C188.4,393.7,188.1,394.1,187.6,394.1z M70.7,392.4h116v-0.3h-116V392.4z"/>
</g>
<g>
	<path fill="#FFFFFF" d="M187.6,393.1H69.9c-0.5,0-0.8-0.4-0.8-0.8s0.4-0.8,0.8-0.8h117.7c0.5,0,0.8,0.4,0.8,0.8
		S188.1,393.1,187.6,393.1z"/>
</g>
<g>
	<path fill="#FFFFFF" d="M58,355.1h-4c-0.5,0-0.8-0.4-0.8-0.8V287c0-0.5,0.4-0.8,0.8-0.8h4c0.5,0,0.8,0.4,0.8,0.8v67.2
		C58.8,354.7,58.5,355.1,58,355.1z M54.8,353.4h2.3v-65.5h-2.3V353.4z"/>
</g>
<g>
	<path fill="#FFFFFF" d="M57,354.1h-2c-0.5,0-0.8-0.4-0.8-0.8V288c0-0.5,0.4-0.8,0.8-0.8h2c0.5,0,0.8,0.4,0.8,0.8v65.2
		C57.8,353.7,57.5,354.1,57,354.1z M55.8,352.4h0.3v-63.5h-0.3V352.4z"/>
</g>
<g>
	<path fill="#FFFFFF" d="M56,354.1c-0.5,0-0.8-0.4-0.8-0.8V288c0-0.5,0.4-0.8,0.8-0.8s0.8,0.4,0.8,0.8v65.2
		C56.8,353.7,56.5,354.1,56,354.1z"/>
</g>
<g>
	<g>
		<path fill="#FFFFFF" d="M307.4,367.5h-15.7c-0.5,0-0.8-0.4-0.8-0.8v-10.8c-5.3-0.9-9.9-2.3-13.7-4.2c-5.4-2.9-9-5.7-11.8-8.8
			l-1.1-1.3c-0.3-0.3-0.3-0.8,0-1.1l12.6-14.6c0.2-0.2,0.4-0.3,0.6-0.3c0.2,0,0.5,0.1,0.6,0.2l1.5,1.5c2.3,2.3,4.9,4.3,8.3,6.3
			c2.7,1.6,6.3,2.4,11,2.4c1.3,0,2.1,0,3.1-0.3l0.1,0c1.2-0.3,1.9-0.5,2.5-1c0.8-0.5,1.2-0.9,1.7-1.7c0.5-0.8,0.7-1.2,0.7-2
			c0-1.6-0.7-2.7-2.1-3.5c-2.2-1.2-5.8-2.5-11-4l-3-1.1c-7.4-2-13-5.1-16.8-9.3c-4.1-4.5-6-9.8-6-16.1c0-7,2.2-12.6,6.8-17.2
			c3.9-3.9,9.4-6.5,15.9-7.6v-10.1c0-0.5,0.4-0.8,0.8-0.8h15.7c0.5,0,0.8,0.4,0.8,0.8V272c4,0.7,7.5,1.9,11.2,3.8l0.2,0.1
			c3.6,2.3,6.1,4.2,8.2,6l1.5,1.3c0.2,0.1,0.3,0.4,0.3,0.6c0,0.2-0.1,0.4-0.2,0.6l-13,14.8c-0.2,0.2-0.4,0.3-0.6,0.3
			c-0.3,0-0.5-0.1-0.6-0.2l-1.5-1.5c-0.4-0.4-1.2-0.9-1.8-1.3l-1.2-0.8c-0.8-0.5-1.6-1-2.6-1.5c-1.3-0.7-2.5-1.3-3.8-1.6
			c-1.4-0.4-2.9-0.6-4.3-0.6c-0.9,0-2.1,0-3.1,0.3l-0.2,0.1c-1.2,0.3-2.1,0.6-3.1,1.1c-0.8,0.5-1.5,1-1.9,1.4
			c-0.4,0.6-0.5,1.1-0.5,1.7c0,1.5,0.6,2.5,1.8,3.1c2.4,1.3,5.7,2.4,10.6,3.7c2.9,0.7,6.3,1.9,9,2.8c3.4,1.2,6.6,3.3,9,5
			c2.6,1.9,4.8,4.6,6.6,8.1c1.6,3.2,2.4,6.9,2.4,11.2c0,3.4-0.7,6.5-2,9.6c-1.3,2.9-3.2,5.2-5,7.4c0,0-0.1,0.1-0.1,0.1l-0.1,0.1
			c-2.7,2.3-5,4-8,5.2c-2,1-4.4,1.8-7.1,2.3v11.5C308.2,367.1,307.9,367.5,307.4,367.5z M292.5,365.8h14v-11.3
			c0-0.4,0.3-0.8,0.7-0.8c2.9-0.5,5.3-1.2,7.4-2.3c2.9-1.1,5.1-2.8,7.6-4.9l0.1-0.1c1.8-2.1,3.6-4.3,4.8-7c1.3-2.9,1.9-5.8,1.9-9
			c0-4-0.7-7.4-2.2-10.4c-1.7-3.3-3.6-5.8-6.1-7.5c-2.3-1.6-5.3-3.6-8.5-4.8c-2.7-0.9-6.1-2.1-8.9-2.8c-5-1.4-8.4-2.5-10.9-3.9
			c-1.8-0.8-2.8-2.4-2.8-4.6c0-1,0.2-1.7,0.8-2.7c0-0.1,0.1-0.1,0.1-0.2c0.5-0.5,1.3-1,2.3-1.7c1.3-0.6,2.3-0.9,3.5-1.3l0.2-0.1
			c1.2-0.4,2.5-0.4,3.6-0.4c1.5,0,3.2,0.2,4.7,0.7c1.4,0.4,2.7,1,4.1,1.7c1.1,0.5,1.9,1.1,2.7,1.6l1.3,0.8c0.7,0.5,1.5,1.1,2,1.5
			l0.9,0.9l11.9-13.5l-0.9-0.8c-2-1.7-4.5-3.5-8-5.8l-0.1-0.1c-3.8-1.9-7.3-3-11.4-3.7c-0.4-0.1-0.7-0.4-0.7-0.8v-10h-14v10
			c0,0.4-0.3,0.8-0.7,0.8c-6.4,0.9-11.8,3.4-15.6,7.2c-4.3,4.3-6.3,9.5-6.3,16c0,5.9,1.8,10.8,5.6,15c3.5,3.9,8.9,6.9,16.1,8.8
			l3,1.1c5.3,1.5,9,2.9,11.3,4.2c2,1.1,2.9,2.8,2.9,5c0,1.1-0.2,1.8-0.9,2.9c-0.6,1-1.2,1.5-2.2,2.2c-0.8,0.5-1.7,0.8-3,1.2l-0.1,0
			c-1.2,0.4-2.2,0.4-3.6,0.4c-5,0-8.9-0.9-11.8-2.6c-3.5-2-6.3-4.1-8.7-6.5l-0.9-0.9L266,340.9l0.7,0.8c2.7,3,6.2,5.6,11.3,8.5
			c3.7,2,8.4,3.4,13.8,4.2c0.4,0.1,0.7,0.4,0.7,0.8V365.8z"/>
	</g>
	<g>
		<path fill="#FFFFFF" d="M306.4,366.5h-13.7c-0.5,0-0.8-0.4-0.8-0.8V355c-5.6-0.8-10.4-2.3-14.2-4.3c-5.3-2.9-8.8-5.5-11.5-8.6
			l-0.6-0.7c-0.3-0.3-0.3-0.8,0-1.1l11.4-13.2c0.2-0.2,0.4-0.3,0.6-0.3c0.2,0,0.5,0.1,0.6,0.2l0.8,0.8c2.4,2.4,5.1,4.4,8.5,6.4
			c2.9,1.7,6.6,2.5,11.5,2.5c1.3,0,2.2,0,3.4-0.3l0.1,0c1.3-0.4,2.1-0.6,2.8-1.1c0.9-0.6,1.4-1.1,2-2c0.6-0.9,0.8-1.6,0.8-2.5
			c0-1.9-0.8-3.4-2.6-4.4c-2.3-1.3-5.9-2.6-11.3-4.1l-2.9-1.1c-7.2-1.9-12.7-5-16.4-9c-3.9-4.3-5.8-9.4-5.8-15.4
			c0-6.7,2.1-12.1,6.5-16.5c3.9-3.9,9.5-6.5,16.2-7.4v-10c0-0.5,0.4-0.8,0.8-0.8h13.7c0.5,0,0.8,0.4,0.8,0.8v10
			c4.2,0.7,7.9,1.9,11.8,3.8c0,0,0.1,0.1,0.1,0.1c3.5,2.3,6,4.1,8,5.9l0.8,0.7c0.2,0.1,0.3,0.4,0.3,0.6c0,0.2-0.1,0.4-0.2,0.6
			l-11.7,13.3c-0.2,0.2-0.4,0.3-0.6,0.3c-0.3,0-0.5-0.1-0.6-0.2l-0.8-0.8c-0.4-0.4-1.2-1-1.9-1.5l-1.2-0.8c-0.8-0.5-1.6-1.1-2.7-1.6
			c-1.4-0.7-2.6-1.3-4-1.7c-1.4-0.4-3.1-0.6-4.5-0.6c-1,0-2.2,0-3.4,0.3l-0.2,0.1c-1.2,0.3-2.2,0.6-3.4,1.2c-1,0.6-1.7,1.2-2.2,1.6
			c-0.5,0.9-0.7,1.5-0.7,2.3c0,1.9,0.8,3.3,2.4,4c2.4,1.3,5.8,2.4,10.7,3.8c2.9,0.7,6.3,1.9,9,2.8c3.3,1.1,6.4,3.2,8.7,4.9
			c2.5,1.8,4.6,4.3,6.3,7.8c1.5,3.1,2.3,6.6,2.3,10.7c0,3.2-0.6,6.3-2,9.2c-1.2,2.8-3.1,5-4.9,7.2c0,0-0.1,0.1-0.1,0.1
			c-2.5,2.2-4.8,3.8-7.7,5c-2.2,1.1-4.7,1.9-7.7,2.4v11.3C307.2,366.1,306.9,366.5,306.4,366.5z M293.5,364.8h12v-11.2
			c0-0.4,0.3-0.8,0.7-0.8c3.2-0.5,5.7-1.2,8-2.4c2.7-1.1,4.9-2.6,7.2-4.7c1.7-2,3.5-4.2,4.6-6.8c1.2-2.8,1.8-5.6,1.8-8.6
			c0-3.9-0.7-7.1-2.1-10c-1.6-3.2-3.5-5.5-5.7-7.2c-2.2-1.6-5.1-3.6-8.2-4.6c-2.7-0.9-6.1-2.1-8.9-2.8c-5.1-1.4-8.6-2.5-11.1-3.9
			c-2.1-1-3.4-3-3.4-5.5c0-1.2,0.3-2.1,1-3.3c0-0.1,0.1-0.1,0.1-0.2c0.6-0.6,1.4-1.2,2.6-2c1.4-0.7,2.4-1,3.7-1.4l0.2-0.1
			c1.4-0.4,2.8-0.4,3.9-0.4c1.6,0,3.4,0.3,5,0.7c1.5,0.4,2.8,1.1,4.3,1.8c1.1,0.6,1.9,1.1,2.8,1.7l1.3,0.8c0.8,0.5,1.6,1.1,2.2,1.7
			l0.1,0.1l10.5-11.9l-0.1-0.1c-2-1.7-4.4-3.5-7.8-5.7c-4-2-7.7-3.1-12-3.8c-0.4-0.1-0.7-0.4-0.7-0.8v-9.9h-12v9.9
			c0,0.4-0.3,0.8-0.7,0.8c-6.6,0.8-12.1,3.2-15.9,7c-4.1,4.1-6,9.1-6,15.3c0,5.6,1.7,10.3,5.3,14.3c3.4,3.8,8.6,6.7,15.6,8.5
			l2.9,1.1c5.4,1.5,9.2,2.9,11.6,4.3c2.3,1.3,3.4,3.3,3.4,5.9c0,1.2-0.3,2.2-1.1,3.4c-0.7,1.1-1.4,1.8-2.5,2.5
			c-0.9,0.6-2,0.9-3.3,1.3l-0.1,0c-1.4,0.4-2.5,0.4-3.9,0.4c-5.2,0-9.2-0.9-12.3-2.8c-3.6-2.1-6.4-4.2-8.9-6.7l-0.1-0.1l-10.3,11.9
			l0.1,0.1c2.6,2.9,6,5.5,11.1,8.2c3.8,2,8.7,3.4,14.4,4.2c0.4,0.1,0.7,0.4,0.7,0.8V364.8z"/>
	</g>
	<g>
		<path fill="#FFFFFF" d="M305.4,365.5h-11.7c-0.5,0-0.8-0.4-0.8-0.8v-10.6c-5.8-0.8-10.8-2.2-14.7-4.3c-5.1-2.8-8.6-5.4-11.2-8.4
			c-0.3-0.3-0.3-0.8,0-1.1l10.1-11.7c0.2-0.2,0.4-0.3,0.6-0.3c0.2,0,0.5,0.1,0.6,0.2c2.4,2.4,5.2,4.5,8.7,6.6c3,1.8,6.9,2.7,12,2.7
			c1.4,0,2.4,0,3.7-0.4l0.1,0c1.3-0.4,2.3-0.6,3.1-1.2c1-0.7,1.6-1.3,2.3-2.3c0.6-0.9,1-1.8,1-3c0-2.3-1-4.1-3.1-5.3
			c-2.3-1.3-6.1-2.7-11.5-4.2l-2.9-1.1c-7-1.9-12.4-4.8-15.9-8.7c-3.7-4.1-5.5-9-5.5-14.8c0-6.4,2-11.6,6.2-15.8
			c4-4,9.6-6.5,16.5-7.3v-9.8c0-0.5,0.4-0.8,0.8-0.8h11.7c0.5,0,0.8,0.4,0.8,0.8v9.9c4.5,0.7,8.3,1.9,12.3,3.9
			c3.5,2.3,5.9,4.1,8,5.8c0.2,0.1,0.3,0.4,0.3,0.6c0,0.2-0.1,0.4-0.2,0.6l-10.3,11.7c-0.2,0.2-0.4,0.3-0.6,0.3
			c-0.3,0-0.5-0.1-0.6-0.2c-0.5-0.5-1.3-1.1-2.1-1.6l-1.3-0.8c-0.9-0.6-1.7-1.1-2.8-1.6c-1.4-0.7-2.7-1.4-4.1-1.7
			c-1.5-0.4-3.2-0.7-4.8-0.7c-1.1,0-2.4,0-3.7,0.4l-0.2,0.1c-1.3,0.4-2.3,0.7-3.6,1.3c-1.2,0.7-2,1.3-2.5,1.9
			c-0.6,0.9-0.9,1.7-0.9,3c0,1.6,0.5,3.8,3,4.9c2.4,1.4,5.8,2.4,10.9,3.9c2.9,0.7,6.1,1.8,8.9,2.8c3.2,1.1,6.2,3.1,8.4,4.7
			c2.4,1.7,4.3,4.1,6,7.4c1.5,2.9,2.2,6.3,2.2,10.3c0,3.1-0.6,6-1.9,8.8c-1.2,2.6-3,4.9-4.7,6.9c0,0-0.1,0.1-0.1,0.1
			c-2.4,2.1-4.6,3.7-7.3,4.7c-2.4,1.2-5,2-8.4,2.5v11.2C306.2,365.1,305.9,365.5,305.4,365.5z M294.5,363.8h10v-11.1
			c0-0.4,0.3-0.8,0.7-0.8c3.5-0.4,6.2-1.2,8.6-2.4c2.6-1,4.6-2.5,6.9-4.4c1.7-2,3.4-4,4.4-6.4c1.2-2.6,1.7-5.3,1.7-8.2
			c0-3.7-0.7-6.8-2-9.5c-1.5-3-3.3-5.2-5.4-6.8c-2.2-1.6-5-3.5-8-4.5c-2.8-1-6-2.1-8.8-2.8c-5.2-1.5-8.7-2.6-11.2-4
			c-2.5-1.2-3.9-3.4-3.9-6.4c0-1.4,0.4-2.6,1.2-4c0-0.1,0.1-0.1,0.1-0.1c0.7-0.7,1.6-1.3,2.9-2.2c1.5-0.7,2.6-1.1,3.9-1.4l0.2-0.1
			c1.5-0.4,3-0.4,4.1-0.4c1.7,0,3.6,0.3,5.2,0.7c1.6,0.4,3,1.1,4.4,1.9c1.2,0.6,2.1,1.2,2.9,1.7l1.3,0.9c0.6,0.4,1.1,0.8,1.6,1.2
			l9.2-10.4c-1.8-1.5-4.1-3.1-7.1-5.1c-4-2-7.8-3.2-12.4-3.8c-0.4-0.1-0.7-0.4-0.7-0.8v-9.8h-10v9.8c0,0.4-0.3,0.8-0.8,0.8
			c-6.8,0.7-12.4,3-16.2,6.9c-3.9,3.9-5.8,8.6-5.8,14.6c0,5.4,1.7,9.8,5.1,13.6c3.3,3.6,8.4,6.4,15.2,8.2l2.9,1.1
			c5.5,1.5,9.3,3,11.8,4.3c2.6,1.5,3.9,3.8,3.9,6.7c0,1.4-0.4,2.6-1.2,4c-0.8,1.2-1.6,2-2.8,2.8c-1.1,0.7-2.2,1.1-3.6,1.5l-0.1,0
			c-1.5,0.4-2.7,0.4-4.1,0.4c-5.4,0-9.6-1-12.8-2.9c-3.3-2-6-3.9-8.4-6.2l-9,10.5c2.4,2.6,5.6,4.9,10.3,7.5c3.9,2,9,3.5,14.9,4.2
			c0.4,0.1,0.7,0.4,0.7,0.8V363.8z"/>
	</g>
</g>
<g>
	<path fill="#FFFFFF" d="M72.9,288.1H39.5c-0.5,0-0.8-0.4-0.8-0.8v-78.1c0-0.5,0.4-0.8,0.8-0.8h33.4c0.5,0,0.8,0.4,0.8,0.8v78.1
		C73.7,287.7,73.4,288.1,72.9,288.1z M40.3,286.4h31.7V210H40.3V286.4z"/>
</g>
<g>
	<path fill="#FFFFFF" d="M71.9,287.1H40.5c-0.5,0-0.8-0.4-0.8-0.8v-76.1c0-0.5,0.4-0.8,0.8-0.8h31.4c0.5,0,0.8,0.4,0.8,0.8v76.1
		C72.7,286.7,72.4,287.1,71.9,287.1z M41.3,285.4h29.7V211H41.3V285.4z"/>
</g>
<g>
	<path fill="#FFFFFF" d="M70.9,286.1H41.5c-0.5,0-0.8-0.4-0.8-0.8v-74.1c0-0.5,0.4-0.8,0.8-0.8h29.4c0.5,0,0.8,0.4,0.8,0.8v74.1
		C71.7,285.7,71.4,286.1,70.9,286.1z M42.3,284.4h27.7V212H42.3V284.4z"/>
</g>
<g>
	<path fill="#FFFFFF" d="M557.9,288.1h-33.4c-0.5,0-0.8-0.4-0.8-0.8v-78.1c0-0.5,0.4-0.8,0.8-0.8h33.4c0.5,0,0.8,0.4,0.8,0.8v78.1
		C558.7,287.7,558.4,288.1,557.9,288.1z M525.3,286.4h31.7V210h-31.7V286.4z"/>
</g>
<g>
	<path fill="#FFFFFF" d="M556.9,287.1h-31.4c-0.5,0-0.8-0.4-0.8-0.8v-76.1c0-0.5,0.4-0.8,0.8-0.8h31.4c0.5,0,0.8,0.4,0.8,0.8v76.1
		C557.7,286.7,557.4,287.1,556.9,287.1z M526.3,285.4h29.7V211h-29.7V285.4z"/>
</g>
<g>
	<path fill="#FFFFFF" d="M555.9,286.1h-29.4c-0.5,0-0.8-0.4-0.8-0.8v-74.1c0-0.5,0.4-0.8,0.8-0.8h29.4c0.5,0,0.8,0.4,0.8,0.8v74.1
		C556.7,285.7,556.4,286.1,555.9,286.1z M527.3,284.4h27.7V212h-27.7V284.4z"/>
</g>
</svg>
