<?xml version="1.0" encoding="utf-8"?>
<!-- Generator: Adobe Illustrator 18.1.1, SVG Export Plug-In . SVG Version: 6.00 Build 0)  -->
<!DOCTYPE svg PUBLIC "-//W3C//DTD SVG 1.1//EN" "http://www.w3.org/Graphics/SVG/1.1/DTD/svg11.dtd">
<svg version="1.1" id="Layer_1" xmlns="http://www.w3.org/2000/svg" xmlns:xlink="http://www.w3.org/1999/xlink" x="0px" y="0px"
	 width="300px" height="300px" viewBox="0 0 300 300" enable-background="new 0 0 300 300" xml:space="preserve">
<g>
	<path fill="#FFFFFF" d="M4,55v190h292V55H4z M283.7,61L150,178.4L16.3,61H283.7z M11,65.4l96.3,84.6L11,234.5V65.4z M16.3,239
		l95.9-84.3l37.8,33.1l37.8-33.1l95.9,84.4H16.3z M289,234.5L192.7,150L289,65.4V234.5z"/>
	<path fill="#FFFFFF" d="M4,55v190h292V55H4z M283.7,61L150,178.4L16.3,61H283.7z M11,65.4l96.3,84.6L11,234.5V65.4z M16.3,239
		l95.9-84.3l37.8,33.1l37.8-33.1l95.9,84.4H16.3z M289,234.5L192.7,150L289,65.4V234.5z"/>
</g>
</svg>
