<?xml version="1.0" encoding="utf-8"?>
<!-- Generator: Adobe Illustrator 18.1.1, SVG Export Plug-In . SVG Version: 6.00 Build 0)  -->
<!DOCTYPE svg PUBLIC "-//W3C//DTD SVG 1.1//EN" "http://www.w3.org/Graphics/SVG/1.1/DTD/svg11.dtd">
<svg version="1.1" id="Layer_1" xmlns="http://www.w3.org/2000/svg" xmlns:xlink="http://www.w3.org/1999/xlink" x="0px" y="0px"
	 width="300px" height="300px" viewBox="0 0 300 300" enable-background="new 0 0 300 300" xml:space="preserve">
<path id="Blue_1_" fill="#3C5A99" d="M280.9,296.1c8.9,0,16.2-7.2,16.2-16.2V19c0-8.9-7.2-16.2-16.2-16.2H20
	C11.1,2.8,3.8,10.1,3.8,19v260.9c0,8.9,7.2,16.2,16.2,16.2H280.9z"/>
<path id="f" fill="#FFFFFF" d="M206.2,296.1V182.5h38.1l5.7-44.3h-43.8V110c0-12.8,3.6-21.5,21.9-21.5l23.4,0V48.9
	c-4.1-0.5-18-1.7-34.1-1.7c-33.8,0-56.9,20.6-56.9,58.5v32.6h-38.2v44.3h38.2v113.6H206.2z"/>
</svg>
