<?xml version="1.0" encoding="utf-8"?>
<!-- Generator: Adobe Illustrator 18.1.1, SVG Export Plug-In . SVG Version: 6.00 Build 0)  -->
<!DOCTYPE svg PUBLIC "-//W3C//DTD SVG 1.1//EN" "http://www.w3.org/Graphics/SVG/1.1/DTD/svg11.dtd">
<svg version="1.1" id="Layer_1" xmlns="http://www.w3.org/2000/svg" xmlns:xlink="http://www.w3.org/1999/xlink" x="0px" y="0px"
	 width="161.3px" height="161.3px" viewBox="69.3 69.3 161.3 161.3" enable-background="new 69.3 69.3 161.3 161.3"
	 xml:space="preserve">
<polygon fill="none" stroke="#FFFFFF" stroke-width="2" stroke-linecap="round" stroke-linejoin="round" stroke-miterlimit="10" points="
	226.2,93.7 131.6,93.7 131.6,161.3 195.4,161.3 205.3,179.5 212.7,161.3 226.2,161.3 "/>
<polyline fill="none" stroke="#FFFFFF" stroke-width="2" stroke-linecap="round" stroke-linejoin="round" stroke-miterlimit="10" points="
	168.1,161.3 168.1,192.4 104.6,192.4 94.7,210.6 87.3,192.4 73.5,192.4 73.5,124.8 131.6,124.8 "/>
<rect x="84.5" y="165.6" fill="none" stroke="#FFFFFF" stroke-width="1.6943" stroke-linecap="round" stroke-linejoin="round" stroke-miterlimit="10" width="75.8" height="5.1"/>
<polyline fill="none" stroke="#FFFFFF" stroke-width="1.6943" stroke-linecap="round" stroke-linejoin="round" stroke-miterlimit="10" points="
	131.9,157.9 84.5,157.9 84.5,152.8 131.9,152.8 "/>
<polyline fill="none" stroke="#FFFFFF" stroke-width="1.6943" stroke-linecap="round" stroke-linejoin="round" stroke-miterlimit="10" points="
	131.6,139.8 84.5,139.8 84.5,144.9 131.5,144.9 "/>
<g>
	<path fill="#FFFFFF" d="M179.6,105.4c-5.5,0-10.5,2.2-13.9,6.2l5.1,5.8c2-2.3,4.6-3.9,7.8-3.9c3.5,0,5,1.7,5,3.6
		c0,4.4-9.3,5.3-9.3,12.8c0,2.2,0.8,4.1,2.1,5.6l6.9-2c-0.6-0.6-1.2-1.6-1.2-2.7c0-5.3,10.6-6,10.6-15.3
		C192.8,109.6,187.8,105.4,179.6,105.4z M185.2,123.8c-2.5,1.8-5,3.7-5,7c0,0.5,0.1,1,0.2,1.5l-3.2,0.9c-0.6-1-0.9-2.1-0.9-3.3
		c0-3.3,2.3-4.9,4.7-6.7c2.1-1.5,4.5-3.2,4.5-6.2c0-2.6-1.8-5.6-7-5.6c-2.8,0-5.5,1-7.7,3l-2.5-2.8c2.9-2.7,6.9-4.2,11.2-4.2
		c6.8,0,11.2,3.2,11.2,8C190.8,119.7,188.1,121.7,185.2,123.8z M179.5,138.8c-2.8,0-5.2,2.3-5.2,5.1c0,2.8,2.3,5.1,5.2,5.1
		c2.8,0,5.1-2.3,5.1-5.1C184.6,141.2,182.2,138.8,179.5,138.8z M179.5,147.1c-1.7,0-3.2-1.4-3.2-3.1c0-1.7,1.4-3.1,3.2-3.1
		c1.7,0,3.1,1.5,3.1,3.1C182.6,145.7,181.2,147.1,179.5,147.1z"/>
</g>
</svg>
