<?xml version="1.0" encoding="utf-8"?>
<!-- Generator: Adobe Illustrator 18.1.1, SVG Export Plug-In . SVG Version: 6.00 Build 0)  -->
<!DOCTYPE svg PUBLIC "-//W3C//DTD SVG 1.1//EN" "http://www.w3.org/Graphics/SVG/1.1/DTD/svg11.dtd">
<svg version="1.1" id="Layer_1" xmlns="http://www.w3.org/2000/svg" xmlns:xlink="http://www.w3.org/1999/xlink" x="0px" y="0px"
	 width="300px" height="300px" viewBox="0 0 300 300" enable-background="new 0 0 300 300" xml:space="preserve">
<g opacity="0.15" enable-background="new    ">
	<g>
		<defs>
			<rect id="SVGID_1_" width="300" height="300"/>
		</defs>
		<clipPath id="SVGID_2_">
			<use xlink:href="#SVGID_1_"  overflow="visible"/>
		</clipPath>
		<g clip-path="url(#SVGID_2_)">
			<g>
				<g>
					
						<circle fill="none" stroke="#FFFFFF" stroke-width="1.0384" stroke-linecap="round" stroke-linejoin="round" cx="289.4" cy="230.9" r="19.3"/>
					
						<circle fill="none" stroke="#FFFFFF" stroke-width="1.0384" stroke-linecap="round" stroke-linejoin="round" cx="289.4" cy="231" r="14.7"/>
				</g>
			</g>
			<g>
				<path fill="none" stroke="#FFFFFF" stroke-width="1.0384" stroke-linecap="round" stroke-linejoin="round" d="M229.6,319.8
					c0-0.9,0.3-1.8,0.8-2.5c0.5-0.7,1.1-1.5,1.8-2.1c0.7-0.7,1.5-1.4,2.3-2.1c0.9-0.7,1.6-1.5,2.3-2.6c0.7-0.9,1.3-2.1,1.8-3.4
					c0.5-1.3,0.8-2.9,0.8-4.8c0-2-0.3-3.7-0.9-5.1s-1.5-2.7-2.6-3.6s-2.3-1.6-3.8-2.1c-1.5-0.4-2.9-0.7-4.5-0.7
					c-1.7,0-3.3,0.2-4.6,0.6c-1.3,0.3-2.5,0.9-3.5,1.5c-1,0.6-1.9,1.3-2.6,2.1c-0.7,0.8-1.3,1.5-1.8,2.1c-0.4,0.6-0.8,1.2-1,1.9
					s-0.3,1.4-0.3,2.1c0,1.1,0.4,2,1.3,2.5c0.9,0.5,1.8,0.9,2.9,0.9c0.5,0,0.9-0.1,1.3-0.3c0.3-0.2,0.7-0.4,0.9-0.8
					c0.3-0.3,0.5-0.7,0.7-1.1c0.2-0.4,0.4-0.9,0.7-1.3c0.4-0.8,1.1-1.5,1.9-2.3c0.8-0.7,1.9-1,3.3-1c1.3,0,2.4,0.4,3.3,1.2
					c0.9,0.8,1.3,2.1,1.3,3.8c0,1.7-0.4,3.2-1.2,4.3s-1.9,2.3-3.3,3.6c-0.6,0.6-1.3,1.2-1.8,1.8c-0.6,0.6-1.1,1.2-1.5,1.9
					c-0.4,0.7-0.9,1.5-1.1,2.3c-0.3,0.9-0.4,1.8-0.4,2.8c0,1.4,0.3,2.5,0.9,3.1c0.6,0.7,1.5,1,3,1c1.2,0,2.2-0.2,2.9-0.6
					c0.7-0.4,1-1.2,1-2.4L229.6,319.8L229.6,319.8z M222.4,335.7c0.9,0.9,2,1.3,3.3,1.3c1.2,0,2.3-0.4,3.3-1.3
					c0.9-0.9,1.4-2,1.4-3.3s-0.4-2.6-1.4-3.4c-0.9-0.9-2-1.4-3.3-1.4c-1.3,0-2.4,0.4-3.3,1.4c-0.9,0.9-1.4,2.1-1.4,3.4
					C221.1,333.7,221.6,334.8,222.4,335.7z"/>
				<g>
					
						<circle fill="none" stroke="#FFFFFF" stroke-width="1.0384" stroke-linecap="round" stroke-linejoin="round" cx="275.3" cy="299.5" r="25.2"/>
					
						<circle fill="none" stroke="#FFFFFF" stroke-width="1.0384" stroke-linecap="round" stroke-linejoin="round" cx="275.4" cy="299.5" r="21.3"/>
					<g>
						
							<circle fill="none" stroke="#FFFFFF" stroke-width="1.0384" stroke-linecap="round" stroke-linejoin="round" cx="275.5" cy="299.5" r="4.2"/>
						<polyline fill="none" stroke="#FFFFFF" stroke-width="1.0384" stroke-linecap="round" stroke-linejoin="round" points="
							271.2,299.1 268.6,282.2 278.5,296.4 						"/>
						<polyline fill="none" stroke="#FFFFFF" stroke-width="1.0384" stroke-linecap="round" stroke-linejoin="round" points="
							272.7,302.9 282.6,316.4 279.7,299.3 						"/>
					</g>
					<path fill="none" stroke="#FFFFFF" stroke-width="1.0384" stroke-linecap="round" stroke-linejoin="round" d="M281.6,268.6
						h-12.4c-1.1,0-2-0.9-2-2v-0.8c0-1.1,0.9-2,2-2h12.4c1.1,0,2,0.9,2,2v0.8C283.5,267.7,282.7,268.6,281.6,268.6z"/>
					<g>
						
							<line fill="none" stroke="#FFFFFF" stroke-linecap="round" stroke-linejoin="round" x1="269.6" y1="269.1" x2="269.6" y2="274.3"/>
						
							<line fill="none" stroke="#FFFFFF" stroke-linecap="round" stroke-linejoin="round" x1="280.7" y1="269.1" x2="280.7" y2="274.3"/>
					</g>
				</g>
				<g>
					
						<circle fill="none" stroke="#FFFFFF" stroke-width="1.0384" stroke-linecap="round" stroke-linejoin="round" cx="139.4" cy="230.9" r="19.3"/>
					
						<circle fill="none" stroke="#FFFFFF" stroke-width="1.0384" stroke-linecap="round" stroke-linejoin="round" cx="139.4" cy="231" r="14.7"/>
					
						<line fill="none" stroke="#FFFFFF" stroke-width="1.0384" stroke-linecap="round" stroke-linejoin="round" x1="155.4" y1="241.7" x2="158.3" y2="244.4"/>
					
						<line fill="none" stroke="#FFFFFF" stroke-width="1.0384" stroke-linecap="round" stroke-linejoin="round" x1="154.3" y1="248.7" x2="151.5" y2="246.1"/>
					
						<rect x="164" y="241.2" transform="matrix(-0.6754 0.7375 -0.7375 -0.6754 472.1721 307.3219)" fill="none" stroke="#FFFFFF" stroke-width="1.0384" stroke-linecap="round" stroke-linejoin="round" width="8.9" height="32.8"/>
				</g>
				<path fill="none" stroke="#FFFFFF" stroke-width="1.0384" stroke-linecap="round" stroke-linejoin="round" d="M236,227.7
					l-33.6,13.9c-3.8,1.5-5.7,5.4-4.2,9.2l7.7,18.7c1.5,3.8,6,5.8,9.7,4.3l4.2-1.7l7.1,8.2l-0.1-11.1l22.4-9.3
					c3.8-1.5,5.1-6,3.5-9.8l-7.7-18.7C243.6,227.6,239.7,226.1,236,227.7z"/>
			</g>
			<g>
				<path fill="none" stroke="#FFFFFF" stroke-width="1.0384" stroke-linecap="round" stroke-linejoin="round" d="M79.6,319.8
					c0-0.9,0.3-1.8,0.8-2.5c0.5-0.7,1.1-1.5,1.8-2.1s1.5-1.4,2.3-2.1c0.9-0.7,1.6-1.5,2.3-2.6c0.7-0.9,1.3-2.1,1.8-3.4
					c0.5-1.3,0.8-2.9,0.8-4.8c0-2-0.3-3.7-0.9-5.1c-0.6-1.5-1.5-2.7-2.6-3.6s-2.3-1.6-3.8-2.1c-1.5-0.4-2.9-0.7-4.5-0.7
					c-1.7,0-3.3,0.2-4.6,0.6c-1.3,0.3-2.5,0.9-3.5,1.5c-1,0.6-1.9,1.3-2.6,2.1c-0.7,0.8-1.3,1.5-1.8,2.1c-0.4,0.6-0.8,1.2-1,1.9
					c-0.3,0.7-0.3,1.4-0.3,2.1c0,1.1,0.4,2,1.3,2.5c0.9,0.5,1.8,0.9,2.9,0.9c0.5,0,0.9-0.1,1.3-0.3c0.3-0.2,0.7-0.4,0.9-0.8
					c0.3-0.3,0.5-0.7,0.7-1.1c0.2-0.4,0.4-0.9,0.7-1.3c0.4-0.8,1.1-1.5,1.9-2.3c0.8-0.7,1.9-1,3.3-1c1.3,0,2.4,0.4,3.3,1.2
					s1.3,2.1,1.3,3.8c0,1.7-0.4,3.2-1.2,4.3c-0.8,1.1-1.9,2.3-3.3,3.6c-0.6,0.6-1.3,1.2-1.8,1.8c-0.6,0.6-1.1,1.2-1.5,1.9
					c-0.4,0.7-0.9,1.5-1.1,2.3c-0.3,0.9-0.4,1.8-0.4,2.8c0,1.4,0.3,2.5,0.9,3.1c0.6,0.7,1.5,1,3,1c1.2,0,2.2-0.2,2.9-0.6
					c0.7-0.4,1-1.2,1-2.4C79.6,320.3,79.6,319.8,79.6,319.8z M72.4,335.7c0.9,0.9,2,1.3,3.3,1.3c1.2,0,2.3-0.4,3.3-1.3
					c0.9-0.9,1.4-2,1.4-3.3s-0.4-2.6-1.4-3.4c-0.9-0.9-2-1.4-3.3-1.4c-1.3,0-2.4,0.4-3.3,1.4c-0.9,0.9-1.4,2.1-1.4,3.4
					C71.1,333.7,71.6,334.8,72.4,335.7z"/>
				<g>
					
						<circle fill="none" stroke="#FFFFFF" stroke-width="1.0384" stroke-linecap="round" stroke-linejoin="round" cx="125.3" cy="299.5" r="25.2"/>
					
						<circle fill="none" stroke="#FFFFFF" stroke-width="1.0384" stroke-linecap="round" stroke-linejoin="round" cx="125.4" cy="299.5" r="21.3"/>
					<g>
						
							<circle fill="none" stroke="#FFFFFF" stroke-width="1.0384" stroke-linecap="round" stroke-linejoin="round" cx="125.5" cy="299.5" r="4.2"/>
						<polyline fill="none" stroke="#FFFFFF" stroke-width="1.0384" stroke-linecap="round" stroke-linejoin="round" points="
							121.2,299.1 118.6,282.2 128.5,296.4 						"/>
						<polyline fill="none" stroke="#FFFFFF" stroke-width="1.0384" stroke-linecap="round" stroke-linejoin="round" points="
							122.7,302.9 132.6,316.4 129.7,299.3 						"/>
					</g>
					<path fill="none" stroke="#FFFFFF" stroke-width="1.0384" stroke-linecap="round" stroke-linejoin="round" d="M131.6,268.6
						h-12.4c-1.1,0-2-0.9-2-2v-0.8c0-1.1,0.9-2,2-2h12.4c1.1,0,2,0.9,2,2v0.8C133.5,267.7,132.7,268.6,131.6,268.6z"/>
					<g>
						
							<line fill="none" stroke="#FFFFFF" stroke-linecap="round" stroke-linejoin="round" x1="120.4" y1="269.1" x2="120.4" y2="274.3"/>
						
							<line fill="none" stroke="#FFFFFF" stroke-linecap="round" stroke-linejoin="round" x1="130.7" y1="269.1" x2="130.7" y2="274.3"/>
					</g>
				</g>
				<g>
					
						<circle fill="none" stroke="#FFFFFF" stroke-width="1.0384" stroke-linecap="round" stroke-linejoin="round" cx="-10.6" cy="230.9" r="19.3"/>
					
						<circle fill="none" stroke="#FFFFFF" stroke-width="1.0384" stroke-linecap="round" stroke-linejoin="round" cx="-10.6" cy="231" r="14.7"/>
					
						<line fill="none" stroke="#FFFFFF" stroke-width="1.0384" stroke-linecap="round" stroke-linejoin="round" x1="5.4" y1="241.7" x2="8.3" y2="244.4"/>
					
						<line fill="none" stroke="#FFFFFF" stroke-width="1.0384" stroke-linecap="round" stroke-linejoin="round" x1="4.3" y1="248.7" x2="1.5" y2="246.1"/>
					
						<rect x="14" y="241.2" transform="matrix(-0.6754 0.7375 -0.7375 -0.6754 220.8628 417.9523)" fill="none" stroke="#FFFFFF" stroke-width="1.0384" stroke-linecap="round" stroke-linejoin="round" width="8.9" height="32.8"/>
				</g>
				<path fill="none" stroke="#FFFFFF" stroke-width="1.0384" stroke-linecap="round" stroke-linejoin="round" d="M86,227.7
					l-33.6,13.9c-3.8,1.5-5.7,5.4-4.2,9.2l7.7,18.7c1.5,3.8,6,5.8,9.7,4.3l4.2-1.7l7.1,8.2l-0.1-11.1l22.4-9.3
					c3.8-1.5,5.1-6,3.5-9.8L95,231.3C93.6,227.6,89.7,226.1,86,227.7z"/>
			</g>
			<g>
				<g>
					
						<circle fill="none" stroke="#FFFFFF" stroke-width="1.0384" stroke-linecap="round" stroke-linejoin="round" cx="-24.7" cy="299.5" r="25.2"/>
				</g>
			</g>
			<g>
				<path fill="none" stroke="#FFFFFF" stroke-width="1.0384" stroke-linecap="round" stroke-linejoin="round" d="M266.6,184.5
					c4.6,2.4,7,6.2,4.8,12.6c-2.8,8-9.4,8.7-18.3,7l-2.1,8.6l-5.2-1.3l2.1-8.5c-1.4-0.3-2.7-0.7-4.1-1.1l-2.1,8.6l-5.2-1.3l2.1-8.7
					c-1.2-0.3-2.5-0.6-3.7-0.9l-6.8-1.7l2.6-5.9c0,0,3.9,1,3.8,0.9c1.5,0.3,2.1-0.6,2.4-1.2l3.4-13.6l0,0l2.4-9.7
					c0.1-1.1-0.3-2.5-2.4-3c0.1-0.1-3.8-0.9-3.8-0.9l1.4-5.6l7.2,1.8l0,0c1.1,0.3,2.2,0.5,3.3,0.8l2.1-8.5l5.2,1.3l-2.1,8.4
					c1.4,0.3,2.8,0.6,4.2,0.9l2.1-8.3l5.2,1.3L263,165c6.5,2.2,11.3,5.7,10.4,11.9C272.6,181.5,270,183.7,266.6,184.5z M248.2,184.2
					l-2.8,11.4c3.5,0.9,14.4,4.4,15.9-2.1C263.1,186.8,251.7,185.1,248.2,184.2z M252.1,168.6l-2.6,10.4c2.9,0.8,12,3.7,13.5-2.1
					C264.5,170.7,255,169.3,252.1,168.6z"/>
				<path fill="none" stroke="#FFFFFF" stroke-width="1.0384" stroke-linecap="round" stroke-linejoin="round" d="M304.6,169.8
					c0-0.9,0.3-1.8,0.8-2.5c0.5-0.7,1.1-1.5,1.8-2.1c0.7-0.7,1.5-1.4,2.3-2.1c0.9-0.7,1.6-1.5,2.3-2.6c0.7-0.9,1.3-2.1,1.8-3.4
					c0.5-1.3,0.8-2.9,0.8-4.8c0-2-0.3-3.7-0.9-5.1s-1.5-2.7-2.6-3.6c-1.1-0.9-2.3-1.6-3.8-2.1c-1.5-0.4-2.9-0.7-4.5-0.7
					c-1.7,0-3.3,0.2-4.6,0.6c-1.3,0.3-2.5,0.9-3.5,1.5c-1,0.6-1.9,1.3-2.6,2.1s-1.3,1.5-1.8,2.1c-0.4,0.6-0.8,1.2-1,1.9
					s-0.3,1.4-0.3,2.1c0,1.1,0.4,2,1.3,2.5c0.9,0.5,1.8,0.9,2.9,0.9c0.5,0,0.9-0.1,1.3-0.3c0.3-0.2,0.7-0.4,0.9-0.8
					c0.3-0.3,0.5-0.7,0.7-1.1c0.2-0.4,0.4-0.9,0.7-1.3c0.4-0.8,1.1-1.5,1.9-2.3c0.8-0.7,1.9-1,3.3-1c1.3,0,2.4,0.4,3.3,1.2
					s1.3,2.1,1.3,3.8c0,1.7-0.4,3.2-1.2,4.3s-1.9,2.3-3.3,3.6c-0.6,0.6-1.3,1.2-1.8,1.8c-0.6,0.6-1.1,1.2-1.5,1.9
					c-0.4,0.7-0.9,1.5-1.1,2.3c-0.3,0.9-0.4,1.8-0.4,2.8c0,1.4,0.3,2.5,0.9,3.1c0.6,0.7,1.5,1,3,1c1.2,0,2.2-0.2,2.9-0.6
					s1-1.2,1-2.4L304.6,169.8L304.6,169.8z M297.4,185.7c0.9,0.9,2,1.3,3.3,1.3c1.2,0,2.3-0.4,3.3-1.3c0.9-0.9,1.4-2,1.4-3.3
					c0-1.4-0.4-2.6-1.4-3.4s-2-1.4-3.3-1.4c-1.3,0-2.4,0.4-3.3,1.4c-0.9,0.9-1.4,2.1-1.4,3.4C296.1,183.7,296.6,184.8,297.4,185.7z"
					/>
				<g>
					
						<circle fill="none" stroke="#FFFFFF" stroke-width="1.0384" stroke-linecap="round" stroke-linejoin="round" cx="214.4" cy="80.9" r="19.3"/>
					
						<circle fill="none" stroke="#FFFFFF" stroke-width="1.0384" stroke-linecap="round" stroke-linejoin="round" cx="214.4" cy="81" r="14.7"/>
					
						<line fill="none" stroke="#FFFFFF" stroke-width="1.0384" stroke-linecap="round" stroke-linejoin="round" x1="230.4" y1="91.7" x2="233.3" y2="94.4"/>
					
						<line fill="none" stroke="#FFFFFF" stroke-width="1.0384" stroke-linecap="round" stroke-linejoin="round" x1="229.3" y1="98.7" x2="226.5" y2="96.1"/>
					
						<rect x="239" y="91.2" transform="matrix(-0.6754 0.7375 -0.7375 -0.6754 487.1964 0.6974)" fill="none" stroke="#FFFFFF" stroke-width="1.0384" stroke-linecap="round" stroke-linejoin="round" width="8.9" height="32.8"/>
				</g>
				<path fill="none" stroke="#FFFFFF" stroke-width="1.0384" stroke-linecap="round" stroke-linejoin="round" d="M311,77.7
					l-33.6,13.9c-3.8,1.5-5.7,5.4-4.2,9.2l7.7,18.7c1.5,3.8,6,5.8,9.7,4.3l4.2-1.7l7.1,8.2l-0.1-11.1l22.4-9.3
					c3.8-1.5,5.1-6,3.5-9.8L320,81.3C318.6,77.6,314.7,76.1,311,77.7z"/>
			</g>
			<g>
				<path fill="none" stroke="#FFFFFF" stroke-width="1.0384" stroke-linecap="round" stroke-linejoin="round" d="M116.6,184.5
					c4.6,2.4,7,6.2,4.8,12.6c-2.8,8-9.4,8.7-18.3,7l-2.1,8.6l-5.2-1.3l2.1-8.5c-1.4-0.3-2.7-0.7-4.1-1.1l-2.1,8.6l-5.2-1.3l2.1-8.7
					c-1.2-0.3-2.5-0.6-3.7-0.9l-6.8-1.7l2.6-5.9c0,0,3.9,1,3.8,0.9c1.5,0.3,2.1-0.6,2.4-1.2l3.4-13.6l0,0l2.4-9.7
					c0.1-1.1-0.3-2.5-2.4-3c0.1-0.1-3.8-0.9-3.8-0.9l1.4-5.6l7.2,1.8l0,0c1.1,0.3,2.2,0.5,3.3,0.8l2.1-8.5l5.2,1.3l-2.1,8.4
					c1.4,0.3,2.8,0.6,4.2,0.9l2.1-8.3l5.2,1.3L113,165c6.5,2.2,11.3,5.7,10.4,11.9C122.6,181.5,120,183.7,116.6,184.5z M98.2,184.2
					l-2.8,11.4c3.5,0.9,14.4,4.4,15.9-2.1C113.1,186.8,101.7,185.1,98.2,184.2z M102.1,168.6L99.5,179c2.9,0.8,12,3.7,13.5-2.1
					C114.5,170.7,105,169.3,102.1,168.6z"/>
				<path fill="none" stroke="#FFFFFF" stroke-width="1.0384" stroke-linecap="round" stroke-linejoin="round" d="M154.6,169.8
					c0-0.9,0.3-1.8,0.8-2.5c0.5-0.7,1.1-1.5,1.8-2.1c0.7-0.7,1.5-1.4,2.3-2.1c0.9-0.7,1.6-1.5,2.3-2.6c0.7-0.9,1.3-2.1,1.8-3.4
					c0.5-1.3,0.8-2.9,0.8-4.8c0-2-0.3-3.7-0.9-5.1c-0.6-1.5-1.5-2.7-2.6-3.6s-2.3-1.6-3.8-2.1s-2.9-0.7-4.5-0.7
					c-1.7,0-3.3,0.2-4.6,0.6c-1.3,0.3-2.5,0.9-3.5,1.5c-1,0.6-1.9,1.3-2.6,2.1s-1.3,1.5-1.8,2.1c-0.4,0.6-0.8,1.2-1,1.9
					c-0.3,0.7-0.3,1.4-0.3,2.1c0,1.1,0.4,2,1.3,2.5c0.9,0.5,1.8,0.9,2.9,0.9c0.5,0,0.9-0.1,1.3-0.3c0.3-0.2,0.7-0.4,0.9-0.8
					c0.3-0.3,0.5-0.7,0.7-1.1c0.2-0.4,0.4-0.9,0.7-1.3c0.4-0.8,1.1-1.5,1.9-2.3c0.8-0.7,1.9-1,3.3-1c1.3,0,2.4,0.4,3.3,1.2
					s1.3,2.1,1.3,3.8c0,1.7-0.4,3.2-1.2,4.3s-1.9,2.3-3.3,3.6c-0.6,0.6-1.3,1.2-1.8,1.8c-0.6,0.6-1.1,1.2-1.5,1.9
					c-0.4,0.7-0.9,1.5-1.1,2.3c-0.3,0.9-0.4,1.8-0.4,2.8c0,1.4,0.3,2.5,0.9,3.1c0.6,0.7,1.5,1,3,1c1.2,0,2.2-0.2,2.9-0.6
					s1-1.2,1-2.4L154.6,169.8L154.6,169.8z M147.4,185.7c0.9,0.9,2,1.3,3.3,1.3c1.2,0,2.3-0.4,3.3-1.3c0.9-0.9,1.4-2,1.4-3.3
					c0-1.4-0.4-2.6-1.4-3.4c-0.9-0.9-2-1.4-3.3-1.4c-1.3,0-2.4,0.4-3.3,1.4c-0.9,0.9-1.4,2.1-1.4,3.4
					C146.1,183.7,146.6,184.8,147.4,185.7z"/>
				<g>
					
						<circle fill="none" stroke="#FFFFFF" stroke-width="1.0384" stroke-linecap="round" stroke-linejoin="round" cx="200.3" cy="149.5" r="25.2"/>
					
						<circle fill="none" stroke="#FFFFFF" stroke-width="1.0384" stroke-linecap="round" stroke-linejoin="round" cx="200.4" cy="149.5" r="21.3"/>
					<g>
						
							<circle fill="none" stroke="#FFFFFF" stroke-width="1.0384" stroke-linecap="round" stroke-linejoin="round" cx="200.5" cy="149.5" r="4.2"/>
						<polyline fill="none" stroke="#FFFFFF" stroke-width="1.0384" stroke-linecap="round" stroke-linejoin="round" points="
							196.2,149.1 193.6,132.2 203.5,146.4 						"/>
						<polyline fill="none" stroke="#FFFFFF" stroke-width="1.0384" stroke-linecap="round" stroke-linejoin="round" points="
							197.7,152.9 207.6,166.4 204.7,149.3 						"/>
					</g>
					<path fill="none" stroke="#FFFFFF" stroke-width="1.0384" stroke-linecap="round" stroke-linejoin="round" d="M206.6,118.6
						h-12.4c-1.1,0-2-0.9-2-2v-0.8c0-1.1,0.9-2,2-2h12.4c1.1,0,2,0.9,2,2v0.8C208.5,117.7,207.7,118.6,206.6,118.6z"/>
					<g>
						
							<line fill="none" stroke="#FFFFFF" stroke-linecap="round" stroke-linejoin="round" x1="195" y1="119.1" x2="195" y2="124.3"/>
						
							<line fill="none" stroke="#FFFFFF" stroke-linecap="round" stroke-linejoin="round" x1="205.3" y1="119.1" x2="205.3" y2="124.3"/>
					</g>
				</g>
				<g>
					
						<circle fill="none" stroke="#FFFFFF" stroke-width="1.0384" stroke-linecap="round" stroke-linejoin="round" cx="64.4" cy="80.9" r="19.3"/>
					
						<circle fill="none" stroke="#FFFFFF" stroke-width="1.0384" stroke-linecap="round" stroke-linejoin="round" cx="64.4" cy="81" r="14.7"/>
					
						<line fill="none" stroke="#FFFFFF" stroke-width="1.0384" stroke-linecap="round" stroke-linejoin="round" x1="80.4" y1="91.7" x2="83.3" y2="94.4"/>
					
						<line fill="none" stroke="#FFFFFF" stroke-width="1.0384" stroke-linecap="round" stroke-linejoin="round" x1="79.3" y1="98.7" x2="76.5" y2="96.1"/>
					
						<rect x="89" y="91.2" transform="matrix(-0.6754 0.7375 -0.7375 -0.6754 235.8871 111.3278)" fill="none" stroke="#FFFFFF" stroke-width="1.0384" stroke-linecap="round" stroke-linejoin="round" width="8.9" height="32.8"/>
				</g>
				<path fill="none" stroke="#FFFFFF" stroke-width="1.0384" stroke-linecap="round" stroke-linejoin="round" d="M161,77.7
					l-33.6,13.9c-3.8,1.5-5.7,5.4-4.2,9.2l7.7,18.7c1.5,3.8,6,5.8,9.7,4.3l4.2-1.7l7.1,8.2l-0.1-11.1l22.4-9.3
					c3.8-1.5,5.1-6,3.5-9.8L170,81.3C168.6,77.6,164.7,76.1,161,77.7z"/>
				<path fill="none" stroke="#FFFFFF" stroke-width="1.0384" stroke-linecap="round" stroke-linejoin="round" d="M211.5,206.6
					c0-9.6-9.7-17.4-23.3-17.4s-23.3,7.8-23.3,17.4c0,9.6,9.7,17.4,23.3,17.4c2.7,0,5.1-0.3,7.5-0.9c-0.3,2.1-1.2,4.7-3.9,6.7
					c0,0,9.5-2.6,11.7-9.9C208.5,216.7,211.5,211.9,211.5,206.6z"/>
			</g>
			<g>
				<path fill="none" stroke="#FFFFFF" stroke-width="1.0384" stroke-linecap="round" stroke-linejoin="round" d="M4.6,169.8
					c0-0.9,0.3-1.8,0.8-2.5c0.5-0.7,1.1-1.5,1.8-2.1c0.7-0.7,1.5-1.4,2.3-2.1c0.9-0.7,1.6-1.5,2.3-2.6c0.7-0.9,1.3-2.1,1.8-3.4
					c0.5-1.3,0.8-2.9,0.8-4.8c0-2-0.3-3.7-0.9-5.1c-0.6-1.5-1.5-2.7-2.6-3.6s-2.3-1.6-3.8-2.1s-2.9-0.7-4.5-0.7
					c-1.7,0-3.3,0.2-4.6,0.6c-1.3,0.3-2.5,0.9-3.5,1.5c-1,0.6-1.9,1.3-2.6,2.1c-0.7,0.8-1.3,1.5-1.8,2.1c-0.4,0.6-0.8,1.2-1,1.9
					s-0.3,1.4-0.3,2.1c0,1.1,0.4,2,1.3,2.5c0.9,0.5,1.8,0.9,2.9,0.9c0.5,0,0.9-0.1,1.3-0.3c0.3-0.2,0.7-0.4,0.9-0.8
					c0.3-0.3,0.5-0.7,0.7-1.1c0.2-0.4,0.4-0.9,0.7-1.3c0.4-0.8,1.1-1.5,1.9-2.3c0.8-0.7,1.9-1,3.3-1c1.3,0,2.4,0.4,3.3,1.2
					s1.3,2.1,1.3,3.8c0,1.7-0.4,3.2-1.2,4.3s-1.9,2.3-3.3,3.6c-0.6,0.6-1.3,1.2-1.8,1.8c-0.6,0.6-1.1,1.2-1.5,1.9s-0.9,1.5-1.1,2.3
					c-0.3,0.9-0.4,1.8-0.4,2.8c0,1.4,0.3,2.5,0.9,3.1c0.6,0.7,1.5,1,3,1c1.2,0,2.2-0.2,2.9-0.6s1-1.2,1-2.4
					C4.6,170.3,4.6,169.8,4.6,169.8z M-2.6,185.7c0.9,0.9,2,1.3,3.3,1.3c1.2,0,2.3-0.4,3.3-1.3s1.4-2,1.4-3.3c0-1.4-0.4-2.6-1.4-3.4
					s-2-1.4-3.3-1.4s-2.4,0.4-3.3,1.4c-0.9,0.9-1.4,2.1-1.4,3.4C-3.9,183.7-3.4,184.8-2.6,185.7z"/>
				<g>
					
						<circle fill="none" stroke="#FFFFFF" stroke-width="1.0384" stroke-linecap="round" stroke-linejoin="round" cx="50.3" cy="149.5" r="25.2"/>
					
						<circle fill="none" stroke="#FFFFFF" stroke-width="1.0384" stroke-linecap="round" stroke-linejoin="round" cx="50.4" cy="149.5" r="21.3"/>
					<g>
						
							<circle fill="none" stroke="#FFFFFF" stroke-width="1.0384" stroke-linecap="round" stroke-linejoin="round" cx="50.5" cy="149.5" r="4.2"/>
						<polyline fill="none" stroke="#FFFFFF" stroke-width="1.0384" stroke-linecap="round" stroke-linejoin="round" points="
							46.2,149.1 43.6,132.2 53.5,146.4 						"/>
						<polyline fill="none" stroke="#FFFFFF" stroke-width="1.0384" stroke-linecap="round" stroke-linejoin="round" points="
							47.7,152.9 57.6,166.4 54.7,149.3 						"/>
					</g>
					<path fill="none" stroke="#FFFFFF" stroke-width="1.0384" stroke-linecap="round" stroke-linejoin="round" d="M56.6,118.6H44.1
						c-1.1,0-2-0.9-2-2v-0.8c0-1.1,0.9-2,2-2h12.4c1.1,0,2,0.9,2,2v0.8C58.5,117.7,57.7,118.6,56.6,118.6z"/>
					<g>
						<line fill="none" stroke="#FFFFFF" stroke-linecap="round" stroke-linejoin="round" x1="45" y1="119.1" x2="45" y2="124.3"/>
						
							<line fill="none" stroke="#FFFFFF" stroke-linecap="round" stroke-linejoin="round" x1="56.1" y1="119.1" x2="56.1" y2="124.3"/>
					</g>
				</g>
				<path fill="none" stroke="#FFFFFF" stroke-width="1.0384" stroke-linecap="round" stroke-linejoin="round" d="M11,77.7
					l-33.6,13.9c-3.8,1.5-5.7,5.4-4.2,9.2l7.7,18.7c1.5,3.8,6,5.8,9.7,4.3l4.2-1.7l7.1,8.2l-0.1-11.1l22.4-9.3
					c3.8-1.5,5.1-6,3.5-9.8L20,81.3C18.6,77.6,14.7,76.1,11,77.7z"/>
				<path fill="none" stroke="#FFFFFF" stroke-width="1.0384" stroke-linecap="round" stroke-linejoin="round" d="M61.5,206.6
					c0-9.6-9.7-17.4-23.3-17.4s-23.3,7.8-23.3,17.4c0,9.6,9.7,17.4,23.3,17.4c2.7,0,5.1-0.3,7.5-0.9c-0.3,2.1-1.2,4.7-3.9,6.7
					c0,0,9.5-2.6,11.7-9.9C58.5,216.7,61.5,211.9,61.5,206.6z"/>
			</g>
			<g>
				<path fill="none" stroke="#FFFFFF" stroke-width="1.0384" stroke-linecap="round" stroke-linejoin="round" d="M191.6,34.5
					c4.6,2.4,7,6.2,4.8,12.6c-2.8,8-9.4,8.7-18.3,7l-2.1,8.6l-5.2-1.3l2.1-8.5c-1.4-0.3-2.7-0.7-4.1-1.1l-2.1,8.6l-5.2-1.3l2.1-8.7
					c-1.2-0.3-2.5-0.6-3.7-0.9l-6.8-1.7l2.6-5.9c0,0,3.9,1,3.8,0.9c1.5,0.3,2.1-0.6,2.4-1.2l3.4-13.6l0,0l2.4-9.7
					c0.1-1.1-0.3-2.5-2.4-3c0.1-0.1-3.8-0.9-3.8-0.9l1.4-5.6l7.2,1.8l0,0c1.1,0.3,2.2,0.5,3.3,0.8l2.1-8.5l5.2,1.3l-2.1,8.4
					c1.4,0.3,2.8,0.6,4.2,0.9l2.1-8.3l5.2,1.3L188,15c6.5,2.2,11.3,5.7,10.4,11.9C197.6,31.5,195,33.7,191.6,34.5z M173.2,34.2
					l-2.8,11.4c3.5,0.9,14.4,4.4,15.9-2.1C188.1,36.8,176.7,35.1,173.2,34.2z M177.1,18.6L174.5,29c2.9,0.8,12,3.7,13.5-2.1
					C189.5,20.7,180,19.3,177.1,18.6z"/>
				<path fill="none" stroke="#FFFFFF" stroke-width="1.0384" stroke-linecap="round" stroke-linejoin="round" d="M229.6,19.8
					c0-0.9,0.3-1.8,0.8-2.5c0.5-0.7,1.1-1.5,1.8-2.1c0.7-0.7,1.5-1.4,2.3-2.1c0.9-0.7,1.6-1.5,2.3-2.6c0.7-0.9,1.3-2.1,1.8-3.4
					c0.5-1.3,0.8-2.9,0.8-4.8c0-2-0.3-3.7-0.9-5.1s-1.5-2.7-2.6-3.6s-2.3-1.6-3.8-2.1c-1.5-0.4-2.9-0.7-4.5-0.7
					c-1.7,0-3.3,0.2-4.6,0.6c-1.3,0.3-2.5,0.9-3.5,1.5s-1.9,1.3-2.6,2.1c-0.7,0.8-1.3,1.5-1.8,2.1c-0.4,0.6-0.8,1.2-1,1.9
					s-0.3,1.4-0.3,2.1c0,1.1,0.4,2,1.3,2.5c0.9,0.5,1.8,0.9,2.9,0.9c0.5,0,0.9-0.1,1.3-0.3c0.3-0.2,0.7-0.4,0.9-0.8s0.5-0.7,0.7-1.1
					c0.2-0.4,0.4-0.9,0.7-1.3c0.4-0.8,1.1-1.5,1.9-2.3c0.8-0.7,1.9-1,3.3-1c1.3,0,2.4,0.4,3.3,1.2c0.9,0.8,1.3,2.1,1.3,3.8
					s-0.4,3.2-1.2,4.3s-1.9,2.3-3.3,3.6c-0.6,0.6-1.3,1.2-1.8,1.8c-0.6,0.6-1.1,1.2-1.5,1.9c-0.4,0.7-0.9,1.5-1.1,2.3
					c-0.3,0.9-0.4,1.8-0.4,2.8c0,1.4,0.3,2.5,0.9,3.1c0.6,0.7,1.5,1,3,1c1.2,0,2.2-0.2,2.9-0.6c0.7-0.4,1-1.2,1-2.4L229.6,19.8
					L229.6,19.8z M222.4,35.7c0.9,0.9,2,1.3,3.3,1.3c1.2,0,2.3-0.4,3.3-1.3c0.9-0.9,1.4-2,1.4-3.3s-0.4-2.6-1.4-3.4
					c-0.9-0.9-2-1.4-3.3-1.4c-1.3,0-2.4,0.4-3.3,1.4c-0.9,0.9-1.4,2.1-1.4,3.4C221.1,33.7,221.6,34.8,222.4,35.7z"/>
				<g>
					
						<circle fill="none" stroke="#FFFFFF" stroke-width="1.0384" stroke-linecap="round" stroke-linejoin="round" cx="275.3" cy="-0.5" r="25.2"/>
					
						<circle fill="none" stroke="#FFFFFF" stroke-width="1.0384" stroke-linecap="round" stroke-linejoin="round" cx="275.4" cy="-0.5" r="21.3"/>
					<g>
						
							<circle fill="none" stroke="#FFFFFF" stroke-width="1.0384" stroke-linecap="round" stroke-linejoin="round" cx="275.5" cy="-0.5" r="4.2"/>
						<polyline fill="none" stroke="#FFFFFF" stroke-width="1.0384" stroke-linecap="round" stroke-linejoin="round" points="
							272.7,2.9 282.6,16.4 279.7,-0.7 						"/>
					</g>
				</g>
				<path fill="none" stroke="#FFFFFF" stroke-width="1.0384" stroke-linecap="round" stroke-linejoin="round" d="M286.5,56.6
					c0-9.6-9.7-17.4-23.3-17.4c-13.6,0-23.3,7.8-23.3,17.4S249.6,74,263.2,74c2.7,0,5.1-0.3,7.5-0.9c-0.3,2.1-1.2,4.7-3.9,6.7
					c0,0,9.5-2.6,11.7-9.9C283.5,66.7,286.5,61.9,286.5,56.6z"/>
			</g>
			<g>
				<path fill="none" stroke="#FFFFFF" stroke-width="1.0384" stroke-linecap="round" stroke-linejoin="round" d="M41.6,34.5
					c4.6,2.4,7,6.2,4.8,12.6c-2.8,8-9.4,8.7-18.3,7l-2.1,8.6l-5.2-1.3l2.1-8.5c-1.4-0.3-2.7-0.7-4.1-1.1l-2.1,8.6l-5.2-1.3l2.1-8.7
					c-1.2-0.3-2.5-0.6-3.7-0.9L3,47.7l2.6-5.9c0,0,3.9,1,3.8,0.9c1.5,0.3,2.1-0.6,2.4-1.2l3.4-13.6l0,0l2.4-9.7
					c0.1-1.1-0.3-2.5-2.4-3c0.1-0.1-3.8-0.9-3.8-0.9l1.4-5.6l7.2,1.8l0,0c1.1,0.3,2.2,0.5,3.3,0.8l2.1-8.5l5.2,1.3l-2.1,8.4
					c1.4,0.3,2.8,0.6,4.2,0.9l1.9-8.3l5.2,1.3L37.8,15c6.5,2.2,11.3,5.7,10.4,11.9C47.6,31.5,45,33.7,41.6,34.5z M23.2,34.2
					l-2.8,11.4c3.5,0.9,14.4,4.4,15.9-2.1C38.1,36.8,26.7,35.1,23.2,34.2z M27.1,18.6L24.5,29c2.9,0.8,12,3.7,13.5-2.1
					C39.5,20.7,30,19.3,27.1,18.6z"/>
				<path fill="none" stroke="#FFFFFF" stroke-width="1.0384" stroke-linecap="round" stroke-linejoin="round" d="M79.6,19.8
					c0-0.9,0.3-1.8,0.8-2.5c0.5-0.7,1.1-1.5,1.8-2.1s1.5-1.4,2.3-2.1c0.9-0.7,1.6-1.5,2.3-2.6c0.7-0.9,1.3-2.1,1.8-3.4
					c0.5-1.3,0.8-2.9,0.8-4.8c0-2-0.3-3.7-0.9-5.1c-0.6-1.5-1.5-2.7-2.6-3.6s-2.3-1.6-3.8-2.1c-1.5-0.4-2.9-0.7-4.5-0.7
					c-1.7,0-3.3,0.2-4.6,0.6c-1.3,0.3-2.5,0.9-3.5,1.5s-1.9,1.3-2.6,2.1c-0.7,0.8-1.3,1.5-1.8,2.1c-0.4,0.6-0.8,1.2-1,1.9
					c-0.3,0.7-0.3,1.4-0.3,2.1c0,1.1,0.4,2,1.3,2.5c0.9,0.5,1.8,0.9,2.9,0.9c0.5,0,0.9-0.1,1.3-0.3c0.3-0.2,0.7-0.4,0.9-0.8
					c0.3-0.3,0.5-0.7,0.7-1.1c0.2-0.4,0.4-0.9,0.7-1.3c0.4-0.8,1.1-1.5,1.9-2.3c0.8-0.7,1.9-1,3.3-1c1.3,0,2.4,0.4,3.3,1.2
					s1.3,2.1,1.3,3.8S80.7,5.7,80,6.8c-0.8,1.1-1.9,2.3-3.3,3.6c-0.6,0.6-1.3,1.2-1.8,1.8c-0.6,0.6-1.1,1.2-1.5,1.9
					c-0.4,0.7-0.9,1.5-1.1,2.3c-0.3,0.9-0.4,1.8-0.4,2.8c0,1.4,0.3,2.5,0.9,3.1c0.6,0.7,1.5,1,3,1c1.2,0,2.2-0.2,2.9-0.6
					c0.7-0.4,1-1.2,1-2.4C79.6,20.3,79.6,19.8,79.6,19.8z M72.4,35.7c0.9,0.9,2,1.3,3.3,1.3c1.2,0,2.3-0.4,3.3-1.3
					c0.9-0.9,1.4-2,1.4-3.3s-0.4-2.6-1.4-3.4s-2-1.4-3.3-1.4c-1.3,0-2.4,0.4-3.3,1.4c-0.9,0.9-1.4,2.1-1.4,3.4
					C71.1,33.7,71.6,34.8,72.4,35.7z"/>
				<g>
					
						<circle fill="none" stroke="#FFFFFF" stroke-width="1.0384" stroke-linecap="round" stroke-linejoin="round" cx="125.3" cy="-0.5" r="25.2"/>
					
						<circle fill="none" stroke="#FFFFFF" stroke-width="1.0384" stroke-linecap="round" stroke-linejoin="round" cx="125.4" cy="-0.5" r="21.3"/>
					<g>
						
							<circle fill="none" stroke="#FFFFFF" stroke-width="1.0384" stroke-linecap="round" stroke-linejoin="round" cx="125.5" cy="-0.5" r="4.2"/>
						<polyline fill="none" stroke="#FFFFFF" stroke-width="1.0384" stroke-linecap="round" stroke-linejoin="round" points="
							122.7,2.9 132.6,16.4 129.7,-0.7 						"/>
					</g>
				</g>
				<path fill="none" stroke="#FFFFFF" stroke-width="1.0384" stroke-linecap="round" stroke-linejoin="round" d="M136.5,56.6
					c0-9.6-9.7-17.4-23.3-17.4S90,47,90,56.6S99.7,74,113.3,74c2.7,0,5.1-0.3,7.5-0.9c-0.3,2.1-1.2,4.7-3.9,6.7
					c0,0,9.5-2.6,11.7-9.9C133.5,66.7,136.5,61.9,136.5,56.6z"/>
			</g>
			<g>
				<g>
					
						<circle fill="none" stroke="#FFFFFF" stroke-width="1.0384" stroke-linecap="round" stroke-linejoin="round" cx="-24.7" cy="-0.5" r="25.2"/>
				</g>
			</g>
		</g>
	</g>
</g>
</svg>
