<?xml version="1.0" encoding="utf-8"?>
<!-- Generator: Adobe Illustrator 18.1.1, SVG Export Plug-In . SVG Version: 6.00 Build 0)  -->
<!DOCTYPE svg PUBLIC "-//W3C//DTD SVG 1.1//EN" "http://www.w3.org/Graphics/SVG/1.1/DTD/svg11.dtd">
<svg version="1.1" id="Layer_1" xmlns="http://www.w3.org/2000/svg" xmlns:xlink="http://www.w3.org/1999/xlink" x="0px" y="0px"
	 width="600px" height="440px" viewBox="0 81 600 440" enable-background="new 0 81 600 440" xml:space="preserve">
<g>
	
		<rect x="23.4" y="111.4" fill="none" stroke="#FFFFFF" stroke-width="1.6943" stroke-linecap="round" stroke-linejoin="round" stroke-miterlimit="10" width="550.6" height="308.4"/>
	
		<rect x="24.4" y="112.4" fill="none" stroke="#FFFFFF" stroke-width="1.6943" stroke-linecap="round" stroke-linejoin="round" stroke-miterlimit="10" width="548.6" height="306.4"/>
	
		<rect x="24.4" y="112.4" fill="none" stroke="#FFFFFF" stroke-width="1.6943" stroke-linecap="round" stroke-linejoin="round" stroke-miterlimit="10" width="548.6" height="306.4"/>
	
		<rect x="25.4" y="113.4" fill="none" stroke="#FFFFFF" stroke-width="1.6943" stroke-linecap="round" stroke-linejoin="round" stroke-miterlimit="10" width="546.6" height="304.4"/>
	
		<path fill="none" stroke="#FFFFFF" stroke-width="1.6943" stroke-linecap="round" stroke-linejoin="round" stroke-miterlimit="10" d="
		M196.2,490.6v-2c0-21.7,15.4-33.2,44.5-33.2h134.5c29.1,0.1,44.5,11.6,44.5,33.2v2H196.2z"/>
	
		<path fill="none" stroke="#FFFFFF" stroke-width="1.6943" stroke-linecap="round" stroke-linejoin="round" stroke-miterlimit="10" d="
		M197.2,489.6v-1c0-21.1,15-32.2,43.5-32.2h134.5c28.5,0.1,43.5,11.3,43.5,32.2v1H197.2z"/>
	
		<path fill="none" stroke="#FFFFFF" stroke-width="1.6943" stroke-linecap="round" stroke-linejoin="round" stroke-miterlimit="10" d="
		M197.2,489.6v-1c0-21.1,15-32.2,43.5-32.2h134.5c28.5,0.1,43.5,11.3,43.5,32.2v1H197.2z"/>
	
		<path fill="none" stroke="#FFFFFF" stroke-width="1.6943" stroke-linecap="round" stroke-linejoin="round" stroke-miterlimit="10" d="
		M417.7,488.6H198.2l0,0c0-23.5,19-31.2,42.5-31.2h134.5C398.7,457.5,417.7,465.1,417.7,488.6L417.7,488.6z"/>
	
		<rect x="53.2" y="138.3" fill="none" stroke="#FFFFFF" stroke-width="1.6943" stroke-linecap="round" stroke-linejoin="round" stroke-miterlimit="10" width="492.5" height="256.1"/>
	
		<rect x="54.2" y="139.3" fill="none" stroke="#FFFFFF" stroke-width="1.6943" stroke-linecap="round" stroke-linejoin="round" stroke-miterlimit="10" width="490.5" height="254.1"/>
	
		<rect x="54.2" y="139.3" fill="none" stroke="#FFFFFF" stroke-width="1.6943" stroke-linecap="round" stroke-linejoin="round" stroke-miterlimit="10" width="490.5" height="254.1"/>
	
		<rect x="55.2" y="140.3" fill="none" stroke="#FFFFFF" stroke-width="1.6943" stroke-linecap="round" stroke-linejoin="round" stroke-miterlimit="10" width="488.5" height="252.1"/>
	
		<rect x="55.6" y="173.7" fill="none" stroke="#FFFFFF" stroke-width="2" stroke-linecap="round" stroke-linejoin="round" stroke-miterlimit="10" width="486.3" height="4"/>
	
		<rect x="56.6" y="174.7" fill="none" stroke="#FFFFFF" stroke-width="2" stroke-linecap="round" stroke-linejoin="round" stroke-miterlimit="10" width="484.3" height="2"/>
	
		<rect x="56.6" y="174.7" fill="none" stroke="#FFFFFF" stroke-width="2" stroke-linecap="round" stroke-linejoin="round" stroke-miterlimit="10" width="484.3" height="2"/>
	
		<line fill="none" stroke="#FFFFFF" stroke-width="2" stroke-linecap="round" stroke-linejoin="round" stroke-miterlimit="10" x1="56.6" y1="175.7" x2="540.9" y2="175.7"/>
	
		<rect x="68.5" y="150.5" fill="none" stroke="#FFFFFF" stroke-width="2" stroke-linecap="round" stroke-linejoin="round" stroke-miterlimit="10" width="401" height="14.8"/>
	
		<rect x="69.5" y="151.5" fill="none" stroke="#FFFFFF" stroke-width="2" stroke-linecap="round" stroke-linejoin="round" stroke-miterlimit="10" width="399" height="12.8"/>
	
		<rect x="69.5" y="151.5" fill="none" stroke="#FFFFFF" stroke-width="2" stroke-linecap="round" stroke-linejoin="round" stroke-miterlimit="10" width="399" height="12.8"/>
	
		<rect x="70.5" y="152.5" fill="none" stroke="#FFFFFF" stroke-width="2" stroke-linecap="round" stroke-linejoin="round" stroke-miterlimit="10" width="397" height="10.8"/>
	<path fill="none" stroke="#FFFFFF" stroke-width="2" stroke-linecap="round" stroke-linejoin="round" stroke-miterlimit="10" d="
		M490.5,165.2c-3.9,0-7.1-3.2-7.1-7.1s3.2-7.1,7.1-7.1s7.1,3.2,7.1,7.1C497.6,162.1,494.5,165.2,490.5,165.2z"/>
	<path fill="none" stroke="#FFFFFF" stroke-width="2" stroke-linecap="round" stroke-linejoin="round" stroke-miterlimit="10" d="
		M490.5,164.2c-3.4,0-6.1-2.7-6.1-6.1s2.7-6.1,6.1-6.1s6.1,2.7,6.1,6.1C496.6,161.5,493.9,164.2,490.5,164.2z"/>
	<path fill="none" stroke="#FFFFFF" stroke-width="2" stroke-linecap="round" stroke-linejoin="round" stroke-miterlimit="10" d="
		M490.5,164.2c-3.4,0-6.1-2.7-6.1-6.1s2.7-6.1,6.1-6.1s6.1,2.7,6.1,6.1C496.6,161.5,493.9,164.2,490.5,164.2z"/>
	<path fill="none" stroke="#FFFFFF" stroke-width="2" stroke-linecap="round" stroke-linejoin="round" stroke-miterlimit="10" d="
		M490.5,163.2L490.5,163.2c-2.8,0-5.1-2.3-5.1-5.1l0,0c0-2.8,2.3-5.1,5.1-5.1l0,0c2.8,0,5.1,2.3,5.1,5.1l0,0
		C495.6,161,493.3,163.2,490.5,163.2z"/>
	<path fill="none" stroke="#FFFFFF" stroke-width="2" stroke-linecap="round" stroke-linejoin="round" stroke-miterlimit="10" d="
		M514.5,165.2c-3.9,0-7.1-3.2-7.1-7.1s3.2-7.1,7.1-7.1s7.1,3.2,7.1,7.1C521.6,162.1,518.5,165.2,514.5,165.2z"/>
	<path fill="none" stroke="#FFFFFF" stroke-width="2" stroke-linecap="round" stroke-linejoin="round" stroke-miterlimit="10" d="
		M514.5,164.2c-3.4,0-6.1-2.7-6.1-6.1s2.7-6.1,6.1-6.1s6.1,2.7,6.1,6.1C520.6,161.6,518,164.2,514.5,164.2z"/>
	<path fill="none" stroke="#FFFFFF" stroke-width="2" stroke-linecap="round" stroke-linejoin="round" stroke-miterlimit="10" d="
		M514.5,164.2c-3.4,0-6.1-2.7-6.1-6.1s2.7-6.1,6.1-6.1s6.1,2.7,6.1,6.1C520.6,161.6,518,164.2,514.5,164.2z"/>
	<path fill="none" stroke="#FFFFFF" stroke-width="2" stroke-linecap="round" stroke-linejoin="round" stroke-miterlimit="10" d="
		M514.5,163.2L514.5,163.2c-2.8,0-5.1-2.3-5.1-5.1l0,0c0-2.8,2.3-5.1,5.1-5.1l0,0c2.8,0,5.1,2.3,5.1,5.1l0,0
		C519.6,161,517.4,163.2,514.5,163.2z"/>
	<g>
		
			<path fill="none" stroke="#FFFFFF" stroke-width="1.6943" stroke-linecap="round" stroke-linejoin="round" stroke-miterlimit="10" d="
			M299.6,366c-45.6,0-82.7-37.1-82.7-82.7s37.1-82.7,82.7-82.7s82.7,37.1,82.7,82.7S345.2,366,299.6,366z"/>
		
			<path fill="none" stroke="#FFFFFF" stroke-width="1.6943" stroke-linecap="round" stroke-linejoin="round" stroke-miterlimit="10" d="
			M299.6,365c-45,0-81.7-36.7-81.7-81.7c0-45,36.7-81.7,81.7-81.7c45,0,81.7,36.7,81.7,81.7C381.3,328.3,344.6,365,299.6,365z"/>
		
			<path fill="none" stroke="#FFFFFF" stroke-width="1.6943" stroke-linecap="round" stroke-linejoin="round" stroke-miterlimit="10" d="
			M299.6,365c-45,0-81.7-36.7-81.7-81.7c0-45,36.7-81.7,81.7-81.7c45,0,81.7,36.7,81.7,81.7C381.3,328.3,344.6,365,299.6,365z"/>
		
			<circle fill="none" stroke="#FFFFFF" stroke-width="1.6943" stroke-linecap="round" stroke-linejoin="round" stroke-miterlimit="10" cx="299.6" cy="283.3" r="80.7"/>
		<g>
			<g>
				
					<path fill="none" stroke="#FFFFFF" stroke-width="1.6943" stroke-linecap="round" stroke-linejoin="round" stroke-miterlimit="10" d="
					M287,326l3.3-13.1c-0.8-0.1-1.7-0.3-2.6-0.5l-3.4,13.2l-11.8-3l3.4-13.2c-0.3-0.1-0.7-0.2-1-0.3c-0.9-0.3-1.7-0.5-2.6-0.6
					l-12.9-3.1l5.2-12.9l7.4,1.8c0.1,0,0.3,0,0.4,0c0.5,0,0.7-0.2,0.9-0.6l9-35.9c0-0.8-0.2-1.6-1.4-2.1l0,0l-0.7-0.2l-0.9-0.2l0,0
					c-1-0.3-3-0.7-4.8-1.2l-2-0.5l3.3-12.7l12.9,2.9c0.9,0.1,1.8,0.3,2.7,0.6c0.3,0.1,0.5,0.1,0.8,0.2l3.7-13.1l11.7,3l-3.4,12.9
					c0.4,0.1,0.9,0.2,1.3,0.3c0.4,0.1,0.8,0.2,1.2,0.3L310,235l11.8,3l-3.4,13.5c12.1,4.3,17.3,11,16,20.3
					c-0.9,5.9-3.6,9.9-7.9,11.7c5.8,4.7,7.2,11.2,4.4,19.5c-2.8,9-9.3,13.4-19.9,13.4c-2.6,0-5.5-0.3-8.8-0.8l-3.4,13.4L287,326z
					 M292.1,299.2c3.1,0.8,7.8,1.9,12,1.9c6.2,0,7.5-2.5,8-4.3c0.4-1.6,0.2-2.9-0.6-4.2c-2.8-4.4-11.7-6.5-16.1-7.4l-3.5,14
					L292.1,299.2z M298,273.4c2.6,0.7,6.3,1.6,9.6,1.6c5.3,0,6.5-2.3,7-4c0.3-1.4,0.2-2.7-0.6-3.8c-2.2-3.5-9.3-5.2-12.8-5.9
					L298,273.4z"/>
				
					<path fill="none" stroke="#FFFFFF" stroke-width="1.6943" stroke-linecap="round" stroke-linejoin="round" stroke-miterlimit="10" d="
					M288.2,325.3l3.4-13.2c-1.5-0.2-2.9-0.5-4.5-1l-3.4,13.2l-9.8-2.5l3.4-13.2c-0.7-0.2-1.3-0.3-1.9-0.5c-0.9-0.3-1.8-0.5-2.7-0.7
					l-11.7-2.8l4.5-11l6.5,1.6c0.2,0,0.5,0.1,0.7,0.1c1.3,0,1.7-1,1.8-1.4l9.1-36.1c0-1.4-0.4-2.8-2.9-3.4l0.1-0.5l-0.2,0.4
					c-0.3-0.1-3.6-0.9-5.6-1.4l-1-0.2l2.8-10.7l11.9,2.7c1,0.1,1.9,0.4,2.7,0.6c0.6,0.1,1.2,0.3,1.8,0.4l3.7-13.1l9.8,2.5l-3.4,12.9
					c0.8,0.2,1.5,0.3,2.3,0.5c0.8,0.2,1.5,0.4,2.2,0.5l3.1-13.1l9.9,2.5l-3.4,13.4c12.2,4.2,17.5,10.5,16.2,19.5
					c-0.9,6.3-4,10.3-9,11.5c6.7,4.5,8.6,10.9,5.6,19.6c-2.7,8.6-8.9,12.8-18.9,12.8l0,0c-2.8,0-5.9-0.3-9.6-0.9l-3.4,13.4
					L288.2,325.3z M291.9,300.1c3.2,0.8,7.9,1.9,12.2,1.9c5.2,0,8.1-1.7,9-5.1c0.5-1.8,0.2-3.5-0.7-5c-3.1-5-13.1-7.1-17.7-8
					l-4,15.9C291,299.9,291.4,300,291.9,300.1z M297.3,274.2c2.7,0.7,6.7,1.7,10.4,1.7c4.5,0,7.1-1.6,7.9-4.8
					c0.4-1.7,0.2-3.2-0.7-4.6c-2.7-4.2-10.9-5.8-14.4-6.5l-3.7,14C297,274.1,297.1,274.2,297.3,274.2z"/>
				
					<path fill="none" stroke="#FFFFFF" stroke-width="1.6943" stroke-linecap="round" stroke-linejoin="round" stroke-miterlimit="10" d="
					M288.2,325.3l3.4-13.2c-1.5-0.2-2.9-0.5-4.5-1l-3.4,13.2l-9.8-2.5l3.4-13.2c-0.7-0.2-1.3-0.3-1.9-0.5c-0.9-0.3-1.8-0.5-2.7-0.7
					l-11.7-2.8l4.5-11l6.5,1.6c0.2,0,0.5,0.1,0.7,0.1c1.3,0,1.7-1,1.8-1.4l9.1-36.1c0-1.4-0.4-2.8-2.9-3.4l0.1-0.5l-0.2,0.4
					c-0.3-0.1-3.6-0.9-5.6-1.4l-1-0.2l2.8-10.7l11.9,2.7c1,0.1,1.9,0.4,2.7,0.6c0.6,0.1,1.2,0.3,1.8,0.4l3.7-13.1l9.8,2.5l-3.4,12.9
					c0.8,0.2,1.5,0.3,2.3,0.5c0.8,0.2,1.5,0.4,2.2,0.5l3.1-13.1l9.9,2.5l-3.4,13.4c12.2,4.2,17.5,10.5,16.2,19.5
					c-0.9,6.3-4,10.3-9,11.5c6.7,4.5,8.6,10.9,5.6,19.6c-2.7,8.6-8.9,12.8-18.9,12.8l0,0c-2.8,0-5.9-0.3-9.6-0.9l-3.4,13.4
					L288.2,325.3z M291.9,300.1c3.2,0.8,7.9,1.9,12.2,1.9c5.2,0,8.1-1.7,9-5.1c0.5-1.8,0.2-3.5-0.7-5c-3.1-5-13.1-7.1-17.7-8
					l-4,15.9C291,299.9,291.4,300,291.9,300.1z M297.3,274.2c2.7,0.7,6.7,1.7,10.4,1.7c4.5,0,7.1-1.6,7.9-4.8
					c0.4-1.7,0.2-3.2-0.7-4.6c-2.7-4.2-10.9-5.8-14.4-6.5l-3.7,14C297,274.1,297.1,274.2,297.3,274.2z"/>
				
					<path fill="none" stroke="#FFFFFF" stroke-width="1.6943" stroke-linecap="round" stroke-linejoin="round" stroke-miterlimit="10" d="
					M332.4,271.4c1.4-9.9-5.9-15.3-16.4-18.7l3.4-13.3l-7.9-2l-3.1,13c-2.3-0.3-4.2-1.1-6.5-1.4l3.4-13l-7.9-2l-3.7,13
					c-2-0.3-3.4-0.8-5.4-1.1l0,0l-11-2.5l-2.3,8.8c0,0,5.9,1.4,5.7,1.4c3.4,0.8,3.7,3.1,3.7,4.5l-9.1,36.2c-0.3,1.1-1.4,2.5-3.7,2
					l-5.7-1.4l-3.7,9.1l10.5,2.5c2,0.3,3.7,1.1,5.7,1.4l-3.4,13.3l7.9,2l3.4-13.3c2.3,0.8,4.2,1.1,6.5,1.4l-3.4,13.3l7.9,2l3.4-13.3
					c13.6,2.5,24.4,1.4,28.3-11c3.4-9.9,0-15.9-7.6-19.8C327.3,282.2,331.3,278.8,332.4,271.4z M314,297.2
					c-2.5,9.9-19.3,4.5-24.6,3.4l4.5-17.8C299.3,283.9,316.6,287,314,297.2z M316.6,271.4c-2.3,9.1-16.4,4.5-21,3.4l4.2-15.9
					C304.1,259.8,318.8,262.1,316.6,271.4z"/>
			</g>
		</g>
		
			<path fill="none" stroke="#FFFFFF" stroke-width="1.6943" stroke-linecap="round" stroke-linejoin="round" stroke-miterlimit="10" d="
			M299.6,350.2c-36.9,0-66.9-30-66.9-66.9s30-66.9,66.9-66.9c36.9,0,66.9,30,66.9,66.9S336.5,350.2,299.6,350.2z"/>
		
			<path fill="none" stroke="#FFFFFF" stroke-width="1.6943" stroke-linecap="round" stroke-linejoin="round" stroke-miterlimit="10" d="
			M299.6,349.2c-36.3,0-65.9-29.6-65.9-65.9c0-36.3,29.6-65.9,65.9-65.9s65.9,29.6,65.9,65.9C365.5,319.6,335.9,349.2,299.6,349.2z"
			/>
		
			<path fill="none" stroke="#FFFFFF" stroke-width="1.6943" stroke-linecap="round" stroke-linejoin="round" stroke-miterlimit="10" d="
			M299.6,349.2c-36.3,0-65.9-29.6-65.9-65.9c0-36.3,29.6-65.9,65.9-65.9s65.9,29.6,65.9,65.9C365.5,319.6,335.9,349.2,299.6,349.2z"
			/>
		
			<circle fill="none" stroke="#FFFFFF" stroke-width="1.6943" stroke-linecap="round" stroke-linejoin="round" stroke-miterlimit="10" cx="299.6" cy="283.3" r="64.9"/>
	</g>
	<g>
		
			<rect x="258.5" y="418.3" fill="none" stroke="#FFFFFF" stroke-width="2" stroke-linecap="round" stroke-linejoin="round" stroke-miterlimit="10" width="4" height="38.8"/>
		
			<rect x="259.5" y="419.3" fill="none" stroke="#FFFFFF" stroke-width="2" stroke-linecap="round" stroke-linejoin="round" stroke-miterlimit="10" width="2" height="36.8"/>
		
			<rect x="259.5" y="419.3" fill="none" stroke="#FFFFFF" stroke-width="2" stroke-linecap="round" stroke-linejoin="round" stroke-miterlimit="10" width="2" height="36.8"/>
		
			<line fill="none" stroke="#FFFFFF" stroke-width="2" stroke-linecap="round" stroke-linejoin="round" stroke-miterlimit="10" x1="260.5" y1="419.3" x2="260.5" y2="456.1"/>
		
			<rect x="352" y="418.3" fill="none" stroke="#FFFFFF" stroke-width="2" stroke-linecap="round" stroke-linejoin="round" stroke-miterlimit="10" width="4" height="38.8"/>
		
			<rect x="353" y="419.3" fill="none" stroke="#FFFFFF" stroke-width="2" stroke-linecap="round" stroke-linejoin="round" stroke-miterlimit="10" width="2" height="36.8"/>
		
			<rect x="353" y="419.3" fill="none" stroke="#FFFFFF" stroke-width="2" stroke-linecap="round" stroke-linejoin="round" stroke-miterlimit="10" width="2" height="36.8"/>
		
			<line fill="none" stroke="#FFFFFF" stroke-width="2" stroke-linecap="round" stroke-linejoin="round" stroke-miterlimit="10" x1="354" y1="419.3" x2="354" y2="456.1"/>
	</g>
</g>
</svg>
