<?xml version="1.0" encoding="utf-8"?>
<!-- Generator: Adobe Illustrator 18.1.1, SVG Export Plug-In . SVG Version: 6.00 Build 0)  -->
<!DOCTYPE svg PUBLIC "-//W3C//DTD SVG 1.1//EN" "http://www.w3.org/Graphics/SVG/1.1/DTD/svg11.dtd">
<svg version="1.1" id="Layer_1" xmlns="http://www.w3.org/2000/svg" xmlns:xlink="http://www.w3.org/1999/xlink" x="0px" y="0px"
	 width="300px" height="300px" viewBox="0 0 300 300" enable-background="new 0 0 300 300" xml:space="preserve">
<path d="M150,4.6C67.7,4.6,0.9,71.4,0.9,153.7c0,65.9,42.7,121.7,101.9,141.4c7.5,1.4,10.2-3.2,10.2-7.2c0-3.5-0.1-15.3-0.2-27.7
	c-41.4,9-50.2-17.6-50.2-17.6c-6.8-17.2-16.5-21.8-16.5-21.8c-13.5-9.2,1-9.1,1-9.1c15,1,22.8,15.4,22.8,15.4
	c13.3,22.8,34.9,16.2,43.4,12.4c1.4-9.6,5.2-16.2,9.5-19.9c-33.1-3.8-67.9-16.6-67.9-73.7c0-16.3,5.8-29.6,15.3-40
	c-1.5-3.8-6.7-18.9,1.5-39.5c0,0,12.5-4,41,15.3c11.9-3.3,24.6-5,37.3-5c12.7,0.1,25.4,1.7,37.3,5c28.4-19.3,41-15.3,41-15.3
	c8.2,20.5,3,35.7,1.5,39.4c9.6,10.4,15.3,23.7,15.3,40c0,57.3-34.9,69.9-68.1,73.6c5.4,4.6,10.1,13.7,10.1,27.6
	c0,19.9-0.2,36-0.2,40.9c0,4,2.7,8.6,10.3,7.2c59.2-19.7,101.9-75.6,101.9-141.4C299.1,71.4,232.3,4.6,150,4.6z"/>
</svg>
