<?xml version="1.0" encoding="utf-8"?>
<!-- Generator: Adobe Illustrator 18.1.1, SVG Export Plug-In . SVG Version: 6.00 Build 0)  -->
<!DOCTYPE svg PUBLIC "-//W3C//DTD SVG 1.1//EN" "http://www.w3.org/Graphics/SVG/1.1/DTD/svg11.dtd">
<svg version="1.1" id="Layer_1" xmlns="http://www.w3.org/2000/svg" xmlns:xlink="http://www.w3.org/1999/xlink" x="0px" y="0px"
	 width="300px" height="78px" viewBox="-149 262 300 78" enable-background="new -149 262 300 78" xml:space="preserve">
<g id="New_Symbol_1_1_">
</g>
<g>
	<g>
		<g>
			<path fill="#568CDB" d="M-31.7,324.8l-2.5-0.5l0-0.1l-2.5-0.5l0.6-2.3c-0.1,0-0.3-0.1-0.4-0.1l-2.5-0.6l1.2-2.7l1.4,0.4l1.5-6
				c0-0.1,0-0.1-0.2-0.2l-1.6-0.4l0.6-2.5l2.5,0.7c0.1,0,0.2,0,0.3,0.1l0.6-2.3l2.5,0.6l0,0l2.4,0.5l-0.6,2.3
				c2.5,0.9,2.8,2.5,2.7,3.6c-0.1,0.9-0.5,1.6-1.2,2c0.8,0.8,1,2,0.6,3.4c-0.6,1.6-1.8,2.4-3.6,2.4l0,0c-0.4,0-0.8,0-1.3-0.1
				L-31.7,324.8z M-32.8,323.3l0.2,0.1l0.6-2.3l0.5,0.1c0.7,0.1,1.2,0.2,1.7,0.2c1.3,0,2.1-0.5,2.5-1.6c0.4-1.3,0.1-2-1-2.6
				l-1.5-0.8l1.7-0.3c0.8-0.1,1.2-0.6,1.3-1.5c0.1-0.7,0-1.8-2.4-2.5l-0.5-0.2l0.5-2.2l-0.2-0.1l-0.5,2.1l-0.5-0.1
				c-0.4,0-0.7-0.1-1-0.2l-0.7-0.2l0.5-2.1l-0.2,0l-0.5,2.2l-0.5-0.1c-0.2,0-0.3-0.1-0.4-0.1c-0.1,0-0.3-0.1-0.4-0.1l-0.6-0.2v0.3
				c0.4,0.2,0.6,0.7,0.6,1.2l0,0.1l-0.5,2.1l1.2,0.6l0.9-3.4l0.7,0.1c0.7,0.1,2.3,0.4,2.9,1.4c0.3,0.4,0.4,0.9,0.2,1.4
				c-0.1,0.5-0.6,1.4-2,1.4c-0.8,0-1.6-0.3-2.1-0.4l-0.6-0.2h-1.4l-0.8,3.1c-0.1,0.4-0.4,0.8-1,0.8c-0.1,0-0.3,0-0.4-0.1l-0.5-0.1
				l-0.2,0.5l1.1,0.3c0.2,0,0.4,0.1,0.6,0.2c0.1,0,0.2,0.1,0.4,0.1l0.6,0.1l-0.6,2.3l0.2,0.1l0.6-2.3l0.6,0.2
				c0.2,0.1,0.3,0.1,0.5,0.1c0.2,0.1,0.4,0.1,0.7,0.2l0.5,0.2L-32.8,323.3z M-31.6,314.8c0.4,0.1,0.9,0.2,1.3,0.2
				c0.8,0,0.9-0.3,0.9-0.5c0.1-0.3,0-0.4-0.1-0.5c-0.3-0.4-1.2-0.7-1.8-0.8L-31.6,314.8z M-35.2,311l0.4,0.1c0.1,0,0.2,0,0.2,0.1
				l0.1-0.2l-0.6-0.2L-35.2,311z M-30.9,320.6c-0.8,0-1.7-0.2-2.3-0.4c-0.1,0-0.3-0.1-0.3-0.1l-0.6-0.1l1.1-4.2l0.6,0.2
				c0.1,0,0.3,0.1,0.4,0.1c0.6,0.1,1.5,0.4,2.2,0.8c1.3,0.7,1.3,1.7,1.2,2.3C-28.8,319.7-29.3,320.6-30.9,320.6z M-32.8,319.2
				c0.5,0.1,1.2,0.3,1.8,0.3c1,0,1.1-0.4,1.1-0.6c0-0.2,0.1-0.5-0.6-1c-0.5-0.3-1.3-0.5-1.8-0.6L-32.8,319.2z"/>
		</g>
	</g>
</g>
<circle fill="none" stroke="#568CDB" stroke-width="1.358" cx="-32.4" cy="316.3" r="12.2"/>
<g>
	<g>
		<path fill="#568CDB" d="M20.8,322.9h-9.6v-6.3H9.7v-2.8h1.6v-1.2c0-0.5,0.1-1,0.2-1.5c0.1-0.5,0.3-1.1,0.7-1.7
			c0.3-0.5,0.9-0.9,1.5-1.3c0.6-0.3,1.5-0.5,2.5-0.5c0.6,0,1.1,0.1,1.6,0.2c0.4,0.1,0.8,0.3,1.2,0.5l0.1,0.1
			c0.3,0.1,0.5,0.3,0.8,0.5c0,0,0.1,0.1,0.2,0.1c0.2,0.1,0.3,0.3,0.4,0.5l0.1,0.3l-1.9,2.1l-0.4-0.4c-0.3-0.3-0.5-0.5-0.9-0.7
			c-0.3-0.2-0.6-0.3-1.1-0.3c-0.4,0-0.6,0-0.8,0.1c-0.3,0.2-0.4,0.3-0.5,0.4l-0.1,0.1c-0.1,0.2-0.2,0.4-0.3,0.7c0,0.1,0,0.2,0,0.4
			c0,0.2-0.1,0.4-0.1,0.6v0.8h4.3v2.8h-4.3v3.2h6.3V322.9z M12.4,321.7h7.3V321h-6.3v-5.6h4.3V315h-4.3v-2c0-0.3,0-0.5,0.1-0.8
			c0-0.1,0-0.3,0.1-0.4c0.1-0.5,0.2-0.8,0.5-1.2c0.2-0.4,0.5-0.7,0.9-0.9c0.4-0.3,0.9-0.3,1.4-0.3c0.7,0,1.3,0.1,1.8,0.5
			c0.2,0.1,0.4,0.3,0.6,0.4l0.5-0.5c0,0,0,0,0,0c-0.1-0.1-0.3-0.2-0.5-0.3l-0.1-0.1c-0.2-0.1-0.6-0.3-1-0.4
			c-0.3-0.1-0.7-0.1-1.2-0.1c-0.9,0-1.5,0.1-2,0.4c-0.5,0.3-0.9,0.6-1.1,0.9c-0.3,0.4-0.4,0.7-0.6,1.3c-0.1,0.5-0.2,0.8-0.2,1.2v2.3
			h-1.6v0.5l1.5,0l0,1.2l0,0V321.7z"/>
	</g>
</g>
<circle fill="none" stroke="#568CDB" stroke-width="1.358" cx="15.8" cy="316.3" r="12.2"/>
<g>
	<g>
		<path fill="#568CDB" d="M-30.5,292.6h-3.1v-2.7h-3.4l-0.1-2.5h3.4v-0.7H-37v-2.5h2.1l-3.8-6.5h3.7l3,5.5l2.9-5.5h3.5l-3.8,6.5h2.2
			v2.5l-3.4,0l0,0.7h3.5v2.5h-3.5V292.6z M-32.4,291.5h0.8v-2.7h3.5v-0.2h-3.5v-1.9l0.1-1.1h3.3v-0.2h-3.1l3.8-6.5h-0.8l-3.6,6.8
			l-3.7-6.8h-0.9l3.8,6.5h-3v0.2h3.3l0.1,1.1l0,2h-3.4l0,0.2h3.4V291.5z"/>
	</g>
</g>
<circle fill="none" stroke="#568CDB" stroke-width="1.358" cx="-32.4" cy="284.9" r="12.2"/>
<g>
	<g>
		<path fill="#568CDB" d="M17.2,291.2c-0.6,0-1.2-0.1-1.8-0.3c-0.6-0.2-1-0.5-1.4-0.9c-0.4-0.4-0.7-0.9-1-1.4
			c-0.2-0.3-0.3-0.8-0.5-1.3h-1.9l0.7-2h0.9v-0.6h-1.6l0.6-2h1.2c0.1-0.5,0.3-0.9,0.5-1.2c0.2-0.5,0.5-1,1-1.4
			c0.4-0.4,0.9-0.7,1.4-0.9c0.5-0.2,1.1-0.3,1.8-0.3c0.4,0,0.8,0,1.1,0.1c0.3,0.1,0.6,0.1,0.9,0.3c0.2,0.1,0.5,0.3,0.7,0.5
			c0.1,0.1,0.2,0.1,0.3,0.2c0.1,0.1,0.1,0.1,0.2,0.2l0.4,0.3l-1.5,1.9l-0.4-0.4c-0.1-0.1-0.4-0.3-0.7-0.5c-0.2-0.1-0.6-0.2-1.1-0.2
			c-0.6,0-1,0.2-1.4,0.5c-0.3,0.3-0.5,0.6-0.6,1H19l-0.6,2h-3.5v0.6h4l-0.6,2h-3c0.2,0.4,0.4,0.8,0.6,1c0.4,0.4,0.8,0.5,1.4,0.5
			c0.4,0,0.8-0.1,1.1-0.2c0.3-0.1,0.5-0.3,0.6-0.4l0.4-0.4l1.5,1.9l-0.3,0.3c-0.2,0.2-0.4,0.4-0.6,0.5c-0.2,0.1-0.4,0.2-0.6,0.4
			l-0.1,0c-0.2,0.1-0.5,0.2-0.8,0.3C17.9,291.2,17.6,291.2,17.2,291.2z M12,286.4h1.4l0.1,0.4c0.1,0.5,0.3,1,0.5,1.4
			c0.2,0.4,0.5,0.8,0.8,1.1c0.3,0.3,0.7,0.5,1.1,0.7c0.5,0.2,0.9,0.3,1.4,0.3c0.3,0,0.6,0,0.8-0.1c0.2-0.1,0.5-0.2,0.7-0.3
			c0.2-0.1,0.4-0.3,0.7-0.4c0,0,0.1,0,0.1-0.1l-0.3-0.4c-0.2,0.1-0.3,0.2-0.5,0.3c-0.4,0.2-0.9,0.3-1.4,0.3c-0.8,0-1.5-0.3-2-0.8
			c-0.5-0.5-0.8-1.1-1.1-2l-0.2-0.6h3.6l0-0.1h-3.7v-2.5h3.8l0-0.1h-3.8l0.2-0.6c0.2-0.9,0.6-1.5,1.1-2c0.5-0.5,1.2-0.8,2-0.8
			c0.5,0,1.1,0,1.5,0.3c0.2,0.1,0.3,0.2,0.5,0.3l0.3-0.3c0,0-0.1-0.1-0.2-0.1c-0.2-0.2-0.4-0.3-0.6-0.4l-0.1,0
			c-0.2-0.1-0.4-0.2-0.6-0.2c-0.2-0.1-0.6-0.1-0.9-0.1c-0.6,0-1,0.1-1.4,0.3c-0.4,0.2-0.8,0.4-1.1,0.8c-0.4,0.4-0.6,0.8-0.8,1.1
			c-0.2,0.4-0.4,0.9-0.5,1.4l-0.1,0.4H12l0,0.1h1.5l-0.2,0.6c0,0,0,0.1,0,0.2v0.8c0,0.1,0,0.1,0,0.2c0,0.1,0,0.2,0,0.2v0.5H12
			L12,286.4z"/>
	</g>
</g>
<circle fill="none" stroke="#568CDB" stroke-width="1.358" cx="15.8" cy="284.9" r="12.2"/>
<circle fill="none" stroke="#568CDB" stroke-width="1.358" cx="15.8" cy="284.9" r="12.2"/>
<g>
	<g>
		<path fill="#568CDB" d="M-6.5,310.1H-9v-1.9c-0.5-0.1-0.9-0.1-1.3-0.3c-0.4-0.1-0.7-0.3-1-0.4c-0.1-0.1-0.3-0.1-0.4-0.2l-0.1-0.1
			c-0.4-0.3-0.8-0.5-1.1-0.8c-0.3-0.3-0.5-0.5-0.8-0.9l-0.3-0.4l2-2l0.4,0.4c0.1,0.1,0.1,0.1,0.2,0.2c0.1,0.1,0.3,0.3,0.4,0.4
			c0.1,0.1,0.2,0.2,0.4,0.3c0.1,0.1,0.2,0.2,0.4,0.3c0.2,0.1,0.4,0.2,0.8,0.4c0.1,0,0.2,0.1,0.3,0.1v-3.7c-0.3-0.1-0.7-0.2-1.1-0.4
			c-0.6-0.2-1-0.5-1.4-0.7c-0.4-0.3-0.8-0.8-1.1-1.3c-0.3-0.5-0.5-1.2-0.5-1.9c0-0.5,0-1.1,0.3-1.6c0.2-0.5,0.5-0.9,0.9-1.3
			c0.3-0.3,0.8-0.6,1.3-0.9l0.1,0c0.4-0.1,0.9-0.3,1.4-0.3v-2h2.5v2c0.4,0.1,0.8,0.2,1.1,0.3l0.3,0.1c0.3,0.1,0.6,0.3,0.9,0.5
			c0.3,0.2,0.6,0.5,0.8,0.7c0.1,0,0.2,0.2,0.2,0.3c0,0.1,0.1,0.1,0.1,0.2l0.4,0.4l-2.2,2l-1.2-1.2c-0.1-0.1-0.3-0.2-0.5-0.3v3.1
			c0.4,0.1,0.8,0.3,1.2,0.4c0.5,0.2,1,0.5,1.4,0.8c0.4,0.3,0.8,0.8,1.1,1.4c0.3,0.6,0.4,1.2,0.4,2c0,0.6-0.1,1.1-0.3,1.7
			c-0.2,0.5-0.5,0.8-0.8,1.2l-0.3,0.3L-4,307c-0.3,0.3-0.7,0.6-1.2,0.8l-0.2,0.1c-0.3,0.1-0.7,0.2-1,0.3V310.1z M-7.8,308.9h0.2
			v-1.8l0.5,0c0.4,0,0.8-0.2,1.3-0.3l0.2-0.1c0.3-0.1,0.6-0.3,0.9-0.6l0.1-0.1l0.1-0.1c0.2-0.3,0.5-0.6,0.6-0.9
			c0.1-0.4,0.3-0.8,0.3-1.3c0-0.6,0-1.1-0.2-1.5c-0.2-0.5-0.5-0.8-0.7-1c-0.4-0.3-0.8-0.6-1.2-0.7c-0.4-0.2-0.9-0.4-1.4-0.5
			l-0.5-0.1v-5.5l0.7,0.2c0.7,0.2,1.3,0.4,1.7,0.8l0.4,0.4l0.5-0.5c0,0,0,0,0,0c-0.1-0.2-0.3-0.3-0.6-0.5l-0.1-0.1
			c-0.2-0.1-0.4-0.2-0.7-0.4l-0.2-0.1c-0.3-0.1-0.7-0.2-1.3-0.3l-0.5,0V292h-0.2v1.9l-0.5,0.1c-0.6,0.1-1.2,0.2-1.7,0.3
			c-0.4,0.2-0.8,0.5-1.1,0.7c-0.3,0.3-0.5,0.6-0.6,0.9c-0.2,0.4-0.2,0.7-0.2,1.2c0,0.5,0.1,1,0.3,1.3c0.3,0.4,0.5,0.7,0.8,1
			c0.3,0.2,0.7,0.4,1.2,0.6c0.6,0.2,1,0.4,1.5,0.5l0.4,0.1v6l-1-0.2c-0.3-0.1-0.6-0.1-0.9-0.2c-0.4-0.1-0.7-0.3-1-0.5
			c-0.1-0.1-0.3-0.2-0.4-0.3c-0.1-0.1-0.2-0.2-0.4-0.3c-0.1-0.1-0.2-0.2-0.3-0.3l-0.5,0.5c0.1,0.1,0.2,0.2,0.3,0.3l0.1,0.1
			c0.2,0.2,0.5,0.4,0.8,0.6c0.1,0.1,0.3,0.1,0.4,0.2c0.3,0.1,0.6,0.2,0.9,0.3c0.4,0.1,0.9,0.2,1.6,0.3l0.5,0V308.9z M-7.8,306.6v-6
			l0.8,0.3c0.9,0.3,1.5,0.7,1.9,1.1c0.4,0.5,0.6,1,0.6,1.7c0,0.9-0.3,1.5-0.6,1.9c-0.6,0.6-1.2,0.8-2,0.9L-7.8,306.6z M-6.6,302.3
			v2.8c0.3-0.1,0.5-0.2,0.6-0.4c0.1-0.2,0.3-0.6,0.3-1.1c0-0.4-0.1-0.7-0.3-0.9C-6,302.7-6.2,302.5-6.6,302.3z M-8,299.9l-0.7-0.2
			c-0.4-0.1-0.8-0.3-1-0.4l-0.2-0.1c-0.4-0.2-0.6-0.3-0.9-0.6c-0.2-0.3-0.4-0.5-0.5-0.8c-0.1-0.2-0.1-0.5-0.1-0.8
			c0-0.5,0.2-1.1,0.6-1.6c0.4-0.4,0.9-0.7,1.5-0.8v-0.1l0.6,0l0,0.6l0.5,0V299.9z M-9.2,295.8c-0.3,0.1-0.5,0.2-0.6,0.4
			c-0.2,0.3-0.4,0.6-0.4,0.9c0,0.2,0,0.4,0,0.5c0,0,0.1,0.2,0.2,0.3c0.1,0,0.2,0.1,0.4,0.2l0.2,0.1c0,0,0.1,0,0.1,0.1V295.8z"/>
	</g>
</g>
<circle fill="none" stroke="#568CDB" stroke-width="1.358" cx="-8" cy="300.1" r="12.2"/>
<line fill="none" stroke="#568CDB" stroke-width="1.358" stroke-dasharray="3,2" x1="4.4" y1="301.3" x2="68" y2="301.3"/>
<line fill="none" stroke="#568CDB" stroke-width="1.358" stroke-dasharray="3,2" x1="-83.3" y1="301.3" x2="-20.5" y2="301.3"/>
<g>
	<path fill="none" stroke="#568CDB" stroke-width="1.358" d="M145.6,324.7h-73c-1.9,0-3.4-1.5-3.4-3.4V280c0-1.9,1.5-3.4,3.4-3.4h73
		c1.9,0,3.4,1.5,3.4,3.4v41.2C149,323.1,147.5,324.7,145.6,324.7z"/>
	<g>
		<path fill="none" stroke="#568CDB" stroke-width="1.358" d="M88,296.5h-8.9c-1.4,0-2.7-1.1-2.7-2.7V288c0-1.4,1.1-2.7,2.7-2.7H88
			c1.4,0,2.7,1.1,2.7,2.7v5.8C90.6,295.2,89.4,296.5,88,296.5z"/>
		<circle fill="none" stroke="#568CDB" stroke-width="1.358" cx="132.3" cy="315.2" r="5.2"/>
		<circle fill="none" stroke="#568CDB" stroke-width="1.358" cx="139.6" cy="315.2" r="5.2"/>
		<g>
			<g>
				<line fill="none" stroke="#568CDB" stroke-width="1.358" x1="77.5" y1="300.6" x2="77.5" y2="306.5"/>
				<line fill="none" stroke="#568CDB" stroke-width="1.358" x1="81.1" y1="300.6" x2="81.1" y2="306.5"/>
				<line fill="none" stroke="#568CDB" stroke-width="1.358" x1="84.8" y1="300.6" x2="84.8" y2="306.5"/>
				<line fill="none" stroke="#568CDB" stroke-width="1.358" x1="88.5" y1="300.6" x2="88.5" y2="306.5"/>
			</g>
			<g>
				<line fill="none" stroke="#568CDB" stroke-width="1.358" x1="94.3" y1="300.6" x2="94.3" y2="306.5"/>
				<line fill="none" stroke="#568CDB" stroke-width="1.358" x1="98" y1="300.6" x2="98" y2="306.5"/>
				<line fill="none" stroke="#568CDB" stroke-width="1.358" x1="101.6" y1="300.6" x2="101.6" y2="306.5"/>
				<line fill="none" stroke="#568CDB" stroke-width="1.358" x1="105.2" y1="300.6" x2="105.2" y2="306.5"/>
			</g>
			<g>
				<line fill="none" stroke="#568CDB" stroke-width="1.358" x1="111.1" y1="300.6" x2="111.1" y2="306.5"/>
				<line fill="none" stroke="#568CDB" stroke-width="1.358" x1="114.8" y1="300.6" x2="114.8" y2="306.5"/>
				<line fill="none" stroke="#568CDB" stroke-width="1.358" x1="118.4" y1="300.6" x2="118.4" y2="306.5"/>
				<line fill="none" stroke="#568CDB" stroke-width="1.358" x1="122.1" y1="300.6" x2="122.1" y2="306.5"/>
			</g>
			<g>
				<line fill="none" stroke="#568CDB" stroke-width="1.358" x1="127.9" y1="300.6" x2="127.9" y2="306.5"/>
				<line fill="none" stroke="#568CDB" stroke-width="1.358" x1="131.6" y1="300.6" x2="131.6" y2="306.5"/>
				<line fill="none" stroke="#568CDB" stroke-width="1.358" x1="135.2" y1="300.6" x2="135.2" y2="306.5"/>
				<line fill="none" stroke="#568CDB" stroke-width="1.358" x1="138.9" y1="300.6" x2="138.9" y2="306.5"/>
			</g>
		</g>
		<line fill="none" stroke="#568CDB" stroke-width="1.358" x1="79.7" y1="286" x2="79.7" y2="297"/>
		<polyline fill="none" stroke="#568CDB" stroke-width="1.358" points="86.3,297 86.3,290.4 89.9,290.4 		"/>
		<line fill="none" stroke="#568CDB" stroke-width="1.358" x1="79.7" y1="289.7" x2="76" y2="289.7"/>
		<line fill="none" stroke="#568CDB" stroke-width="1.358" x1="79.7" y1="293.3" x2="76" y2="293.3"/>
		<line fill="none" stroke="#568CDB" stroke-width="1.358" x1="89.9" y1="293.3" x2="86.3" y2="293.3"/>
		<line fill="none" stroke="#568CDB" stroke-width="1.358" x1="141.1" y1="283.1" x2="116.9" y2="283.1"/>
		<line fill="none" stroke="#568CDB" stroke-width="1.358" x1="141.1" y1="287.5" x2="116.9" y2="287.5"/>
	</g>
</g>
<g>
	<polygon fill="none" stroke="#568CDB" stroke-width="1.358" stroke-linecap="round" stroke-linejoin="round" points="-114.8,337 
		-146.4,318.8 -146.4,282.4 -114.8,300.7 	"/>
	<polygon fill="none" stroke="#568CDB" stroke-width="1.358" stroke-linecap="round" stroke-linejoin="round" points="-114.8,300.6 
		-146.5,282.4 -115,264.2 -83.3,282.5 	"/>
	<g>
		<polygon fill="none" stroke="#568CDB" stroke-width="1.358" stroke-linecap="round" stroke-linejoin="round" points="-83.2,318.8 
			-114.9,337 -114.9,300.7 -83.2,282.4 		"/>
		<polyline fill="none" stroke="#568CDB" stroke-width="1.358" stroke-linecap="round" stroke-linejoin="round" points="
			-114.9,300.7 -99.4,311.3 -83.2,282.4 		"/>
		
			<line fill="none" stroke="#568CDB" stroke-width="1.358" stroke-linecap="round" stroke-linejoin="round" x1="-83.5" y1="318.7" x2="-96.2" y2="305.7"/>
		
			<line fill="none" stroke="#568CDB" stroke-width="1.358" stroke-linecap="round" stroke-linejoin="round" x1="-114.9" y1="336.8" x2="-102.2" y2="309.7"/>
	</g>
	
		<line fill="none" stroke="#568CDB" stroke-width="1.358" stroke-linecap="round" stroke-linejoin="round" x1="-139.4" y1="282.3" x2="-129.6" y2="276.6"/>
	
		<line fill="none" stroke="#568CDB" stroke-width="1.358" stroke-linecap="round" stroke-linejoin="round" x1="-136.6" y1="284.1" x2="-126.8" y2="278.5"/>
</g>
<g id="New_Symbol_2_1_">
</g>
</svg>
