<?xml version="1.0" encoding="utf-8"?>
<!-- Generator: Adobe Illustrator 18.1.1, SVG Export Plug-In . SVG Version: 6.00 Build 0)  -->
<!DOCTYPE svg PUBLIC "-//W3C//DTD SVG 1.1//EN" "http://www.w3.org/Graphics/SVG/1.1/DTD/svg11.dtd">
<svg version="1.1" id="Layer_1" xmlns="http://www.w3.org/2000/svg" xmlns:xlink="http://www.w3.org/1999/xlink" x="0px" y="0px"
	 width="300px" height="300px" viewBox="0 0 300 300" enable-background="new 0 0 300 300" xml:space="preserve">
<path fill="#0077B5" d="M274.3,4.4H26.2c-11.9,0-21.5,9.4-21.5,21v249.2c0,11.6,9.6,21,21.5,21h248.2c11.9,0,21.6-9.4,21.6-21V25.4
	C295.9,13.8,286.2,4.4,274.3,4.4z"/>
<path fill="#FFFFFF" d="M47.9,113.6h43.2v139H47.9V113.6z M69.5,44.5c13.8,0,25,11.2,25,25c0,13.8-11.2,25-25,25
	c-13.8,0-25-11.2-25-25C44.4,55.7,55.6,44.5,69.5,44.5"/>
<path fill="#FFFFFF" d="M118.1,113.6h41.4v19h0.6c5.8-10.9,19.9-22.4,40.9-22.4c43.7,0,51.8,28.8,51.8,66.2v76.2h-43.2V185
	c0-16.1-0.3-36.8-22.4-36.8c-22.5,0-25.9,17.6-25.9,35.7v68.7h-43.2L118.1,113.6L118.1,113.6z"/>
</svg>
