<?xml version="1.0" encoding="utf-8"?>
<!-- Generator: Adobe Illustrator 18.1.1, SVG Export Plug-In . SVG Version: 6.00 Build 0)  -->
<!DOCTYPE svg PUBLIC "-//W3C//DTD SVG 1.1//EN" "http://www.w3.org/Graphics/SVG/1.1/DTD/svg11.dtd">
<svg version="1.1" id="Layer_1" xmlns="http://www.w3.org/2000/svg" xmlns:xlink="http://www.w3.org/1999/xlink" x="0px" y="0px"
	 width="300px" height="300px" viewBox="0 0 300 300" enable-background="new 0 0 300 300" xml:space="preserve">
<path fill="#AAAAAA" d="M153,35.2C117,2.2,61,4.7,28,40.7c-33,36-30.5,91.9,5.5,124.9c36,33,91.9,30.5,124.9-5.5
	C191.4,124.1,189,68.2,153,35.2z M143.1,146c-25.1,27.4-67.6,29.2-95,4.2c-27.4-25.1-29.2-67.6-4.2-95s67.6-29.2,95-4.2
	C166.3,76.1,168.2,118.6,143.1,146z"/>
<rect x="206.2" y="147.3" transform="matrix(0.6754 -0.7375 0.7375 0.6754 -90.7262 239.4493)" fill="#AAAAAA" width="40.9" height="150.9"/>
</svg>
