<?xml version="1.0" encoding="utf-8"?>
<!-- Generator: Adobe Illustrator 18.1.1, SVG Export Plug-In . SVG Version: 6.00 Build 0)  -->
<!DOCTYPE svg PUBLIC "-//W3C//DTD SVG 1.1//EN" "http://www.w3.org/Graphics/SVG/1.1/DTD/svg11.dtd">
<svg version="1.1" id="Layer_1" xmlns="http://www.w3.org/2000/svg" xmlns:xlink="http://www.w3.org/1999/xlink" x="0px" y="0px"
	 width="300px" height="125px" viewBox="-30.5 75.5 361.5 149" enable-background="new -30.5 75.5 361.5 149"
	 xml:space="preserve">
<g id="New_Symbol_1">
</g>
<g>
	<path fill="none" stroke="#568CDB" stroke-width="2" stroke-miterlimit="10" d="M321,174.5l-34.1,10.3c-3.8,1.2-7.8-1-8.9-4.8
		l-8.3-27.4c-1.2-3.8,1-7.8,4.8-8.9l34.1-10.3c3.8-1.2,7.8,1,8.9,4.8l8.3,27.4C327,169.4,324.8,173.4,321,174.5z"/>
	<path fill="none" stroke="#568CDB" stroke-width="2" stroke-miterlimit="10" d="M302.3,135.4l-1.9-6.2c0,0-2.3-10.5-13.3-7.1
		l-0.7,0.2c-11.1,3.2-7.3,13.2-7.3,13.2l1.9,6.2"/>
	<path fill="none" stroke="#568CDB" stroke-width="2" stroke-miterlimit="10" d="M308.5,133.5l-2.3-7.6c0,0-3.8-15.3-21.4-9.9h0.1
		c-17.6,5.4-12.4,20.2-12.4,20.2l2.3,7.6"/>
	<path fill="none" stroke="#568CDB" stroke-width="2" stroke-miterlimit="10" d="M301.6,155.1c-0.7-2.4-3.4-3.9-5.9-3.1
		c-2.4,0.7-3.5,3.2-2.8,5.8c0.6,1.9,2.2,3.2,4.4,3.2l1.8,6.1l2.8-0.9l-1.8-6.1C301.9,158.9,302.2,157.1,301.6,155.1z"/>
	<g>
		<circle fill="none" stroke="#568CDB" stroke-width="0.9097" stroke-miterlimit="10" cx="273.3" cy="150.5" r="0.9"/>
		<circle fill="none" stroke="#568CDB" stroke-width="0.9097" stroke-miterlimit="10" cx="282.5" cy="180.7" r="0.9"/>
		<circle fill="none" stroke="#568CDB" stroke-width="0.9097" stroke-miterlimit="10" cx="313.1" cy="138.4" r="0.9"/>
		<circle fill="none" stroke="#568CDB" stroke-width="0.9097" stroke-miterlimit="10" cx="322.3" cy="168.6" r="0.9"/>
	</g>
</g>
<g>
	<g>
		<path fill="none" stroke="#568CDB" stroke-width="1.7085" stroke-miterlimit="10" d="M113.9,133.2L113.9,133.2
			c-1.4,0-2.5-1.1-2.5-2.5v-20.5c0-1.4,1.1-2.5,2.5-2.5l0,0c1.4,0,2.5,1.1,2.5,2.5v20.6C116.5,132.1,115.3,133.2,113.9,133.2z"/>
		<path fill="none" stroke="#568CDB" stroke-width="1.7085" stroke-miterlimit="10" d="M113.9,183c-1.4,0-2.5-1.1-2.5-2.5v-20.6
			c0-1.4,1.1-2.5,2.5-2.5l0,0c1.4,0,2.5,1.1,2.5,2.5v20.6C116.5,181.9,115.3,183,113.9,183L113.9,183"/>
	</g>
	<g>
		<circle fill="none" stroke="#568CDB" stroke-width="1.7085" stroke-miterlimit="10" cx="165.5" cy="145.3" r="18.5"/>
		<circle fill="none" stroke="#568CDB" stroke-width="1.7085" stroke-miterlimit="10" cx="165.2" cy="145.3" r="15.5"/>
		<circle fill="none" stroke="#568CDB" stroke-width="1.7085" stroke-miterlimit="10" cx="165.5" cy="145.3" r="11.1"/>
		<g>
			<line fill="none" stroke="#568CDB" stroke-width="1.7085" stroke-miterlimit="10" x1="165.5" y1="158" x2="165.5" y2="159.3"/>
			<line fill="none" stroke="#568CDB" stroke-width="1.7085" stroke-miterlimit="10" x1="152.7" y1="145.2" x2="151.4" y2="145.2"/>
			<line fill="none" stroke="#568CDB" stroke-width="1.7085" stroke-miterlimit="10" x1="156.4" y1="153.8" x2="155.5" y2="154.7"/>
			<line fill="none" stroke="#568CDB" stroke-width="1.7085" stroke-miterlimit="10" x1="174.2" y1="153.7" x2="175.1" y2="154.7"/>
			<line fill="none" stroke="#568CDB" stroke-width="1.7085" stroke-miterlimit="10" x1="177.6" y1="145.2" x2="179" y2="145.2"/>
			<line fill="none" stroke="#568CDB" stroke-width="1.7085" stroke-miterlimit="10" x1="174.1" y1="136.2" x2="175" y2="135.3"/>
			<line fill="none" stroke="#568CDB" stroke-width="1.7085" stroke-miterlimit="10" x1="165.5" y1="133" x2="165.5" y2="131.7"/>
			<line fill="none" stroke="#568CDB" stroke-width="1.7085" stroke-miterlimit="10" x1="156.9" y1="136.2" x2="156" y2="135.3"/>
		</g>
	</g>
	<path fill="none" stroke="#568CDB" stroke-width="1.7085" stroke-miterlimit="10" d="M103.5,207V84.1c0-1.6,1.3-2.8,2.8-2.8h122.9
		c1.6,0,2.8,1.3,2.8,2.8V207c0,1.6-1.3,2.8-2.8,2.8H106.4C104.8,209.8,103.5,208.6,103.5,207z"/>
	<line fill="none" stroke="#568CDB" stroke-width="1.7085" stroke-miterlimit="10" x1="114" y1="157.6" x2="114" y2="133.8"/>
	<polyline fill="none" stroke="#568CDB" stroke-width="1.7085" stroke-miterlimit="10" points="114,107.4 114,91.3 222.1,91.3 
		222.1,199.4 114,199.4 114,183 	"/>
	<g>
		<path fill="none" stroke="#568CDB" stroke-width="1.7085" stroke-miterlimit="10" d="M204.8,138.2c-1.4-0.9-2.4-2.6-2.4-4.5
			c0-3,2.4-5.4,5.4-5.4c3,0,5.4,2.4,5.4,5.4c0,2-1.2,3.9-2.8,4.7"/>
		<path fill="none" stroke="#568CDB" stroke-width="1.7085" stroke-miterlimit="10" d="M205.9,162.7l-1.3-28.9c0-1.7,1.3-3.2,3-3.2
			c1.7,0,3,1.6,3,3.4l-1.3,28.7C209.3,162.7,205.9,162.7,205.9,162.7z"/>
	</g>
	<g>
		<path fill="none" stroke="#568CDB" stroke-width="1.7085" stroke-miterlimit="10" d="M139.6,210.5v5.6c0,1.5-1.2,2.7-2.7,2.7h-9.6
			c-1.5,0-2.7-1.2-2.7-2.7v-5.6"/>
		<path fill="none" stroke="#568CDB" stroke-width="1.7085" stroke-miterlimit="10" d="M211.2,210.5v5.6c0,1.5-1.2,2.7-2.7,2.7h-9.6
			c-1.5,0-2.7-1.2-2.7-2.7v-5.6"/>
	</g>
</g>
<g>
	<path fill="none" stroke="#568CDB" stroke-width="2" stroke-miterlimit="10" d="M2.8,198.3C-15,183.7-25,162.9-26.1,138.4
		c-0.8-18.3,3.6-32.2,3.9-32.8l1.7-5.4l5.4,1.7c1.2,0.4,2.4,0.6,3.8,0.9c14.1,2.6,32-2.3,32.2-2.4l2.7-0.7l2.3,1.7
		c0.1,0.1,15.1,11,29.3,13.5c1.3,0.2,2.6,0.4,3.9,0.5l5.7,0.3l-0.2,5.7c0,0.6-0.8,15.2-8,32c-9.6,22.6-26.3,38.5-48.1,45.9l-3.1,1
		L2.8,198.3z"/>
	<path fill="none" stroke="#568CDB" stroke-width="2" stroke-miterlimit="10" d="M6.7,192.7c-39.3-32.3-22.5-84.2-22.5-84.2
		c15.7,4.9,38.2-1.3,38.2-1.3s18.8,13.7,35.2,14.7C57.4,121.9,54.8,176.3,6.7,192.7z"/>
	<g>
		<g>
			<path fill="none" stroke="#568CDB" stroke-width="2" stroke-miterlimit="10" d="M22.3,133l1.5-5.8l-3.5-0.9l-1.4,5.6
				c-0.9-0.2-1.8-0.5-2.8-0.7l1.4-5.6l-3.5-0.9l-1.4,5.8c-0.8-0.2-1.5-0.4-2.3-0.6l0,0l-4.9-1.3l-1,3.8c0,0,2.6,0.6,2.5,0.7
				c1.4,0.4,1.7,1.3,1.6,2l-1.7,6.5c0.1,0.1,0.2,0,0.3,0.1c-0.1-0.1-0.2,0-0.3-0.1l-2.4,9.1c-0.2,0.4-0.6,1.1-1.6,0.8
				c0,0.1-2.5-0.7-2.5-0.7l-1.8,4l4.5,1.2c0.8,0.3,1.7,0.4,2.5,0.7l-1.5,5.8l3.5,0.9l1.5-5.8c0.9,0.2,1.9,0.6,2.8,0.7l-1.5,5.7
				l3.5,0.9l1.5-5.8c6,1.2,10.5,0.8,12.4-4.6c1.6-4.3,0-6.9-3.1-8.5c2.3-0.5,4.1-2,4.6-5.1C29.9,136.8,26.7,134.6,22.3,133z
				 M21.1,152.2c-1.1,4.3-8.4,1.9-10.8,1.3l2-7.7C14.7,146.4,22.2,147.7,21.1,152.2z M22.3,140.9c-1,3.9-7.1,1.9-9,1.4l1.9-7
				C17,135.8,23.3,136.8,22.3,140.9z"/>
		</g>
	</g>
</g>
</svg>
