<?xml version="1.0" encoding="utf-8"?>
<!-- Generator: Adobe Illustrator 18.1.1, SVG Export Plug-In . SVG Version: 6.00 Build 0)  -->
<!DOCTYPE svg PUBLIC "-//W3C//DTD SVG 1.1//EN" "http://www.w3.org/Graphics/SVG/1.1/DTD/svg11.dtd">
<svg version="1.1" id="Layer_1" xmlns="http://www.w3.org/2000/svg" xmlns:xlink="http://www.w3.org/1999/xlink" x="0px" y="0px"
	 width="77.7px" height="24.5px" viewBox="-73.8 139 77.7 24.5" enable-background="new -73.8 139 77.7 24.5" xml:space="preserve">
<path fill="#7E8186" d="M-11,144.1c-0.3-0.8,0.1-1.5,0.8-1.9s2.1-0.4,2.9,0.3c-1,0.6-0.8,1.6-1.4,2.1c-0.6,0.4-1.5,0.3-1.9,0.2
	c-0.2,0.3-0.8,0.9-0.8,2.6c-0.7-2.9,2-4.2,3.3-4.7C-9.2,142.6-10.3,143.3-11,144.1z M-73,154.4c0,2.4,1.5,2.6,3,2.6
	c0.6,0,1.2-0.1,1.7-0.2c0.6-0.1,1-0.3,1.4-0.6c0.3-0.3,0.8-0.6,1-1c0.3-0.4,0.3-0.9,0.3-1.5c0-0.5-0.1-0.8-0.2-1.2
	c-0.1-0.3-0.3-0.6-0.6-0.9c-0.3-0.3-0.6-0.5-1-0.7s-0.8-0.4-1.3-0.6c-0.3-0.1-0.7-0.3-1-0.4c-0.3-0.1-0.6-0.3-0.8-0.4
	c-0.2-0.1-0.3-0.3-0.5-0.6c-0.1-0.2-0.1-0.5-0.1-0.8c0-0.2,0.1-0.5,0.1-0.6c0.1-0.2,0.3-0.3,0.5-0.5c0.2-0.1,0.4-0.3,0.7-0.3
	c0.3-0.1,0.6-0.1,0.9-0.1c1.1,0,2.1,0.3,2.9,0.8c0.1-1.7-1.3-2.4-2.6-2.4c-0.6,0-1.1,0.1-1.6,0.2s-1,0.3-1.4,0.6s-0.8,0.6-1,1
	c-0.3,0.4-0.3,0.9-0.3,1.4c0,0.4,0.1,0.8,0.2,1.1c0.1,0.3,0.3,0.6,0.6,0.9c0.3,0.3,0.6,0.5,1,0.7c0.3,0.2,0.8,0.4,1.3,0.6
	c0.3,0.1,0.7,0.3,1,0.4c0.3,0.1,0.6,0.3,0.8,0.4c0.2,0.1,0.4,0.3,0.6,0.6c0.1,0.2,0.2,0.5,0.2,0.8c0,1-0.8,1.6-2.4,1.6
	C-71,155.5-72,155.1-73,154.4z M-57.6,151.5c1.5,0,2.6-0.5,2.4-2.2c-0.1-1.1-0.6-2.1-1.1-2.8c-0.8-1-1.9-1.5-3.5-1.5
	c-1.5,0-2.7,0.6-3.8,1.7c-1,1.1-1.5,2.6-1.5,4.3c0,1.9,0.5,3.3,1.4,4.4c1,1,2.2,1.5,3.8,1.5c2,0,4-0.3,4-2.8
	c-1.1,0.8-2.2,1.3-3.5,1.3c-1.1,0-2-0.3-2.7-1c-0.6-0.7-1-1.7-1-2.9C-63.2,151.5-57.6,151.5-57.6,151.5z M-57.1,148.7
	c0.2,0.8,0.3,1.3-0.6,1.3h-5.4c0.1-1,0.5-1.8,1.1-2.4c0.6-0.6,1.3-0.9,2.2-0.9C-58.5,146.6-57.4,147.7-57.1,148.7z M-47.1,151.5
	c1.5,0,2.6-0.5,2.4-2.2c-0.1-1.1-0.6-2.1-1.1-2.8c-0.8-1-1.9-1.5-3.5-1.5c-1.5,0-2.7,0.6-3.8,1.7c-1,1.1-1.5,2.6-1.5,4.3
	c0,1.9,0.5,3.3,1.4,4.4s2.2,1.5,3.8,1.5c2,0,4-0.3,4-2.8c-1.1,0.8-2.2,1.3-3.5,1.3c-1.1,0-2-0.3-2.7-1c-0.6-0.7-1-1.7-1-2.9
	C-52.8,151.5-47.1,151.5-47.1,151.5z M-46.6,148.7c0.2,0.8,0.3,1.3-0.6,1.3h-5.4c0.1-1,0.5-1.8,1.1-2.4c0.6-0.6,1.3-0.9,2.2-0.9
	C-48,146.6-46.9,147.7-46.6,148.7z M-33.6,155.2V140c-1.4,0-1.8,0.6-1.8,1.7v5.4l0,0c-0.7-1.3-1.9-1.9-3.4-1.9
	c-1.6,0-2.9,0.6-3.8,1.7c-1,1.1-1.4,2.6-1.4,4.5c0,1.7,0.4,3.1,1.3,4.2c0.8,1,2,1.5,3.4,1.5c1.7,0,3.1-0.8,3.9-2.2l0,0v1.9
	C-34.6,156.8-33.6,156.5-33.6,155.2L-33.6,155.2z M-36.4,154.4c-0.6,0.8-1.5,1.1-2.4,1.1c-1,0-1.9-0.3-2.4-1.1s-0.9-1.8-0.9-3.1
	c0-1.4,0.3-2.6,1-3.3c0.6-0.8,1.5-1.3,2.6-1.3c1,0,1.7,0.3,2.3,1c0.6,0.6,0.9,1.4,0.9,2.4v1.6C-35.4,152.8-35.7,153.7-36.4,154.4
	L-36.4,154.4z M-24.1,154.5c-0.8,0.6-1.8,1-2.8,1c-1.2,0-2.1-0.4-2.9-1.2c-0.7-0.8-1-1.8-1-3.1s0.3-2.4,1.1-3.3
	c0.8-0.8,1.7-1.3,2.9-1.3c1,0,1.9,0.3,2.7,0.9c0-2.2-1.7-2.4-2.6-2.4c-1.8,0-3.2,0.6-4.2,1.7c-1.1,1.1-1.6,2.6-1.6,4.5
	c0,1.7,0.5,3.1,1.5,4.1c1,1,2.3,1.6,3.9,1.6C-25.4,157.1-24.1,156.7-24.1,154.5L-24.1,154.5z M-7.9,145.4c-1.1,0-1.8,0.5-1.8,1.7
	v9.7c0.6,0,1.8-0.2,1.8-1.7V145.4z M2.7,149.8c0-1.5-0.3-2.7-1-3.5c-0.6-0.8-1.6-1.2-2.9-1.2c-1.6,0-2.9,0.7-3.7,2.2h0v-1.9
	c-1.4,0-1.8,0.6-1.8,1.7v9.7c1,0,1.8-0.5,1.8-1.6v-4.9c0-1,0.3-1.9,0.9-2.6c0.6-0.7,1.3-1,2.2-1c1.7,0,2.6,1.2,2.6,3.6v6.5
	c1,0,1.8-0.6,1.8-1.6L2.7,149.8L2.7,149.8z M-72.9,159.1v3h0.8c0.3,0,0.6-0.1,0.7-0.3c0.1-0.1,0.3-0.3,0.3-0.6c0-0.1,0-0.2-0.1-0.3
	s-0.1-0.2-0.2-0.3s-0.2-0.1-0.3-0.2c0.1-0.1,0.2-0.1,0.3-0.3c0.1-0.1,0.1-0.3,0.1-0.4s0-0.3-0.1-0.4c-0.1-0.1-0.1-0.2-0.3-0.3
	c-0.1-0.1-0.3-0.1-0.6-0.1L-72.9,159.1L-72.9,159.1z M-72.6,159.4h0.3c0.2,0,0.3,0,0.5,0.1c0.1,0.1,0.1,0.1,0.1,0.3
	c0,0.1,0,0.2-0.1,0.3s-0.1,0.1-0.2,0.1c-0.1,0-0.3,0.1-0.5,0.1h-0.1C-72.6,160.3-72.6,159.4-72.6,159.4z M-72.6,160.7L-72.6,160.7
	c0.4,0,0.5,0,0.7,0c0.1,0.1,0.3,0.1,0.3,0.2s0.1,0.2,0.1,0.3s0,0.2-0.1,0.3s-0.1,0.1-0.3,0.2c-0.1,0-0.3,0.1-0.5,0.1h-0.3
	L-72.6,160.7L-72.6,160.7z M-69.7,159.1v3h0.3v-3H-69.7z M-68.1,159.4h0.6v2.7h0.3v-2.7h0.6v-0.3h-1.6L-68.1,159.4L-68.1,159.4z
	 M-62.4,159.6c-0.1-0.2-0.3-0.3-0.6-0.5c-0.2-0.1-0.5-0.1-0.8-0.1c-0.5,0-0.8,0.1-1.1,0.5c-0.3,0.3-0.5,0.6-0.5,1.1
	c0,0.4,0.1,0.8,0.3,1c0.3,0.3,0.7,0.5,1.3,0.5c0.3,0,0.5-0.1,0.8-0.1c0.2-0.1,0.4-0.3,0.6-0.4l-0.2-0.1c-0.3,0.3-0.6,0.5-1,0.5
	c-0.3,0-0.7-0.1-1-0.3c-0.3-0.3-0.3-0.6-0.3-0.9c0-0.2,0.1-0.5,0.1-0.6c0.1-0.2,0.3-0.3,0.5-0.5c0.2-0.2,0.4-0.1,0.6-0.1
	c0.2,0,0.4,0.1,0.6,0.1c0.1,0.1,0.3,0.2,0.5,0.3C-62.7,159.8-62.4,159.6-62.4,159.6z M-59.6,159c-0.3,0-0.6,0.1-0.8,0.2
	c-0.2,0.1-0.4,0.3-0.6,0.6c-0.1,0.3-0.2,0.5-0.2,0.8c0,0.4,0.1,0.8,0.5,1.1c0.3,0.3,0.7,0.5,1.1,0.5s0.8-0.1,1.1-0.5
	c0.3-0.3,0.5-0.7,0.5-1.1s-0.1-0.8-0.5-1.1C-58.8,159.1-59.2,159-59.6,159z M-59.6,159.3c0.2,0,0.4,0.1,0.6,0.1
	c0.2,0.1,0.3,0.3,0.5,0.5c0.1,0.2,0.1,0.4,0.1,0.6c0,0.2-0.1,0.5-0.1,0.6c-0.1,0.1-0.3,0.3-0.5,0.5c-0.2,0.1-0.4,0.1-0.6,0.1
	c-0.3,0-0.6-0.1-0.9-0.3c-0.3-0.3-0.3-0.6-0.3-0.9c0-0.2,0.1-0.5,0.1-0.6c0.1-0.2,0.3-0.3,0.5-0.5C-60,159.4-59.8,159.3-59.6,159.3z
	 M-56.6,159.1v3h0.3v-3H-56.6z M-54.8,162.1h0.3v-2.2l1.9,2.2h0.1v-3h-0.3v2.3l-1.9-2.3h-0.1V162.1L-54.8,162.1z M-50.1,161.5
	c0.1,0.2,0.3,0.4,0.4,0.5c0.1,0.1,0.3,0.1,0.5,0.1s0.4-0.1,0.6-0.2c0.1-0.1,0.3-0.3,0.3-0.6c0-0.1-0.1-0.3-0.1-0.5
	c-0.1-0.1-0.3-0.3-0.6-0.5c-0.2-0.1-0.3-0.3-0.3-0.3c-0.1-0.1-0.1-0.1-0.1-0.2c0-0.1,0-0.1,0-0.2c0-0.1,0-0.2,0.1-0.3
	c0.1-0.1,0.1-0.1,0.3-0.1c0.1,0,0.1,0,0.3,0.1c0.1,0.1,0.1,0.1,0.3,0.3l0.2-0.1c-0.1-0.2-0.3-0.3-0.4-0.3c-0.1-0.1-0.3-0.1-0.4-0.1
	c-0.1,0-0.3,0-0.3,0.1c-0.1,0.1-0.2,0.1-0.3,0.3c-0.1,0.1-0.1,0.2-0.1,0.3s0.1,0.3,0.1,0.5c0.1,0.1,0.2,0.2,0.5,0.4s0.4,0.3,0.5,0.5
	c0.1,0.1,0.1,0.2,0.1,0.3s0,0.1-0.1,0.3c-0.1,0.1-0.1,0.1-0.2,0.2c-0.1-0.1-0.1-0.1-0.3-0.1s-0.4-0.1-0.6-0.5
	C-49.8,161.4-50.1,161.5-50.1,161.5z M-47.1,159.4h0.6v2.7h0.3v-2.7h0.6v-0.3h-1.6C-47.1,159.1-47.1,159.4-47.1,159.4z M-43,159.1
	L-43,159.1l-1.5,3h0.3l0.5-1h1.3l0.5,1h0.3L-43,159.1L-43,159.1z M-43,159.7l0.5,1.1h-1C-43.5,160.8-43,159.7-43,159.7z
	 M-40.3,159.1v3h0.3v-1.4h0.1l1,1.4h0.3l-1.1-1.4c0.3,0,0.5,0,0.6-0.1c0.1-0.1,0.3-0.1,0.3-0.3c0.1-0.1,0.1-0.3,0.1-0.4
	c0-0.2-0.1-0.3-0.1-0.5c-0.1-0.1-0.3-0.2-0.4-0.3c-0.1,0-0.3,0-0.7,0H-40.3L-40.3,159.1z M-40,159.4h0.5c0.2,0,0.3,0,0.4,0.1
	c0.1,0,0.1,0.1,0.2,0.1c0.1,0.1,0.1,0.1,0.1,0.3c0,0.1,0,0.2-0.1,0.3c-0.1,0.1-0.1,0.1-0.2,0.1c-0.1,0-0.2,0.1-0.4,0.1H-40V159.4
	L-40,159.4z M-37.2,159.4h0.6v2.7h0.3v-2.7h0.6v-0.3h-1.6C-37.2,159.1-37.2,159.4-37.2,159.4z M-34.3,159.1v1.8c0,0.3,0,0.5,0.1,0.6
	c0.1,0.2,0.1,0.3,0.3,0.5c0.1,0.1,0.3,0.1,0.6,0.1c0.2,0,0.4-0.1,0.6-0.1c0.1-0.1,0.3-0.3,0.3-0.4s0.1-0.3,0.1-0.6v-1.8h-0.3v1.8
	c0,0.2,0,0.4,0,0.5s-0.1,0.2-0.1,0.3c-0.1,0.1-0.1,0.1-0.2,0.1s-0.1,0.1-0.3,0.1c-0.1,0-0.2,0-0.3-0.1c-0.1-0.1-0.2-0.1-0.3-0.2
	c-0.1-0.1-0.1-0.1-0.1-0.3v-2.2L-34.3,159.1L-34.3,159.1z M-30.7,159.1v3h0.3v-1.4h0.2c0.3,0,0.6,0,0.8-0.1c0.1-0.1,0.3-0.1,0.4-0.3
	c0.1-0.1,0.1-0.3,0.1-0.5s-0.1-0.3-0.1-0.5c-0.1-0.1-0.3-0.2-0.4-0.3c-0.1,0-0.3-0.1-0.7-0.1C-30.2,159.1-30.7,159.1-30.7,159.1z
	 M-30.5,159.4h0.5c0.2,0,0.3,0,0.4,0.1c0.1,0,0.1,0.1,0.2,0.1c0.1,0.1,0.1,0.1,0.1,0.3c0,0.1,0,0.2-0.1,0.3s-0.1,0.1-0.2,0.1
	s-0.3,0.1-0.5,0.1h-0.5L-30.5,159.4L-30.5,159.4L-30.5,159.4z M-26.3,159.1v3h0.3v-3H-26.3z M-24.5,162.1h0.3v-2.2l1.9,2.2h0.1v-3
	h-0.3v2.3l-1.9-2.3h-0.1L-24.5,162.1L-24.5,162.1z M-17.8,159.6c-0.1-0.2-0.3-0.3-0.6-0.5c-0.2-0.1-0.5-0.1-0.8-0.1
	c-0.5,0-0.8,0.1-1.1,0.5c-0.3,0.3-0.5,0.6-0.5,1.1c0,0.4,0.1,0.8,0.3,1c0.3,0.3,0.7,0.5,1.3,0.5c0.3,0,0.5-0.1,0.8-0.1
	c0.2-0.1,0.4-0.3,0.6-0.4l-0.2-0.1c-0.3,0.3-0.6,0.5-1,0.5c-0.3,0-0.7-0.1-1-0.3c-0.3-0.3-0.3-0.6-0.3-0.9c0-0.2,0.1-0.5,0.1-0.6
	c0.1-0.2,0.3-0.3,0.5-0.5c0.2-0.2,0.4-0.1,0.6-0.1c0.2,0,0.4,0.1,0.6,0.1c0.1,0.1,0.3,0.2,0.5,0.3L-17.8,159.6L-17.8,159.6z
	 M-16.3,159.1v1.8c0,0.3,0,0.5,0.1,0.6c0.1,0.2,0.1,0.3,0.3,0.5c0.1,0.1,0.3,0.1,0.6,0.1c0.2,0,0.4-0.1,0.6-0.1
	c0.1-0.1,0.3-0.3,0.3-0.4c0.1-0.1,0.1-0.3,0.1-0.6v-1.8h-0.3v1.8c0,0.2,0,0.4,0,0.5s-0.1,0.2-0.1,0.3c-0.1,0-0.2,0.1-0.2,0.1
	c-0.1,0-0.1,0.1-0.3,0.1c-0.1,0-0.2,0-0.3-0.1c-0.1-0.1-0.2-0.1-0.3-0.2c-0.1-0.1-0.1-0.1-0.1-0.3v-2.2L-16.3,159.1L-16.3,159.1z
	 M-12.8,159.1v3h0.8c0.3,0,0.6-0.1,0.7-0.3c0.1-0.2,0.3-0.3,0.3-0.6c0-0.1,0-0.2-0.1-0.3c-0.1-0.1-0.1-0.2-0.2-0.3
	c-0.1-0.1-0.2-0.1-0.3-0.2c0.1-0.1,0.2-0.1,0.3-0.3c0.1-0.1,0.1-0.2,0.1-0.3s0-0.3-0.1-0.4c-0.1-0.1-0.1-0.2-0.3-0.3
	c-0.3-0.2-0.5-0.2-0.7-0.2C-12.2,159.1-12.8,159.1-12.8,159.1z M-12.5,159.4h0.3c0.2,0,0.3,0,0.5,0.1c0.1,0.1,0.1,0.1,0.1,0.3
	c0,0.1,0,0.2-0.1,0.3c-0.1,0.1-0.1,0.1-0.2,0.1c-0.1,0-0.3,0.1-0.5,0.1h0L-12.5,159.4L-12.5,159.4z M-12.5,160.7L-12.5,160.7
	c0.4,0,0.5,0,0.7,0c0.1,0,0.3,0.1,0.3,0.2c0.1,0.1,0.1,0.2,0.1,0.3s0,0.2-0.1,0.3c-0.1,0.1-0.1,0.1-0.3,0.2c-0.1,0-0.3,0.1-0.5,0.1
	h-0.2V160.7L-12.5,160.7z M-8.3,159.1L-8.3,159.1l-1.5,3h0.3l0.5-1h1.2l0.5,1H-7L-8.3,159.1L-8.3,159.1z M-8.4,159.7l0.5,1.1h-1
	L-8.4,159.7z M-6,159.4h0.6v2.7h0.3v-2.7h0.7v-0.3h-1.7L-6,159.4L-6,159.4z M-1.6,159c-0.3,0-0.6,0.1-0.8,0.2
	c-0.2,0.1-0.4,0.3-0.6,0.6c-0.1,0.3-0.2,0.5-0.2,0.8c0,0.4,0.1,0.8,0.5,1.1c0.3,0.3,0.7,0.5,1.1,0.5s0.8-0.1,1.1-0.5
	s0.5-0.7,0.5-1.1s-0.1-0.8-0.5-1.1C-0.8,159.1-1.2,159-1.6,159L-1.6,159z M-1.6,159.3c0.2,0,0.4,0.1,0.6,0.1
	c0.2,0.1,0.3,0.3,0.5,0.5c0.1,0.2,0.1,0.4,0.1,0.6c0,0.2-0.1,0.5-0.1,0.6c-0.1,0.2-0.3,0.3-0.5,0.5c-0.2,0.1-0.4,0.1-0.6,0.1
	c-0.3,0-0.6-0.1-0.9-0.3c-0.3-0.3-0.3-0.6-0.3-0.9c0-0.2,0.1-0.5,0.1-0.6c0.1-0.2,0.3-0.3,0.5-0.5C-2,159.4-1.8,159.3-1.6,159.3z
	 M1.4,159.1v3h0.3v-1.4h0.1l1,1.4h0.3L2,160.7c0.3,0,0.5,0,0.6-0.1s0.3-0.1,0.3-0.3C3,160.2,3,160,3,159.9c0-0.2-0.1-0.3-0.1-0.5
	c-0.1-0.1-0.3-0.2-0.4-0.3c-0.1,0-0.3,0-0.7,0H1.4L1.4,159.1L1.4,159.1z M2.2,159.4c0.2,0,0.3,0,0.4,0.1c0.1,0,0.1,0.1,0.2,0.1
	c0.1,0.1,0.1,0.1,0.1,0.3c0,0.1,0,0.2-0.1,0.3s-0.1,0.1-0.2,0.1s-0.2,0.1-0.4,0.1H1.7v-1L2.2,159.4L2.2,159.4z M-12.6,146.1
	c0.3-1.4-0.7-2.5-2.2-2.9c-1.7-0.4-3.6,0.4-4.7,1.6c2.1,0.3,2.4,1.7,3.8,2.4c1.2,0.6,2.5,0.1,2.9-0.5c-0.8-1.2-2.4-1.9-4.7-2.2
	c2.2-0.3,4.3,0.6,5.5,2.5c1.9,3,1,6.9-2,8.8s-6.9,1-8.7-2.1c-0.7-1.1-1-2.4-1-3.7c-0.2,1.5,0.1,3,1,4.4c1.9,3.1,6,4.1,9.2,2.2
	C-10,154.4-9.5,149.1-12.6,146.1z M-13.6,154.5c-6.7,3-11.8-3.8-7-9.1C-27.3,150.3-20.1,159.8-13.6,154.5z M-15.2,152.1
	c0-0.6-0.5-1.1-1-1.3c0.6-0.3,0.8-1.2,0.5-1.7c-0.1-0.1-0.2-0.3-0.3-0.3c-0.1-0.1-0.3-0.1-0.6-0.2v-0.9h-0.7v0.8h-0.5v-0.8h-0.6v0.8
	h-1.1v0.6c0.1,0,0.1,0.1,0.2,0.1s0.1,0.1,0.1,0.1c0,0.1,0,0.1,0.1,0.2v3c0,0.1,0,0.1-0.1,0.2c0,0.1-0.1,0.1-0.1,0.1
	s-0.1,0.1-0.2,0.1v0.6h1.1v0.8h0.6v-0.8h0.5v0.8h0.6v-0.8C-15.8,153.4-15.2,153-15.2,152.1z M-17.5,150.6H-18v-1.5h0.5
	c0.2,0,0.3,0,0.5,0.1c0.3,0.1,0.5,0.3,0.5,0.6c0,0.2,0,0.4-0.1,0.6c-0.1,0.1-0.1,0.1-0.3,0.2C-17.1,150.6-17.2,150.6-17.5,150.6
	L-17.5,150.6z M-18,151.2h0.7c0.1,0,0.3,0,0.5,0.1c0.5,0.1,0.7,0.4,0.7,0.8c0,0.6-0.5,0.8-1.1,0.8h-0.7L-18,151.2L-18,151.2z"/>
</svg>
