<?xml version="1.0" encoding="utf-8"?>
<!-- Generator: Adobe Illustrator 18.1.1, SVG Export Plug-In . SVG Version: 6.00 Build 0)  -->
<!DOCTYPE svg PUBLIC "-//W3C//DTD SVG 1.1//EN" "http://www.w3.org/Graphics/SVG/1.1/DTD/svg11.dtd">
<svg version="1.1" id="svg-solutions" xmlns="http://www.w3.org/2000/svg" xmlns:xlink="http://www.w3.org/1999/xlink" x="0px"
	 y="0px" width="294px" height="241px" viewBox="-152 180 294 241" enable-background="new -152 180 294 241" xml:space="preserve">
<g id="wallet_1_">
	
		<line id="line1" fill="none" stroke="#70A4FC" stroke-width="1.3525" stroke-miterlimit="10" stroke-dasharray="2.705,2.0287" x1="-70.3" y1="315" x2="-46.9" y2="315"/>
	<g id="wallet">
		<g>
			<path fill="#70A4FC" d="M-77.7,345.6l-66.6-0.1c-3.5,0-6.2-2.8-6.2-6.4l0.1-56.9l1.4,0l-0.1,56.9c0,2.8,2.1,5,4.8,5l66.6,0.1
				c2.8,0,5-2.2,5-4.8v-16.8h1.4v16.8C-71.3,342.9-74.2,345.6-77.7,345.6z"/>
		</g>
		<g>
			<path fill="#70A4FC" d="M-71.1,310.7h-1.4v-18.5c0-2.9-2.1-5-4.9-5l-68.4-0.1c-1.6,0-4.6-1-4.6-4.9c0-1.5,0.4-2.6,1.3-3.4
				c1.5-1.3,3.5-1.1,3.6-1.1l65.1,0.1c3.5,0,6.3,2.9,6.3,6.4v2.6c1.8,1.1,2.9,3.1,2.9,5.4V310.7z M-145,285.7l67.6,0.1
				c0.7,0,1.4,0.1,2,0.3v-2c0-2.8-2.2-5-4.9-5l-65.2-0.1c-0.1,0-1.7-0.2-2.6,0.7c-0.6,0.5-0.9,1.3-0.9,2.4c0,3.4,2.9,3.5,3.2,3.5
				H-145z"/>
		</g>
		<g>
			<g>
				<g>
					<rect x="-76.2" y="309.7" fill="#70A4FC" width="0.8" height="1.4"/>
				</g>
				<g>
					<path fill="#70A4FC" d="M-75.4,307.8h-0.8v-1.7h0.8V307.8z M-75.4,304.9h-0.8v-1.7h0.8V304.9z M-75.4,302h-0.8v-1.7h0.8V302z
						 M-75.4,299.1h-0.8v-1.7h0.8V299.1z M-76.3,296.3c-0.1-0.5-0.2-1-0.4-1.5l0.8-0.3c0.2,0.5,0.4,1.1,0.5,1.7L-76.3,296.3z
						 M-77.3,293.8c-0.3-0.4-0.7-0.8-1.1-1.1l0.5-0.6c0.5,0.4,0.9,0.8,1.2,1.3L-77.3,293.8z M-79.3,292c-0.5-0.2-0.9-0.4-1.5-0.5
						l0.2-0.8c0.6,0.1,1.1,0.3,1.7,0.6L-79.3,292z M-81.9,291.3c-0.1,0-0.2,0-0.3,0l-1.4,0l0-0.8l1.4,0c0.1,0,0.2,0,0.3,0
						L-81.9,291.3z M-84.8,291.3l-1.7,0l0-0.8l1.7,0L-84.8,291.3z M-87.7,291.2l-1.7,0l0-0.8l1.7,0L-87.7,291.2z M-90.7,291.2
						l-1.7,0l0-0.8l1.7,0L-90.7,291.2z M-93.6,291.2l-1.7,0l0-0.8l1.7,0L-93.6,291.2z M-96.5,291.2l-1.7,0l0-0.8l1.7,0L-96.5,291.2z
						 M-99.4,291.2l-1.7,0l0-0.8l1.7,0L-99.4,291.2z M-102.3,291.2l-1.7,0l0-0.8l1.7,0L-102.3,291.2z M-105.2,291.2l-1.7,0l0-0.8
						l1.7,0L-105.2,291.2z M-108.1,291.2l-1.7,0l0-0.8l1.7,0L-108.1,291.2z M-111,291.2l-1.7,0l0-0.8l1.7,0L-111,291.2z M-114,291.2
						l-1.7,0l0-0.8l1.7,0L-114,291.2z M-116.9,291.2l-1.7,0l0-0.8l1.7,0L-116.9,291.2z M-119.8,291.2l-1.7,0l0-0.8l1.7,0
						L-119.8,291.2z M-122.7,291.1l-1.7,0l0-0.8l1.7,0L-122.7,291.1z M-125.6,291.1l-1.7,0l0-0.8l1.7,0L-125.6,291.1z M-128.5,291.1
						l-1.7,0l0-0.8l1.7,0L-128.5,291.1z M-131.4,291.1l-1.7,0l0-0.8l1.7,0L-131.4,291.1z M-134.4,291.1l-1.7,0l0-0.8l1.7,0
						L-134.4,291.1z M-137.3,291.1l-1.7,0l0-0.8l1.7,0L-137.3,291.1z M-140.2,291.1l-1.7,0l0-0.8l1.7,0L-140.2,291.1z M-143.1,291.1
						l-1.7,0l0-0.8l1.7,0L-143.1,291.1z M-146,291.1l-1.7,0l0-0.8l1.7,0L-146,291.1z"/>
				</g>
				<g>
					<rect x="-150" y="290" fill="#70A4FC" width="1.2" height="0.8"/>
				</g>
			</g>
		</g>
		<g>
			<g>
				<g>
					<rect x="-149.5" y="340" fill="#70A4FC" width="1.1" height="0.8"/>
				</g>
				<g>
					<path fill="#70A4FC" d="M-82.6,341l-1.7,0l0-0.8l1.7,0L-82.6,341z M-85.6,341l-1.7,0l0-0.8l1.7,0L-85.6,341z M-88.5,341l-1.7,0
						l0-0.8l1.7,0L-88.5,341z M-91.5,341l-1.7,0l0-0.8l1.7,0L-91.5,341z M-94.4,340.9l-1.7,0l0-0.8l1.7,0L-94.4,340.9z M-97.4,340.9
						l-1.7,0l0-0.8l1.7,0L-97.4,340.9z M-100.4,340.9l-1.7,0l0-0.8l1.7,0L-100.4,340.9z M-103.3,340.9l-1.7,0l0-0.8l1.7,0
						L-103.3,340.9z M-106.3,340.9l-1.7,0l0-0.8l1.7,0L-106.3,340.9z M-109.2,340.9l-1.7,0l0-0.8l1.7,0L-109.2,340.9z M-112.2,340.9
						l-1.7,0l0-0.8l1.7,0L-112.2,340.9z M-115.1,340.9l-1.7,0l0-0.8l1.7,0L-115.1,340.9z M-118.1,340.9l-1.7,0l0-0.8l1.7,0
						L-118.1,340.9z M-121.1,340.9l-1.7,0l0-0.8l1.7,0L-121.1,340.9z M-124,340.9l-1.7,0l0-0.8l1.7,0L-124,340.9z M-127,340.9
						l-1.7,0l0-0.8l1.7,0L-127,340.9z M-81.3,340.9l-0.1-0.8c0.5-0.1,1-0.2,1.5-0.4l0.3,0.8C-80.1,340.6-80.7,340.8-81.3,340.9z
						 M-129.9,340.9l-1.7,0l0-0.8l1.7,0L-129.9,340.9z M-132.9,340.9l-1.7,0l0-0.8l1.7,0L-132.9,340.9z M-135.8,340.9l-1.7,0l0-0.8
						l1.7,0L-135.8,340.9z M-138.8,340.9l-1.7,0l0-0.8l1.7,0L-138.8,340.9z M-141.8,340.9l-1.7,0l0-0.8l1.7,0L-141.8,340.9z
						 M-144.7,340.9l-1.7,0l0-0.8l1.7,0L-144.7,340.9z M-78.4,339.7l-0.5-0.7c0.4-0.3,0.8-0.7,1.2-1.1l0.6,0.5
						C-77.5,339-77.9,339.4-78.4,339.7z M-76.3,337.4l-0.7-0.4c0.2-0.5,0.4-1,0.6-1.5l0.8,0.2C-75.8,336.3-76,336.9-76.3,337.4z
						 M-75.5,334.4l-0.8,0c0-0.1,0-0.2,0-0.3v-1.4h0.8v1.4C-75.5,334.2-75.5,334.3-75.5,334.4z M-75.5,331.4h-0.8v-1.7h0.8V331.4z
						 M-75.5,328.5h-0.8v-1.7h0.8V328.5z M-75.5,325.5h-0.8V325h0.8V325.5z"/>
				</g>
				<g>
					<rect x="-76.2" y="322.8" fill="#70A4FC" width="0.8" height="1.2"/>
				</g>
			</g>
		</g>
		<g>
			<path fill="#70A4FC" d="M-69.4,323.2h-12.4c-3.5,0-6.4-2.9-6.4-6.4c0-3.5,2.9-6.4,6.4-6.4h12.4V323.2z M-81.8,311.8
				c-2.7,0-5,2.3-5,5c0,2.8,2.3,5,5,5h11v-10H-81.8z"/>
		</g>
		<g>
			<path fill="#70A4FC" d="M-81.6,320.3c-2,0-3.7-1.7-3.7-3.7s1.7-3.7,3.7-3.7c2,0,3.7,1.7,3.7,3.7S-79.6,320.3-81.6,320.3z
				 M-81.6,313.7c-1.6,0-2.9,1.3-2.9,2.9s1.3,2.9,2.9,2.9c1.6,0,2.9-1.3,2.9-2.9S-80,313.7-81.6,313.7z"/>
		</g>
		<g>
			<path fill="#70A4FC" d="M-77.3,285.5h-0.6v-0.2l-66.9-0.1c0,0-2.5-0.1-2.5-2.9c0-0.6,0.2-1.1,0.6-1.5c1-0.9,2.9-0.9,4.5-0.9
				c0.2,0,0.4,0,0.6,0c2.2,0,60.6,0.2,61.2,0.2l0.3,0v4.3h-0.6v-3.7c-4.6,0-58.8-0.2-60.9-0.2c-0.2,0-0.4,0-0.6,0
				c-1.5,0-3.3,0-4.1,0.7c-0.3,0.3-0.4,0.6-0.4,1.1c0,2.2,1.8,2.3,1.9,2.3l67.5,0.1V285.5z"/>
		</g>
		<g>
			
				<rect x="-147" y="281.9" transform="matrix(1 2.979075e-03 -2.979075e-03 1 0.8403 0.3391)" fill="#70A4FC" width="67.2" height="0.6"/>
		</g>
	</g>
</g>
<g id="invoice_1_">
	
		<line id="line2" fill="none" stroke="#70A4FC" stroke-width="1.3525" stroke-miterlimit="10" stroke-dasharray="2.705,2.0287" x1="28.1" y1="315" x2="52.1" y2="315"/>
	<path id="invoice" fill="#70A4FC" d="M113,354.4H51.6v-79.4H113V354.4z M53,353.1h58.6v-76.6H53V353.1z M73.7,282.7H55.5v-2.3h18.2
		V282.7z M56.3,282h16.6v-0.7H56.3V282z M73.7,286.6H55.5v-2.3h18.2V286.6z M56.3,285.9h16.6v-0.7H56.3V285.9z M102.1,289.2
		c-2.9,0-5.2-2.3-5.2-5.2s2.3-5.2,5.2-5.2c2.9,0,5.2,2.3,5.2,5.2S105,289.2,102.1,289.2z M102.1,279.6c-2.4,0-4.4,2-4.4,4.4
		s2,4.4,4.4,4.4s4.4-2,4.4-4.4S104.5,279.6,102.1,279.6z M102.1,287.2c-1.9,0-3.4-1.5-3.4-3.4s1.5-3.4,3.4-3.4s3.4,1.5,3.4,3.4
		S104,287.2,102.1,287.2z M102.1,281.2c-1.4,0-2.6,1.2-2.6,2.6s1.2,2.6,2.6,2.6s2.6-1.2,2.6-2.6S103.5,281.2,102.1,281.2z
		 M108.9,301.2H55.6v-2.2h53.3V301.2z M56.4,300.5h51.7v-0.6H56.4V300.5z M75.6,305.7h-20v-2.2h20V305.7z M56.4,305h18.4v-0.6H56.4
		V305z M75.6,316.2h-20v-2.2h20V316.2z M56.4,315.5h18.4v-0.6H56.4V315.5z M108.8,305.7h-8.1v-2.2h8.1V305.7z M101.5,305h6.5v-0.6
		h-6.5V305z M108.8,316.2h-8.1v-2.2h8.1V316.2z M101.5,315.5h6.5v-0.6h-6.5V315.5z M108.8,329.1H98.1V327h10.7V329.1z M98.9,328.4
		h9.1v-0.6h-9.1V328.4z M108.9,310.9H55.6v-2.2h53.3V310.9z M56.4,310.2h51.7v-0.6H56.4V310.2z M108.9,321.4H55.6v-2.2h53.3V321.4z
		 M56.4,320.7h51.7V320H56.4V320.7z"/>
</g>
<g id="key_1_">
	
		<line id="line3" fill="none" stroke="#70A4FC" stroke-width="1.3525" stroke-miterlimit="10" stroke-dasharray="2.705,2.0287" x1="-10.5" y1="383.8" x2="-10.5" y2="357.6"/>
	<path id="key" fill="none" stroke="#70A4FC" stroke-width="1.3525" stroke-miterlimit="10" d="M-37.7,370
		c11.9,0,21.5,9.6,21.5,21.5S-25.8,413-37.7,413s-21.5-9.6-21.5-21.5S-49.6,370-37.7,370z M-37.5,373c10.1,0,18.3,8.2,18.3,18.3
		s-8.2,18.3-18.3,18.3s-18.3-8.2-18.3-18.3S-47.6,373-37.5,373z M-45.7,385.2c3.5,0,6.3,2.8,6.3,6.3s-2.8,6.3-6.3,6.3
		s-6.3-2.8-6.3-6.3S-49.2,385.2-45.7,385.2z M-17.2,399.5h52.7l4.7-7.1l-5.4-5.4l-2.3-1.5l-2.2,1.5l-4.4-2.7l-3,1.7l-2.4-1.7
		l-4.6,2.9l-3-1.7l-3.3,2.8H7.2L3,385l-2.4,1.4l-2.8-2.2h-15 M-16.2,393.4h55.8 M37.6,396.5h-54.8"/>
</g>
<g id="bitcoin_1_">
	
		<line id="line4" fill="none" stroke="#70A4FC" stroke-width="1.3525" stroke-miterlimit="10" stroke-dasharray="2.705,2.0287" x1="-10.5" y1="271.5" x2="-10.5" y2="252.1"/>
	<g id="bitcoin">
		<circle fill="none" stroke="#70A4FC" stroke-width="1.3525" stroke-miterlimit="10" cx="-9.5" cy="219.9" r="31.9"/>
		<circle fill="none" stroke="#70A4FC" stroke-width="1.3525" stroke-miterlimit="10" cx="-9.5" cy="219.9" r="25.6"/>
		<g>
			<g>
				<g>
					<path fill="#70A4FC" d="M-9.6,235l-3.8-0.9l1.1-4.2c-0.3-0.1-0.6-0.1-0.9-0.2l-1.1,4.2L-18,233l1.1-4.3c-0.1,0-0.2-0.1-0.3-0.1
						c-0.3-0.1-0.6-0.2-0.9-0.2l-4.1-1l1.7-4.1l2.4,0.6c0.1,0,0.2,0,0.2,0c0.2,0,0.2-0.2,0.3-0.3l2.9-11.6c0-0.4-0.2-0.7-0.7-0.8
						l-1.5-0.2l-0.8-1l0.9-3.4l4.1,1c0.3,0.1,0.6,0.1,0.8,0.2c0.1,0,0.2,0,0.3,0.1l1.2-4.2l3.8,0.9l-1.1,4.1c0.1,0,0.3,0.1,0.4,0.1
						c0.1,0,0.3,0.1,0.4,0.1l1-4.2l3.8,0.9l-1.1,4.3c1.9,0.7,5.8,2.4,5.1,6.5c-0.3,1.8-1.2,3.1-2.5,3.8c2,1.5,2.5,3.6,1.5,6.4
						c-1,2.9-3.1,4.3-6.4,4.3c0,0,0,0,0,0c-0.9,0-1.8-0.1-2.9-0.3L-9.6,235z M-15,217.8l-1.6,6.2c-0.2,0.6-0.7,1.1-1.4,1.1
						c-0.2,0-0.4,0-0.6-0.1l-1.3-0.3l-0.7,1.8l2.7,0.7c0.3,0.1,0.6,0.2,0.9,0.3c0.3,0.1,0.6,0.2,0.9,0.2l0.6,0.1l-1.1,4.3l1.4,0.3
						l1.1-4.3l0.6,0.2c0.7,0.2,1.2,0.3,2,0.5l0.7,0.1l-1.1,4.3l1.4,0.3l1.1-4.2l0.6,0.1c1.3,0.2,2.3,0.4,3.3,0.4
						c2.8,0,4.4-1.1,5.2-3.5c0.9-2.6,0.2-4.4-2.1-5.6l-1.8-0.9l2-0.3c1.6-0.2,2.6-1.3,2.9-3.1c0.4-2.4-1.1-4.1-4.8-5.3l-0.5-0.2
						l1.1-4.2l-1.3-0.3l-1,4.1l-0.6-0.1c-0.4-0.1-0.7-0.2-1.1-0.3c-0.3-0.1-0.6-0.2-1-0.2l-0.7-0.1l1.1-4.2l-1.4-0.3l-1.2,4.1
						l-0.6-0.1c-0.3-0.1-0.6-0.1-0.9-0.2c-0.3-0.1-0.5-0.1-0.8-0.2l-3-0.7l-0.4,1.6c0.6,0.1,0.9,0.2,1.2,0.3l0,0
						c0.8,0.2,1.7,0.7,1.7,2.1l0,0.2l-1.1,4.4 M-8,227.3c-1.5,0-3.1-0.4-4.2-0.6c-0.3-0.1-0.5-0.1-0.6-0.2l-0.6-0.1l1.8-6.9l0.9,0.2
						c1.7,0.3,5.1,1.1,6.3,3c0.4,0.7,0.5,1.5,0.3,2.3C-4.5,226-5.4,227.3-8,227.3z M-12,225.4C-12,225.4-11.9,225.4-12,225.4
						c1.1,0.3,2.6,0.6,3.9,0.6c2,0,2.5-0.8,2.6-1.4c0.1-0.5,0.1-0.9-0.2-1.4c-0.9-1.4-3.7-2.1-5.2-2.4L-12,225.4z M-6.8,218.9
						c-1.3,0-2.8-0.4-3.6-0.6l-1-0.3l1.6-6.3l0.7,0.1c1.3,0.2,4.2,0.8,5.4,2.5c0.4,0.7,0.6,1.4,0.4,2.3
						C-3.6,217.6-4.4,218.9-6.8,218.9z M-9.9,217.1c0.8,0.2,2,0.5,3.1,0.5c1.7,0,2.1-0.8,2.3-1.3c0.1-0.5,0.1-0.9-0.2-1.3
						c-0.7-1.1-2.9-1.6-4.1-1.9L-9.9,217.1z"/>
				</g>
			</g>
		</g>
	</g>
</g>
<path id="logo" fill="none" stroke="#70A4FC" stroke-width="1.3525" stroke-miterlimit="10" d="M-21.6,336l24,14.2L28.1,336v-10.5
	L2.5,339.6l-24.1-14.1V336z M2.4,336l25.7-14.5v-28.4L18,287.9v28.3l-24.3,14.6L2.4,336z M-33.7,315.4v28.5l23.8,13.8l9.6-5.4
	l-24.3-13.8v-28.5L-33.7,315.4z M2.7,293.4l-24.8-14.3l-24.8,14.3v10.5l24.7-14.1l24.9,14.1V293.4z M-23.2,293.2l-23.7,14.6v28.5
	l10,5.2v-28.3l23.4-14.6L-23.2,293.2z M14.8,314.1v-28.5l-25.7-14l-8.6,5.6L5.7,291v28.5L14.8,314.1z"/>
</svg>
