<?xml version="1.0" encoding="utf-8"?>
<!-- Generator: Adobe Illustrator 18.1.1, SVG Export Plug-In . SVG Version: 6.00 Build 0)  -->
<!DOCTYPE svg PUBLIC "-//W3C//DTD SVG 1.1//EN" "http://www.w3.org/Graphics/SVG/1.1/DTD/svg11.dtd">
<svg version="1.1" id="Layer_1" xmlns="http://www.w3.org/2000/svg" xmlns:xlink="http://www.w3.org/1999/xlink" x="0px" y="0px"
	 width="300px" height="300px" viewBox="0 0 300 300" enable-background="new 0 0 300 300" xml:space="preserve">
<g opacity="0.15" enable-background="new    ">
	<g>
		<defs>
			<rect id="SVGID_1_" width="300" height="300"/>
		</defs>
		<clipPath id="SVGID_2_">
			<use xlink:href="#SVGID_1_"  overflow="visible"/>
		</clipPath>
		<g clip-path="url(#SVGID_2_)">
			<path fill="none" stroke="#FFFFFF" stroke-width="1.0384" stroke-miterlimit="10" d="M312.7,251.4c-0.1,0.7-0.1,1.4-0.1,2.1
				c0,1.5,0.3,2.2,0.9,2.2c2.1,0,3.3-2.7,3.3-8.3c0-7.1-3.9-12.3-10-12.3c-6.6,0-11.5,6.5-11.5,16.1c0,8.8,4.2,14.4,10.9,14.4
				c3.2,0,5.7-0.8,7.9-1.6l1,3.9c-2.9,1.3-5.9,1.8-9.1,1.8c-9,0-15.7-7.1-15.7-18.5c0-11.6,7.2-20.4,16.6-20.4
				c8.7,0,14.6,6.3,14.6,16.1c0,8.4-3.9,12.7-9.4,12.7c-1,0-2.3-0.3-2.9-0.5c-0.6-0.7-1.1-1.8-1.2-2.7h-0.2c-2,2.1-4,3.3-5.9,3.3
				c-2.1,0-3.6-2.6-3.6-7.1c0-7,3.9-12.4,9.4-12.4c2.6,0,4.4,0.9,5.7,1.9L312.7,251.4z M307,243.9c-1.6,0-3.6,2.7-3.6,8.1
				c0,2.4,0.7,2.8,1.4,2.8c0.9,0,1.9-0.7,3-2.1l0.7-8.5C308.1,243.9,308,243.9,307,243.9z"/>
		</g>
	</g>
	<g>
		<defs>
			<rect id="SVGID_3_" width="300" height="300"/>
		</defs>
		<clipPath id="SVGID_4_">
			<use xlink:href="#SVGID_3_"  overflow="visible"/>
		</clipPath>
		<g clip-path="url(#SVGID_4_)">
			<path fill="none" stroke="#FFFFFF" stroke-width="1.0384" stroke-miterlimit="10" d="M162.7,251.4c-0.1,0.7-0.1,1.4-0.1,2.1
				c0,1.5,0.3,2.2,0.9,2.2c2.1,0,3.3-2.7,3.3-8.3c0-7.1-3.9-12.3-10-12.3c-6.6,0-11.5,6.5-11.5,16.1c0,8.8,4.2,14.4,10.9,14.4
				c3.2,0,5.7-0.8,7.9-1.6l1,3.9c-2.9,1.3-5.9,1.8-9.1,1.8c-9,0-15.7-7.1-15.7-18.5c0-11.6,7.2-20.4,16.6-20.4
				c8.7,0,14.6,6.3,14.6,16.1c0,8.4-3.9,12.7-9.4,12.7c-1,0-2.3-0.3-2.9-0.5c-0.6-0.7-1.1-1.8-1.2-2.7h-0.2c-2,2.1-4,3.3-5.9,3.3
				c-2.1,0-3.6-2.6-3.6-7.1c0-7,3.9-12.4,9.4-12.4c2.6,0,4.4,0.9,5.7,1.9L162.7,251.4z M157,243.9c-1.6,0-3.6,2.7-3.6,8.1
				c0,2.4,0.7,2.8,1.4,2.8c0.9,0,1.9-0.7,3-2.1l0.7-8.5C158.1,243.9,158,243.9,157,243.9z"/>
			<g>
				<path fill="none" stroke="#FFFFFF" stroke-width="1.0384" stroke-miterlimit="10" d="M259.1,320.7H252c-4.3,0-7.7-3.4-7.7-7.7
					v-7.9c0-4.3,3.4-7.7,7.7-7.7h7L259.1,320.7L259.1,320.7z"/>
				<line fill="none" stroke="#FFFFFF" stroke-miterlimit="10" x1="255.9" y1="297.4" x2="255.9" y2="320.6"/>
				<path fill="none" stroke="#FFFFFF" stroke-width="1.0384" stroke-miterlimit="10" d="M284.1,320.7h7c4.3,0,7.7-3.4,7.7-7.7v-7.9
					c0-4.3-3.4-7.7-7.7-7.7h-7V320.7z"/>
				<line fill="none" stroke="#FFFFFF" stroke-miterlimit="10" x1="287.6" y1="297.4" x2="287.6" y2="320.6"/>
				<g>
					<path fill="none" stroke="#FFFFFF" stroke-width="1.0384" stroke-miterlimit="10" d="M250,297.5v-1.1c0-6.8,0.6-15.3,6.1-20.7
						c3.5-3.6,8.7-5.3,15.9-5.3c6.8,0,11.6,1.6,14.9,4.9c5.1,5.1,5.5,13.1,5.4,19.5c0,0.8,0,2,0,2.7"/>
					<path fill="none" stroke="#FFFFFF" stroke-width="1.0384" stroke-miterlimit="10" d="M288,297.2c0-0.6,0-1.6,0-2.4
						c0.1-5.9-0.5-12.6-4.3-16.5c-2.4-2.5-6.3-3.7-11.7-3.7c-5.9,0-10.1,1.3-12.9,4c-4.2,4.2-4.8,11.5-4.8,17.7v1.1"/>
				</g>
			</g>
			<g>
				<circle fill="none" stroke="#FFFFFF" stroke-width="1.0384" stroke-miterlimit="10" cx="199.8" cy="285.4" r="28.1"/>
				<circle fill="none" stroke="#FFFFFF" stroke-width="1.0384" stroke-miterlimit="10" cx="199.8" cy="285.4" r="14.7"/>
				<g>
					<g>
						
							<line fill="none" stroke="#FFFFFF" stroke-width="1.0384" stroke-miterlimit="10" x1="196.2" y1="271.2" x2="195.1" y2="258"/>
						
							<line fill="none" stroke="#FFFFFF" stroke-width="1.0384" stroke-miterlimit="10" x1="190.5" y1="274.1" x2="180.6" y2="265.1"/>
					</g>
					<g>
						
							<line fill="none" stroke="#FFFFFF" stroke-width="1.0384" stroke-miterlimit="10" x1="214.2" y1="282.1" x2="227.2" y2="280.9"/>
						
							<line fill="none" stroke="#FFFFFF" stroke-width="1.0384" stroke-miterlimit="10" x1="211.2" y1="276.3" x2="220.1" y2="266.5"/>
					</g>
					<g>
						
							<line fill="none" stroke="#FFFFFF" stroke-width="1.0384" stroke-miterlimit="10" x1="203.3" y1="299.8" x2="204.3" y2="313.1"/>
						<line fill="none" stroke="#FFFFFF" stroke-width="1.0384" stroke-miterlimit="10" x1="208.9" y1="297" x2="218.8" y2="306"/>
					</g>
					<g>
						
							<line fill="none" stroke="#FFFFFF" stroke-width="1.0384" stroke-miterlimit="10" x1="185.4" y1="289.2" x2="172.2" y2="290.2"/>
						
							<line fill="none" stroke="#FFFFFF" stroke-width="1.0384" stroke-miterlimit="10" x1="188.4" y1="294.8" x2="179.3" y2="304.7"/>
					</g>
				</g>
			</g>
			<path fill="none" stroke="#FFFFFF" stroke-width="1.0384" stroke-miterlimit="10" d="M281,226.5c-1.7,0.8-3.6,1.3-5.6,1.5
				c2-1.2,3.5-3.1,4.3-5.3c-1.9,1.1-3.9,1.9-6.2,2.3c-1.8-1.9-4.3-3.1-7-3.1c-5.3,0-9.7,4.3-9.7,9.7c0,0.8,0.1,1.5,0.3,2.2
				c-8.1-0.4-15.2-4.3-19.9-10.1c-0.9,1.5-1.3,3.1-1.3,4.9c0,3.3,1.7,6.3,4.3,8.1c-1.5-0.1-3.1-0.5-4.4-1.2v0.1
				c0,4.7,3.3,8.6,7.7,9.4c-0.8,0.3-1.6,0.3-2.6,0.3c-0.6,0-1.2-0.1-1.8-0.2c1.2,3.9,4.8,6.6,9,6.7c-3.3,2.6-7.5,4.1-12,4.1
				c-0.8,0-1.5-0.1-2.3-0.2c4.3,2.7,9.3,4.4,14.8,4.4c17.7,0,27.4-14.7,27.4-27.4c0-0.4,0-0.9,0-1.3
				C278.1,230.1,279.7,228.4,281,226.5z"/>
		</g>
	</g>
	<g>
		<defs>
			<rect id="SVGID_5_" width="300" height="300"/>
		</defs>
		<clipPath id="SVGID_6_">
			<use xlink:href="#SVGID_5_"  overflow="visible"/>
		</clipPath>
		<g clip-path="url(#SVGID_6_)">
			<path fill="none" stroke="#FFFFFF" stroke-width="1.0384" stroke-miterlimit="10" d="M12.7,251.4c-0.1,0.7-0.1,1.4-0.1,2.1
				c0,1.5,0.3,2.2,0.9,2.2c2.1,0,3.3-2.7,3.3-8.3c0-7.1-3.9-12.3-10-12.3c-6.6,0-11.5,6.5-11.5,16.1c0,8.8,4.2,14.4,10.9,14.4
				c3.2,0,5.7-0.8,7.9-1.6l1,3.9c-2.9,1.3-5.9,1.8-9.1,1.8c-9,0-15.7-7.1-15.7-18.5c0-11.6,7.2-20.4,16.6-20.4
				c8.7,0,14.6,6.3,14.6,16.1c0,8.4-3.9,12.7-9.4,12.7c-1,0-2.3-0.3-2.9-0.5c-0.6-0.7-1.1-1.8-1.2-2.7H7.8c-2,2.1-4,3.3-5.9,3.3
				c-2.1,0-3.6-2.6-3.6-7.1c0-7,3.9-12.4,9.4-12.4c2.6,0,4.4,0.9,5.7,1.9L12.7,251.4z M7,243.9c-1.6,0-3.6,2.7-3.6,8.1
				c0,2.4,0.7,2.8,1.4,2.8c0.9,0,1.9-0.7,3-2.1l0.7-8.5C8.1,243.9,8,243.9,7,243.9z"/>
			<g>
				<path fill="none" stroke="#FFFFFF" stroke-width="1.0384" stroke-miterlimit="10" d="M109.1,320.7H102c-4.3,0-7.7-3.4-7.7-7.7
					v-7.9c0-4.3,3.4-7.7,7.7-7.7h7L109.1,320.7L109.1,320.7z"/>
				<line fill="none" stroke="#FFFFFF" stroke-miterlimit="10" x1="105.9" y1="297.4" x2="105.9" y2="320.6"/>
				<path fill="none" stroke="#FFFFFF" stroke-width="1.0384" stroke-miterlimit="10" d="M134.1,320.7h7c4.3,0,7.7-3.4,7.7-7.7v-7.9
					c0-4.3-3.4-7.7-7.7-7.7h-7V320.7z"/>
				<line fill="none" stroke="#FFFFFF" stroke-miterlimit="10" x1="137.6" y1="297.4" x2="137.6" y2="320.6"/>
				<g>
					<path fill="none" stroke="#FFFFFF" stroke-width="1.0384" stroke-miterlimit="10" d="M100,297.5v-1.1c0-6.8,0.6-15.3,6.1-20.7
						c3.5-3.6,8.7-5.3,15.9-5.3c6.8,0,11.6,1.6,14.9,4.9c5.1,5.1,5.5,13.1,5.4,19.5c0,0.8,0,2,0,2.7"/>
					<path fill="none" stroke="#FFFFFF" stroke-width="1.0384" stroke-miterlimit="10" d="M138,297.2c0-0.6,0-1.6,0-2.4
						c0.1-5.9-0.5-12.6-4.3-16.5c-2.4-2.5-6.3-3.7-11.7-3.7c-5.9,0-10.1,1.3-12.9,4c-4.2,4.2-4.8,11.5-4.8,17.7v1.1"/>
				</g>
			</g>
			<g>
				<circle fill="none" stroke="#FFFFFF" stroke-width="1.0384" stroke-miterlimit="10" cx="49.8" cy="285.4" r="28.1"/>
				<circle fill="none" stroke="#FFFFFF" stroke-width="1.0384" stroke-miterlimit="10" cx="49.8" cy="285.4" r="14.7"/>
				<g>
					<g>
						<line fill="none" stroke="#FFFFFF" stroke-width="1.0384" stroke-miterlimit="10" x1="46.2" y1="271.2" x2="45.1" y2="258"/>
						
							<line fill="none" stroke="#FFFFFF" stroke-width="1.0384" stroke-miterlimit="10" x1="40.5" y1="274.1" x2="30.6" y2="265.1"/>
					</g>
					<g>
						
							<line fill="none" stroke="#FFFFFF" stroke-width="1.0384" stroke-miterlimit="10" x1="64.2" y1="282.1" x2="77.2" y2="280.9"/>
						
							<line fill="none" stroke="#FFFFFF" stroke-width="1.0384" stroke-miterlimit="10" x1="61.2" y1="276.3" x2="70.1" y2="266.5"/>
					</g>
					<g>
						
							<line fill="none" stroke="#FFFFFF" stroke-width="1.0384" stroke-miterlimit="10" x1="53.3" y1="299.8" x2="54.3" y2="313.1"/>
						<line fill="none" stroke="#FFFFFF" stroke-width="1.0384" stroke-miterlimit="10" x1="58.9" y1="297" x2="68.8" y2="306"/>
					</g>
					<g>
						
							<line fill="none" stroke="#FFFFFF" stroke-width="1.0384" stroke-miterlimit="10" x1="35.4" y1="289.2" x2="22.2" y2="290.2"/>
						
							<line fill="none" stroke="#FFFFFF" stroke-width="1.0384" stroke-miterlimit="10" x1="38.4" y1="294.8" x2="29.3" y2="304.7"/>
					</g>
				</g>
			</g>
			<path fill="none" stroke="#FFFFFF" stroke-width="1.0384" stroke-miterlimit="10" d="M131,226.5c-1.7,0.8-3.6,1.3-5.6,1.5
				c2-1.2,3.5-3.1,4.3-5.3c-1.9,1.1-3.9,1.9-6.2,2.3c-1.8-1.9-4.3-3.1-7-3.1c-5.3,0-9.7,4.3-9.7,9.7c0,0.8,0.1,1.5,0.3,2.2
				c-8.1-0.4-15.2-4.3-19.9-10.1c-0.9,1.5-1.3,3.1-1.3,4.9c0,3.3,1.7,6.3,4.3,8.1c-1.5-0.1-3.1-0.5-4.4-1.2v0.1
				c0,4.7,3.3,8.6,7.7,9.4c-0.8,0.3-1.6,0.3-2.6,0.3c-0.6,0-1.2-0.1-1.8-0.2c1.2,3.9,4.8,6.6,9,6.7c-3.3,2.6-7.5,4.1-12,4.1
				c-0.8,0-1.5-0.1-2.3-0.2c4.3,2.7,9.3,4.4,14.8,4.4c17.7,0,27.4-14.7,27.4-27.4c0-0.4,0-0.9,0-1.3
				C128.1,230.1,129.7,228.4,131,226.5z"/>
		</g>
	</g>
	<g>
		<defs>
			<rect id="SVGID_7_" width="300" height="300"/>
		</defs>
		<clipPath id="SVGID_8_">
			<use xlink:href="#SVGID_7_"  overflow="visible"/>
		</clipPath>
		<g clip-path="url(#SVGID_8_)">
			<path fill="none" stroke="#FFFFFF" stroke-width="1.0384" stroke-miterlimit="10" d="M237.7,101.4c-0.1,0.7-0.1,1.4-0.1,2.1
				c0,1.5,0.3,2.2,0.9,2.2c2.1,0,3.3-2.7,3.3-8.3c0-7.1-3.9-12.3-10-12.3c-6.6,0-11.5,6.5-11.5,16.1c0,8.8,4.2,14.4,10.9,14.4
				c3.2,0,5.7-0.8,7.9-1.6l1,3.9c-2.9,1.3-5.9,1.8-9.1,1.8c-9,0-15.7-7.1-15.7-18.5c0-11.6,7.2-20.4,16.6-20.4
				c8.7,0,14.6,6.3,14.6,16.1c0,8.4-3.9,12.7-9.4,12.7c-1,0-2.3-0.3-2.9-0.5c-0.6-0.7-1.1-1.8-1.2-2.7h-0.2c-2,2.1-4,3.3-5.9,3.3
				c-2.1,0-3.6-2.6-3.6-7.1c0-7,3.9-12.4,9.4-12.4c2.6,0,4.4,0.9,5.7,1.9L237.7,101.4z M232,93.9c-1.6,0-3.6,2.7-3.6,8.1
				c0,2.4,0.7,2.8,1.4,2.8c0.9,0,1.9-0.7,3-2.1l0.7-8.5C233.1,93.9,233,93.9,232,93.9z"/>
			<g>
				<circle fill="none" stroke="#FFFFFF" stroke-width="1.0384" stroke-miterlimit="10" cx="274.8" cy="135.4" r="28.1"/>
				<circle fill="none" stroke="#FFFFFF" stroke-width="1.0384" stroke-miterlimit="10" cx="274.8" cy="135.4" r="14.7"/>
				<g>
					<g>
						
							<line fill="none" stroke="#FFFFFF" stroke-width="1.0384" stroke-miterlimit="10" x1="271.2" y1="121.2" x2="270.1" y2="108"/>
						
							<line fill="none" stroke="#FFFFFF" stroke-width="1.0384" stroke-miterlimit="10" x1="265.5" y1="124.1" x2="255.6" y2="115.1"/>
					</g>
					<g>
						
							<line fill="none" stroke="#FFFFFF" stroke-width="1.0384" stroke-miterlimit="10" x1="289.2" y1="132.1" x2="302.2" y2="130.9"/>
						
							<line fill="none" stroke="#FFFFFF" stroke-width="1.0384" stroke-miterlimit="10" x1="286.2" y1="126.3" x2="295.1" y2="116.5"/>
					</g>
					<g>
						
							<line fill="none" stroke="#FFFFFF" stroke-width="1.0384" stroke-miterlimit="10" x1="278.3" y1="149.8" x2="279.3" y2="163.1"/>
						<line fill="none" stroke="#FFFFFF" stroke-width="1.0384" stroke-miterlimit="10" x1="283.9" y1="147" x2="293.8" y2="156"/>
					</g>
					<g>
						
							<line fill="none" stroke="#FFFFFF" stroke-width="1.0384" stroke-miterlimit="10" x1="260.4" y1="139.2" x2="247.2" y2="140.2"/>
						
							<line fill="none" stroke="#FFFFFF" stroke-width="1.0384" stroke-miterlimit="10" x1="263.4" y1="144.8" x2="254.3" y2="154.7"/>
					</g>
				</g>
			</g>
			<g>
				<rect x="249.4" y="177" fill="none" stroke="#FFFFFF" stroke-width="1.0384" stroke-miterlimit="10" width="45" height="26.7"/>
				<polyline fill="none" stroke="#FFFFFF" stroke-width="1.0384" stroke-miterlimit="10" points="249.4,177 272.2,191.1 294.4,177 
									"/>
				
					<line fill="none" stroke="#FFFFFF" stroke-width="1.0384" stroke-miterlimit="10" x1="294.4" y1="203.7" x2="278.2" y2="187.3"/>
				<line fill="none" stroke="#FFFFFF" stroke-width="1.0384" stroke-miterlimit="10" x1="249.7" y1="203.7" x2="266" y2="187.3"/>
			</g>
		</g>
	</g>
	<g>
		<defs>
			<rect id="SVGID_9_" width="300" height="300"/>
		</defs>
		<clipPath id="SVGID_10_">
			<use xlink:href="#SVGID_9_"  overflow="visible"/>
		</clipPath>
		<g clip-path="url(#SVGID_10_)">
			<g>
				
					<circle fill="none" stroke="#FFFFFF" stroke-width="1.0384" stroke-linecap="round" stroke-linejoin="round" stroke-miterlimit="10" cx="203" cy="213" r="24.7"/>
				
					<path fill="none" stroke="#FFFFFF" stroke-width="1.0384" stroke-linecap="round" stroke-linejoin="round" stroke-miterlimit="10" d="
					M213,209.4c0.4-3-1.9-4.6-5-5.7l1-4l-2.4-0.6l-0.9,3.9c-0.7-0.1-1.3-0.3-2-0.4l1-3.9l-2.4-0.6l-1.2,3.9c-0.6-0.1-1-0.3-1.6-0.3
					l0,0l-3.3-0.8l-0.7,2.7c0,0,1.9,0.4,1.7,0.4c1,0.3,1.2,0.9,1.2,1.4l-2.7,11.1c-0.1,0.3-0.4,0.8-1.2,0.6l-1.7-0.4l-1.2,2.7
					l3.3,0.8c0.6,0.1,1.2,0.3,1.7,0.4l-1,4l2.4,0.6l1-4c0.7,0.3,1.3,0.3,2,0.4l-1,4l2.4,0.6l1-4c4.2,0.8,7.5,0.4,8.7-3.3
					c1-3,0-4.9-2.3-6C211.4,212.7,212.7,211.6,213,209.4z M207.3,217.3c-0.8,3-5.9,1.4-7.5,1l1.4-5.5
					C202.8,213.3,208.2,214.2,207.3,217.3z M208.2,209.4c-0.7,2.7-5,1.4-6.3,1l1.3-4.9C204.3,205.8,208.9,206.5,208.2,209.4z"/>
				
					<circle fill="none" stroke="#FFFFFF" stroke-width="1.0384" stroke-linecap="round" stroke-linejoin="round" stroke-miterlimit="10" cx="203" cy="213" r="19.8"/>
			</g>
			<path fill="none" stroke="#FFFFFF" stroke-width="1.0384" stroke-miterlimit="10" d="M87.7,101.4c-0.1,0.7-0.1,1.4-0.1,2.1
				c0,1.5,0.3,2.2,0.9,2.2c2.1,0,3.3-2.7,3.3-8.3c0-7.1-3.9-12.3-10-12.3c-6.6,0-11.5,6.5-11.5,16.1c0,8.8,4.2,14.4,10.9,14.4
				c3.2,0,5.7-0.8,7.9-1.6l1,3.9c-2.9,1.3-5.9,1.8-9.1,1.8c-9,0-15.7-7.1-15.7-18.5c0-11.6,7.2-20.4,16.6-20.4
				c8.7,0,14.6,6.3,14.6,16.1c0,8.4-3.9,12.7-9.4,12.7c-1,0-2.3-0.3-2.9-0.5c-0.6-0.7-1.1-1.8-1.2-2.7h-0.2c-2,2.1-4,3.3-5.9,3.3
				c-2.1,0-3.6-2.6-3.6-7.1c0-7,3.9-12.4,9.4-12.4c2.6,0,4.4,0.9,5.7,1.9L87.7,101.4z M82,93.9c-1.6,0-3.6,2.7-3.6,8.1
				c0,2.4,0.7,2.8,1.4,2.8c0.9,0,1.9-0.7,3-2.1l0.7-8.5C83.1,93.9,83,93.9,82,93.9z"/>
			<g>
				<path fill="none" stroke="#FFFFFF" stroke-width="1.0384" stroke-miterlimit="10" d="M184.1,170.7h-7c-4.3,0-7.7-3.4-7.7-7.7
					v-7.9c0-4.3,3.4-7.7,7.7-7.7h7V170.7z"/>
				<line fill="none" stroke="#FFFFFF" stroke-miterlimit="10" x1="180.4" y1="148.3" x2="180.4" y2="171.4"/>
				<path fill="none" stroke="#FFFFFF" stroke-width="1.0384" stroke-miterlimit="10" d="M194.9,182.3h-7.2c-1.5,0-2.8-1.3-2.8-2.8
					l0,0c0-1.5,1.3-2.8,2.8-2.8h7.2c1.5,0,2.8,1.3,2.8,2.8l0,0C197.7,181.1,196.5,182.3,194.9,182.3z"/>
				<path fill="none" stroke="#FFFFFF" stroke-width="1.0384" stroke-miterlimit="10" d="M169.5,162.8h-1.7c-1.1,0-2-0.9-2-2v-3.3
					c0-1.1,0.9-2,2-2h1.7"/>
				<path fill="none" stroke="#FFFFFF" stroke-width="1.0384" stroke-miterlimit="10" d="M209.1,170.7h7c4.3,0,7.7-3.4,7.7-7.7v-7.9
					c0-4.3-3.4-7.7-7.7-7.7h-7V170.7z"/>
				<line fill="none" stroke="#FFFFFF" stroke-miterlimit="10" x1="213" y1="148.3" x2="213" y2="171.4"/>
				<path fill="none" stroke="#FFFFFF" stroke-width="1.0384" stroke-miterlimit="10" d="M223.7,162.8h1.7c1.1,0,2-0.9,2-2v-3.3
					c0-1.1-0.9-2-2-2h-1.7"/>
				<path fill="none" stroke="#FFFFFF" stroke-width="1.0384" stroke-miterlimit="10" d="M167.1,162.7c0,0-2.2,16.9,17.8,16.9"/>
				<g>
					<path fill="none" stroke="#FFFFFF" stroke-width="1.0384" stroke-miterlimit="10" d="M175,147.5v-1.1c0-6.8,0.6-15.3,6.1-20.7
						c3.5-3.6,8.7-5.3,15.9-5.3c6.8,0,11.6,1.6,14.9,4.9c5.1,5.1,5.5,13.1,5.4,19.5c0,0.8,0,2,0,2.7"/>
					<path fill="none" stroke="#FFFFFF" stroke-width="1.0384" stroke-miterlimit="10" d="M213,147.2c0-0.6,0-1.6,0-2.4
						c0.1-5.9-0.5-12.6-4.3-16.5c-2.4-2.5-6.3-3.7-11.7-3.7c-5.9,0-10.1,1.3-12.9,4c-4.2,4.2-4.8,11.5-4.8,17.7v1.1"/>
				</g>
			</g>
			<g>
				<circle fill="none" stroke="#FFFFFF" stroke-width="1.0384" stroke-miterlimit="10" cx="124.8" cy="135.4" r="28.1"/>
				<circle fill="none" stroke="#FFFFFF" stroke-width="1.0384" stroke-miterlimit="10" cx="124.8" cy="135.4" r="14.7"/>
				<g>
					<g>
						
							<line fill="none" stroke="#FFFFFF" stroke-width="1.0384" stroke-miterlimit="10" x1="121.2" y1="121.2" x2="120.1" y2="108"/>
						
							<line fill="none" stroke="#FFFFFF" stroke-width="1.0384" stroke-miterlimit="10" x1="115.5" y1="124.1" x2="105.6" y2="115.1"/>
					</g>
					<g>
						
							<line fill="none" stroke="#FFFFFF" stroke-width="1.0384" stroke-miterlimit="10" x1="139.2" y1="132.1" x2="152.2" y2="130.9"/>
						
							<line fill="none" stroke="#FFFFFF" stroke-width="1.0384" stroke-miterlimit="10" x1="136.2" y1="126.3" x2="145.1" y2="116.5"/>
					</g>
					<g>
						
							<line fill="none" stroke="#FFFFFF" stroke-width="1.0384" stroke-miterlimit="10" x1="128.3" y1="149.8" x2="129.3" y2="163.1"/>
						<line fill="none" stroke="#FFFFFF" stroke-width="1.0384" stroke-miterlimit="10" x1="133.9" y1="147" x2="143.8" y2="156"/>
					</g>
					<g>
						
							<line fill="none" stroke="#FFFFFF" stroke-width="1.0384" stroke-miterlimit="10" x1="110.4" y1="139.2" x2="97.2" y2="140.2"/>
						
							<line fill="none" stroke="#FFFFFF" stroke-width="1.0384" stroke-miterlimit="10" x1="113.4" y1="144.8" x2="104.3" y2="154.7"/>
					</g>
				</g>
			</g>
			<g>
				<rect x="99.4" y="177" fill="none" stroke="#FFFFFF" stroke-width="1.0384" stroke-miterlimit="10" width="45" height="26.7"/>
				<polyline fill="none" stroke="#FFFFFF" stroke-width="1.0384" stroke-miterlimit="10" points="99.4,177 122.2,191.1 144.4,177 
									"/>
				
					<line fill="none" stroke="#FFFFFF" stroke-width="1.0384" stroke-miterlimit="10" x1="144.4" y1="203.7" x2="128.2" y2="187.3"/>
				<line fill="none" stroke="#FFFFFF" stroke-width="1.0384" stroke-miterlimit="10" x1="99.7" y1="203.7" x2="116" y2="187.3"/>
			</g>
			<path fill="none" stroke="#FFFFFF" stroke-width="1.0384" stroke-miterlimit="10" d="M206,76.5c-1.7,0.8-3.6,1.3-5.6,1.5
				c2-1.2,3.5-3.1,4.3-5.3c-1.9,1.1-3.9,1.9-6.2,2.3c-1.8-1.9-4.3-3.1-7-3.1c-5.3,0-9.7,4.3-9.7,9.7c0,0.8,0.1,1.5,0.3,2.2
				c-8.1-0.4-15.2-4.3-19.9-10.1c-0.9,1.5-1.3,3.1-1.3,4.9c0,3.3,1.7,6.3,4.3,8.1c-1.5-0.1-3.1-0.5-4.4-1.2v0.1
				c0,4.7,3.3,8.6,7.7,9.4c-0.8,0.3-1.6,0.3-2.6,0.3c-0.6,0-1.2-0.1-1.8-0.2c1.2,3.9,4.8,6.6,9,6.7c-3.3,2.6-7.5,4.1-12,4.1
				c-0.8,0-1.5-0.1-2.3-0.2c4.3,2.7,9.3,4.4,14.8,4.4c17.7,0,27.4-14.7,27.4-27.4c0-0.4,0-0.9,0-1.3C203.1,80.1,204.7,78.4,206,76.5
				z"/>
		</g>
	</g>
	<g>
		<defs>
			<rect id="SVGID_11_" width="300" height="300"/>
		</defs>
		<clipPath id="SVGID_12_">
			<use xlink:href="#SVGID_11_"  overflow="visible"/>
		</clipPath>
		<g clip-path="url(#SVGID_12_)">
			<g>
				
					<circle fill="none" stroke="#FFFFFF" stroke-width="1.0384" stroke-linecap="round" stroke-linejoin="round" stroke-miterlimit="10" cx="53" cy="213" r="24.7"/>
				
					<path fill="none" stroke="#FFFFFF" stroke-width="1.0384" stroke-linecap="round" stroke-linejoin="round" stroke-miterlimit="10" d="
					M63,209.4c0.4-3-1.9-4.6-5-5.7l1-4l-2.4-0.6l-0.9,3.9c-0.7-0.1-1.3-0.3-2-0.4l1-3.9l-2.4-0.6l-1.2,3.9c-0.6-0.1-1-0.3-1.6-0.3
					l0,0l-3.3-0.8l-0.7,2.7c0,0,1.9,0.4,1.7,0.4c1,0.3,1.2,0.9,1.2,1.4l-2.7,11.1c-0.1,0.3-0.4,0.8-1.2,0.6l-1.7-0.4l-1.2,2.7
					l3.3,0.8c0.6,0.1,1.2,0.3,1.7,0.4l-1,4l2.4,0.6l1-4c0.7,0.3,1.3,0.3,2,0.4l-1,4l2.4,0.6l1-4c4.2,0.8,7.5,0.4,8.7-3.3
					c1-3,0-4.9-2.3-6C61.4,212.7,62.7,211.6,63,209.4z M57.3,217.3c-0.8,3-5.9,1.4-7.5,1l1.4-5.5C52.8,213.3,58.2,214.2,57.3,217.3z
					 M58.2,209.4c-0.7,2.7-5,1.4-6.3,1l1.3-4.9C54.3,205.8,58.9,206.5,58.2,209.4z"/>
				
					<circle fill="none" stroke="#FFFFFF" stroke-width="1.0384" stroke-linecap="round" stroke-linejoin="round" stroke-miterlimit="10" cx="53" cy="213" r="19.8"/>
			</g>
			<g>
				<path fill="none" stroke="#FFFFFF" stroke-width="1.0384" stroke-miterlimit="10" d="M34.1,170.7h-7c-4.3,0-7.7-3.4-7.7-7.7
					v-7.9c0-4.3,3.4-7.7,7.7-7.7h7V170.7z"/>
				<line fill="none" stroke="#FFFFFF" stroke-miterlimit="10" x1="30.4" y1="148.3" x2="30.4" y2="171.4"/>
				<path fill="none" stroke="#FFFFFF" stroke-width="1.0384" stroke-miterlimit="10" d="M44.9,182.3h-7.2c-1.5,0-2.8-1.3-2.8-2.8
					l0,0c0-1.5,1.3-2.8,2.8-2.8h7.2c1.5,0,2.8,1.3,2.8,2.8l0,0C47.7,181.1,46.5,182.3,44.9,182.3z"/>
				<path fill="none" stroke="#FFFFFF" stroke-width="1.0384" stroke-miterlimit="10" d="M19.5,162.8h-1.7c-1.1,0-2-0.9-2-2v-3.3
					c0-1.1,0.9-2,2-2h1.7"/>
				<path fill="none" stroke="#FFFFFF" stroke-width="1.0384" stroke-miterlimit="10" d="M59.1,170.7h7c4.3,0,7.7-3.4,7.7-7.7v-7.9
					c0-4.3-3.4-7.7-7.7-7.7h-7V170.7z"/>
				<line fill="none" stroke="#FFFFFF" stroke-miterlimit="10" x1="62.1" y1="148.3" x2="62.1" y2="171.4"/>
				<path fill="none" stroke="#FFFFFF" stroke-width="1.0384" stroke-miterlimit="10" d="M73.7,162.8h1.7c1.1,0,2-0.9,2-2v-3.3
					c0-1.1-0.9-2-2-2h-1.7"/>
				<path fill="none" stroke="#FFFFFF" stroke-width="1.0384" stroke-miterlimit="10" d="M17.1,162.7c0,0-2.2,16.9,17.8,16.9"/>
				<g>
					<path fill="none" stroke="#FFFFFF" stroke-width="1.0384" stroke-miterlimit="10" d="M25,147.5v-1.1c0-6.8,0.6-15.3,6.1-20.7
						c3.5-3.6,8.7-5.3,15.9-5.3c6.8,0,11.6,1.6,14.9,4.9c5.1,5.1,5.5,13.1,5.4,19.5c0,0.8,0,2,0,2.7"/>
					<path fill="none" stroke="#FFFFFF" stroke-width="1.0384" stroke-miterlimit="10" d="M63,147.2c0-0.6,0-1.6,0-2.4
						c0.1-5.9-0.5-12.6-4.3-16.5c-2.4-2.5-6.3-3.7-11.7-3.7c-5.9,0-10.1,1.3-12.9,4c-4.2,4.2-4.8,11.5-4.8,17.7v1.1"/>
				</g>
			</g>
			<g>
				<circle fill="none" stroke="#FFFFFF" stroke-width="1.0384" stroke-miterlimit="10" cx="-25.2" cy="135.4" r="28.1"/>
				<g>
					<g>
						
							<line fill="none" stroke="#FFFFFF" stroke-width="1.0384" stroke-miterlimit="10" x1="-10.8" y1="132.1" x2="2.2" y2="130.9"/>
					</g>
				</g>
			</g>
			<path fill="none" stroke="#FFFFFF" stroke-width="1.0384" stroke-miterlimit="10" d="M56,76.5c-1.7,0.8-3.6,1.3-5.6,1.5
				c2-1.2,3.5-3.1,4.3-5.3c-1.9,1.1-3.9,1.9-6.2,2.3c-1.8-1.9-4.3-3.1-7-3.1c-5.3,0-9.7,4.3-9.7,9.7c0,0.8,0.1,1.5,0.3,2.2
				c-8.1-0.4-15.2-4.3-19.9-10.1c-0.9,1.5-1.3,3.1-1.3,4.9c0,3.3,1.7,6.3,4.3,8.1c-1.5-0.1-3.1-0.5-4.4-1.2v0.1
				c0,4.7,3.3,8.6,7.7,9.4c-0.8,0.3-1.6,0.3-2.6,0.3c-0.6,0-1.2-0.1-1.8-0.2c1.2,3.9,4.8,6.6,9,6.7c-3.3,2.6-7.5,4.1-12,4.1
				c-0.8,0-1.5-0.1-2.3-0.2c4.3,2.7,9.3,4.4,14.8,4.4c17.7,0,27.4-14.7,27.4-27.4c0-0.4,0-0.9,0-1.3C53.1,80.1,54.7,78.4,56,76.5z"
				/>
		</g>
	</g>
	<g>
		<defs>
			<rect id="SVGID_13_" width="300" height="300"/>
		</defs>
		<clipPath id="SVGID_14_">
			<use xlink:href="#SVGID_13_"  overflow="visible"/>
		</clipPath>
		<g clip-path="url(#SVGID_14_)">
			<g>
				
					<circle fill="none" stroke="#FFFFFF" stroke-width="1.0384" stroke-linecap="round" stroke-linejoin="round" stroke-miterlimit="10" cx="278" cy="63" r="24.7"/>
				
					<path fill="none" stroke="#FFFFFF" stroke-width="1.0384" stroke-linecap="round" stroke-linejoin="round" stroke-miterlimit="10" d="
					M288,59.4c0.4-3-1.9-4.6-5-5.7l1-4l-2.4-0.6l-0.9,3.9c-0.7-0.1-1.3-0.3-2-0.4l1-3.9l-2.4-0.6l-1.2,3.9c-0.6-0.1-1-0.3-1.6-0.3
					l0,0l-3.3-0.8l-0.7,2.7c0,0,1.9,0.4,1.7,0.4c1,0.3,1.2,0.9,1.2,1.4l-2.7,11.1c-0.1,0.3-0.4,0.8-1.2,0.6l-1.7-0.4l-1.2,2.7
					l3.3,0.8c0.6,0.1,1.2,0.3,1.7,0.4l-1,4l2.4,0.6l1-4c0.7,0.3,1.3,0.3,2,0.4l-1,4l2.4,0.6l1-4c4.2,0.8,7.5,0.4,8.7-3.3
					c1-3,0-4.9-2.3-6C286.4,62.7,287.7,61.6,288,59.4z M282.3,67.3c-0.8,3-5.9,1.4-7.5,1l1.4-5.5C277.8,63.3,283.2,64.2,282.3,67.3z
					 M283.2,59.4c-0.7,2.7-5,1.4-6.3,1l1.3-4.9C279.3,55.8,283.9,56.5,283.2,59.4z"/>
				
					<circle fill="none" stroke="#FFFFFF" stroke-width="1.0384" stroke-linecap="round" stroke-linejoin="round" stroke-miterlimit="10" cx="278" cy="63" r="19.8"/>
			</g>
			<g>
				<path fill="none" stroke="#FFFFFF" stroke-width="1.0384" stroke-miterlimit="10" d="M259.1,20.7H252c-4.3,0-7.7-3.4-7.7-7.7
					V5.2c0-4.3,3.4-7.7,7.7-7.7h7L259.1,20.7L259.1,20.7z"/>
				<line fill="none" stroke="#FFFFFF" stroke-miterlimit="10" x1="255.9" y1="-2.6" x2="255.9" y2="20.6"/>
				<path fill="none" stroke="#FFFFFF" stroke-width="1.0384" stroke-miterlimit="10" d="M269.9,32.3h-7.2c-1.5,0-2.8-1.3-2.8-2.8
					l0,0c0-1.5,1.3-2.8,2.8-2.8h7.2c1.5,0,2.8,1.3,2.8,2.8l0,0C272.7,31.1,271.5,32.3,269.9,32.3z"/>
				<path fill="none" stroke="#FFFFFF" stroke-width="1.0384" stroke-miterlimit="10" d="M244.5,12.8h-1.7c-1.1,0-2-0.9-2-2V7.5
					c0-1.1,0.9-2,2-2h1.7"/>
				<path fill="none" stroke="#FFFFFF" stroke-width="1.0384" stroke-miterlimit="10" d="M284.1,20.7h7c4.3,0,7.7-3.4,7.7-7.7V5.2
					c0-4.3-3.4-7.7-7.7-7.7h-7V20.7z"/>
				<line fill="none" stroke="#FFFFFF" stroke-miterlimit="10" x1="287.6" y1="-2.6" x2="287.6" y2="20.6"/>
				<path fill="none" stroke="#FFFFFF" stroke-width="1.0384" stroke-miterlimit="10" d="M298.7,12.8h1.7c1.1,0,2-0.9,2-2V7.5
					c0-1.1-0.9-2-2-2h-1.7"/>
				<path fill="none" stroke="#FFFFFF" stroke-width="1.0384" stroke-miterlimit="10" d="M242.1,12.7c0,0-2.2,16.9,17.8,16.9"/>
			</g>
			<g>
				<circle fill="none" stroke="#FFFFFF" stroke-width="1.0384" stroke-miterlimit="10" cx="199.8" cy="-14.6" r="28.1"/>
				<circle fill="none" stroke="#FFFFFF" stroke-width="1.0384" stroke-miterlimit="10" cx="199.8" cy="-14.6" r="14.7"/>
				<g>
					<g>
						
							<line fill="none" stroke="#FFFFFF" stroke-width="1.0384" stroke-miterlimit="10" x1="203.3" y1="-0.2" x2="204.3" y2="13.1"/>
						<line fill="none" stroke="#FFFFFF" stroke-width="1.0384" stroke-miterlimit="10" x1="208.9" y1="-3" x2="218.8" y2="6"/>
					</g>
					<g>
						<line fill="none" stroke="#FFFFFF" stroke-width="1.0384" stroke-miterlimit="10" x1="188.4" y1="-5.2" x2="179.3" y2="4.7"/>
					</g>
				</g>
			</g>
			<g>
				<rect x="174.4" y="27" fill="none" stroke="#FFFFFF" stroke-width="1.0384" stroke-miterlimit="10" width="45" height="26.7"/>
				<polyline fill="none" stroke="#FFFFFF" stroke-width="1.0384" stroke-miterlimit="10" points="174.4,27 197.2,41.1 219.4,27 
									"/>
				<line fill="none" stroke="#FFFFFF" stroke-width="1.0384" stroke-miterlimit="10" x1="219.4" y1="53.7" x2="203.2" y2="37.3"/>
				<line fill="none" stroke="#FFFFFF" stroke-width="1.0384" stroke-miterlimit="10" x1="174.7" y1="53.7" x2="191" y2="37.3"/>
			</g>
		</g>
	</g>
	<g>
		<defs>
			<rect id="SVGID_15_" width="300" height="300"/>
		</defs>
		<clipPath id="SVGID_16_">
			<use xlink:href="#SVGID_15_"  overflow="visible"/>
		</clipPath>
		<g clip-path="url(#SVGID_16_)">
			<g>
				
					<circle fill="none" stroke="#FFFFFF" stroke-width="1.0384" stroke-linecap="round" stroke-linejoin="round" stroke-miterlimit="10" cx="128" cy="63" r="24.7"/>
				
					<path fill="none" stroke="#FFFFFF" stroke-width="1.0384" stroke-linecap="round" stroke-linejoin="round" stroke-miterlimit="10" d="
					M138,59.4c0.4-3-1.9-4.6-5-5.7l1-4l-2.4-0.6l-0.9,3.9c-0.7-0.1-1.3-0.3-2-0.4l1-3.9l-2.4-0.6l-1.2,3.9c-0.6-0.1-1-0.3-1.6-0.3
					l0,0l-3.3-0.8l-0.7,2.7c0,0,1.9,0.4,1.7,0.4c1,0.3,1.2,0.9,1.2,1.4l-2.7,11.1c-0.1,0.3-0.4,0.8-1.2,0.6l-1.7-0.4l-1.2,2.7
					l3.3,0.8c0.6,0.1,1.2,0.3,1.7,0.4l-1,4l2.4,0.6l1-4c0.7,0.3,1.3,0.3,2,0.4l-1,4l2.4,0.6l1-4c4.2,0.8,7.5,0.4,8.7-3.3
					c1-3,0-4.9-2.3-6C136.4,62.7,137.7,61.6,138,59.4z M132.3,67.3c-0.8,3-5.9,1.4-7.5,1l1.4-5.5C127.8,63.3,133.2,64.2,132.3,67.3z
					 M133.2,59.4c-0.7,2.7-5,1.4-6.3,1l1.3-4.9C129.3,55.8,133.9,56.5,133.2,59.4z"/>
				
					<circle fill="none" stroke="#FFFFFF" stroke-width="1.0384" stroke-linecap="round" stroke-linejoin="round" stroke-miterlimit="10" cx="128" cy="63" r="19.8"/>
			</g>
			<g>
				<path fill="none" stroke="#FFFFFF" stroke-width="1.0384" stroke-miterlimit="10" d="M109.1,20.7H102c-4.3,0-7.7-3.4-7.7-7.7
					V5.2c0-4.3,3.4-7.7,7.7-7.7h7L109.1,20.7L109.1,20.7z"/>
				<line fill="none" stroke="#FFFFFF" stroke-miterlimit="10" x1="105.9" y1="-2.6" x2="105.9" y2="20.6"/>
				<path fill="none" stroke="#FFFFFF" stroke-width="1.0384" stroke-miterlimit="10" d="M119.9,32.3h-7.2c-1.5,0-2.8-1.3-2.8-2.8
					l0,0c0-1.5,1.3-2.8,2.8-2.8h7.2c1.5,0,2.8,1.3,2.8,2.8l0,0C122.7,31.1,121.5,32.3,119.9,32.3z"/>
				<path fill="none" stroke="#FFFFFF" stroke-width="1.0384" stroke-miterlimit="10" d="M94.5,12.8h-1.7c-1.1,0-2-0.9-2-2V7.5
					c0-1.1,0.9-2,2-2h1.7"/>
				<path fill="none" stroke="#FFFFFF" stroke-width="1.0384" stroke-miterlimit="10" d="M134.1,20.7h7c4.3,0,7.7-3.4,7.7-7.7V5.2
					c0-4.3-3.4-7.7-7.7-7.7h-7V20.7z"/>
				<line fill="none" stroke="#FFFFFF" stroke-miterlimit="10" x1="137.6" y1="-2.6" x2="137.6" y2="20.6"/>
				<path fill="none" stroke="#FFFFFF" stroke-width="1.0384" stroke-miterlimit="10" d="M148.7,12.8h1.7c1.1,0,2-0.9,2-2V7.5
					c0-1.1-0.9-2-2-2h-1.7"/>
				<path fill="none" stroke="#FFFFFF" stroke-width="1.0384" stroke-miterlimit="10" d="M92.1,12.7c0,0-2.2,16.9,17.8,16.9"/>
			</g>
			<g>
				<circle fill="none" stroke="#FFFFFF" stroke-width="1.0384" stroke-miterlimit="10" cx="49.8" cy="-14.6" r="28.1"/>
				<circle fill="none" stroke="#FFFFFF" stroke-width="1.0384" stroke-miterlimit="10" cx="49.8" cy="-14.6" r="14.7"/>
				<g>
					<g>
						<line fill="none" stroke="#FFFFFF" stroke-width="1.0384" stroke-miterlimit="10" x1="53.3" y1="-0.2" x2="54.3" y2="13.1"/>
						<line fill="none" stroke="#FFFFFF" stroke-width="1.0384" stroke-miterlimit="10" x1="58.9" y1="-3" x2="68.8" y2="6"/>
					</g>
					<g>
						<line fill="none" stroke="#FFFFFF" stroke-width="1.0384" stroke-miterlimit="10" x1="38.4" y1="-5.2" x2="29.3" y2="4.7"/>
					</g>
				</g>
			</g>
			<g>
				<rect x="24.4" y="27" fill="none" stroke="#FFFFFF" stroke-width="1.0384" stroke-miterlimit="10" width="45" height="26.7"/>
				<polyline fill="none" stroke="#FFFFFF" stroke-width="1.0384" stroke-miterlimit="10" points="24.4,27 47.2,41.1 69.4,27 				
					"/>
				<line fill="none" stroke="#FFFFFF" stroke-width="1.0384" stroke-miterlimit="10" x1="69.4" y1="53.7" x2="53.2" y2="37.3"/>
				<line fill="none" stroke="#FFFFFF" stroke-width="1.0384" stroke-miterlimit="10" x1="24.7" y1="53.7" x2="41" y2="37.3"/>
			</g>
		</g>
	</g>
	<g>
		<defs>
			<rect id="SVGID_17_" width="300" height="300"/>
		</defs>
		<clipPath id="SVGID_18_">
			<use xlink:href="#SVGID_17_"  overflow="visible"/>
		</clipPath>
		<g clip-path="url(#SVGID_18_)">
			<g>
				
					<circle fill="none" stroke="#FFFFFF" stroke-width="1.0384" stroke-linecap="round" stroke-linejoin="round" stroke-miterlimit="10" cx="-22" cy="63" r="24.7"/>
			</g>
			<g>
				<path fill="none" stroke="#FFFFFF" stroke-width="1.0384" stroke-miterlimit="10" d="M-1.3,12.8h1.7c1.1,0,2-0.9,2-2V7.5
					c0-1.1-0.9-2-2-2h-1.7"/>
			</g>
		</g>
	</g>
</g>
</svg>
