<?xml version="1.0" encoding="utf-8"?>
<!-- Generator: Adobe Illustrator 18.1.1, SVG Export Plug-In . SVG Version: 6.00 Build 0)  -->
<!DOCTYPE svg PUBLIC "-//W3C//DTD SVG 1.1//EN" "http://www.w3.org/Graphics/SVG/1.1/DTD/svg11.dtd">
<svg version="1.1" id="Layer_1" xmlns="http://www.w3.org/2000/svg" xmlns:xlink="http://www.w3.org/1999/xlink" x="0px" y="0px"
	 width="600px" height="440px" viewBox="0 81 600 440" enable-background="new 0 81 600 440" xml:space="preserve">
<g>
	
		<path fill="none" stroke="#FFFFFF" stroke-width="1.6943" stroke-linecap="round" stroke-linejoin="round" stroke-miterlimit="10" d="
		M301.4,512.5c-116.6,0-211.5-94.9-211.5-211.5c0-116.6,94.9-211.5,211.5-211.5c44.2,0,86.5,13.5,122.4,39l0.8,0.6l-2.3,3.3
		l-0.8-0.6c-35.2-25-76.7-38.2-120-38.2C187,93.5,93.9,186.6,93.9,301S187,508.5,301.4,508.5c114.4,0,207.4-93.1,207.4-207.5
		c0-31.7-7-62.1-20.7-90.4l-0.4-0.9l3.6-1.7l0.4,0.9c14,28.8,21.1,59.9,21.1,92.2C512.8,417.6,418,512.5,301.4,512.5z"/>
	
		<path fill="none" stroke="#FFFFFF" stroke-width="1.6943" stroke-linecap="round" stroke-linejoin="round" stroke-miterlimit="10" d="
		M301.4,511.5c-116.1,0-210.5-94.4-210.5-210.5S185.3,90.5,301.4,90.5c44,0,86.1,13.4,121.8,38.8l-1.2,1.6
		c-35.4-25.1-77.1-38.4-120.6-38.4C186.4,92.5,92.9,186,92.9,301c0,115,93.5,208.5,208.5,208.5c114.9,0,208.4-93.5,208.4-208.5
		c0-31.9-7-62.4-20.8-90.9l1.8-0.9c13.9,28.7,21,59.6,21,91.7C511.8,417.1,417.4,511.5,301.4,511.5z"/>
	
		<path fill="none" stroke="#FFFFFF" stroke-width="1.6943" stroke-linecap="round" stroke-linejoin="round" stroke-miterlimit="10" d="
		M301.4,511.5c-116.1,0-210.5-94.4-210.5-210.5S185.3,90.5,301.4,90.5c44,0,86.1,13.4,121.8,38.8l-1.2,1.6
		c-35.4-25.1-77.1-38.4-120.6-38.4C186.4,92.5,92.9,186,92.9,301c0,115,93.5,208.5,208.5,208.5c114.9,0,208.4-93.5,208.4-208.5
		c0-31.9-7-62.4-20.8-90.9l1.8-0.9c13.9,28.7,21,59.6,21,91.7C511.8,417.1,417.4,511.5,301.4,511.5z"/>
	
		<path fill="none" stroke="#FFFFFF" stroke-width="1.6943" stroke-linecap="round" stroke-linejoin="round" stroke-miterlimit="10" d="
		M489.9,209.7c13.4,27.6,20.9,58.6,20.9,91.3c0,115.7-93.8,209.5-209.4,209.5c-115.7,0-209.5-93.8-209.5-209.5
		c0-115.7,93.8-209.5,209.5-209.5c45.2,0,87,14.3,121.2,38.6"/>
	<g>
		<g>
			
				<path fill="none" stroke="#FFFFFF" stroke-width="1.6943" stroke-linecap="round" stroke-linejoin="round" stroke-miterlimit="10" d="
				M272.7,410.5l9-34.5c-4.4-0.8-8.5-1.6-12.7-2.9l-9,34.4l-24.8-5.6l9-34.6c-1.6-0.4-3.3-0.9-4.9-1.4c-2.6-0.7-5.3-1.5-7.7-2
				l-29.9-7.7l11.6-27.4l16.5,4.3l0.1,0c1,0.4,1.9,0.6,2.7,0.6c3.2,0,4.4-3.1,4.7-4l23.6-93.9c-0.1-5.2-2.6-8.2-7.9-9.5l0,0.1
				c0,0-0.5-0.2-0.5-0.2l-0.9-0.2l0-0.1c-1.9-0.5-8.2-2.1-13.9-3.5l-2-0.5l6.7-26.6l30.3,7.6c2.3,0.4,4.6,0.9,6.8,1.4
				c1.7,0.4,3.3,0.7,5,1l10-33.6l24.8,5.6l-9,33.5c2,0.4,4,0.9,5.9,1.4c2.2,0.6,4.4,1.2,6.7,1.6l8.1-33.7l24.8,5.6l-9.1,34.8
				c31.9,11.2,45.2,27.1,41.8,49.9c-3,19.6-14,27.1-23.5,29.9c18.6,11.5,23.7,28.2,15.7,51c-7.6,22.4-23,32.8-48.5,32.8
				c-7.5,0-16-0.9-25.8-2.8l-9,34.7L272.7,410.5z M277.3,344.5c1.2,0.3,2.5,0.6,3.9,0.9c8.1,1.9,20.4,4.8,31.3,4.8
				c13.9,0,21.8-4.5,24.4-13.8c1.2-4.8,0.5-9.2-1.9-13.2c-8.3-13.1-33.9-18.3-46.3-20.8l-0.6-0.1L277.3,344.5z M295.6,278.2
				c6.9,1.8,17.3,4.5,26.8,4.5c12,0,18.9-4.2,21-12.9c1.2-4.8,0.6-9.2-1.8-12.9c-7.3-11.1-28.3-14.9-37.9-16.5l-9.9,37.5
				C294.4,277.9,295,278,295.6,278.2z"/>
			
				<path fill="none" stroke="#FFFFFF" stroke-width="1.6943" stroke-linecap="round" stroke-linejoin="round" stroke-miterlimit="10" d="
				M274,409.7l9-34.6c-4.9-0.9-9.6-1.7-14.7-3.3l-9,34.5l-22.9-5.1l9-34.6c-1.9-0.5-4-1-5.9-1.6c-2.6-0.7-5.3-1.5-7.7-2l-28.7-7.4
				l10.8-25.6l15.6,4l0.1,0c1.1,0.4,2.1,0.6,3,0.6c3.8,0,5.3-3.6,5.6-4.7l23.7-94.1c0-5.9-3.1-9.4-9.2-10.7l0.1-0.6l-0.3,0.5
				c-0.7-0.3-9.3-2.4-14.5-3.7l-1-0.2l6.2-24.6l29.4,7.3c2.3,0.4,4.6,0.9,6.8,1.4c2,0.4,3.9,0.8,5.9,1.2l10-33.6l22.8,5.1l-9,33.6
				c2.4,0.5,4.7,1.1,6.9,1.7c2.5,0.7,5.1,1.3,7.7,1.8l8.1-33.7l22.9,5.1l-9,34.7c32,11,45.3,26.6,42,49.1
				c-3.1,20.3-14.8,27.4-25.1,29.6c19.8,11.3,25.4,28,17.3,51c-7.4,22-22.6,32.2-47.6,32.2c0,0,0,0,0,0c-7.7,0-16.4-1-26.5-2.9
				l-9,34.6L274,409.7z M276,345.2c1.4,0.3,3.1,0.7,4.9,1.1c8.2,1.9,20.5,4.9,31.5,4.9c14.4,0,22.7-4.7,25.4-14.5
				c1.3-5.1,0.6-9.8-2.1-14c-8.5-13.4-34.4-18.7-46.9-21.3c-0.5-0.1-1.1-0.2-1.5-0.3L276,345.2z M292.6,278.5
				c0.8,0.2,1.8,0.4,2.8,0.7c6.9,1.8,17.4,4.5,27.1,4.5c12.6,0,19.8-4.5,22-13.7c1.3-5.1,0.6-9.7-2-13.7
				c-7.6-11.7-29.6-15.5-39.1-17.1l-0.4-0.1L292.6,278.5z"/>
			
				<path fill="none" stroke="#FFFFFF" stroke-width="1.6943" stroke-linecap="round" stroke-linejoin="round" stroke-miterlimit="10" d="
				M274,409.7l9-34.6c-4.9-0.9-9.6-1.7-14.7-3.3l-9,34.5l-22.9-5.1l9-34.6c-1.9-0.5-4-1-5.9-1.6c-2.6-0.7-5.3-1.5-7.7-2l-28.7-7.4
				l10.8-25.6l15.6,4l0.1,0c1.1,0.4,2.1,0.6,3,0.6c3.8,0,5.3-3.6,5.6-4.7l23.7-94.1c0-5.9-3.1-9.4-9.2-10.7l0.1-0.6l-0.3,0.5
				c-0.7-0.3-9.3-2.4-14.5-3.7l-1-0.2l6.2-24.6l29.4,7.3c2.3,0.4,4.6,0.9,6.8,1.4c2,0.4,3.9,0.8,5.9,1.2l10-33.6l22.8,5.1l-9,33.6
				c2.4,0.5,4.7,1.1,6.9,1.7c2.5,0.7,5.1,1.3,7.7,1.8l8.1-33.7l22.9,5.1l-9,34.7c32,11,45.3,26.6,42,49.1
				c-3.1,20.3-14.8,27.4-25.1,29.6c19.8,11.3,25.4,28,17.3,51c-7.4,22-22.6,32.2-47.6,32.2c0,0,0,0,0,0c-7.7,0-16.4-1-26.5-2.9
				l-9,34.6L274,409.7z M276,345.2c1.4,0.3,3.1,0.7,4.9,1.1c8.2,1.9,20.5,4.9,31.5,4.9c14.4,0,22.7-4.7,25.4-14.5
				c1.3-5.1,0.6-9.8-2.1-14c-8.5-13.4-34.4-18.7-46.9-21.3c-0.5-0.1-1.1-0.2-1.5-0.3L276,345.2z M292.6,278.5
				c0.8,0.2,1.8,0.4,2.8,0.7c6.9,1.8,17.4,4.5,27.1,4.5c12.6,0,19.8-4.5,22-13.7c1.3-5.1,0.6-9.7-2-13.7
				c-7.6-11.7-29.6-15.5-39.1-17.1l-0.4-0.1L292.6,278.5z"/>
			
				<path fill="none" stroke="#FFFFFF" stroke-width="1.6943" stroke-linecap="round" stroke-linejoin="round" stroke-miterlimit="10" d="
				M386.7,270.2c3.8-25.6-15.6-39.3-42.2-48.3l9-34.6l-20.9-4.7l-8.1,33.6c-5.7-0.9-10.9-2.8-16.6-3.8l9-33.6l-20.9-4.7l-10,33.6
				c-4.7-0.9-9-1.9-13.7-2.8l0,0l-28.4-7.1l-5.7,22.7c0,0,15.6,3.8,14.7,3.8c9,1.9,10,8.1,10,11.8l-23.7,94.3
				c-0.9,2.8-3.8,7.1-10,4.7l-14.7-3.8l-10,23.7l27.5,7.1c4.7,0.9,10,2.8,14.7,3.8l-9,34.6l20.9,4.7l9-34.6
				c5.7,1.9,10.9,2.8,16.6,3.8l-9,34.6l20.9,4.7l9-34.6c35.5,7.1,63,3.8,73.9-28.4c9-25.6,0-41.2-19.4-51.2
				C372.9,297.7,383.8,289.1,386.7,270.2z M338.8,337c-7.1,25.6-50.2,11.8-64,9l11.8-46C300.4,302.9,345.4,310.5,338.8,337z
				 M345.4,270.2c-5.7,23.7-42.2,11.8-54,9l10.9-41.2C313.2,239.9,351.6,245.5,345.4,270.2z"/>
		</g>
	</g>
	
		<path fill="none" stroke="#FFFFFF" stroke-width="1.6943" stroke-linecap="round" stroke-linejoin="round" stroke-miterlimit="10" d="
		M301.4,471.2c-93.8,0-170.2-76.4-170.2-170.2s76.4-170.2,170.2-170.2c36.4,0,71.2,11.4,100.6,32.9l0.8,0.6l-2.4,3.2l-0.8-0.6
		c-28.7-21-62.7-32.1-98.2-32.1c-91.6,0-166.2,74.6-166.2,166.2c0,91.6,74.6,166.2,166.2,166.2c91.6,0,166.2-74.6,166.2-166.2
		c0-26.4-5.9-51.5-17.7-74.7l-0.5-0.9l3.6-1.8l0.5,0.9c12,23.7,18.1,49.5,18.1,76.5C471.6,394.8,395.2,471.2,301.4,471.2z"/>
	
		<path fill="none" stroke="#FFFFFF" stroke-width="1.6943" stroke-linecap="round" stroke-linejoin="round" stroke-miterlimit="10" d="
		M301.4,470.2c-93.3,0-169.2-75.9-169.2-169.2c0-93.3,75.9-169.2,169.2-169.2c36.2,0,70.7,11.3,100,32.7l-1.2,1.6
		c-28.9-21.1-63.1-32.3-98.8-32.3c-92.2,0-167.2,75-167.2,167.2s75,167.2,167.2,167.2s167.2-75,167.2-167.2c0-26.6-6-51.8-17.8-75.1
		l1.8-0.9c11.9,23.6,18,49.2,18,76.1C470.6,394.3,394.7,470.2,301.4,470.2z"/>
	
		<path fill="none" stroke="#FFFFFF" stroke-width="1.6943" stroke-linecap="round" stroke-linejoin="round" stroke-miterlimit="10" d="
		M301.4,470.2c-93.3,0-169.2-75.9-169.2-169.2c0-93.3,75.9-169.2,169.2-169.2c36.2,0,70.7,11.3,100,32.7l-1.2,1.6
		c-28.9-21.1-63.1-32.3-98.8-32.3c-92.2,0-167.2,75-167.2,167.2s75,167.2,167.2,167.2s167.2-75,167.2-167.2c0-26.6-6-51.8-17.8-75.1
		l1.8-0.9c11.9,23.6,18,49.2,18,76.1C470.6,394.3,394.7,470.2,301.4,470.2z"/>
	
		<path fill="none" stroke="#FFFFFF" stroke-width="1.6943" stroke-linecap="round" stroke-linejoin="round" stroke-miterlimit="10" d="
		M451.7,225.4c11.5,22.7,17.9,48.4,17.9,75.6c0,92.9-75.3,168.2-168.2,168.2S133.2,393.9,133.2,301s75.3-168.2,168.2-168.2
		c37.2,0,71.5,12.1,99.4,32.5"/>
</g>
<path fill="none" stroke="#FFFFFF" stroke-width="1.6943" stroke-linecap="round" stroke-linejoin="round" stroke-miterlimit="10" d="
	M452.5,227.4c-30,0-54.4-24.4-54.4-54.4s24.4-54.4,54.4-54.4s54.4,24.4,54.4,54.4S482.5,227.4,452.5,227.4z"/>
<path fill="none" stroke="#FFFFFF" stroke-width="1.6943" stroke-linecap="round" stroke-linejoin="round" stroke-miterlimit="10" d="
	M452.5,226.4c-29.4,0-53.4-24-53.4-53.4s24-53.4,53.4-53.4s53.4,24,53.4,53.4S481.9,226.4,452.5,226.4z"/>
<path fill="none" stroke="#FFFFFF" stroke-width="1.6943" stroke-linecap="round" stroke-linejoin="round" stroke-miterlimit="10" d="
	M452.5,226.4c-29.4,0-53.4-24-53.4-53.4s24-53.4,53.4-53.4s53.4,24,53.4,53.4S481.9,226.4,452.5,226.4z"/>
<circle fill="none" stroke="#FFFFFF" stroke-width="1.6943" stroke-linecap="round" stroke-linejoin="round" stroke-miterlimit="10" cx="452.5" cy="173" r="52.4"/>
<g>
	<path fill="#FFFFFF" d="M468.2,172.1c-2.1-2.6-5.1-4.3-9.1-5l10.5-11.9v-8.2h-31.7v10h18.8l-12.9,13.2l3,4.7
		c0.5-0.2,1.2-0.4,2.1-0.6c0.9-0.2,1.8-0.3,2.8-0.3c2.7,0,4.7,0.7,6,2.2c1.2,1.4,1.9,3.1,1.9,5c0,2.4-0.8,4.3-2.4,5.6
		c-1.6,1.3-3.7,2-6.1,2c-2.1,0-4-0.4-5.7-1.2c-1.7-0.8-3.4-1.9-5.1-3.3l-6.2,8.2c2.1,1.9,4.7,3.5,7.6,4.6c3,1.1,6.3,1.7,10.1,1.7
		c2.6,0,5-0.4,7.4-1.1c2.4-0.7,4.5-1.8,6.3-3.2c1.8-1.4,3.3-3.2,4.4-5.2c1.1-2.1,1.7-4.5,1.7-7.1C471.3,178,470.2,174.7,468.2,172.1
		z M467,187.7c-0.9,1.7-2.1,3.1-3.6,4.3c-1.5,1.2-3.3,2.1-5.3,2.8c-2.1,0.7-4.3,1-6.5,1c-3.4,0-6.4-0.5-9-1.5
		c-1.6-0.6-3.2-1.4-4.5-2.3l2.6-3.4c1.1,0.7,2.2,1.4,3.3,1.8c2.1,1,4.5,1.4,7,1.4c3.2,0,5.9-0.9,8-2.7c2.3-1.9,3.5-4.6,3.5-7.9
		c0-2.6-0.9-4.9-2.6-6.9c-1.8-2.1-4.6-3.2-8.2-3.2c-1.2,0-2.4,0.1-3.5,0.3c0,0-0.1,0-0.1,0l-0.5-0.8l16.2-16.6h-22.9v-4h25.7v4.1
		l-13.2,15l5.2,1c3.3,0.6,5.7,1.9,7.3,4c1.6,2.1,2.5,4.7,2.5,8C468.3,184.2,467.8,186,467,187.7z"/>
</g>
</svg>
