<?xml version="1.0" encoding="utf-8"?>
<!-- Generator: Adobe Illustrator 18.1.1, SVG Export Plug-In . SVG Version: 6.00 Build 0)  -->
<!DOCTYPE svg PUBLIC "-//W3C//DTD SVG 1.1//EN" "http://www.w3.org/Graphics/SVG/1.1/DTD/svg11.dtd">
<svg version="1.1" id="Layer_1" xmlns="http://www.w3.org/2000/svg" xmlns:xlink="http://www.w3.org/1999/xlink" x="0px" y="0px"
	 width="300px" height="300px" viewBox="0 0 300 300" enable-background="new 0 0 300 300" xml:space="preserve">
<path fill="#5FA9DD" d="M297.3,58.6c-10.8,4.8-22.5,8.1-34.7,9.5c12.5-7.5,22.1-19.3,26.6-33.4c-11.7,6.9-24.6,12-38.4,14.7
	c-11-11.7-26.7-19.1-44.1-19.1c-33.4,0-60.4,27.1-60.4,60.4c0,4.7,0.5,9.4,1.6,13.8C97.5,102,53,77.9,23.2,41.3
	C18,50.3,15,60.7,15,71.7c0,21,10.7,39.5,26.9,50.3c-9.9-0.3-19.2-3-27.4-7.6c0,0.3,0,0.5,0,0.8c0,29.3,20.8,53.7,48.5,59.3
	c-5.1,1.4-10.4,2.1-15.9,2.1c-3.9,0-7.7-0.4-11.4-1.1c7.7,24,30,41.5,56.5,42c-20.7,16.2-46.8,25.9-75.1,25.9
	c-4.9,0-9.7-0.3-14.4-0.8c26.8,17.2,58.5,27.2,92.7,27.2c111.2,0,172-92.1,172-172c0-2.6-0.1-5.2-0.2-7.8
	C279,81.4,289.2,70.7,297.3,58.6z"/>
</svg>
