<?xml version="1.0" encoding="utf-8"?>
<!-- Generator: Adobe Illustrator 18.1.1, SVG Export Plug-In . SVG Version: 6.00 Build 0)  -->
<!DOCTYPE svg PUBLIC "-//W3C//DTD SVG 1.1//EN" "http://www.w3.org/Graphics/SVG/1.1/DTD/svg11.dtd">
<svg version="1.1" id="Layer_1" xmlns="http://www.w3.org/2000/svg" xmlns:xlink="http://www.w3.org/1999/xlink" x="0px" y="0px"
	 width="132.5px" height="223.5px" viewBox="0 0 132.5 223.5" enable-background="new 0 0 132.5 223.5" xml:space="preserve">
<g>
	<g>
		<circle fill="none" stroke="#FFFFFF" stroke-width="2" stroke-miterlimit="10" cx="66" cy="69.9" r="31.5"/>
		<g>
			<g>
				<path fill="none" stroke="#FFFFFF" stroke-width="1.8329" stroke-miterlimit="10" d="M78.8,65.4c0.6-3.8-2.3-5.9-6.3-7.2
					l1.3-5.2l-3.1-0.8l-1.3,5c-0.8-0.2-1.7-0.4-2.5-0.6l1.3-5.1l-3.1-0.8l-1.3,5.2c-0.7-0.2-1.4-0.3-2-0.5l0,0l-4.3-1.1l-0.8,3.4
					c0,0,2.3,0.5,2.3,0.6c1.3,0.3,1.5,1.2,1.5,1.8L58.8,66c0.1,0,0.2,0.1,0.3,0.1c-0.1,0-0.2-0.1-0.3-0.1l-2.1,8.2
					c-0.2,0.4-0.6,1-1.4,0.7c0,0-2.3-0.6-2.3-0.6L51.4,78l4.1,1c0.8,0.2,1.5,0.4,2.2,0.6l-1.3,5.2l3.1,0.8l1.3-5.2
					c0.9,0.2,1.7,0.4,2.5,0.7l-1.3,5.1l3.1,0.8l1.3-5.2c5.4,1,9.4,0.6,11.1-4.2c1.4-3.9-0.1-6.2-2.9-7.6
					C76.8,69.5,78.3,68.2,78.8,65.4z M71.6,75.4c-1,3.9-7.5,1.8-9.7,1.3l1.7-6.9C65.8,70.3,72.6,71.4,71.6,75.4z M72.5,65.3
					c-0.9,3.6-6.4,1.7-8.1,1.3l1.6-6.3C67.8,60.8,73.5,61.6,72.5,65.3z"/>
			</g>
		</g>
		<circle fill="none" stroke="#FFFFFF" stroke-width="1.6032" stroke-miterlimit="10" cx="66" cy="69.9" r="25.2"/>
	</g>
	<g>
		<path fill="none" stroke="#FFFFFF" stroke-width="2" stroke-miterlimit="10" d="M127.1,186.6v26.8c0,5-4,9-9,9H11.4c-5,0-9-4-9-9
			v-91"/>
		<path fill="none" stroke="#FFFFFF" stroke-width="2" stroke-miterlimit="10" d="M122.7,130.3v-5.2c0-5-4-9-9-9H9.2
			c0,0-6.8-0.6-6.8,6.1s6.2,6.8,6.2,6.8l1.1,0h108.4c5,0,9,4,9,9v29.7"/>
		<g>
			<g>
				<line fill="none" stroke="#FFFFFF" stroke-width="2" stroke-miterlimit="10" x1="121.1" y1="167.9" x2="121.1" y2="165.9"/>
				<path fill="none" stroke="#FFFFFF" stroke-width="2" stroke-miterlimit="10" stroke-dasharray="4.0013,3.001" d="M121.1,162.9
					v-17.2c0-5.7-4.6-10.3-10.3-10.3H5.6"/>
				<line fill="none" stroke="#FFFFFF" stroke-width="2" stroke-miterlimit="10" x1="4.1" y1="135.5" x2="2.1" y2="135.5"/>
			</g>
		</g>
		<g>
			<g>
				<line fill="none" stroke="#FFFFFF" stroke-width="2" stroke-miterlimit="10" x1="3.1" y1="215.5" x2="5.1" y2="215.5"/>
				<path fill="none" stroke="#FFFFFF" stroke-width="2" stroke-miterlimit="10" stroke-dasharray="4.061,3.0458" d="M8.1,215.5
					h102.6c5.7,0,10.3-4.6,10.3-10.3v-14.7"/>
				<line fill="none" stroke="#FFFFFF" stroke-width="2" stroke-miterlimit="10" x1="121.1" y1="188.9" x2="121.1" y2="186.9"/>
			</g>
		</g>
		<path fill="none" stroke="#FFFFFF" stroke-width="2" stroke-miterlimit="10" d="M130.4,186.4h-18.7c-5.1,0-9.2-4.1-9.2-9.2v0
			c0-5.1,4.1-9.2,9.2-9.2h18.7V186.4z"/>
		<circle fill="none" stroke="#FFFFFF" stroke-width="2" stroke-miterlimit="10" cx="111.9" cy="177.1" r="5.3"/>
		<path fill="none" stroke="#FFFFFF" stroke-width="2" stroke-miterlimit="10" d="M117,128v-2H10.4c0,0-3.5,0-3.5-3.8
			c0-3.8,5.2-3.2,8.7-3.2s98.4,0,98.4,0v7"/>
		<line fill="none" stroke="#FFFFFF" stroke-width="2" stroke-miterlimit="10" x1="114" y1="123" x2="7" y2="123"/>
	</g>
	<g>
		<line fill="none" stroke="#FFFFFF" stroke-width="2" stroke-miterlimit="10" x1="66" y1="29" x2="66" y2="1"/>
		<g>
			<line fill="none" stroke="#FFFFFF" stroke-width="2" stroke-miterlimit="10" x1="78" y1="35" x2="78" y2="7"/>
			<line fill="none" stroke="#FFFFFF" stroke-width="2" stroke-miterlimit="10" x1="54" y1="35" x2="54" y2="7"/>
		</g>
	</g>
</g>
</svg>
